<?xml version="1.0" encoding="UTF-8" standalone="no"?>
<!-- Created with Inkscape (http://www.inkscape.org/) -->

<svg
   width="33.565037mm"
   height="43.102474mm"
   viewBox="0 0 33.565037 43.102474"
   version="1.1"
   id="svg1"
   xmlns:inkscape="http://www.inkscape.org/namespaces/inkscape"
   xmlns:sodipodi="http://sodipodi.sourceforge.net/DTD/sodipodi-0.dtd"
   xmlns:xlink="http://www.w3.org/1999/xlink"
   xmlns="http://www.w3.org/2000/svg"
   xmlns:svg="http://www.w3.org/2000/svg">
  <sodipodi:namedview
     id="namedview1"
     pagecolor="#ffffff"
     bordercolor="#000000"
     borderopacity="0.25"
     inkscape:showpageshadow="2"
     inkscape:pageopacity="0.0"
     inkscape:pagecheckerboard="0"
     inkscape:deskcolor="#d1d1d1"
     inkscape:document-units="mm" />
  <defs
     id="defs1">
    <clipPath
       id="SVGID_00000135653536427931744300000006670301388534064772_">&#10;				<use
   xlink:href="#SVGID_00000001643822737026404590000013642230952533215417_"
   style="overflow:visible"
   id="use96" />
&#10;			</clipPath>
    <rect
       id="SVGID_00000001643822737026404590000013642230952533215417_"
       x="60.006001"
       y="103.799"
       width="101.558"
       height="135.57001" />
  </defs>
  <g
     inkscape:label="Layer 1"
     inkscape:groupmode="layer"
     id="layer1"
     transform="translate(-130.43958,-141.81666)">
    <g
       id="g165"
       transform="matrix(0.26458333,0,0,0.26458333,117.91024,117.96951)">&#10;		<g
   id="g95">&#10;			<rect
   x="49.436001"
   y="92.209999"
   style="fill:#dee4ca"
   width="122.699"
   height="158.748"
   id="rect94" />
&#10;			<path
   style="fill:#6a6a61"
   d="M 174.215,253.038 H 47.355 V 90.131 h 126.859 v 162.907 z m -122.7,-4.16 h 118.54 V 94.29 H 51.515 Z"
   id="path94" />
&#10;		</g>
&#10;		<g
   id="g96">&#10;			<rect
   x="60.006001"
   y="103.799"
   style="fill:#8ab7a1"
   width="101.558"
   height="135.57001"
   id="rect95" />
&#10;			<path
   style="fill:#6a6a61"
   d="M 163.124,240.929 H 58.446 V 102.24 h 104.678 z m -101.558,-3.12 h 98.438 V 105.359 H 61.566 Z"
   id="path95" />
&#10;		</g>
&#10;		<g
   id="g152">&#10;			<defs
   id="defs96" />
&#10;			<clipPath
   id="clipPath1">&#10;				<use
   xlink:href="#SVGID_00000001643822737026404590000013642230952533215417_"
   style="overflow:visible"
   id="use1" />
&#10;			</clipPath>
&#10;			<g
   clip-path="url(#SVGID_00000135653536427931744300000006670301388534064772_)"
   id="g151">&#10;				<g
   style="opacity:0.1"
   id="g118">&#10;					<g
   id="g101">&#10;						&#10;							<rect
   x="74.585999"
   y="85.249001"
   transform="matrix(0.7071,-0.7071,0.7071,0.7071,-41.303,84.6355)"
   style="fill:#344e5d"
   width="13.852"
   height="13.851"
   id="rect96" />
&#10;						&#10;							<rect
   x="94.176003"
   y="85.248001"
   transform="matrix(0.7071,-0.7071,0.7071,0.7071,-35.5657,98.4811)"
   style="fill:#344e5d"
   width="13.852"
   height="13.853"
   id="rect97" />
&#10;						&#10;							<rect
   x="94.176003"
   y="104.839"
   transform="matrix(0.7071,-0.7071,0.7071,0.7071,-49.4172,104.2214)"
   style="fill:#344e5d"
   width="13.852"
   height="13.852"
   id="rect98" />
&#10;						&#10;							<rect
   x="113.766"
   y="104.839"
   transform="matrix(0.7071,-0.7071,0.7071,0.7071,-43.68,118.0722)"
   style="fill:#344e5d"
   width="13.852"
   height="13.852"
   id="rect99" />
&#10;						&#10;							<rect
   x="113.766"
   y="124.429"
   transform="matrix(0.7071,-0.7071,0.7071,0.7071,-57.5317,123.8149)"
   style="fill:#344e5d"
   width="13.852"
   height="13.852"
   id="rect100" />
&#10;						&#10;							<rect
   x="133.355"
   y="124.428"
   transform="matrix(0.7071,-0.7071,0.7071,0.7071,-51.7939,137.6725)"
   style="fill:#344e5d"
   width="13.852"
   height="13.852"
   id="rect101" />
&#10;					</g>
&#10;					<g
   id="g108">&#10;						&#10;							<rect
   x="54.727001"
   y="84.978996"
   transform="matrix(0.7071,-0.7071,0.7071,0.7071,-46.9288,70.5137)"
   style="fill:#344e5d"
   width="13.852"
   height="13.852"
   id="rect102" />
&#10;						&#10;							<rect
   x="54.969002"
   y="104.811"
   transform="matrix(0.7071,-0.7071,0.7071,0.7071,-60.8807,76.4928)"
   style="fill:#344e5d"
   width="13.852"
   height="13.851"
   id="rect103" />
&#10;						&#10;							<rect
   x="74.558998"
   y="104.81"
   transform="matrix(0.7071,-0.7071,0.7071,0.7071,-55.1442,90.3515)"
   style="fill:#344e5d"
   width="13.852"
   height="13.853"
   id="rect104" />
&#10;						&#10;							<rect
   x="74.558998"
   y="124.4"
   transform="matrix(0.7071,-0.7071,0.7071,0.7071,-68.9963,96.0878)"
   style="fill:#344e5d"
   width="13.852"
   height="13.852"
   id="rect105" />
&#10;						&#10;							<rect
   x="94.148003"
   y="124.4"
   transform="matrix(0.7071,-0.7071,0.7071,0.7071,-63.2571,109.9307)"
   style="fill:#344e5d"
   width="13.852"
   height="13.852"
   id="rect106" />
&#10;						&#10;							<rect
   x="94.148003"
   y="143.99001"
   transform="matrix(0.7071,-0.7071,0.7071,0.7071,-77.1086,115.6679)"
   style="fill:#344e5d"
   width="13.852"
   height="13.852"
   id="rect107" />
&#10;						&#10;							<rect
   x="113.738"
   y="143.99001"
   transform="matrix(0.7071,-0.7071,0.7071,0.7071,-71.3719,129.5254)"
   style="fill:#344e5d"
   width="13.852"
   height="13.852"
   id="rect108" />
&#10;					</g>
&#10;					<g
   id="g113">&#10;						&#10;							<rect
   x="54.941002"
   y="124.371"
   transform="matrix(0.7071,-0.7071,0.7071,0.7071,-74.7224,82.2064)"
   style="fill:#344e5d"
   width="13.852"
   height="13.853"
   id="rect109" />
&#10;						&#10;							<rect
   x="54.942001"
   y="143.96201"
   transform="matrix(0.7071,-0.7071,0.7071,0.7071,-88.5746,87.9448)"
   style="fill:#344e5d"
   width="13.852"
   height="13.852"
   id="rect110" />
&#10;						&#10;							<rect
   x="74.530998"
   y="143.96201"
   transform="matrix(0.7071,-0.7071,0.7071,0.7071,-82.8355,101.7926)"
   style="fill:#344e5d"
   width="13.852"
   height="13.852"
   id="rect111" />
&#10;						&#10;							<rect
   x="74.530998"
   y="163.55099"
   transform="matrix(0.7071,-0.7071,0.7071,0.7071,-96.6858,107.5257)"
   style="fill:#344e5d"
   width="13.852"
   height="13.852"
   id="rect112" />
&#10;						&#10;							<rect
   x="94.121002"
   y="163.55099"
   transform="matrix(0.7071,-0.7071,0.7071,0.7071,-90.9484,121.3773)"
   style="fill:#344e5d"
   width="13.852"
   height="13.852"
   id="rect113" />
&#10;					</g>
&#10;					<g
   id="g116">&#10;						&#10;							<rect
   x="54.914001"
   y="163.52299"
   transform="matrix(0.7071,-0.7071,0.7071,0.7071,-102.4154,93.6548)"
   style="fill:#344e5d"
   width="13.852"
   height="13.852"
   id="rect114" />
&#10;						&#10;							<rect
   x="54.914001"
   y="183.11301"
   transform="matrix(0.7071,-0.7071,0.7071,0.7071,-116.2698,99.3973)"
   style="fill:#344e5d"
   width="13.852"
   height="13.852"
   id="rect115" />
&#10;						&#10;							<rect
   x="74.502998"
   y="183.11301"
   transform="matrix(0.7071,-0.7071,0.7071,0.7071,-110.5276,113.24)"
   style="fill:#344e5d"
   width="13.852"
   height="13.852"
   id="rect116" />
&#10;					</g>
&#10;					<g
   id="g117">&#10;						&#10;							<rect
   x="54.884998"
   y="202.674"
   transform="matrix(0.7071,-0.7071,0.7071,0.7071,-130.1055,105.0978)"
   style="fill:#344e5d"
   width="13.852"
   height="13.852"
   id="rect117" />
&#10;					</g>
&#10;				</g>
&#10;				<g
   style="opacity:0.1"
   id="g150">&#10;					<g
   id="g121">&#10;						&#10;							<rect
   x="133.355"
   y="144.01801"
   transform="matrix(0.7071,-0.7071,0.7071,0.7071,-65.6457,143.4)"
   style="fill:#344e5d"
   width="13.852"
   height="13.852"
   id="rect118" />
&#10;						&#10;							<rect
   x="133.597"
   y="163.85001"
   transform="matrix(0.7071,-0.7071,0.7071,0.7071,-79.5985,149.3895)"
   style="fill:#344e5d"
   width="13.852"
   height="13.851"
   id="rect119" />
&#10;						&#10;							<rect
   x="153.187"
   y="163.849"
   transform="matrix(0.7071,-0.7071,0.7071,0.7071,-73.8602,163.2298)"
   style="fill:#344e5d"
   width="13.852"
   height="13.853"
   id="rect120" />
&#10;						&#10;							<rect
   x="153.187"
   y="183.439"
   transform="matrix(0.7071,-0.7071,0.7071,0.7071,-87.7123,168.9724)"
   style="fill:#344e5d"
   width="13.852"
   height="13.852"
   id="rect121" />
&#10;					</g>
&#10;					<g
   id="g128">&#10;						&#10;							<rect
   x="152.83299"
   y="124.316"
   transform="matrix(0.7071,-0.7071,0.7071,0.7071,-46.01,151.4065)"
   style="fill:#344e5d"
   width="13.852"
   height="13.852"
   id="rect122" />
&#10;						&#10;							<rect
   x="153.075"
   y="144.14799"
   transform="matrix(0.7071,-0.7071,0.7071,0.7071,-59.962,157.385)"
   style="fill:#344e5d"
   width="13.852"
   height="13.851"
   id="rect123" />
&#10;						&#10;							<rect
   x="133.355"
   y="104.839"
   transform="matrix(0.7071,-0.7071,0.7071,0.7071,-37.9422,131.929)"
   style="fill:#344e5d"
   width="13.852"
   height="13.852"
   id="rect124" />
&#10;						&#10;							<rect
   x="152.83299"
   y="104.839"
   transform="matrix(0.7071,-0.7071,0.7071,0.7071,-32.2375,145.7007)"
   style="fill:#344e5d"
   width="13.852"
   height="13.852"
   id="rect125" />
&#10;						&#10;							<rect
   x="152.83299"
   y="85.249001"
   transform="matrix(0.7071,-0.7071,0.7071,0.7071,-18.3862,139.9593)"
   style="fill:#344e5d"
   width="13.852"
   height="13.852"
   id="rect126" />
&#10;						&#10;							<rect
   x="113.766"
   y="85.249001"
   transform="matrix(0.7071,-0.7071,0.7071,0.7071,-29.8286,112.3314)"
   style="fill:#344e5d"
   width="13.852"
   height="13.852"
   id="rect127" />
&#10;						&#10;							<rect
   x="133.327"
   y="85.249001"
   transform="matrix(0.7071,-0.7071,0.7071,0.7071,-24.0988,126.1672)"
   style="fill:#344e5d"
   width="13.852"
   height="13.852"
   id="rect128" />
&#10;					</g>
&#10;					<g
   id="g134">&#10;						&#10;							<rect
   x="113.738"
   y="163.57899"
   transform="matrix(0.7071,-0.7071,0.7071,0.7071,-85.2248,135.2684)"
   style="fill:#344e5d"
   width="13.852"
   height="13.852"
   id="rect129" />
&#10;						&#10;							<rect
   x="113.98"
   y="183.411"
   transform="matrix(0.7071,-0.7071,0.7071,0.7071,-99.1747,141.2372)"
   style="fill:#344e5d"
   width="13.852"
   height="13.851"
   id="rect130" />
&#10;						&#10;							<rect
   x="133.57001"
   y="183.41"
   transform="matrix(0.7071,-0.7071,0.7071,0.7071,-93.4381,155.0935)"
   style="fill:#344e5d"
   width="13.852"
   height="13.853"
   id="rect131" />
&#10;						&#10;							<rect
   x="133.57001"
   y="203"
   transform="matrix(0.7071,-0.7071,0.7071,0.7071,-107.2914,160.8379)"
   style="fill:#344e5d"
   width="13.852"
   height="13.852"
   id="rect132" />
&#10;						&#10;							<rect
   x="153.159"
   y="203.00101"
   transform="matrix(0.7071,-0.7071,0.7071,0.7071,-101.5518,174.678)"
   style="fill:#344e5d"
   width="13.852"
   height="13.852"
   id="rect133" />
&#10;						&#10;							<rect
   x="153.159"
   y="222.59"
   transform="matrix(0.7071,-0.7071,0.7071,0.7071,-115.4047,180.4224)"
   style="fill:#344e5d"
   width="13.852"
   height="13.852"
   id="rect134" />
&#10;					</g>
&#10;					<g
   id="g141">&#10;						&#10;							<rect
   x="94.121002"
   y="183.14101"
   transform="matrix(0.7071,-0.7071,0.7071,0.7071,-104.7999,127.1145)"
   style="fill:#344e5d"
   width="13.852"
   height="13.852"
   id="rect135" />
&#10;						&#10;							<rect
   x="94.362999"
   y="202.97301"
   transform="matrix(0.7071,-0.7071,0.7071,0.7071,-118.7537,133.0993)"
   style="fill:#344e5d"
   width="13.852"
   height="13.851"
   id="rect136" />
&#10;						&#10;							<rect
   x="113.952"
   y="202.97099"
   transform="matrix(0.7071,-0.7071,0.7071,0.7071,-113.0189,146.9619)"
   style="fill:#344e5d"
   width="13.852"
   height="13.853"
   id="rect137" />
&#10;						&#10;							<rect
   x="113.952"
   y="222.562"
   transform="matrix(0.7071,-0.7071,0.7071,0.7071,-126.8679,152.6893)"
   style="fill:#344e5d"
   width="13.852"
   height="13.852"
   id="rect138" />
&#10;						&#10;							<rect
   x="133.54201"
   y="222.562"
   transform="matrix(0.7071,-0.7071,0.7071,0.7071,-121.1288,166.5343)"
   style="fill:#344e5d"
   width="13.852"
   height="13.852"
   id="rect139" />
&#10;						&#10;							<rect
   x="133.54201"
   y="242.151"
   transform="matrix(0.7071,-0.7071,0.7071,0.7071,-134.9799,172.2702)"
   style="fill:#344e5d"
   width="13.852"
   height="13.852"
   id="rect140" />
&#10;						&#10;							<rect
   x="153.131"
   y="242.151"
   transform="matrix(0.7071,-0.7071,0.7071,0.7071,-129.2426,186.1216)"
   style="fill:#344e5d"
   width="13.852"
   height="13.852"
   id="rect141" />
&#10;					</g>
&#10;					<g
   id="g146">&#10;						&#10;							<rect
   x="74.502998"
   y="202.702"
   transform="matrix(0.7071,-0.7071,0.7071,0.7071,-124.3791,118.9766)"
   style="fill:#344e5d"
   width="13.852"
   height="13.852"
   id="rect142" />
&#10;						&#10;							<rect
   x="74.745003"
   y="222.534"
   transform="matrix(0.7071,-0.7071,0.7071,0.7071,-138.3341,124.9627)"
   style="fill:#344e5d"
   width="13.852"
   height="13.85"
   id="rect143" />
&#10;						&#10;							<rect
   x="94.334"
   y="222.533"
   transform="matrix(0.7071,-0.7071,0.7071,0.7071,-132.594,138.8089)"
   style="fill:#344e5d"
   width="13.852"
   height="13.853"
   id="rect144" />
&#10;						&#10;							<rect
   x="94.334999"
   y="242.12399"
   transform="matrix(0.7071,-0.7071,0.7071,0.7071,-146.4453,144.5457)"
   style="fill:#344e5d"
   width="13.851"
   height="13.851"
   id="rect145" />
&#10;						&#10;							<rect
   x="113.924"
   y="242.123"
   transform="matrix(0.7071,-0.7071,0.7071,0.7071,-140.7124,158.411)"
   style="fill:#344e5d"
   width="13.852"
   height="13.852"
   id="rect146" />
&#10;					</g>
&#10;					<g
   id="g149">&#10;						&#10;							<rect
   x="54.886002"
   y="222.26401"
   transform="matrix(0.7071,-0.7071,0.7071,0.7071,-143.9603,110.8406)"
   style="fill:#344e5d"
   width="13.852"
   height="13.852"
   id="rect147" />
&#10;						&#10;							<rect
   x="55.126999"
   y="242.09599"
   transform="matrix(0.7071,-0.7071,0.7071,0.7071,-157.9061,116.8094)"
   style="fill:#344e5d"
   width="13.852"
   height="13.851"
   id="rect148" />
&#10;						&#10;							<rect
   x="74.717003"
   y="242.095"
   transform="matrix(0.7071,-0.7071,0.7071,0.7071,-152.1724,130.668)"
   style="fill:#344e5d"
   width="13.852"
   height="13.853"
   id="rect149" />
&#10;					</g>
&#10;				</g>
&#10;			</g>
&#10;		</g>
&#10;		<g
   id="g164">&#10;			<g
   id="g162">&#10;				<polygon
   style="fill:#5e5e55"
   points="83.507,114.11 89.302,123.822 82.013,130.343 148.511,141.472 148.511,125.144 "
   id="polygon152" />
&#10;				<polygon
   style="fill:#5e5e55"
   points="140.558,229.058 134.187,219.73 140.558,212.729 75.553,201.695 75.491,218.771 "
   id="polygon153" />
&#10;				<polygon
   style="fill:#5e5e55"
   points="70.504,158.924 155.67,168.677 155.67,150.06 73.596,139.419 "
   id="polygon154" />
&#10;				<polygon
   style="fill:#5e5e55"
   points="153.944,185.01 65.903,172.498 65.903,191.115 147.977,203.748 "
   id="polygon155" />
&#10;				<g
   id="g157">&#10;					<g
   id="g156">&#10;						<polygon
   style="fill:#6a6a61"
   points="155.67,172.533 65.9,191.119 65.9,168.649 155.67,150.063 "
   id="polygon156" />
&#10;					</g>
&#10;				</g>
&#10;				<g
   id="g159">&#10;					<g
   id="g158">&#10;						<polygon
   style="fill:#6a6a61"
   points="75.425,199.955 153.691,184.555 153.691,203.172 75.425,218.572 "
   id="polygon157" />
&#10;					</g>
&#10;				</g>
&#10;				<g
   id="g161">&#10;					<g
   id="g160">&#10;						<polygon
   style="fill:#6a6a61"
   points="148.511,143.404 70.246,158.805 70.246,140.186 148.511,124.787 "
   id="polygon159" />
&#10;					</g>
&#10;				</g>
&#10;			</g>
&#10;			&#10;				<text
   transform="matrix(0.9822,-0.1879,0.1879,0.9822,94.0849,148.6069)"
   style="font-size:12.945px;font-family:'Lobster1.3';fill:#ffffff"
   id="text162">Happy</text>
&#10;			&#10;				<text
   transform="matrix(0.9822,-0.1879,0.1879,0.9822,85.6658,180.5268)"
   style="font-size:12.945px;font-family:'Lobster1.3';fill:#ffffff"
   id="text163">St. Patrick’s</text>
&#10;			&#10;				<text
   transform="matrix(0.9822,-0.1879,0.1879,0.9822,107.2844,206.7105)"
   style="font-size:12.945px;font-family:'Lobster1.3';fill:#ffffff"
   id="text164">Day</text>
&#10;		</g>
&#10;	</g>
  </g>
</svg>
