<?xml version="1.0" encoding="UTF-8" standalone="no"?>
<!-- Created with Inkscape (http://www.inkscape.org/) -->

<svg
   width="33.564777mm"
   height="43.102474mm"
   viewBox="0 0 33.564777 43.102474"
   version="1.1"
   id="svg1"
   xmlns:inkscape="http://www.inkscape.org/namespaces/inkscape"
   xmlns:sodipodi="http://sodipodi.sourceforge.net/DTD/sodipodi-0.dtd"
   xmlns="http://www.w3.org/2000/svg"
   xmlns:svg="http://www.w3.org/2000/svg">
  <sodipodi:namedview
     id="namedview1"
     pagecolor="#ffffff"
     bordercolor="#000000"
     borderopacity="0.25"
     inkscape:showpageshadow="2"
     inkscape:pageopacity="0.0"
     inkscape:pagecheckerboard="0"
     inkscape:deskcolor="#d1d1d1"
     inkscape:document-units="mm" />
  <defs
     id="defs1" />
  <g
     inkscape:label="Layer 1"
     inkscape:groupmode="layer"
     id="layer1"
     transform="translate(-61.647916,-147.63749)">
    <g
       id="g274"
       transform="matrix(0.26458333,0,0,0.26458333,-60.66102,89.56093)">&#10;		&#10;		&#10;		&#10;	<g
   id="g378"
   transform="translate(414.914,-94.476003)">&#10;		<g
   id="g373">&#10;			<g
   id="g332">&#10;				<rect
   x="49.436001"
   y="316.05701"
   style="fill:#6a6a61"
   width="122.7"
   height="158.748"
   id="rect331" />
&#10;				<path
   style="fill:#526069"
   d="M 174.215,476.885 H 47.356 V 313.978 h 126.859 z m -122.7,-4.159 H 170.056 V 318.137 H 51.515 Z"
   id="path331" />
&#10;			</g>
&#10;			<g
   style="opacity:0.1"
   id="g366">&#10;				<g
   id="g333">&#10;					<rect
   x="50.801998"
   y="318.07999"
   style="fill:#dee4ca"
   width="1.653"
   height="154.17599"
   id="rect332" />
&#10;					<path
   style="fill:#6a6a61"
   d="M 52.975,472.776 H 50.283 V 317.56 h 2.692 z m -1.653,-1.04 h 0.613 V 318.6 h -0.613 z"
   id="path332" />
&#10;				</g>
&#10;				<g
   id="g334">&#10;					<rect
   x="54.521"
   y="318.08099"
   style="fill:#dee4ca"
   width="1.653"
   height="154.175"
   id="rect333" />
&#10;					<path
   style="fill:#6a6a61"
   d="M 56.692,472.776 H 54 V 317.56 l 2.692,0.002 z m -1.651,-1.04 h 0.612 V 318.6 H 55.04 v 153.136 z"
   id="path333" />
&#10;				</g>
&#10;				<g
   id="g335">&#10;					<rect
   x="58.238998"
   y="318.07999"
   style="fill:#dee4ca"
   width="1.654"
   height="154.17599"
   id="rect334" />
&#10;					<path
   style="fill:#6a6a61"
   d="M 60.413,472.776 H 57.72 V 317.56 h 2.694 v 155.216 z m -1.653,-1.04 h 0.614 V 318.6 h -0.615 z"
   id="path334" />
&#10;				</g>
&#10;				<g
   id="g336">&#10;					<rect
   x="61.958"
   y="318.08099"
   style="fill:#dee4ca"
   width="1.653"
   height="154.175"
   id="rect335" />
&#10;					<path
   style="fill:#6a6a61"
   d="M 64.131,472.776 H 61.438 V 317.561 l 2.692,-0.002 v 155.217 z m -1.653,-1.04 h 0.613 V 318.601 h -0.613 z"
   id="path335" />
&#10;				</g>
&#10;				<g
   id="g337">&#10;					<rect
   x="65.676003"
   y="318.07999"
   style="fill:#dee4ca"
   width="1.653"
   height="154.17599"
   id="rect336" />
&#10;					<path
   style="fill:#6a6a61"
   d="M 67.85,472.776 H 65.157 V 317.56 h 2.693 z m -1.654,-1.04 h 0.613 V 318.6 h -0.613 z"
   id="path336" />
&#10;				</g>
&#10;				<g
   id="g338">&#10;					<rect
   x="69.397003"
   y="318.07999"
   style="fill:#dee4ca"
   width="1.652"
   height="154.17599"
   id="rect337" />
&#10;					<path
   style="fill:#6a6a61"
   d="M 71.568,472.776 H 68.877 V 317.56 h 2.692 v 155.216 z m -1.651,-1.04 h 0.612 V 318.6 h -0.612 z"
   id="path337" />
&#10;				</g>
&#10;				<g
   id="g339">&#10;					<rect
   x="73.114998"
   y="318.07999"
   style="fill:#dee4ca"
   width="1.652"
   height="154.17599"
   id="rect338" />
&#10;					<path
   style="fill:#6a6a61"
   d="M 75.287,472.776 H 72.595 V 317.56 h 2.692 z m -1.653,-1.04 h 0.612 V 318.6 h -0.612 z"
   id="path338" />
&#10;				</g>
&#10;				<g
   id="g340">&#10;					<rect
   x="76.832001"
   y="318.08099"
   style="fill:#dee4ca"
   width="1.654"
   height="154.175"
   id="rect339" />
&#10;					<path
   style="fill:#6a6a61"
   d="M 79.006,472.776 H 76.312 V 317.56 l 2.693,0.002 z m -1.654,-1.04 h 0.614 V 318.6 h -0.613 v 153.136 z"
   id="path339" />
&#10;				</g>
&#10;				<g
   id="g341">&#10;					<rect
   x="80.552002"
   y="318.07999"
   style="fill:#dee4ca"
   width="1.653"
   height="154.17599"
   id="rect340" />
&#10;					<path
   style="fill:#6a6a61"
   d="M 82.725,472.776 H 80.032 V 317.56 h 2.693 z m -1.653,-1.04 h 0.613 V 318.6 h -0.613 z"
   id="path340" />
&#10;				</g>
&#10;				<g
   id="g342">&#10;					<rect
   x="84.269997"
   y="318.07999"
   style="fill:#dee4ca"
   width="1.652"
   height="154.17599"
   id="rect341" />
&#10;					<path
   style="fill:#6a6a61"
   d="M 86.442,472.776 H 83.75 V 317.56 h 2.692 z m -1.652,-1.04 h 0.613 V 318.6 H 84.79 Z"
   id="path341" />
&#10;				</g>
&#10;				<g
   id="g343">&#10;					<rect
   x="87.987999"
   y="318.08099"
   style="fill:#dee4ca"
   width="1.653"
   height="154.175"
   id="rect342" />
&#10;					<path
   style="fill:#6a6a61"
   d="M 90.162,472.776 H 87.469 V 317.56 l 2.693,0.002 z m -1.654,-1.04 h 0.613 V 318.601 h -0.613 z"
   id="path342" />
&#10;				</g>
&#10;				<g
   id="g344">&#10;					<rect
   x="91.708"
   y="318.07999"
   style="fill:#dee4ca"
   width="1.652"
   height="154.17599"
   id="rect343" />
&#10;					<path
   style="fill:#6a6a61"
   d="M 93.88,472.776 H 91.188 V 317.559 l 2.692,0.002 z m -1.652,-1.04 H 92.84 V 318.6 h -0.612 z"
   id="path343" />
&#10;				</g>
&#10;				<g
   id="g345">&#10;					<rect
   x="95.427002"
   y="318.07999"
   style="fill:#dee4ca"
   width="1.652"
   height="154.17599"
   id="rect344" />
&#10;					<path
   style="fill:#6a6a61"
   d="M 97.599,472.776 H 94.907 V 317.56 l 2.691,-0.002 z m -1.652,-1.04 h 0.612 V 318.599 h -0.612 z"
   id="path344" />
&#10;				</g>
&#10;				<g
   id="g346">&#10;					<rect
   x="99.143997"
   y="318.08099"
   style="fill:#dee4ca"
   width="1.653"
   height="154.175"
   id="rect345" />
&#10;					<path
   style="fill:#6a6a61"
   d="M 101.317,472.776 H 98.625 V 317.56 l 2.692,0.002 z m -1.653,-1.04 h 0.613 V 318.601 h -0.613 z"
   id="path345" />
&#10;				</g>
&#10;				<g
   id="g347">&#10;					<rect
   x="102.864"
   y="318.07999"
   style="fill:#dee4ca"
   width="1.653"
   height="154.17599"
   id="rect346" />
&#10;					<path
   style="fill:#6a6a61"
   d="m 105.037,472.776 h -2.693 V 317.56 h 2.693 z m -1.653,-1.04 h 0.613 V 318.6 h -0.613 z"
   id="path346" />
&#10;				</g>
&#10;				<g
   id="g348">&#10;					<rect
   x="106.581"
   y="318.07999"
   style="fill:#dee4ca"
   width="1.653"
   height="154.17599"
   id="rect347" />
&#10;					<path
   style="fill:#6a6a61"
   d="m 108.754,472.776 h -2.693 V 317.56 h 2.693 z m -1.652,-1.04 h 0.613 V 318.6 h -0.613 z"
   id="path347" />
&#10;				</g>
&#10;				<g
   id="g349">&#10;					<rect
   x="110.3"
   y="318.07999"
   style="fill:#dee4ca"
   width="1.654"
   height="154.17599"
   id="rect348" />
&#10;					<path
   style="fill:#6a6a61"
   d="M 112.474,472.776 H 109.78 V 317.56 h 2.694 z m -1.654,-1.04 h 0.614 V 318.6 h -0.614 z"
   id="path348" />
&#10;				</g>
&#10;				<g
   id="g350">&#10;					<rect
   x="114.02"
   y="318.07999"
   style="fill:#dee4ca"
   width="1.652"
   height="154.17599"
   id="rect349" />
&#10;					<path
   style="fill:#6a6a61"
   d="M 116.192,472.776 H 113.5 V 317.56 h 2.692 z m -1.652,-1.04 h 0.612 V 318.6 h -0.612 z"
   id="path349" />
&#10;				</g>
&#10;				<g
   id="g351">&#10;					<rect
   x="117.738"
   y="318.07999"
   style="fill:#dee4ca"
   width="1.652"
   height="154.17599"
   id="rect350" />
&#10;					<path
   style="fill:#6a6a61"
   d="m 119.91,472.776 h -2.691 V 317.56 h 2.691 z m -1.652,-1.04 h 0.612 V 318.6 h -0.612 z"
   id="path350" />
&#10;				</g>
&#10;				<g
   id="g352">&#10;					<rect
   x="121.457"
   y="318.08099"
   style="fill:#dee4ca"
   width="1.652"
   height="154.175"
   id="rect351" />
&#10;					<path
   style="fill:#6a6a61"
   d="m 123.629,472.776 h -2.692 V 317.561 h 2.692 z m -1.652,-1.04 h 0.612 V 318.601 h -0.612 z"
   id="path351" />
&#10;				</g>
&#10;				<g
   id="g353">&#10;					<rect
   x="125.176"
   y="318.07999"
   style="fill:#dee4ca"
   width="1.653"
   height="154.17599"
   id="rect352" />
&#10;					<path
   style="fill:#6a6a61"
   d="m 127.348,472.777 -2.691,-0.002 V 317.56 h 2.693 z m -1.652,-1.04 h 0.612 L 126.31,318.6 h -0.613 v 153.137 z"
   id="path352" />
&#10;				</g>
&#10;				<g
   id="g354">&#10;					<rect
   x="128.894"
   y="318.07999"
   style="fill:#dee4ca"
   width="1.653"
   height="154.17599"
   id="rect353" />
&#10;					<path
   style="fill:#6a6a61"
   d="m 131.066,472.776 h -2.693 V 317.56 h 2.693 z m -1.652,-1.04 h 0.613 V 318.6 h -0.613 z"
   id="path353" />
&#10;				</g>
&#10;				<g
   id="g355">&#10;					<rect
   x="132.61301"
   y="318.07999"
   style="fill:#dee4ca"
   width="1.652"
   height="154.17599"
   id="rect354" />
&#10;					<path
   style="fill:#6a6a61"
   d="m 134.786,472.776 h -2.692 V 317.56 l 2.692,-0.002 z m -1.653,-1.04 h 0.613 V 318.6 h -0.613 z"
   id="path354" />
&#10;				</g>
&#10;				<g
   id="g356">&#10;					<rect
   x="136.33099"
   y="318.07999"
   style="fill:#dee4ca"
   width="1.653"
   height="154.17599"
   id="rect355" />
&#10;					<path
   style="fill:#6a6a61"
   d="m 135.811,472.777 0.001,-155.217 h 2.692 v 155.215 z m 1.041,-154.177 -0.001,153.137 h 0.613 V 318.6 Z"
   id="path355" />
&#10;				</g>
&#10;				<g
   id="g357">&#10;					<rect
   x="140.05"
   y="318.07999"
   style="fill:#dee4ca"
   width="1.652"
   height="154.17599"
   id="rect356" />
&#10;					<path
   style="fill:#6a6a61"
   d="M 142.222,472.776 H 139.53 V 317.56 h 2.692 z m -1.652,-1.04 h 0.612 V 318.6 h -0.612 z"
   id="path356" />
&#10;				</g>
&#10;				<g
   id="g358">&#10;					<rect
   x="143.769"
   y="318.08099"
   style="fill:#dee4ca"
   width="1.652"
   height="154.175"
   id="rect357" />
&#10;					<path
   style="fill:#6a6a61"
   d="m 145.941,472.776 h -2.692 V 317.561 l 2.692,-0.002 z m -1.652,-1.04 h 0.613 V 318.601 h -0.613 z"
   id="path357" />
&#10;				</g>
&#10;				<g
   id="g359">&#10;					<rect
   x="147.48801"
   y="318.08099"
   style="fill:#dee4ca"
   width="1.652"
   height="154.175"
   id="rect358" />
&#10;					<path
   style="fill:#6a6a61"
   d="m 149.66,472.776 h -2.692 V 317.56 l 2.692,0.002 z m -1.653,-1.04 h 0.612 V 318.601 h -0.612 z"
   id="path358" />
&#10;				</g>
&#10;				<g
   id="g360">&#10;					<rect
   x="151.20599"
   y="318.07999"
   style="fill:#dee4ca"
   width="1.653"
   height="154.17599"
   id="rect359" />
&#10;					<path
   style="fill:#6a6a61"
   d="m 153.379,472.776 h -2.693 V 317.56 h 2.693 z m -1.653,-1.04 h 0.613 V 318.6 h -0.613 z"
   id="path359" />
&#10;				</g>
&#10;				<g
   id="g361">&#10;					<rect
   x="154.925"
   y="318.07999"
   style="fill:#dee4ca"
   width="1.653"
   height="154.17599"
   id="rect360" />
&#10;					<path
   style="fill:#6a6a61"
   d="m 157.098,472.776 h -2.692 V 317.56 h 2.692 z m -1.653,-1.04 h 0.613 V 318.6 h -0.612 v 153.136 z"
   id="path360" />
&#10;				</g>
&#10;				<g
   id="g362">&#10;					<rect
   x="158.64301"
   y="318.08099"
   style="fill:#dee4ca"
   width="1.653"
   height="154.175"
   id="rect361" />
&#10;					<path
   style="fill:#6a6a61"
   d="m 160.816,472.776 h -2.693 V 317.561 l 2.692,-0.002 v 155.217 z m -1.653,-1.04 h 0.613 V 318.601 h -0.613 z"
   id="path361" />
&#10;				</g>
&#10;				<g
   id="g363">&#10;					<rect
   x="162.362"
   y="318.08099"
   style="fill:#dee4ca"
   width="1.652"
   height="154.175"
   id="rect362" />
&#10;					<path
   style="fill:#6a6a61"
   d="m 164.534,472.776 h -2.691 V 317.56 l 2.691,0.002 z m -1.652,-1.04 h 0.612 V 318.601 h -0.612 z"
   id="path362" />
&#10;				</g>
&#10;				<g
   id="g364">&#10;					<rect
   x="166.08099"
   y="318.07999"
   style="fill:#dee4ca"
   width="1.652"
   height="154.17599"
   id="rect363" />
&#10;					<path
   style="fill:#6a6a61"
   d="m 168.253,472.776 h -2.692 V 317.56 h 2.692 z m -1.652,-1.04 h 0.612 V 318.6 h -0.612 z"
   id="path363" />
&#10;				</g>
&#10;				<g
   id="g365">&#10;					<rect
   x="169.8"
   y="318.07999"
   style="fill:#dee4ca"
   width="1.651"
   height="154.17599"
   id="rect364" />
&#10;					<path
   style="fill:#6a6a61"
   d="m 171.971,472.777 -2.691,-0.002 V 317.56 h 2.691 z m -1.651,-1.04 h 0.612 V 318.6 h -0.612 z"
   id="path364" />
&#10;				</g>
&#10;			</g>
&#10;			<g
   id="g372">&#10;				<g
   id="g371">&#10;					<g
   id="g367">&#10;						<rect
   x="73.697998"
   y="316.05701"
   style="fill:#dee4ca"
   width="73.481003"
   height="7.625"
   id="rect366" />
&#10;						<path
   style="fill:#526069"
   d="M 148.74,325.242 H 72.139 v -10.745 h 76.601 z m -73.482,-3.119 h 70.362 v -4.505 H 75.258 Z"
   id="path366" />
&#10;					</g>
&#10;					<g
   id="g368">&#10;						<rect
   x="49.435001"
   y="338.93399"
   style="fill:#dee4ca"
   width="7.6020002"
   height="111.021"
   id="rect367" />
&#10;						<path
   style="fill:#526069"
   d="M 58.597,451.516 H 47.875 V 337.374 h 10.721 v 114.142 z m -7.602,-3.12 h 4.483 V 340.493 h -4.483 z"
   id="path367" />
&#10;					</g>
&#10;					<g
   id="g369">&#10;						<rect
   x="164.534"
   y="339.92001"
   style="fill:#dee4ca"
   width="7.6020002"
   height="111.022"
   id="rect368" />
&#10;						<path
   style="fill:#526069"
   d="M 173.695,452.502 H 162.974 V 338.361 h 10.721 z m -7.601,-3.119 h 4.482 V 341.48 h -4.482 z"
   id="path368" />
&#10;					</g>
&#10;					<g
   id="g370">&#10;						<rect
   x="73.697998"
   y="467.17999"
   style="fill:#dee4ca"
   width="73.481003"
   height="7.625"
   id="rect369" />
&#10;						<path
   style="fill:#526069"
   d="M 148.74,476.365 H 72.139 V 465.62 h 76.601 z m -73.482,-3.12 H 145.62 V 468.74 H 75.258 Z"
   id="path369" />
&#10;					</g>
&#10;				</g>
&#10;			</g>
&#10;		</g>
&#10;		<g
   id="g377">&#10;			<path
   style="fill:#73a08a"
   d="m 156.236,415.375 c 0,6.076 -9.342,13.03 -46.089,13.03 -36.747,0 -44.812,-6.665 -44.812,-12.741 0,-6.078 20.069,-7.934 45.965,-7.934 25.893,0 44.936,1.567 44.936,7.645 z"
   id="path373" />
&#10;			<path
   style="fill:#8ab7a1"
   d="m 80.022,367.295 5.075,49.996 c 0,0 3.411,2.42 27.487,2.42 24.077,0 25.734,-2.42 25.734,-2.42 l 4.669,-49.534 z"
   id="path374" />
&#10;			<path
   style="fill:#73a08a"
   d="m 142.987,367.613 c 0,2.848 -12.669,5.156 -32.201,5.156 -19.532,0 -30.764,-2.308 -30.764,-5.156 0,-2.847 11.231,-5.155 30.764,-5.155 19.531,-0.001 32.201,2.308 32.201,5.155 z"
   id="path375" />
&#10;			<path
   style="fill:#eec84d"
   d="m 83.799,407.385 1.341,9.906 c 0,0 4.388,2.818 25.176,2.818 20.788,0 28.046,-2.473 28.046,-2.473 l 0.908,-10.07 c 0,0 -11.968,2.75 -28.44,2.75 -16.472,0 -27.031,-2.931 -27.031,-2.931 z"
   id="path376" />
&#10;			<path
   style="fill:#63635a"
   d="m 106.551,410.375 c -0.332,0 -0.604,0.272 -0.604,0.603 v 8.469 c 0,0.332 0.271,0.604 0.604,0.604 h 8.469 c 0.334,0 0.604,-0.272 0.604,-0.604 v -8.469 c 0,-0.332 -0.27,-0.603 -0.604,-0.603 z"
   id="path377" />
&#10;		</g>
&#10;	</g>
</g>
  </g>
</svg>
