<?xml version="1.0" encoding="UTF-8" standalone="no"?>
<!-- Created with Inkscape (http://www.inkscape.org/) -->

<svg
   width="33.56477mm"
   height="43.102474mm"
   viewBox="0 0 33.56477 43.102474"
   version="1.1"
   id="svg1"
   xmlns:inkscape="http://www.inkscape.org/namespaces/inkscape"
   xmlns:sodipodi="http://sodipodi.sourceforge.net/DTD/sodipodi-0.dtd"
   xmlns:xlink="http://www.w3.org/1999/xlink"
   xmlns="http://www.w3.org/2000/svg"
   xmlns:svg="http://www.w3.org/2000/svg">
  <sodipodi:namedview
     id="namedview1"
     pagecolor="#ffffff"
     bordercolor="#000000"
     borderopacity="0.25"
     inkscape:showpageshadow="2"
     inkscape:pageopacity="0.0"
     inkscape:pagecheckerboard="0"
     inkscape:deskcolor="#d1d1d1"
     inkscape:document-units="mm" />
  <defs
     id="defs1">
    <clipPath
       id="SVGID_00000173883764351611256280000012159195457650670213_">&#10;				<use
   xlink:href="#SVGID_00000028316813720839586330000003955431529854286486_"
   style="overflow:visible"
   id="use275" />
&#10;			</clipPath>
    <clipPath
       id="SVGID_00000046326763854913633080000013951511037904884868_">&#10;							<use
   xlink:href="#SVGID_00000044142284137307096930000009306124405839031465_"
   style="overflow:visible"
   id="use326" />
&#10;						</clipPath>
    <rect
       id="SVGID_00000028316813720839586330000003955431529854286486_"
       x="347.64999"
       y="94.924004"
       width="118.418"
       height="154.313" />
    <path
       id="SVGID_00000044142284137307096930000009306124405839031465_"
       d="m 398.396,186.894 c -6.249,1.785 -2.265,-9.596 -2.265,-9.596 0,0 -28.056,-0.086 -35.208,-0.086 0,13.794 -4.653,37.786 19.012,37.786 25.977,0 23.487,-13.889 35.209,-31.051 7.697,-11.272 20.514,-28.519 38.021,-32.412 v -5.4 c -30.913,3.72 -49.173,39.159 -54.769,40.759 z" />
  </defs>
  <g
     inkscape:label="Layer 1"
     inkscape:groupmode="layer"
     id="layer1"
     transform="translate(-70.11458,-141.02291)">
    <g
       id="g331"
       transform="matrix(0.26458333,0,0,0.26458333,-20.751271,117.04452)">&#10;		<g
   id="g275">&#10;			<rect
   x="345.509"
   y="92.707001"
   style="fill:#dee4ca"
   width="122.7"
   height="158.74699"
   id="rect274" />
&#10;			<path
   style="fill:#6a6a61"
   d="M 470.289,253.534 H 343.43 V 90.627 h 126.859 z m -122.7,-4.16 H 466.128 V 94.787 H 347.589 Z"
   id="path274" />
&#10;		</g>
&#10;		<g
   id="g310">&#10;			<defs
   id="defs275" />
&#10;			<clipPath
   id="clipPath1-9">&#10;				<use
   xlink:href="#SVGID_00000028316813720839586330000003955431529854286486_"
   style="overflow:visible"
   id="use1-6" />
&#10;			</clipPath>
&#10;			<g
   style="opacity:0.1"
   clip-path="url(#SVGID_00000173883764351611256280000012159195457650670213_)"
   id="g309">&#10;				<g
   id="g276">&#10;					<polygon
   style="fill:#dee4ca"
   points="273.705,175.256 271.877,173.415 408.096,36.259 409.924,38.102 "
   id="polygon275" />
&#10;					<path
   style="fill:#6a6a61"
   d="m 273.705,175.994 -2.56,-2.579 0.363,-0.367 136.588,-137.527 2.561,2.581 -0.363,0.366 z m -1.095,-2.579 1.095,1.104 135.486,-136.417 -1.096,-1.104 z"
   id="path275" />
&#10;				</g>
&#10;				<g
   id="g277">&#10;					<polygon
   style="fill:#dee4ca"
   points="277.819,179.401 275.991,177.56 412.209,40.404 414.035,42.248 "
   id="polygon276" />
&#10;					<path
   style="fill:#6a6a61"
   d="m 277.819,180.139 -2.561,-2.58 0.364,-0.367 136.589,-137.526 2.557,2.583 z m -1.096,-2.579 1.096,1.104 135.484,-136.417 -1.094,-1.105 z"
   id="path276" />
&#10;				</g>
&#10;				<g
   id="g278">&#10;					<polygon
   style="fill:#dee4ca"
   points="281.935,183.549 280.105,181.705 416.322,44.55 418.154,46.394 "
   id="polygon277" />
&#10;					<path
   style="fill:#6a6a61"
   d="m 281.935,184.287 -2.563,-2.582 0.363,-0.367 136.587,-137.525 2.564,2.582 -0.363,0.367 z m -1.098,-2.582 1.098,1.107 135.485,-136.418 -1.098,-1.106 z"
   id="path277" />
&#10;				</g>
&#10;				<g
   id="g279">&#10;					<polygon
   style="fill:#dee4ca"
   points="286.048,187.693 284.219,185.85 420.435,48.696 422.266,50.537 "
   id="polygon278" />
&#10;					<path
   style="fill:#6a6a61"
   d="m 286.048,188.431 -2.561,-2.581 0.363,-0.366 136.585,-137.526 2.565,2.579 -0.365,0.367 z m -1.095,-2.581 1.096,1.105 135.484,-136.418 -1.098,-1.103 z"
   id="path278" />
&#10;				</g>
&#10;				<g
   id="g280">&#10;					<polygon
   style="fill:#dee4ca"
   points="290.163,191.839 288.332,189.995 424.551,52.84 426.381,54.683 "
   id="polygon279" />
&#10;					<path
   style="fill:#6a6a61"
   d="m 290.163,192.577 -2.563,-2.582 0.363,-0.366 136.588,-137.526 2.564,2.58 -0.365,0.367 z m -1.098,-2.582 1.098,1.107 135.485,-136.419 -1.098,-1.104 z"
   id="path279" />
&#10;				</g>
&#10;				<g
   id="g281">&#10;					<polygon
   style="fill:#dee4ca"
   points="294.276,195.984 292.45,194.143 428.668,56.987 430.496,58.83 "
   id="polygon280" />
&#10;					<path
   style="fill:#6a6a61"
   d="m 294.276,196.722 -2.56,-2.58 0.364,-0.367 136.588,-137.526 2.563,2.581 -0.365,0.366 z m -1.094,-2.579 1.094,1.103 135.488,-136.416 -1.096,-1.105 z"
   id="path280" />
&#10;				</g>
&#10;				<g
   id="g282">&#10;					<polygon
   style="fill:#dee4ca"
   points="298.391,200.129 296.563,198.288 432.781,61.132 434.609,62.974 "
   id="polygon281" />
&#10;					<path
   style="fill:#6a6a61"
   d="m 298.391,200.867 -2.56,-2.579 0.363,-0.367 136.587,-137.526 2.561,2.58 -0.363,0.366 z m -1.096,-2.579 1.096,1.104 135.486,-136.418 -1.096,-1.104 z"
   id="path281" />
&#10;				</g>
&#10;				<g
   id="g283">&#10;					<polygon
   style="fill:#dee4ca"
   points="302.505,204.275 300.676,202.431 436.893,65.275 438.723,67.121 "
   id="polygon282" />
&#10;					<path
   style="fill:#6a6a61"
   d="m 302.505,205.012 -2.562,-2.581 0.363,-0.367 136.587,-137.527 2.563,2.584 z m -1.096,-2.581 1.097,1.106 L 437.99,67.12 436.892,66.014 Z"
   id="path282" />
&#10;				</g>
&#10;				<g
   id="g284">&#10;					<polygon
   style="fill:#dee4ca"
   points="306.62,208.42 304.79,206.578 441.01,69.422 442.838,71.265 "
   id="polygon283" />
&#10;					<path
   style="fill:#6a6a61"
   d="m 306.62,209.158 -2.561,-2.58 0.363,-0.367 136.588,-137.526 2.56,2.58 -0.363,0.367 z m -1.097,-2.58 1.097,1.104 135.485,-136.417 -1.096,-1.104 z"
   id="path283" />
&#10;				</g>
&#10;				<g
   id="g285">&#10;					<polygon
   style="fill:#dee4ca"
   points="310.734,212.565 308.904,210.722 445.123,73.567 446.953,75.41 "
   id="polygon284" />
&#10;					<path
   style="fill:#6a6a61"
   d="m 310.734,213.303 -2.563,-2.582 0.364,-0.366 136.588,-137.525 2.563,2.581 -0.365,0.367 z m -1.097,-2.581 1.097,1.106 135.485,-136.418 -1.096,-1.105 z"
   id="path284" />
&#10;				</g>
&#10;				<g
   id="g286">&#10;					<polygon
   style="fill:#dee4ca"
   points="314.848,216.711 313.018,214.868 449.236,77.712 451.064,79.556 "
   id="polygon285" />
&#10;					<path
   style="fill:#6a6a61"
   d="m 314.848,217.449 -2.563,-2.581 0.363,-0.367 136.588,-137.527 2.561,2.583 z m -1.097,-2.581 1.097,1.105 135.484,-136.417 -1.096,-1.105 z"
   id="path285" />
&#10;				</g>
&#10;				<g
   id="g287">&#10;					<polygon
   style="fill:#dee4ca"
   points="318.961,220.855 317.134,219.015 453.353,81.859 455.18,83.7 "
   id="polygon286" />
&#10;					<path
   style="fill:#6a6a61"
   d="m 318.961,221.593 -2.56,-2.579 0.363,-0.367 136.589,-137.526 2.559,2.58 -0.363,0.367 z m -1.093,-2.578 1.094,1.103 L 454.449,83.7 453.353,82.597 Z"
   id="path286" />
&#10;				</g>
&#10;				<g
   id="g288">&#10;					<polygon
   style="fill:#dee4ca"
   points="323.076,225.001 321.248,223.159 457.467,86.004 459.295,87.846 "
   id="polygon287" />
&#10;					<path
   style="fill:#6a6a61"
   d="m 323.076,225.739 -2.561,-2.58 0.363,-0.367 136.589,-137.525 2.563,2.579 -0.365,0.366 z m -1.096,-2.58 1.096,1.105 135.487,-136.418 -1.096,-1.104 z"
   id="path287" />
&#10;				</g>
&#10;				<g
   id="g289">&#10;					<polygon
   style="fill:#dee4ca"
   points="327.19,229.146 325.361,227.304 461.58,90.148 463.408,91.993 "
   id="polygon288" />
&#10;					<path
   style="fill:#6a6a61"
   d="m 327.19,229.884 -2.561,-2.58 0.363,-0.367 136.588,-137.527 2.561,2.583 z m -1.096,-2.58 1.096,1.105 135.486,-136.416 -1.096,-1.106 z"
   id="path288" />
&#10;				</g>
&#10;				<g
   id="g290">&#10;					<polygon
   style="fill:#dee4ca"
   points="331.305,233.293 329.477,231.45 465.695,94.295 467.523,96.138 "
   id="polygon289" />
&#10;					<path
   style="fill:#6a6a61"
   d="m 331.305,234.031 -2.561,-2.581 0.363,-0.366 136.588,-137.527 2.561,2.581 -0.363,0.367 z m -1.095,-2.581 1.096,1.105 135.485,-136.417 -1.096,-1.105 z"
   id="path289" />
&#10;				</g>
&#10;				<g
   id="g291">&#10;					<polygon
   style="fill:#dee4ca"
   points="335.419,237.438 333.59,235.595 469.809,98.44 471.637,100.282 "
   id="polygon290" />
&#10;					<path
   style="fill:#6a6a61"
   d="m 335.419,238.175 -2.563,-2.581 0.364,-0.366 136.589,-137.526 2.56,2.581 -0.363,0.367 z m -1.096,-2.58 1.097,1.105 135.485,-136.418 -1.096,-1.104 z"
   id="path290" />
&#10;				</g>
&#10;				<g
   id="g292">&#10;					<polygon
   style="fill:#dee4ca"
   points="339.534,241.583 337.704,239.738 473.924,102.584 475.752,104.428 "
   id="polygon291" />
&#10;					<path
   style="fill:#6a6a61"
   d="m 339.534,242.321 -2.564,-2.583 0.364,-0.366 136.589,-137.526 2.561,2.583 z m -1.098,-2.583 1.098,1.107 135.486,-136.417 -1.096,-1.105 z"
   id="path291" />
&#10;				</g>
&#10;				<g
   id="g293">&#10;					<polygon
   style="fill:#dee4ca"
   points="343.648,245.728 341.819,243.887 478.037,106.731 479.865,108.573 "
   id="polygon292" />
&#10;					<path
   style="fill:#6a6a61"
   d="m 343.648,246.466 -2.561,-2.579 0.363,-0.367 136.587,-137.527 2.561,2.58 -0.363,0.366 z m -1.097,-2.579 1.097,1.104 135.485,-136.417 -1.096,-1.104 z"
   id="path292" />
&#10;				</g>
&#10;				<g
   id="g294">&#10;					<polygon
   style="fill:#dee4ca"
   points="347.76,249.873 345.933,248.031 482.152,110.876 483.978,112.718 "
   id="polygon293" />
&#10;					<path
   style="fill:#6a6a61"
   d="m 347.76,250.61 -2.56,-2.58 0.363,-0.367 136.588,-137.526 2.559,2.581 z m -1.095,-2.579 1.095,1.104 135.486,-136.418 -1.094,-1.103 z"
   id="path293" />
&#10;				</g>
&#10;				<g
   id="g295">&#10;					<polygon
   style="fill:#dee4ca"
   points="351.875,254.019 350.047,252.176 486.266,115.022 488.092,116.864 "
   id="polygon294" />
&#10;					<path
   style="fill:#6a6a61"
   d="m 351.875,254.756 -2.561,-2.58 0.364,-0.367 136.587,-137.525 2.559,2.58 -0.363,0.367 z m -1.095,-2.58 1.096,1.105 135.484,-136.417 -1.094,-1.104 z"
   id="path294" />
&#10;				</g>
&#10;				<g
   id="g296">&#10;					<polygon
   style="fill:#dee4ca"
   points="355.989,258.165 354.164,256.323 490.381,119.169 492.211,121.01 "
   id="polygon295" />
&#10;					<path
   style="fill:#6a6a61"
   d="m 355.989,258.903 -2.559,-2.58 136.951,-137.892 2.563,2.579 -0.365,0.367 z m -1.093,-2.58 1.094,1.103 135.487,-136.416 -1.096,-1.104 z"
   id="path295" />
&#10;				</g>
&#10;				<g
   id="g297">&#10;					<polygon
   style="fill:#dee4ca"
   points="360.104,262.309 358.275,260.466 494.492,123.311 496.32,125.153 "
   id="polygon296" />
&#10;					<path
   style="fill:#6a6a61"
   d="m 360.104,263.047 -2.562,-2.581 0.363,-0.366 136.586,-137.528 2.56,2.581 z m -1.097,-2.581 1.097,1.105 135.484,-136.418 -1.096,-1.104 z"
   id="path296" />
&#10;				</g>
&#10;				<g
   id="g298">&#10;					<polygon
   style="fill:#dee4ca"
   points="364.219,266.454 362.391,264.614 498.609,127.459 500.438,129.299 "
   id="polygon297" />
&#10;					<path
   style="fill:#6a6a61"
   d="m 364.219,267.192 -2.56,-2.578 0.363,-0.367 136.587,-137.526 2.561,2.578 -0.363,0.367 z m -1.095,-2.578 1.096,1.103 135.486,-136.417 -1.096,-1.103 z"
   id="path297" />
&#10;				</g>
&#10;				<g
   id="g299">&#10;					<polygon
   style="fill:#dee4ca"
   points="368.332,270.599 366.503,268.758 502.723,131.603 504.551,133.444 "
   id="polygon298" />
&#10;					<path
   style="fill:#6a6a61"
   d="m 368.332,271.337 -2.563,-2.579 0.364,-0.367 136.588,-137.526 2.56,2.579 -0.365,0.367 z m -1.096,-2.579 1.097,1.103 135.486,-136.417 -1.096,-1.103 z"
   id="path298" />
&#10;				</g>
&#10;				<g
   id="g300">&#10;					<polygon
   style="fill:#dee4ca"
   points="372.446,274.744 370.62,272.904 506.838,135.749 508.666,137.59 "
   id="polygon299" />
&#10;					<path
   style="fill:#6a6a61"
   d="m 372.446,275.482 -2.56,-2.578 0.364,-0.367 136.587,-137.526 2.56,2.579 -0.363,0.366 z m -1.094,-2.578 1.094,1.103 135.486,-136.417 -1.094,-1.103 z"
   id="path299" />
&#10;				</g>
&#10;				<g
   id="g301">&#10;					<polygon
   style="fill:#dee4ca"
   points="376.56,278.89 374.732,277.047 510.949,139.894 512.779,141.735 "
   id="polygon300" />
&#10;					<path
   style="fill:#6a6a61"
   d="m 376.56,279.628 -2.561,-2.581 0.363,-0.367 136.586,-137.524 2.562,2.579 -0.363,0.367 z m -1.095,-2.581 1.095,1.104 135.487,-136.417 -1.098,-1.104 z"
   id="path300" />
&#10;				</g>
&#10;				<g
   id="g302">&#10;					<polygon
   style="fill:#dee4ca"
   points="380.672,283.035 378.847,281.195 515.066,144.04 516.891,145.881 "
   id="polygon301" />
&#10;					<path
   style="fill:#6a6a61"
   d="m 380.672,283.772 -2.558,-2.578 0.363,-0.366 136.59,-137.527 2.555,2.58 z m -1.092,-2.577 1.093,1.102 135.485,-136.417 -1.092,-1.103 z"
   id="path301" />
&#10;				</g>
&#10;				<g
   id="g303">&#10;					<polygon
   style="fill:#dee4ca"
   points="384.79,287.181 382.96,285.338 519.18,148.184 521.01,150.026 "
   id="polygon302" />
&#10;					<path
   style="fill:#6a6a61"
   d="m 384.79,287.919 -2.563,-2.581 0.364,-0.366 136.589,-137.526 2.563,2.581 -0.363,0.367 z m -1.097,-2.581 1.097,1.105 135.488,-136.417 -1.098,-1.105 z"
   id="path302" />
&#10;				</g>
&#10;				<g
   id="g304">&#10;					<polygon
   style="fill:#dee4ca"
   points="388.904,291.328 387.074,289.485 523.293,152.33 525.123,154.171 "
   id="polygon303" />
&#10;					<path
   style="fill:#6a6a61"
   d="m 388.904,292.065 -2.563,-2.58 0.365,-0.367 136.587,-137.527 2.562,2.58 -0.365,0.367 z m -1.097,-2.58 1.097,1.104 135.485,-136.418 -1.096,-1.104 z"
   id="path303" />
&#10;				</g>
&#10;				<g
   id="g305">&#10;					<polygon
   style="fill:#dee4ca"
   points="393.016,295.472 391.19,293.63 527.408,156.477 529.236,158.316 "
   id="polygon304" />
&#10;					<path
   style="fill:#6a6a61"
   d="m 393.016,296.21 -2.559,-2.581 136.951,-137.891 2.561,2.578 -0.365,0.366 z m -1.095,-2.58 1.095,1.103 135.486,-136.417 -1.094,-1.102 z"
   id="path304" />
&#10;				</g>
&#10;				<g
   id="g306">&#10;					<polygon
   style="fill:#dee4ca"
   points="397.129,299.617 395.304,297.776 531.523,160.62 533.348,162.462 "
   id="polygon305" />
&#10;					<path
   style="fill:#6a6a61"
   d="m 397.129,300.355 -2.558,-2.58 136.952,-137.894 2.557,2.582 z m -1.092,-2.579 1.093,1.103 135.488,-136.417 -1.094,-1.104 z"
   id="path305" />
&#10;				</g>
&#10;				<g
   id="g307">&#10;					<polygon
   style="fill:#dee4ca"
   points="401.246,303.763 399.417,301.92 535.637,164.766 537.465,166.607 "
   id="polygon306" />
&#10;					<path
   style="fill:#6a6a61"
   d="m 401.246,304.501 -2.56,-2.581 0.363,-0.367 136.587,-137.525 2.563,2.579 -0.365,0.367 z m -1.096,-2.581 1.096,1.104 135.486,-136.417 -1.096,-1.104 z"
   id="path306" />
&#10;				</g>
&#10;				<g
   id="g308">&#10;					<polygon
   style="fill:#dee4ca"
   points="405.357,307.908 403.531,306.066 539.75,168.911 541.578,170.752 "
   id="polygon307" />
&#10;					<path
   style="fill:#6a6a61"
   d="m 405.357,308.646 -2.559,-2.58 0.363,-0.366 136.589,-137.527 2.56,2.579 -0.363,0.367 z m -1.095,-2.58 1.096,1.104 135.488,-136.417 -1.096,-1.104 z"
   id="path307" />
&#10;				</g>
&#10;			</g>
&#10;		</g>
&#10;		<g
   id="g311">&#10;			<polygon
   style="fill:#8ab7a1"
   points="443.254,243.829 443.254,227.592 460.607,227.592 460.607,116.57 443.254,116.57 443.254,100.332 369.773,100.332 369.773,115.583 353.111,115.583 353.111,226.605 369.773,226.605 369.773,243.829 "
   id="polygon310" />
&#10;			<path
   style="fill:#6a6a61"
   d="M 444.813,245.389 H 368.214 V 228.165 H 351.552 V 114.023 h 16.662 V 98.772 h 76.599 v 16.237 h 17.353 v 114.142 h -17.353 z m -73.481,-3.119 h 70.361 v -16.238 h 17.353 V 118.129 h -17.353 v -16.238 h -70.361 v 15.251 h -16.661 v 107.902 h 16.661 z"
   id="path310" />
&#10;		</g>
&#10;		<g
   id="g316">&#10;			<g
   id="g312">&#10;				<path
   style="fill:#6a6a61"
   d="m 352.024,230.988 v 13.708 h 13.708 v -13.708 z m 10.589,10.589 h -7.469 v -7.469 h 7.469 z"
   id="path311" />
&#10;				<rect
   x="357.09299"
   y="236.05701"
   style="fill:#6a6a61"
   width="3.5699999"
   height="3.5699999"
   id="rect311" />
&#10;			</g>
&#10;			<g
   id="g313">&#10;				<path
   style="fill:#6a6a61"
   d="m 448.035,232.028 v 13.708 h 13.709 v -13.708 z m 10.59,10.588 h -7.469 v -7.469 h 7.469 z"
   id="path312" />
&#10;				<rect
   x="453.10501"
   y="237.097"
   style="fill:#6a6a61"
   width="3.5699999"
   height="3.5699999"
   id="rect312" />
&#10;			</g>
&#10;			<g
   id="g314">&#10;				<path
   style="fill:#6a6a61"
   d="m 351.974,98.426 v 13.708 h 13.708 V 98.426 Z m 10.589,10.588 h -7.469 v -7.469 h 7.469 z"
   id="path313" />
&#10;				<rect
   x="357.043"
   y="103.495"
   style="fill:#6a6a61"
   width="3.5699999"
   height="3.5699999"
   id="rect313" />
&#10;			</g>
&#10;			<g
   id="g315">&#10;				<path
   style="fill:#6a6a61"
   d="m 447.986,99.465 v 13.708 h 13.709 V 99.465 Z m 10.59,10.589 h -7.471 v -7.469 h 7.471 z"
   id="path314" />
&#10;				<rect
   x="453.05499"
   y="104.535"
   style="fill:#6a6a61"
   width="3.5699999"
   height="3.5699999"
   id="rect314" />
&#10;			</g>
&#10;		</g>
&#10;		<g
   id="g330">&#10;			<g
   id="g322">&#10;				<polygon
   style="fill:#dee4ca"
   points="385.796,154.917 383.125,179.809 374.767,178.415 371.4,154.917 379.202,144.744 "
   id="polygon316" />
&#10;				<path
   style="fill:#dee4ca"
   d="m 377.321,151.144 c 0,2.95 -2.391,5.341 -5.341,5.341 -2.949,0 -5.342,-2.392 -5.342,-5.341 0,-2.95 2.393,-5.341 5.342,-5.341 2.95,0 5.341,2.391 5.341,5.341 z"
   id="path316" />
&#10;				<path
   style="fill:#dee4ca"
   d="m 374.338,142.726 c 0,2.95 -2.391,5.341 -5.341,5.341 -2.95,0 -5.342,-2.392 -5.342,-5.341 0,-2.951 2.392,-5.341 5.342,-5.341 2.95,0 5.341,2.39 5.341,5.341 z"
   id="path317" />
&#10;				<path
   style="fill:#dee4ca"
   d="m 378.831,135.725 c 0,2.95 -2.392,5.341 -5.342,5.341 -2.95,0 -5.341,-2.391 -5.341,-5.341 0,-2.95 2.391,-5.341 5.341,-5.341 2.951,0 5.342,2.391 5.342,5.341 z"
   id="path318" />
&#10;				<circle
   style="fill:#dee4ca"
   cx="381.79001"
   cy="134.506"
   r="5.3410001"
   id="circle318" />
&#10;				<path
   style="fill:#dee4ca"
   d="m 393.634,138.08 c 0,2.95 -2.392,5.342 -5.341,5.342 -2.95,0 -5.341,-2.392 -5.341,-5.342 0,-2.95 2.391,-5.341 5.341,-5.341 2.95,0 5.341,2.391 5.341,5.341 z"
   id="path319" />
&#10;				<path
   style="fill:#dee4ca"
   d="m 393.627,144.08 c 0.15,2.946 -2.117,5.456 -5.063,5.605 -2.945,0.149 -5.455,-2.117 -5.605,-5.064 -0.149,-2.946 2.117,-5.456 5.064,-5.605 2.944,-0.149 5.454,2.118 5.604,5.064 z"
   id="path320" />
&#10;				<path
   style="fill:#dee4ca"
   d="m 386.424,143.422 c 0,3.463 -3.234,6.27 -7.223,6.27 -3.987,0 -7.222,-2.807 -7.222,-6.27 0,-3.462 3.234,-6.27 7.222,-6.27 3.989,0 7.223,2.808 7.223,6.27 z"
   id="path321" />
&#10;				<path
   style="fill:#dee4ca"
   d="m 389.883,152.42 c 0,2.95 -2.391,5.342 -5.341,5.342 -2.949,0 -5.341,-2.392 -5.341,-5.342 0,-2.95 2.392,-5.341 5.341,-5.341 2.951,0.001 5.341,2.392 5.341,5.341 z"
   id="path322" />
&#10;			</g>
&#10;			<g
   id="g329">&#10;				<g
   id="g328">&#10;					<g
   id="g326">&#10;						<g
   id="g325">&#10;							<g
   id="g324">&#10;								<g
   id="g323">&#10;									<path
   style="fill:#6a6a61"
   d="m 398.396,186.894 c -6.249,1.785 -2.265,-9.596 -2.265,-9.596 0,0 -28.056,-0.086 -35.208,-0.086 0,13.794 -4.653,37.786 19.012,37.786 25.977,0 23.487,-13.889 35.209,-31.051 7.697,-11.272 20.514,-28.519 38.021,-32.412 v -5.4 c -30.913,3.72 -49.173,39.159 -54.769,40.759 z"
   id="path323" />
&#10;								</g>
&#10;							</g>
&#10;						</g>
&#10;					</g>
&#10;					<g
   id="g327">&#10;						<defs
   id="defs326" />
&#10;						<clipPath
   id="clipPath2">&#10;							<use
   xlink:href="#SVGID_00000044142284137307096930000009306124405839031465_"
   style="overflow:visible"
   id="use2" />
&#10;						</clipPath>
&#10;						&#10;							<rect
   x="359.89899"
   y="181.21001"
   style="fill:#eec84d"
   width="36.712002"
   height="3.5780001"
   clip-path="url(#SVGID_00000046326763854913633080000013951511037904884868_)"
   id="rect326" />
&#10;					</g>
&#10;				</g>
&#10;			</g>
&#10;		</g>
&#10;	</g>
  </g>
</svg>
