<?xml version="1.0" encoding="UTF-8" standalone="no"?>
<!-- Created with Inkscape (http://www.inkscape.org/) -->

<svg
   width="33.565037mm"
   height="43.102474mm"
   viewBox="0 0 33.565037 43.102474"
   version="1.1"
   id="svg1"
   xmlns:inkscape="http://www.inkscape.org/namespaces/inkscape"
   xmlns:sodipodi="http://sodipodi.sourceforge.net/DTD/sodipodi-0.dtd"
   xmlns:xlink="http://www.w3.org/1999/xlink"
   xmlns="http://www.w3.org/2000/svg"
   xmlns:svg="http://www.w3.org/2000/svg">
  <sodipodi:namedview
     id="namedview1"
     pagecolor="#ffffff"
     bordercolor="#000000"
     borderopacity="0.25"
     inkscape:showpageshadow="2"
     inkscape:pageopacity="0.0"
     inkscape:pagecheckerboard="0"
     inkscape:deskcolor="#d1d1d1"
     inkscape:document-units="mm" />
  <defs
     id="defs1">
    <path
       id="SVGID_1_"
       d="M 279.573,385.904 V 369.8 H 242.02 v 16.104 c -9.318,6.112 -15.472,16.641 -15.472,28.608 0,18.891 16.569,25.455 35.483,25.455 18.916,0 33.014,-6.564 33.014,-25.455 0,-11.967 -6.153,-22.496 -15.472,-28.608 z" />
  </defs>
  <g
     inkscape:label="Layer 1"
     inkscape:groupmode="layer"
     id="layer1"
     transform="translate(-67.733331,-151.07708)">
    <g
       id="g274"
       transform="matrix(0.26458333,0,0,0.26458333,-60.66102,89.56093)">&#10;		&#10;		&#10;		&#10;	<g
   id="g94"
   transform="translate(290.379,-81.476003)">&#10;		<g
   id="g29">&#10;			<rect
   x="196.97099"
   y="316.05801"
   style="fill:#dee4ca"
   width="122.701"
   height="158.74699"
   id="rect28" />
&#10;			<path
   style="fill:#6a6a61"
   d="M 321.751,476.885 H 194.891 V 313.978 h 126.86 z M 199.05,472.725 H 317.591 V 318.137 H 199.05 Z"
   id="path29" />
&#10;		</g>
&#10;		<g
   id="g30">&#10;			<polygon
   style="fill:#8ab7a1"
   points="294.715,467.18 294.715,450.941 312.069,450.941 312.069,339.92 294.715,339.92 294.715,323.683 221.234,323.683 221.234,338.934 204.572,338.934 204.572,449.955 221.234,449.955 221.234,467.18 "
   id="polygon29" />
&#10;			<path
   style="fill:#466a75"
   d="M 296.275,468.739 H 219.674 V 451.515 H 203.012 V 337.374 h 16.662 v -15.251 h 76.601 v 16.238 h 17.354 v 114.142 h -17.354 z m -73.482,-3.119 h 70.362 v -16.237 h 17.354 V 341.48 h -17.354 v -16.238 h -70.362 v 15.251 h -16.662 v 107.902 h 16.662 z"
   id="path30" />
&#10;		</g>
&#10;		<g
   id="g31">&#10;			<path
   style="fill:#466a75"
   d="m 298.829,322.598 v 13.708 h 13.708 v -13.708 z m 10.588,10.588 h -7.469 v -7.469 h 7.469 z"
   id="path31" />
&#10;			<rect
   x="303.89801"
   y="327.66699"
   style="fill:#466a75"
   width="3.5699999"
   height="3.5699999"
   id="rect31" />
&#10;		</g>
&#10;		<g
   id="g32">&#10;			<path
   style="fill:#466a75"
   d="m 202.981,321.853 v 13.708 h 13.708 v -13.708 z m 10.589,10.588 h -7.469 v -7.469 h 7.469 z"
   id="path32" />
&#10;			<rect
   x="208.05099"
   y="326.922"
   style="fill:#466a75"
   width="3.5699999"
   height="3.5699999"
   id="rect32" />
&#10;		</g>
&#10;		<g
   id="g33">&#10;			<path
   style="fill:#466a75"
   d="m 299.143,454.655 v 13.709 h 13.709 v -13.709 z m 10.588,10.589 h -7.469 v -7.469 h 7.469 z"
   id="path33" />
&#10;			<rect
   x="304.21201"
   y="459.72501"
   style="fill:#466a75"
   width="3.5699999"
   height="3.569"
   id="rect33" />
&#10;		</g>
&#10;		<g
   id="g34">&#10;			<path
   style="fill:#466a75"
   d="m 203.295,453.91 v 13.708 h 13.708 V 453.91 Z m 10.589,10.589 h -7.469 v -7.47 h 7.469 z"
   id="path34" />
&#10;			<rect
   x="208.364"
   y="458.979"
   style="fill:#466a75"
   width="3.5699999"
   height="3.5699999"
   id="rect34" />
&#10;		</g>
&#10;		<g
   id="g93">&#10;			<g
   id="g92">&#10;				<g
   id="g68">&#10;					<g
   id="g67">&#10;						<g
   id="g36">&#10;							<path
   style="fill:#eec84d"
   d="m 274.333,362.863 c 0,1.506 -2.109,2.725 -4.711,2.725 -2.603,0 -4.712,-1.219 -4.712,-2.725 0,-0.375 0.004,-0.956 0.004,-0.956 0,0 2.756,-1.766 4.708,-1.766 2.113,0 4.711,1.869 4.711,1.869 0,0 0,0.472 0,0.853 z"
   id="path35" />
&#10;							<path
   style="fill:#eec84d"
   d="m 274.333,362.011 c 0,1.503 -2.109,2.724 -4.711,2.724 -2.603,0 -4.712,-1.22 -4.712,-2.724 0,-1.504 2.109,-2.725 4.712,-2.725 2.603,0 4.711,1.22 4.711,2.725 z"
   id="path36" />
&#10;						</g>
&#10;						<g
   id="g38">&#10;							<path
   style="fill:#eec84d"
   d="m 275.717,365.814 c 0,1.507 -2.109,2.724 -4.712,2.724 -2.602,0 -4.711,-1.217 -4.711,-2.724 0,-0.377 0.005,-0.955 0.005,-0.955 0,0 2.756,-1.769 4.706,-1.769 2.115,0 4.712,1.871 4.712,1.871 0,0 0,0.472 0,0.853 z"
   id="path37" />
&#10;							<path
   style="fill:#eec84d"
   d="m 275.717,364.96 c 0,1.504 -2.109,2.723 -4.712,2.723 -2.602,0 -4.711,-1.219 -4.711,-2.723 0,-1.504 2.109,-2.725 4.711,-2.725 2.602,0 4.712,1.222 4.712,2.725 z"
   id="path38" />
&#10;						</g>
&#10;						<g
   id="g40">&#10;							<path
   style="fill:#eec84d"
   d="m 257.387,365.386 c 0,1.506 -2.107,2.726 -4.709,2.726 -2.603,0 -4.713,-1.22 -4.713,-2.726 0,-0.375 0.005,-0.955 0.005,-0.955 0,0 2.754,-1.766 4.708,-1.766 2.113,0 4.709,1.868 4.709,1.868 0,0 0,0.472 0,0.853 z"
   id="path39" />
&#10;							<path
   style="fill:#eec84d"
   d="m 257.387,364.533 c 0,1.504 -2.107,2.725 -4.709,2.725 -2.603,0 -4.713,-1.221 -4.713,-2.725 0,-1.504 2.11,-2.724 4.713,-2.724 2.602,0 4.709,1.22 4.709,2.724 z"
   id="path40" />
&#10;						</g>
&#10;						<g
   id="g42">&#10;							<path
   style="fill:#eec84d"
   d="m 260.261,373.938 c 0,1.502 -2.109,2.724 -4.712,2.724 -2.604,0 -4.712,-1.222 -4.712,-2.724 0,-0.378 0.003,-0.956 0.003,-0.956 0,0 2.758,-1.77 4.709,-1.77 2.114,0 4.712,1.873 4.712,1.873 0,0 0,0.471 0,0.853 z"
   id="path41" />
&#10;							<path
   style="fill:#eec84d"
   d="m 260.261,373.085 c 0,1.505 -2.109,2.722 -4.712,2.722 -2.604,0 -4.712,-1.217 -4.712,-2.722 0,-1.505 2.109,-2.726 4.712,-2.726 2.602,0 4.712,1.22 4.712,2.726 z"
   id="path42" />
&#10;						</g>
&#10;						<g
   id="g44">&#10;							<path
   style="fill:#eec84d"
   d="m 280.802,369.845 c -1.22,0.886 -3.448,-0.101 -4.979,-2.203 -1.531,-2.102 -1.529,-3.942 -0.743,-5.656 0.626,-1.368 3.623,0.348 5.154,2.45 1.148,1.577 1.429,3.906 1.429,3.906 0,0 -0.558,1.28 -0.861,1.503 z"
   id="path43" />
&#10;							<path
   style="fill:#eec84d"
   d="m 281.106,369.046 c -1.219,0.887 -3.447,-0.101 -4.979,-2.201 -1.53,-2.101 -1.784,-4.523 -0.566,-5.408 1.216,-0.885 3.446,0.1 4.977,2.202 1.532,2.102 1.786,4.523 0.568,5.407 z"
   id="path44" />
&#10;						</g>
&#10;						<g
   id="g46">&#10;							<path
   style="fill:#eec84d"
   d="m 260.082,372.515 c -1.218,0.887 -3.448,-0.1 -4.978,-2.203 -1.531,-2.101 -1.527,-3.94 -0.743,-5.654 0.626,-1.368 3.623,0.349 5.154,2.449 1.147,1.577 1.429,3.908 1.429,3.908 0,0 -0.558,1.279 -0.862,1.5 z"
   id="path45" />
&#10;							<path
   style="fill:#eec84d"
   d="m 260.386,371.72 c -1.217,0.883 -3.445,-0.102 -4.978,-2.203 -1.53,-2.103 -1.785,-4.523 -0.566,-5.408 1.218,-0.885 3.446,0.102 4.979,2.2 1.53,2.103 1.784,4.524 0.565,5.411 z"
   id="path46" />
&#10;						</g>
&#10;						<g
   id="g48">&#10;							<path
   style="fill:#eec84d"
   d="m 264.894,362.493 c -0.823,1.26 -3.257,1.133 -5.439,-0.285 -2.18,-1.417 -2.835,-3.136 -2.713,-5.018 0.098,-1.501 3.51,-0.965 5.69,0.453 1.636,1.063 2.73,3.139 2.73,3.139 0,0 -0.062,1.395 -0.268,1.711 z"
   id="path47" />
&#10;							<path
   style="fill:#eec84d"
   d="m 264.894,361.638 c -0.823,1.262 -3.257,1.135 -5.439,-0.283 -2.18,-1.417 -3.282,-3.59 -2.461,-4.85 0.822,-1.262 3.257,-1.135 5.437,0.282 2.182,1.42 3.285,3.59 2.463,4.851 z"
   id="path48" />
&#10;						</g>
&#10;						<g
   id="g50">&#10;							<path
   style="fill:#eec84d"
   d="m 258.32,365.7 c -0.822,1.261 -3.255,1.135 -5.438,-0.284 -2.181,-1.418 -2.834,-3.137 -2.713,-5.018 0.097,-1.501 3.509,-0.964 5.69,0.452 1.635,1.065 2.73,3.14 2.73,3.14 0,0 -0.063,1.394 -0.269,1.71 z"
   id="path49" />
&#10;							<path
   style="fill:#eec84d"
   d="m 258.32,364.847 c -0.822,1.259 -3.255,1.134 -5.438,-0.285 -2.181,-1.417 -3.282,-3.588 -2.461,-4.849 0.823,-1.262 3.257,-1.134 5.438,0.284 2.181,1.416 3.282,3.586 2.461,4.85 z"
   id="path50" />
&#10;						</g>
&#10;						<g
   id="g52">&#10;							<path
   style="fill:#eec84d"
   d="m 270.323,376.202 c -0.823,1.26 -3.258,1.134 -5.439,-0.283 -2.18,-1.417 -2.834,-3.137 -2.712,-5.018 0.098,-1.501 3.507,-0.965 5.689,0.453 1.636,1.063 2.73,3.139 2.73,3.139 0,0 -0.064,1.396 -0.268,1.709 z"
   id="path51" />
&#10;							<path
   style="fill:#eec84d"
   d="m 270.323,375.348 c -0.823,1.263 -3.258,1.135 -5.439,-0.283 -2.18,-1.418 -3.283,-3.589 -2.461,-4.849 0.821,-1.262 3.255,-1.135 5.437,0.284 2.182,1.415 3.282,3.589 2.463,4.848 z"
   id="path52" />
&#10;						</g>
&#10;						<g
   id="g54">&#10;							<path
   style="fill:#eec84d"
   d="m 270.323,368.827 c -0.821,1.262 -3.257,1.134 -5.436,-0.284 -2.182,-1.417 -2.835,-3.135 -2.714,-5.018 0.097,-1.501 3.507,-0.965 5.689,0.452 1.636,1.063 2.731,3.14 2.731,3.14 0,0 -0.064,1.395 -0.27,1.71 z"
   id="path53" />
&#10;							<path
   style="fill:#eec84d"
   d="m 270.323,367.974 c -0.821,1.261 -3.257,1.134 -5.436,-0.283 -2.182,-1.419 -3.283,-3.589 -2.462,-4.852 0.822,-1.261 3.254,-1.132 5.437,0.283 2.18,1.42 3.283,3.592 2.461,4.852 z"
   id="path54" />
&#10;						</g>
&#10;						<g
   id="g56">&#10;							<path
   style="fill:#eec84d"
   d="m 259.097,371.086 c -1.254,-0.836 -1.095,-3.266 0.353,-5.425 1.449,-2.16 3.637,-3.232 4.889,-2.394 1.252,0.836 1.093,3.267 -0.355,5.426 -1.449,2.159 -3.638,3.231 -4.887,2.393 z"
   id="path55" />
&#10;							<path
   style="fill:#eec84d"
   d="m 259.097,370.232 c -1.254,-0.835 -1.095,-3.264 0.353,-5.424 1.449,-2.161 3.637,-3.232 4.889,-2.396 1.252,0.838 1.093,3.266 -0.355,5.425 -1.449,2.162 -3.638,3.233 -4.887,2.395 z"
   id="path56" />
&#10;						</g>
&#10;						<g
   id="g58">&#10;							<path
   style="fill:#eec84d"
   d="m 243.263,370.605 c -1.252,-0.836 -1.093,-3.267 0.355,-5.426 1.448,-2.159 3.636,-3.232 4.888,-2.395 1.251,0.838 1.094,3.267 -0.354,5.425 -1.448,2.161 -3.636,3.233 -4.889,2.396 z"
   id="path57" />
&#10;							<path
   style="fill:#eec84d"
   d="m 243.263,369.75 c -1.252,-0.836 -1.093,-3.265 0.355,-5.425 1.448,-2.16 3.636,-3.231 4.888,-2.394 1.251,0.836 1.094,3.266 -0.354,5.425 -1.448,2.162 -3.636,3.232 -4.889,2.394 z"
   id="path58" />
&#10;						</g>
&#10;						<g
   id="g60">&#10;							<path
   style="fill:#eec84d"
   d="m 256.448,366.904 c 0.048,1.593 -1.428,3.239 -3.95,3.876 -2.524,0.636 -4.867,-0.031 -5.236,-1.491 -0.118,-0.466 -0.05,-1.257 -0.05,-1.257 0,0 2.234,-2.102 3.949,-2.534 2.305,-0.582 5.287,0.827 5.287,0.827 0,0 -0.005,0.448 0,0.579 z"
   id="path59" />
&#10;							<path
   style="fill:#eec84d"
   d="m 256.399,366.132 c 0.366,1.458 -1.379,3.157 -3.902,3.795 -2.524,0.635 -4.867,-0.032 -5.236,-1.491 -0.369,-1.459 1.377,-3.155 3.899,-3.793 2.525,-0.636 4.869,0.031 5.239,1.489 z"
   id="path60" />
&#10;						</g>
&#10;						<g
   id="g62">&#10;							<path
   style="fill:#eec84d"
   d="m 275.212,368.073 c 0.048,1.594 -1.429,3.24 -3.95,3.876 -2.524,0.637 -4.869,-0.031 -5.237,-1.489 -0.118,-0.468 -0.049,-1.259 -0.049,-1.259 0,0 2.232,-2.103 3.951,-2.533 2.304,-0.582 5.285,0.826 5.285,0.826 0,0 -0.005,0.447 0,0.579 z"
   id="path61" />
&#10;							<path
   style="fill:#eec84d"
   d="m 275.163,367.303 c 0.368,1.458 -1.379,3.157 -3.9,3.793 -2.524,0.637 -4.869,-0.032 -5.237,-1.491 -0.369,-1.458 1.378,-3.157 3.901,-3.79 2.522,-0.639 4.867,0.029 5.236,1.488 z"
   id="path62" />
&#10;						</g>
&#10;						<g
   id="g64">&#10;							<path
   style="fill:#eec84d"
   d="m 279.821,371.863 c 0.048,1.593 -1.427,3.24 -3.952,3.876 -2.521,0.635 -4.867,-0.031 -5.236,-1.49 -0.117,-0.465 -0.05,-1.26 -0.05,-1.26 0,0 2.234,-2.1 3.951,-2.533 2.305,-0.582 5.287,0.826 5.287,0.826 0,0 -0.006,0.449 0,0.581 z"
   id="path63" />
&#10;							<path
   style="fill:#eec84d"
   d="m 279.771,371.092 c 0.369,1.458 -1.376,3.157 -3.901,3.792 -2.521,0.637 -4.867,-0.03 -5.236,-1.49 -0.369,-1.459 1.378,-3.155 3.901,-3.791 2.524,-0.637 4.868,0.029 5.236,1.489 z"
   id="path64" />
&#10;						</g>
&#10;						<g
   id="g66">&#10;							<path
   style="fill:#eec84d"
   d="m 250.091,374.363 c -0.405,1.45 -2.767,2.058 -5.272,1.358 -2.507,-0.699 -3.992,-2.425 -3.936,-3.997 0.009,-0.261 0.105,-0.638 0.105,-0.638 0,0 3.229,-1.192 5.3,-0.613 2.142,0.6 3.862,2.592 3.862,2.592 0,0 -0.001,1.089 -0.059,1.298 z"
   id="path65" />
&#10;							<path
   style="fill:#eec84d"
   d="m 250.091,373.509 c -0.405,1.45 -2.767,2.058 -5.272,1.358 -2.507,-0.7 -4.21,-2.442 -3.806,-3.891 0.407,-1.45 2.765,-2.058 5.274,-1.357 2.505,0.699 4.208,2.441 3.804,3.89 z"
   id="path66" />
&#10;						</g>
&#10;					</g>
&#10;				</g>
&#10;				<g
   id="g89">&#10;					<g
   id="g88">&#10;						<g
   id="g69">&#10;							<path
   style="fill:#eec84d"
   d="m 282.147,365.603 c 0,1.503 -2.108,2.723 -4.711,2.723 -2.604,0 -4.713,-1.22 -4.713,-2.723 0,-0.376 0.005,-0.957 0.005,-0.957 0,0 2.756,-1.767 4.708,-1.767 2.116,0 4.711,1.869 4.711,1.869 0,0 0,0.473 0,0.855 z"
   id="path68" />
&#10;							<path
   style="fill:#eec84d"
   d="m 282.147,364.748 c 0,1.505 -2.108,2.725 -4.711,2.725 -2.604,0 -4.713,-1.22 -4.713,-2.725 0,-1.504 2.108,-2.724 4.713,-2.724 2.603,0 4.711,1.22 4.711,2.724 z"
   id="path69" />
&#10;						</g>
&#10;						<g
   id="g71">&#10;							<path
   style="fill:#eec84d"
   d="m 263.703,363.305 c 0,1.504 -2.109,2.725 -4.711,2.725 -2.602,0 -4.712,-1.22 -4.712,-2.725 0,-0.377 0.005,-0.956 0.005,-0.956 0,0 2.753,-1.768 4.707,-1.768 2.114,0 4.711,1.871 4.711,1.871 0,0 0,0.473 0,0.853 z"
   id="path70" />
&#10;							<path
   style="fill:#eec84d"
   d="m 263.703,362.452 c 0,1.504 -2.109,2.723 -4.711,2.723 -2.602,0 -4.712,-1.219 -4.712,-2.723 0,-1.505 2.11,-2.726 4.712,-2.726 2.602,0 4.711,1.22 4.711,2.726 z"
   id="path71" />
&#10;						</g>
&#10;						<g
   id="g73">&#10;							<path
   style="fill:#eec84d"
   d="m 268.414,359.271 c 0,1.505 -2.109,2.724 -4.711,2.724 -2.603,0 -4.711,-1.219 -4.711,-2.724 0,-0.377 0.003,-0.956 0.003,-0.956 0,0 2.756,-1.769 4.708,-1.769 2.115,0 4.711,1.87 4.711,1.87 0,0 0,0.474 0,0.855 z"
   id="path72" />
&#10;							<path
   style="fill:#eec84d"
   d="m 268.414,358.416 c 0,1.505 -2.109,2.726 -4.711,2.726 -2.603,0 -4.711,-1.221 -4.711,-2.726 0,-1.504 2.108,-2.723 4.711,-2.723 2.602,0 4.711,1.219 4.711,2.723 z"
   id="path73" />
&#10;						</g>
&#10;						<g
   id="g75">&#10;							<path
   style="fill:#eec84d"
   d="m 250.836,363.943 c 0,1.505 -2.108,2.725 -4.712,2.725 -2.601,0 -4.711,-1.22 -4.711,-2.725 0,-0.375 0.003,-0.956 0.003,-0.956 0,0 2.757,-1.766 4.708,-1.766 2.114,0 4.712,1.869 4.712,1.869 0,0 0,0.472 0,0.853 z"
   id="path74" />
&#10;							<path
   style="fill:#eec84d"
   d="m 250.836,363.09 c 0,1.504 -2.108,2.725 -4.712,2.725 -2.601,0 -4.711,-1.221 -4.711,-2.725 0,-1.504 2.11,-2.724 4.711,-2.724 2.603,0 4.712,1.22 4.712,2.724 z"
   id="path75" />
&#10;						</g>
&#10;						<g
   id="g77">&#10;							<path
   style="fill:#eec84d"
   d="m 251.45,369.512 c -1.252,-0.837 -1.093,-3.266 0.356,-5.426 1.445,-2.16 3.636,-3.232 4.888,-2.394 1.251,0.837 1.092,3.266 -0.355,5.425 -1.449,2.159 -3.637,3.231 -4.889,2.395 z"
   id="path76" />
&#10;							<path
   style="fill:#eec84d"
   d="m 251.45,368.659 c -1.252,-0.838 -1.093,-3.266 0.356,-5.426 1.445,-2.159 3.636,-3.231 4.888,-2.395 1.251,0.839 1.092,3.266 -0.355,5.426 -1.449,2.159 -3.637,3.231 -4.889,2.395 z"
   id="path77" />
&#10;						</g>
&#10;						<g
   id="g79">&#10;							<path
   style="fill:#eec84d"
   d="m 264.919,370.151 c -1.253,-0.837 -1.094,-3.267 0.354,-5.426 1.448,-2.159 3.637,-3.231 4.889,-2.395 1.252,0.837 1.093,3.266 -0.355,5.427 -1.45,2.16 -3.636,3.23 -4.888,2.394 z"
   id="path78" />
&#10;							<path
   style="fill:#eec84d"
   d="m 264.919,369.297 c -1.253,-0.837 -1.094,-3.266 0.354,-5.426 1.448,-2.159 3.637,-3.23 4.889,-2.394 1.252,0.838 1.093,3.268 -0.355,5.425 -1.45,2.159 -3.636,3.232 -4.888,2.395 z"
   id="path79" />
&#10;						</g>
&#10;						<g
   id="g81">&#10;							<path
   style="fill:#eec84d"
   d="m 265.288,372.051 c 0,1.503 -2.11,2.723 -4.714,2.723 -2.6,0 -4.712,-1.219 -4.712,-2.723 0,-0.377 0.006,-0.956 0.006,-0.956 0,0 2.754,-1.77 4.706,-1.77 2.116,0 4.714,1.869 4.714,1.869 0,0 0,0.475 0,0.857 z"
   id="path80" />
&#10;							<path
   style="fill:#eec84d"
   d="m 265.288,371.194 c 0,1.506 -2.11,2.726 -4.714,2.726 -2.6,0 -4.712,-1.22 -4.712,-2.726 0,-1.502 2.112,-2.721 4.712,-2.721 2.604,0 4.714,1.219 4.714,2.721 z"
   id="path81" />
&#10;						</g>
&#10;						<g
   id="g83">&#10;							<path
   style="fill:#eec84d"
   d="m 240.633,375.533 c -1.252,-0.836 -1.094,-3.265 0.355,-5.426 1.447,-2.16 3.634,-3.23 4.888,-2.394 1.251,0.837 1.092,3.268 -0.356,5.424 -1.447,2.161 -3.636,3.234 -4.887,2.396 z"
   id="path82" />
&#10;							<path
   style="fill:#eec84d"
   d="m 240.633,374.679 c -1.252,-0.837 -1.094,-3.266 0.355,-5.425 1.447,-2.16 3.634,-3.232 4.888,-2.394 1.251,0.837 1.092,3.267 -0.356,5.424 -1.447,2.159 -3.636,3.233 -4.887,2.395 z"
   id="path83" />
&#10;						</g>
&#10;						<g
   id="g85">&#10;							<path
   style="fill:#eec84d"
   d="m 256.624,375.272 c -0.823,1.261 -3.256,1.136 -5.437,-0.283 -2.182,-1.418 -2.835,-3.137 -2.714,-5.018 0.097,-1.502 3.511,-0.965 5.69,0.451 1.635,1.064 2.73,3.14 2.73,3.14 0,0 -0.062,1.395 -0.269,1.71 z"
   id="path84" />
&#10;							<path
   style="fill:#eec84d"
   d="m 256.624,374.42 c -0.823,1.258 -3.256,1.133 -5.437,-0.284 -2.182,-1.419 -3.283,-3.588 -2.46,-4.849 0.822,-1.261 3.257,-1.134 5.436,0.284 2.182,1.417 3.283,3.587 2.461,4.849 z"
   id="path85" />
&#10;						</g>
&#10;						<g
   id="g87">&#10;							<path
   style="fill:#eec84d"
   d="m 278.677,373.863 c -0.822,1.261 -3.257,1.135 -5.438,-0.284 -2.18,-1.418 -2.833,-3.136 -2.713,-5.019 0.095,-1.501 3.509,-0.965 5.69,0.451 1.636,1.065 2.73,3.141 2.73,3.141 0,0 -0.065,1.395 -0.269,1.711 z"
   id="path86" />
&#10;							<path
   style="fill:#eec84d"
   d="m 278.677,373.008 c -0.822,1.26 -3.257,1.134 -5.438,-0.283 -2.18,-1.418 -3.281,-3.589 -2.461,-4.85 0.823,-1.26 3.256,-1.134 5.438,0.284 2.18,1.418 3.283,3.589 2.461,4.849 z"
   id="path87" />
&#10;						</g>
&#10;					</g>
&#10;				</g>
&#10;				<g
   id="g91">&#10;					<path
   style="fill:#63635a"
   d="M 279.573,385.904 V 369.8 H 242.02 v 16.104 c -9.318,6.112 -15.472,16.641 -15.472,28.608 0,18.891 16.569,25.455 35.483,25.455 18.916,0 33.014,-6.564 33.014,-25.455 0,-11.967 -6.153,-22.496 -15.472,-28.608 z"
   id="path89" />
&#10;					<g
   id="g90">&#10;						<defs
   id="defs89" />
&#10;						<clipPath
   id="SVGID_00000097483411647024965880000011904433710116395692_">&#10;							<use
   xlink:href="#SVGID_1_"
   style="overflow:visible"
   id="use89" />
&#10;						</clipPath>
&#10;					</g>
&#10;					<path
   style="fill:#6a6a61"
   d="m 282.905,377.387 c 0,1.111 -0.901,2.01 -2.015,2.01 h -40.188 c -1.112,0 -2.016,-0.9 -2.016,-2.01 v -6.862 c 0,-1.112 0.904,-2.011 2.016,-2.011 h 40.188 c 1.114,0 2.015,0.899 2.015,2.011 z"
   id="path90" />
&#10;				</g>
&#10;			</g>
&#10;		</g>
&#10;	</g>
</g>
  </g>
</svg>
