<?xml version="1.0" encoding="UTF-8" standalone="no"?>
<!-- Created with Inkscape (http://www.inkscape.org/) -->

<svg
   width="33.565311mm"
   height="43.102474mm"
   viewBox="0 0 33.565311 43.102474"
   version="1.1"
   id="svg1"
   xmlns:inkscape="http://www.inkscape.org/namespaces/inkscape"
   xmlns:sodipodi="http://sodipodi.sourceforge.net/DTD/sodipodi-0.dtd"
   xmlns:xlink="http://www.w3.org/1999/xlink"
   xmlns="http://www.w3.org/2000/svg"
   xmlns:svg="http://www.w3.org/2000/svg">
  <sodipodi:namedview
     id="namedview1"
     pagecolor="#ffffff"
     bordercolor="#000000"
     borderopacity="0.25"
     inkscape:showpageshadow="2"
     inkscape:pageopacity="0.0"
     inkscape:pagecheckerboard="0"
     inkscape:deskcolor="#d1d1d1"
     inkscape:document-units="mm" />
  <defs
     id="defs1">
    <clipPath
       id="SVGID_00000070826662957011781940000009976056824246789565_">&#10;				<use
   xlink:href="#SVGID_00000116196297244978102960000018298537788107429525_"
   style="overflow:visible"
   id="use637" />
&#10;			</clipPath>
    <path
       id="SVGID_00000116196297244978102960000018298537788107429525_"
       style="opacity:0.3"
       d="m 308.339,620.919 c 0,38.288 -22.394,69.328 -50.019,69.328 -27.624,0 -50.019,-31.04 -50.019,-69.328 0,-38.287 22.395,-69.327 50.019,-69.327 27.626,0 50.019,31.04 50.019,69.327 z" />
  </defs>
  <g
     inkscape:label="Layer 1"
     inkscape:groupmode="layer"
     id="layer1"
     transform="translate(-129.91042,-145.78541)">
    <g
       id="g274"
       transform="matrix(0.26458333,0,0,0.26458333,-60.66102,89.56093)">&#10;		&#10;		&#10;		&#10;	<g
   id="g241"
   transform="translate(161.841,-56.476002)">&#10;		&#10;		&#10;		&#10;		&#10;	<g
   id="g676"
   transform="translate(363.53801,-270.488)">&#10;		<g
   id="g636">&#10;			<rect
   x="196.97"
   y="541.54498"
   style="fill:#6a6a61"
   width="122.702"
   height="158.74899"
   id="rect635" />
&#10;			<path
   style="fill:#526069"
   d="M 321.751,702.373 H 194.891 V 539.466 H 321.752 V 702.373 Z M 199.05,698.214 H 317.592 V 543.625 H 199.05 Z"
   id="path635" />
&#10;		</g>
&#10;		<g
   id="g637">&#10;			<path
   style="fill:#8ab7a1"
   d="m 309.792,620.919 c 0,39.203 -23.044,70.983 -51.471,70.983 -28.427,0 -51.472,-31.78 -51.472,-70.983 0,-39.202 23.045,-70.982 51.472,-70.982 28.427,0 51.471,31.78 51.471,70.982 z"
   id="path636" />
&#10;			<path
   style="fill:#dee4ca"
   d="m 258.321,693.462 c -29.242,0 -53.031,-32.543 -53.031,-72.543 0,-39.999 23.79,-72.542 53.031,-72.542 29.241,0 53.031,32.543 53.031,72.542 0,40 -23.789,72.543 -53.031,72.543 z m 0,-141.965 c -27.521,0 -49.912,31.143 -49.912,69.422 0,38.28 22.391,69.423 49.912,69.423 27.521,0 49.912,-31.143 49.912,-69.423 0,-38.279 -22.39,-69.422 -49.912,-69.422 z"
   id="path637" />
&#10;		</g>
&#10;		<g
   style="opacity:0.3"
   id="g669">&#10;			<defs
   id="defs637" />
&#10;			<clipPath
   id="clipPath1-8">&#10;				<use
   xlink:href="#SVGID_00000116196297244978102960000018298537788107429525_"
   style="overflow:visible"
   id="use1-9" />
&#10;			</clipPath>
&#10;			<g
   clip-path="url(#SVGID_00000070826662957011781940000009976056824246789565_)"
   id="g668">&#10;				<g
   id="g667">&#10;					<g
   id="g638">&#10;						<polygon
   style="fill:#dee4ca"
   points="261.673,699.051 255.041,699.051 258.355,622.852 "
   id="polygon637" />
&#10;						<polygon
   style="fill:#dee4ca"
   points="255.041,542.787 261.673,542.787 258.355,618.987 "
   id="polygon638" />
&#10;					</g>
&#10;					<g
   id="g640">&#10;						<polygon
   style="fill:#dee4ca"
   points="245.432,698.035 238.944,696.649 257.957,622.809 "
   id="polygon639" />
&#10;						<polygon
   style="fill:#dee4ca"
   points="271.282,543.804 277.77,545.19 258.756,619.03 "
   id="polygon640" />
&#10;					</g>
&#10;					<g
   id="g642">&#10;						<polygon
   style="fill:#dee4ca"
   points="229.756,693.648 223.697,690.934 257.574,622.685 "
   id="polygon641" />
&#10;						<polygon
   style="fill:#dee4ca"
   points="286.957,548.19 293.017,550.903 259.139,619.154 "
   id="polygon642" />
&#10;					</g>
&#10;					<g
   id="g644">&#10;						<polygon
   style="fill:#dee4ca"
   points="215.33,686.078 209.965,682.159 257.227,622.482 "
   id="polygon643" />
&#10;						<polygon
   style="fill:#dee4ca"
   points="301.383,555.761 306.748,559.681 259.486,619.356 "
   id="polygon644" />
&#10;					</g>
&#10;					<g
   id="g646">&#10;						<polygon
   style="fill:#dee4ca"
   points="202.787,675.658 198.351,670.704 256.927,622.211 "
   id="polygon645" />
&#10;						<polygon
   style="fill:#dee4ca"
   points="313.928,566.181 318.363,571.134 259.786,619.628 "
   id="polygon646" />
&#10;					</g>
&#10;					<g
   id="g648">&#10;						<polygon
   style="fill:#dee4ca"
   points="192.675,662.846 189.36,657.072 256.692,621.884 "
   id="polygon647" />
&#10;						<polygon
   style="fill:#dee4ca"
   points="324.039,578.991 327.353,584.766 260.022,619.955 "
   id="polygon648" />
&#10;					</g>
&#10;					<g
   id="g650">&#10;						<polygon
   style="fill:#dee4ca"
   points="185.435,648.198 183.387,641.859 256.528,621.516 "
   id="polygon649" />
&#10;						<polygon
   style="fill:#dee4ca"
   points="331.279,593.639 333.326,599.979 260.185,620.322 "
   id="polygon650" />
&#10;					</g>
&#10;					<g
   id="g652">&#10;						<polygon
   style="fill:#dee4ca"
   points="181.385,632.357 180.693,625.729 256.444,621.121 "
   id="polygon651" />
&#10;						<polygon
   style="fill:#dee4ca"
   points="335.329,609.481 336.019,616.11 260.269,620.718 "
   id="polygon652" />
&#10;					</g>
&#10;					<g
   id="g654">&#10;						<polygon
   style="fill:#dee4ca"
   points="180.7,616.019 181.397,609.389 256.444,620.717 "
   id="polygon653" />
&#10;						<polygon
   style="fill:#dee4ca"
   points="336.013,625.82 335.316,632.45 260.269,621.123 "
   id="polygon654" />
&#10;					</g>
&#10;					<g
   id="g656">&#10;						<polygon
   style="fill:#dee4ca"
   points="183.414,599.894 185.466,593.554 256.529,620.321 "
   id="polygon655" />
&#10;						<polygon
   style="fill:#dee4ca"
   points="333.3,641.945 331.247,648.285 260.184,621.518 "
   id="polygon656" />
&#10;					</g>
&#10;					<g
   id="g658">&#10;						<polygon
   style="fill:#dee4ca"
   points="189.403,584.685 192.724,578.914 256.693,619.953 "
   id="polygon657" />
&#10;						<polygon
   style="fill:#dee4ca"
   points="327.311,657.153 323.989,662.924 260.02,621.886 "
   id="polygon658" />
&#10;					</g>
&#10;					<g
   id="g660">&#10;						<polygon
   style="fill:#dee4ca"
   points="198.409,571.063 202.852,566.114 256.93,619.625 "
   id="polygon659" />
&#10;						<polygon
   style="fill:#dee4ca"
   points="318.304,670.774 313.861,675.725 259.784,622.214 "
   id="polygon660" />
&#10;					</g>
&#10;					<g
   id="g662">&#10;						<polygon
   style="fill:#dee4ca"
   points="210.036,559.622 215.406,555.709 257.228,619.356 "
   id="polygon661" />
&#10;						<polygon
   style="fill:#dee4ca"
   points="306.677,682.217 301.307,686.13 259.485,622.484 "
   id="polygon662" />
&#10;					</g>
&#10;					<g
   id="g664">&#10;						<polygon
   style="fill:#dee4ca"
   points="223.779,550.862 229.84,548.158 257.576,619.152 "
   id="polygon663" />
&#10;						<polygon
   style="fill:#dee4ca"
   points="292.935,690.977 286.873,693.681 259.137,622.685 "
   id="polygon664" />
&#10;					</g>
&#10;					<g
   id="g666">&#10;						<polygon
   style="fill:#dee4ca"
   points="239.033,545.166 245.521,543.786 257.959,619.028 "
   id="polygon665" />
&#10;						<polygon
   style="fill:#dee4ca"
   points="277.68,696.673 271.192,698.052 258.755,622.81 "
   id="polygon666" />
&#10;					</g>
&#10;				</g>
&#10;			</g>
&#10;		</g>
&#10;		<g
   id="g672">&#10;			<path
   style="fill:#dee4ca"
   d="m 300.831,693.434 c 1.549,-0.396 3.578,-4.165 4.296,-5.991 -0.337,1.862 -0.86,5.892 0.571,7.325 1.206,1.209 3.164,1.211 4.372,0.005 0.729,-0.725 1.016,-1.725 0.868,-2.669 v 0 c 0,10e-4 0.001,10e-4 0.003,10e-4 0.942,0.148 1.94,-0.136 2.668,-0.861 1.208,-1.206 1.506,-2.868 0.006,-4.373 -1.366,-1.37 -4.901,-1.166 -6.893,-0.802 1.917,-0.734 5.178,-2.434 5.633,-4.104 0.559,-2.052 -0.534,-3.345 -2.183,-3.789 -0.993,-0.266 -2.001,-0.016 -2.744,0.584 v 0 c -10e-4,-0.003 -0.002,-0.004 -0.002,-0.006 -0.344,-0.89 -1.089,-1.609 -2.081,-1.877 -1.647,-0.442 -3.348,0.532 -3.789,2.183 -0.3,1.129 0.582,2.895 1.573,4.415 l -0.823,0.657 c -1.472,-0.965 -3.148,-1.801 -4.249,-1.531 -1.659,0.405 -2.651,2.108 -2.229,3.762 0.255,0.997 0.97,1.752 1.857,2.104 v 0 c -0.005,0.005 -0.009,0.011 -0.013,0.016 -0.6,0.734 -0.858,1.732 -0.605,2.722 0.425,1.655 1.705,2.755 3.764,2.229 z"
   id="path669" />
&#10;			<path
   style="fill:#dee4ca"
   d="m 204.253,681.874 c 0.396,1.549 4.165,3.577 5.991,4.296 -1.862,-0.338 -5.892,-0.86 -7.325,0.57 -1.209,1.206 -1.211,3.164 -0.005,4.373 0.725,0.729 1.725,1.015 2.669,0.868 v 0 c -0.001,10e-4 -0.001,0.002 -0.001,0.002 -0.148,0.943 0.136,1.941 0.862,2.668 1.206,1.209 2.868,1.506 4.372,0.007 1.37,-1.367 1.166,-4.902 0.802,-6.894 0.734,1.917 2.433,5.178 4.104,5.633 2.051,0.559 3.345,-0.534 3.789,-2.183 0.266,-0.993 0.017,-2.002 -0.584,-2.745 v 0 c 0.003,-0.001 0.004,-0.002 0.006,-0.002 0.89,-0.345 1.609,-1.089 1.876,-2.081 0.443,-1.647 -0.532,-3.348 -2.183,-3.788 -1.129,-0.301 -2.895,0.581 -4.415,1.572 l -0.657,-0.822 c 0.965,-1.473 1.8,-3.147 1.531,-4.249 -0.405,-1.659 -2.109,-2.651 -3.762,-2.229 -0.997,0.255 -1.752,0.97 -2.104,1.857 v 0 c -0.005,-0.005 -0.011,-0.01 -0.016,-0.014 -0.734,-0.599 -1.732,-0.856 -2.722,-0.603 -1.655,0.424 -2.755,1.703 -2.228,3.764 z"
   id="path670" />
&#10;			<path
   style="fill:#dee4ca"
   d="m 300.831,548.405 c 1.549,0.397 3.578,4.165 4.296,5.991 -0.337,-1.862 -0.86,-5.892 0.571,-7.325 1.206,-1.209 3.164,-1.211 4.372,-0.005 0.729,0.725 1.016,1.724 0.868,2.669 v 0 c 0,-0.002 0.001,-0.002 0.003,-0.002 0.942,-0.148 1.94,0.137 2.668,0.862 1.208,1.206 1.506,2.868 0.006,4.373 -1.366,1.37 -4.901,1.166 -6.893,0.802 1.917,0.734 5.178,2.434 5.633,4.104 0.559,2.052 -0.534,3.345 -2.183,3.789 -0.993,0.266 -2.001,0.016 -2.744,-0.584 v 0 c -10e-4,0.003 -0.002,0.004 -0.002,0.006 -0.344,0.89 -1.089,1.609 -2.081,1.877 -1.647,0.442 -3.348,-0.532 -3.789,-2.184 -0.3,-1.129 0.582,-2.895 1.573,-4.415 l -0.823,-0.657 c -1.472,0.965 -3.148,1.801 -4.249,1.531 -1.659,-0.405 -2.651,-2.108 -2.229,-3.762 0.255,-0.997 0.97,-1.752 1.857,-2.104 v 0 c -0.005,-0.005 -0.009,-0.011 -0.013,-0.016 -0.6,-0.734 -0.858,-1.733 -0.605,-2.722 0.425,-1.654 1.705,-2.754 3.764,-2.228 z"
   id="path671" />
&#10;			<path
   style="fill:#dee4ca"
   d="m 204.253,559.965 c 0.396,-1.549 4.165,-3.578 5.991,-4.296 -1.862,0.337 -5.892,0.86 -7.325,-0.57 -1.209,-1.206 -1.211,-3.164 -0.005,-4.373 0.725,-0.729 1.725,-1.015 2.669,-0.868 v 0 c -0.001,-10e-4 -0.001,-0.002 -0.001,-0.003 -0.148,-0.942 0.136,-1.94 0.862,-2.667 1.206,-1.209 2.868,-1.506 4.372,-0.007 1.37,1.367 1.166,4.902 0.802,6.893 0.734,-1.918 2.433,-5.178 4.104,-5.633 2.051,-0.559 3.345,0.534 3.789,2.183 0.266,0.993 0.017,2.002 -0.584,2.745 v 0 c 0.003,10e-4 0.004,0.002 0.006,0.002 0.89,0.345 1.609,1.089 1.876,2.081 0.443,1.646 -0.532,3.348 -2.183,3.788 -1.129,0.301 -2.895,-0.581 -4.415,-1.572 l -0.657,0.822 c 0.965,1.473 1.8,3.148 1.531,4.249 -0.405,1.659 -2.109,2.651 -3.762,2.228 -0.997,-0.255 -1.752,-0.97 -2.104,-1.857 v 0 c -0.005,0.005 -0.011,0.009 -0.016,0.014 -0.734,0.599 -1.732,0.857 -2.722,0.603 -1.655,-0.422 -2.755,-1.702 -2.228,-3.762 z"
   id="path672" />
&#10;		</g>
&#10;		<g
   id="g675">&#10;			<g
   id="g674">&#10;				<path
   style="fill:#dee4ca"
   d="m 277.57,648.18 c -7.249,0.023 -13.168,-6.69 -13.192,-14.961 -0.025,-8.273 5.852,-15.019 13.102,-15.04 7.247,-0.022 13.168,6.688 13.193,14.959 0.024,8.272 -5.855,15.02 -13.103,15.042 z m -0.076,-25.286 c -4.649,0.013 -8.416,4.64 -8.399,10.31 0.018,5.673 3.813,10.274 8.46,10.259 4.65,-0.013 8.417,-4.64 8.401,-10.311 -0.017,-5.67 -3.813,-10.271 -8.462,-10.258 z"
   id="path673" />
&#10;				&#10;					<rect
   x="238.53"
   y="604.06702"
   transform="matrix(1,-0.0029,0.0029,1,-1.8424,0.7608)"
   style="fill:#eec84d"
   width="39.926998"
   height="49.039001"
   id="rect673" />
&#10;				<path
   style="fill:#dee4ca"
   d="m 275.036,598.501 c 0.845,-1.228 1.341,-2.715 1.337,-4.319 -0.011,-3.718 -2.695,-6.796 -6.223,-7.439 -1.153,-2.74 -3.865,-4.664 -7.023,-4.654 -3.051,0.01 -5.665,1.819 -6.866,4.414 -1.35,-1.216 -3.132,-1.96 -5.092,-1.954 -4.193,0.014 -7.581,3.422 -7.568,7.614 0.004,1.62 0.52,3.115 1.387,4.347 -3.703,0.512 -6.552,3.689 -6.541,7.532 0.014,4.191 3.422,7.58 7.614,7.567 2.621,-0.007 4.926,-1.342 6.284,-3.367 1.385,1.407 3.306,2.28 5.436,2.272 2.422,-0.007 4.57,-1.152 5.955,-2.922 1.118,2.812 3.865,4.8 7.074,4.79 4.192,-0.013 7.582,-3.424 7.568,-7.615 -0.01,-2.61 -1.334,-4.906 -3.342,-6.266 z"
   id="path674" />
&#10;				&#10;					<rect
   x="238.46201"
   y="604.07001"
   transform="matrix(1,-0.0031,0.0031,1,-1.8607,0.7931)"
   style="fill:#dee4ca"
   width="39.926998"
   height="9.559"
   id="rect674" />
&#10;			</g>
&#10;			<rect
   x="238.61301"
   y="653.16498"
   style="fill:#dee4ca"
   width="39.926998"
   height="6.585"
   id="rect675" />
&#10;		</g>
&#10;	</g>
</g>
</g>
  </g>
</svg>
