<?xml version="1.0" encoding="UTF-8" standalone="no"?>
<!-- Created with Inkscape (http://www.inkscape.org/) -->

<svg
   width="33.564777mm"
   height="43.102749mm"
   viewBox="0 0 33.564777 43.102749"
   version="1.1"
   id="svg1"
   xmlns:inkscape="http://www.inkscape.org/namespaces/inkscape"
   xmlns:sodipodi="http://sodipodi.sourceforge.net/DTD/sodipodi-0.dtd"
   xmlns:xlink="http://www.w3.org/1999/xlink"
   xmlns="http://www.w3.org/2000/svg"
   xmlns:svg="http://www.w3.org/2000/svg">
  <sodipodi:namedview
     id="namedview1"
     pagecolor="#ffffff"
     bordercolor="#000000"
     borderopacity="0.25"
     inkscape:showpageshadow="2"
     inkscape:pageopacity="0.0"
     inkscape:pagecheckerboard="0"
     inkscape:deskcolor="#d1d1d1"
     inkscape:document-units="mm" />
  <defs
     id="defs1">
    <clipPath
       id="SVGID_00000076567329383699463760000008806191917793203106_">&#10;				<use
   xlink:href="#SVGID_00000132061232356056184020000014019804559496451205_"
   style="overflow:visible"
   id="use423" />
&#10;			</clipPath>
    <polygon
       id="SVGID_00000132061232356056184020000014019804559496451205_"
       points="142.365,560.192 79.206,560.192 79.206,551.851 57.755,551.851 57.755,573.301 64.885,573.301 64.885,668.729 57.755,668.729 57.755,689.141 79.206,689.141 79.206,683.535 142.365,683.535 142.365,689.988 163.815,689.988 163.815,669.577 157.281,669.577 157.281,574.15 163.815,574.15 163.815,552.699 142.365,552.699 " />
  </defs>
  <g
     inkscape:label="Layer 1"
     inkscape:groupmode="layer"
     id="layer1"
     transform="translate(-121.70833,-155.04583)">
    <g
       id="g274"
       transform="matrix(0.26458333,0,0,0.26458333,-60.66102,89.56093)">&#10;		&#10;		&#10;		&#10;	<g
   id="g241"
   transform="translate(161.841,-56.476002)">&#10;		&#10;		&#10;		&#10;		&#10;	<g
   id="g564"
   transform="translate(480.073,-235.487)">&#10;		<g
   id="g422">&#10;			<rect
   x="49.436001"
   y="541.54498"
   style="fill:#dee4ca"
   width="122.7"
   height="158.748"
   id="rect421" />
&#10;			<path
   style="fill:#6a6a61"
   d="M 174.215,702.373 H 47.356 V 539.465 h 126.859 z m -122.7,-4.159 H 170.056 V 543.624 H 51.515 Z"
   id="path421" />
&#10;		</g>
&#10;		<g
   id="g423">&#10;			<polygon
   style="fill:#8ab7a1"
   points="64.885,572.781 64.885,668.21 57.755,668.21 57.755,689.66 79.206,689.66 79.206,683.016 142.365,683.016 142.365,690.508 163.815,690.508 163.815,669.058 157.281,669.058 157.281,573.63 163.815,573.63 163.815,552.18 142.365,552.18 142.365,559.673 79.206,559.673 79.206,551.331 57.755,551.331 57.755,572.781 "
   id="polygon422" />
&#10;			<path
   style="fill:#6a6a61"
   d="m 164.855,691.548 h -23.53 v -7.493 h -61.08 v 6.646 h -23.53 v -23.53 h 7.129 v -93.349 h -7.129 v -23.53 h 23.53 v 8.342 h 61.08 v -7.493 h 23.53 v 23.53 h -6.535 v 93.348 h 6.535 z m -21.45,-2.079 h 19.371 v -19.371 h -6.535 V 572.59 h 6.535 v -19.37 h -19.371 v 7.493 H 78.166 V 552.37 H 58.795 v 19.371 h 7.13 v 97.509 h -7.13 v 19.37 h 19.371 v -6.645 h 65.239 z"
   id="path422" />
&#10;		</g>
&#10;		<g
   id="g554">&#10;			<defs
   id="defs423" />
&#10;			<clipPath
   id="clipPath1-6">&#10;				<use
   xlink:href="#SVGID_00000132061232356056184020000014019804559496451205_"
   style="overflow:visible"
   id="use1-0" />
&#10;			</clipPath>
&#10;			<g
   style="opacity:0.2"
   clip-path="url(#SVGID_00000076567329383699463760000008806191917793203106_)"
   id="g553">&#10;				<path
   style="fill:#ffffff"
   d="m 45.065,551.738 c 0,0.851 -0.69,1.541 -1.541,1.541 -0.851,0 -1.541,-0.69 -1.541,-1.541 0,-0.852 0.69,-1.541 1.541,-1.541 0.851,0 1.541,0.69 1.541,1.541 z"
   id="path423" />
&#10;				<path
   style="fill:#ffffff"
   d="m 60.089,551.738 c 0,0.851 -0.69,1.541 -1.541,1.541 -0.851,0 -1.542,-0.69 -1.542,-1.541 0,-0.852 0.69,-1.541 1.542,-1.541 0.851,0 1.541,0.69 1.541,1.541 z"
   id="path424" />
&#10;				<path
   style="fill:#ffffff"
   d="m 75.112,551.738 c 0,0.851 -0.689,1.541 -1.54,1.541 -0.851,0 -1.541,-0.69 -1.541,-1.541 0,-0.852 0.69,-1.541 1.541,-1.541 0.851,0 1.54,0.69 1.54,1.541 z"
   id="path425" />
&#10;				<path
   style="fill:#ffffff"
   d="m 90.137,551.738 c 0,0.851 -0.69,1.541 -1.541,1.541 -0.851,0 -1.541,-0.69 -1.541,-1.541 0,-0.852 0.689,-1.541 1.541,-1.541 0.851,0 1.541,0.69 1.541,1.541 z"
   id="path426" />
&#10;				<path
   style="fill:#ffffff"
   d="m 105.161,551.738 c 0,0.851 -0.69,1.541 -1.542,1.541 -0.85,0 -1.54,-0.69 -1.54,-1.541 0,-0.852 0.69,-1.541 1.54,-1.541 0.851,0 1.542,0.69 1.542,1.541 z"
   id="path427" />
&#10;				<path
   style="fill:#ffffff"
   d="m 120.185,551.738 c 0,0.851 -0.689,1.541 -1.541,1.541 -0.851,0 -1.542,-0.69 -1.542,-1.541 0,-0.852 0.691,-1.541 1.542,-1.541 0.851,0 1.541,0.69 1.541,1.541 z"
   id="path428" />
&#10;				<path
   style="fill:#ffffff"
   d="m 135.208,551.738 c 0,0.851 -0.689,1.541 -1.54,1.541 -0.851,0 -1.542,-0.69 -1.542,-1.541 0,-0.852 0.69,-1.541 1.542,-1.541 0.851,0 1.54,0.69 1.54,1.541 z"
   id="path429" />
&#10;				<path
   style="fill:#ffffff"
   d="m 150.233,551.738 c 0,0.851 -0.69,1.541 -1.542,1.541 -0.851,0 -1.54,-0.69 -1.54,-1.541 0,-0.852 0.689,-1.541 1.54,-1.541 0.851,0 1.542,0.69 1.542,1.541 z"
   id="path430" />
&#10;				<path
   style="fill:#ffffff"
   d="m 165.256,551.738 c 0,0.851 -0.69,1.541 -1.542,1.541 -0.851,0 -1.54,-0.69 -1.54,-1.541 0,-0.852 0.689,-1.541 1.54,-1.541 0.852,0 1.542,0.69 1.542,1.541 z"
   id="path431" />
&#10;				<path
   style="fill:#ffffff"
   d="m 180.28,551.738 c 0,0.851 -0.689,1.541 -1.541,1.541 -0.851,0 -1.542,-0.69 -1.542,-1.541 0,-0.852 0.691,-1.541 1.542,-1.541 0.852,0 1.541,0.69 1.541,1.541 z"
   id="path432" />
&#10;				<path
   style="fill:#ffffff"
   d="m 52.734,561.279 c 0,0.851 -0.69,1.54 -1.541,1.54 -0.851,0 -1.541,-0.689 -1.541,-1.54 0,-0.852 0.69,-1.541 1.541,-1.541 0.851,0 1.541,0.69 1.541,1.541 z"
   id="path433" />
&#10;				<path
   style="fill:#ffffff"
   d="m 67.757,561.279 c 0,0.851 -0.689,1.54 -1.541,1.54 -0.851,0 -1.541,-0.689 -1.541,-1.54 0,-0.852 0.69,-1.541 1.541,-1.541 0.852,0 1.541,0.69 1.541,1.541 z"
   id="path434" />
&#10;				<path
   style="fill:#ffffff"
   d="m 82.782,561.279 c 0,0.851 -0.69,1.54 -1.542,1.54 -0.852,0 -1.54,-0.689 -1.54,-1.54 0,-0.852 0.689,-1.541 1.54,-1.541 0.851,0 1.542,0.69 1.542,1.541 z"
   id="path435" />
&#10;				<path
   style="fill:#ffffff"
   d="m 97.806,561.279 c 0,0.851 -0.691,1.54 -1.541,1.54 -0.851,0 -1.541,-0.689 -1.541,-1.54 0,-0.852 0.689,-1.541 1.541,-1.541 0.85,0 1.541,0.69 1.541,1.541 z"
   id="path436" />
&#10;				<path
   style="fill:#ffffff"
   d="m 112.83,561.279 c 0,0.851 -0.69,1.54 -1.542,1.54 -0.851,0 -1.54,-0.689 -1.54,-1.54 0,-0.852 0.689,-1.541 1.54,-1.541 0.851,0 1.542,0.69 1.542,1.541 z"
   id="path437" />
&#10;				<path
   style="fill:#ffffff"
   d="m 127.853,561.279 c 0,0.851 -0.689,1.54 -1.54,1.54 -0.851,0 -1.542,-0.689 -1.542,-1.54 0,-0.852 0.69,-1.541 1.542,-1.541 0.851,0 1.54,0.69 1.54,1.541 z"
   id="path438" />
&#10;				<path
   style="fill:#ffffff"
   d="m 142.877,561.279 c 0,0.851 -0.689,1.54 -1.541,1.54 -0.851,0 -1.54,-0.689 -1.54,-1.54 0,-0.852 0.689,-1.541 1.54,-1.541 0.852,0 1.541,0.69 1.541,1.541 z"
   id="path439" />
&#10;				<path
   style="fill:#ffffff"
   d="m 157.901,561.279 c 0,0.851 -0.691,1.54 -1.541,1.54 -0.851,0 -1.541,-0.689 -1.541,-1.54 0,-0.852 0.689,-1.541 1.541,-1.541 0.851,0 1.541,0.69 1.541,1.541 z"
   id="path440" />
&#10;				<path
   style="fill:#ffffff"
   d="m 172.925,561.279 c 0,0.851 -0.69,1.54 -1.542,1.54 -0.851,0 -1.54,-0.689 -1.54,-1.54 0,-0.852 0.689,-1.541 1.54,-1.541 0.852,0 1.542,0.69 1.542,1.541 z"
   id="path441" />
&#10;				<path
   style="fill:#ffffff"
   d="m 45.065,573.054 c 0,0.851 -0.69,1.54 -1.541,1.54 -0.851,0 -1.541,-0.69 -1.541,-1.54 0,-0.852 0.69,-1.542 1.541,-1.542 0.851,0 1.541,0.69 1.541,1.542 z"
   id="path442" />
&#10;				<path
   style="fill:#ffffff"
   d="m 60.089,573.054 c 0,0.851 -0.69,1.54 -1.541,1.54 -0.851,0 -1.542,-0.69 -1.542,-1.54 0,-0.852 0.69,-1.542 1.542,-1.542 0.851,0 1.541,0.69 1.541,1.542 z"
   id="path443" />
&#10;				<path
   style="fill:#ffffff"
   d="m 75.112,573.054 c 0,0.851 -0.689,1.54 -1.54,1.54 -0.851,0 -1.541,-0.69 -1.541,-1.54 0,-0.852 0.69,-1.542 1.541,-1.542 0.851,0 1.54,0.69 1.54,1.542 z"
   id="path444" />
&#10;				<path
   style="fill:#ffffff"
   d="m 90.137,573.054 c 0,0.851 -0.69,1.54 -1.541,1.54 -0.851,0 -1.541,-0.69 -1.541,-1.54 0,-0.852 0.689,-1.542 1.541,-1.542 0.851,0 1.541,0.69 1.541,1.542 z"
   id="path445" />
&#10;				<path
   style="fill:#ffffff"
   d="m 105.161,573.054 c 0,0.851 -0.69,1.54 -1.542,1.54 -0.85,0 -1.54,-0.69 -1.54,-1.54 0,-0.852 0.69,-1.542 1.54,-1.542 0.851,0 1.542,0.69 1.542,1.542 z"
   id="path446" />
&#10;				<path
   style="fill:#ffffff"
   d="m 120.185,573.054 c 0,0.851 -0.689,1.54 -1.541,1.54 -0.851,0 -1.542,-0.69 -1.542,-1.54 0,-0.852 0.691,-1.542 1.542,-1.542 0.851,0 1.541,0.69 1.541,1.542 z"
   id="path447" />
&#10;				<path
   style="fill:#ffffff"
   d="m 135.208,573.054 c 0,0.851 -0.689,1.54 -1.54,1.54 -0.851,0 -1.542,-0.69 -1.542,-1.54 0,-0.852 0.69,-1.542 1.542,-1.542 0.851,0 1.54,0.69 1.54,1.542 z"
   id="path448" />
&#10;				<path
   style="fill:#ffffff"
   d="m 150.233,573.054 c 0,0.851 -0.69,1.54 -1.542,1.54 -0.851,0 -1.54,-0.69 -1.54,-1.54 0,-0.852 0.689,-1.542 1.54,-1.542 0.851,0 1.542,0.69 1.542,1.542 z"
   id="path449" />
&#10;				<path
   style="fill:#ffffff"
   d="m 165.256,573.054 c 0,0.851 -0.69,1.54 -1.542,1.54 -0.851,0 -1.54,-0.69 -1.54,-1.54 0,-0.852 0.689,-1.542 1.54,-1.542 0.852,0 1.542,0.69 1.542,1.542 z"
   id="path450" />
&#10;				<path
   style="fill:#ffffff"
   d="m 180.28,573.054 c 0,0.851 -0.689,1.54 -1.541,1.54 -0.851,0 -1.542,-0.69 -1.542,-1.54 0,-0.852 0.691,-1.542 1.542,-1.542 0.852,0 1.541,0.69 1.541,1.542 z"
   id="path451" />
&#10;				<path
   style="fill:#ffffff"
   d="m 52.734,582.595 c 0,0.851 -0.69,1.54 -1.541,1.54 -0.851,0 -1.541,-0.69 -1.541,-1.54 0,-0.851 0.69,-1.542 1.541,-1.542 0.851,0 1.541,0.691 1.541,1.542 z"
   id="path452" />
&#10;				<path
   style="fill:#ffffff"
   d="m 67.757,582.595 c 0,0.851 -0.689,1.54 -1.541,1.54 -0.851,0 -1.541,-0.69 -1.541,-1.54 0,-0.851 0.69,-1.542 1.541,-1.542 0.852,0 1.541,0.691 1.541,1.542 z"
   id="path453" />
&#10;				<path
   style="fill:#ffffff"
   d="m 82.782,582.595 c 0,0.851 -0.69,1.54 -1.542,1.54 -0.852,0 -1.54,-0.69 -1.54,-1.54 0,-0.851 0.689,-1.542 1.54,-1.542 0.851,0 1.542,0.691 1.542,1.542 z"
   id="path454" />
&#10;				<path
   style="fill:#ffffff"
   d="m 97.806,582.595 c 0,0.851 -0.691,1.54 -1.541,1.54 -0.851,0 -1.541,-0.69 -1.541,-1.54 0,-0.851 0.689,-1.542 1.541,-1.542 0.85,0 1.541,0.691 1.541,1.542 z"
   id="path455" />
&#10;				<path
   style="fill:#ffffff"
   d="m 112.83,582.595 c 0,0.851 -0.69,1.54 -1.542,1.54 -0.851,0 -1.54,-0.69 -1.54,-1.54 0,-0.851 0.689,-1.542 1.54,-1.542 0.851,0 1.542,0.691 1.542,1.542 z"
   id="path456" />
&#10;				<path
   style="fill:#ffffff"
   d="m 127.853,582.595 c 0,0.851 -0.689,1.54 -1.54,1.54 -0.851,0 -1.542,-0.69 -1.542,-1.54 0,-0.851 0.69,-1.542 1.542,-1.542 0.851,0 1.54,0.691 1.54,1.542 z"
   id="path457" />
&#10;				<path
   style="fill:#ffffff"
   d="m 142.877,582.595 c 0,0.851 -0.689,1.54 -1.541,1.54 -0.851,0 -1.54,-0.69 -1.54,-1.54 0,-0.851 0.689,-1.542 1.54,-1.542 0.852,0 1.541,0.691 1.541,1.542 z"
   id="path458" />
&#10;				<path
   style="fill:#ffffff"
   d="m 157.901,582.595 c 0,0.851 -0.691,1.54 -1.541,1.54 -0.851,0 -1.541,-0.69 -1.541,-1.54 0,-0.851 0.689,-1.542 1.541,-1.542 0.851,0 1.541,0.691 1.541,1.542 z"
   id="path459" />
&#10;				<path
   style="fill:#ffffff"
   d="m 172.925,582.595 c 0,0.851 -0.69,1.54 -1.542,1.54 -0.851,0 -1.54,-0.69 -1.54,-1.54 0,-0.851 0.689,-1.542 1.54,-1.542 0.852,0 1.542,0.691 1.542,1.542 z"
   id="path460" />
&#10;				<path
   style="fill:#ffffff"
   d="m 45.065,594.368 c 0,0.851 -0.69,1.541 -1.541,1.541 -0.851,0 -1.541,-0.69 -1.541,-1.541 0,-0.852 0.69,-1.541 1.541,-1.541 0.851,0 1.541,0.69 1.541,1.541 z"
   id="path461" />
&#10;				<path
   style="fill:#ffffff"
   d="m 60.089,594.368 c 0,0.851 -0.69,1.541 -1.541,1.541 -0.851,0 -1.542,-0.69 -1.542,-1.541 0,-0.852 0.69,-1.541 1.542,-1.541 0.851,0 1.541,0.69 1.541,1.541 z"
   id="path462" />
&#10;				<path
   style="fill:#ffffff"
   d="m 75.112,594.368 c 0,0.851 -0.689,1.541 -1.54,1.541 -0.851,0 -1.541,-0.69 -1.541,-1.541 0,-0.852 0.69,-1.541 1.541,-1.541 0.851,0 1.54,0.69 1.54,1.541 z"
   id="path463" />
&#10;				<path
   style="fill:#ffffff"
   d="m 90.137,594.368 c 0,0.851 -0.69,1.541 -1.541,1.541 -0.851,0 -1.541,-0.69 -1.541,-1.541 0,-0.852 0.689,-1.541 1.541,-1.541 0.851,0 1.541,0.69 1.541,1.541 z"
   id="path464" />
&#10;				<path
   style="fill:#ffffff"
   d="m 105.161,594.368 c 0,0.851 -0.69,1.541 -1.542,1.541 -0.85,0 -1.54,-0.69 -1.54,-1.541 0,-0.852 0.69,-1.541 1.54,-1.541 0.851,0 1.542,0.69 1.542,1.541 z"
   id="path465" />
&#10;				<path
   style="fill:#ffffff"
   d="m 120.185,594.368 c 0,0.851 -0.689,1.541 -1.541,1.541 -0.851,0 -1.542,-0.69 -1.542,-1.541 0,-0.852 0.691,-1.541 1.542,-1.541 0.851,0 1.541,0.69 1.541,1.541 z"
   id="path466" />
&#10;				<path
   style="fill:#ffffff"
   d="m 135.208,594.368 c 0,0.851 -0.689,1.541 -1.54,1.541 -0.851,0 -1.542,-0.69 -1.542,-1.541 0,-0.852 0.69,-1.541 1.542,-1.541 0.851,0 1.54,0.69 1.54,1.541 z"
   id="path467" />
&#10;				<path
   style="fill:#ffffff"
   d="m 150.233,594.368 c 0,0.851 -0.69,1.541 -1.542,1.541 -0.851,0 -1.54,-0.69 -1.54,-1.541 0,-0.852 0.689,-1.541 1.54,-1.541 0.851,0 1.542,0.69 1.542,1.541 z"
   id="path468" />
&#10;				<path
   style="fill:#ffffff"
   d="m 165.256,594.368 c 0,0.851 -0.69,1.541 -1.542,1.541 -0.851,0 -1.54,-0.69 -1.54,-1.541 0,-0.852 0.689,-1.541 1.54,-1.541 0.852,0 1.542,0.69 1.542,1.541 z"
   id="path469" />
&#10;				<path
   style="fill:#ffffff"
   d="m 180.28,594.368 c 0,0.851 -0.689,1.541 -1.541,1.541 -0.851,0 -1.542,-0.69 -1.542,-1.541 0,-0.852 0.691,-1.541 1.542,-1.541 0.852,0 1.541,0.69 1.541,1.541 z"
   id="path470" />
&#10;				<circle
   style="fill:#ffffff"
   cx="51.193001"
   cy="603.909"
   r="1.541"
   id="circle470" />
&#10;				<path
   style="fill:#ffffff"
   d="m 67.757,603.909 c 0,0.851 -0.689,1.541 -1.541,1.541 -0.851,0 -1.541,-0.69 -1.541,-1.541 0,-0.852 0.69,-1.541 1.541,-1.541 0.852,0 1.541,0.69 1.541,1.541 z"
   id="path471" />
&#10;				<path
   style="fill:#ffffff"
   d="m 82.782,603.909 c 0,0.851 -0.69,1.541 -1.542,1.541 -0.852,0 -1.54,-0.69 -1.54,-1.541 0,-0.852 0.689,-1.541 1.54,-1.541 0.851,0 1.542,0.69 1.542,1.541 z"
   id="path472" />
&#10;				<path
   style="fill:#ffffff"
   d="m 97.806,603.909 c 0,0.851 -0.691,1.541 -1.541,1.541 -0.851,0 -1.541,-0.69 -1.541,-1.541 0,-0.852 0.689,-1.541 1.541,-1.541 0.85,0 1.541,0.69 1.541,1.541 z"
   id="path473" />
&#10;				<path
   style="fill:#ffffff"
   d="m 112.83,603.909 c 0,0.851 -0.69,1.541 -1.542,1.541 -0.851,0 -1.54,-0.69 -1.54,-1.541 0,-0.852 0.689,-1.541 1.54,-1.541 0.851,0 1.542,0.69 1.542,1.541 z"
   id="path474" />
&#10;				<path
   style="fill:#ffffff"
   d="m 127.853,603.909 c 0,0.851 -0.689,1.541 -1.54,1.541 -0.851,0 -1.542,-0.69 -1.542,-1.541 0,-0.852 0.69,-1.541 1.542,-1.541 0.851,0 1.54,0.69 1.54,1.541 z"
   id="path475" />
&#10;				<path
   style="fill:#ffffff"
   d="m 142.877,603.909 c 0,0.851 -0.689,1.541 -1.541,1.541 -0.851,0 -1.54,-0.69 -1.54,-1.541 0,-0.852 0.689,-1.541 1.54,-1.541 0.852,0 1.541,0.69 1.541,1.541 z"
   id="path476" />
&#10;				<path
   style="fill:#ffffff"
   d="m 157.901,603.909 c 0,0.851 -0.691,1.541 -1.541,1.541 -0.851,0 -1.541,-0.69 -1.541,-1.541 0,-0.852 0.689,-1.541 1.541,-1.541 0.851,0 1.541,0.69 1.541,1.541 z"
   id="path477" />
&#10;				<path
   style="fill:#ffffff"
   d="m 172.925,603.909 c 0,0.851 -0.69,1.541 -1.542,1.541 -0.851,0 -1.54,-0.69 -1.54,-1.541 0,-0.852 0.689,-1.541 1.54,-1.541 0.852,0 1.542,0.69 1.542,1.541 z"
   id="path478" />
&#10;				<path
   style="fill:#ffffff"
   d="m 45.065,615.684 c 0,0.851 -0.69,1.541 -1.541,1.541 -0.851,0 -1.541,-0.69 -1.541,-1.541 0,-0.852 0.69,-1.541 1.541,-1.541 0.851,0 1.541,0.689 1.541,1.541 z"
   id="path479" />
&#10;				<path
   style="fill:#ffffff"
   d="m 60.089,615.684 c 0,0.851 -0.69,1.541 -1.541,1.541 -0.851,0 -1.542,-0.69 -1.542,-1.541 0,-0.852 0.69,-1.541 1.542,-1.541 0.851,0 1.541,0.689 1.541,1.541 z"
   id="path480" />
&#10;				<path
   style="fill:#ffffff"
   d="m 75.112,615.684 c 0,0.851 -0.689,1.541 -1.54,1.541 -0.851,0 -1.541,-0.69 -1.541,-1.541 0,-0.852 0.69,-1.541 1.541,-1.541 0.851,0 1.54,0.689 1.54,1.541 z"
   id="path481" />
&#10;				<path
   style="fill:#ffffff"
   d="m 90.137,615.684 c 0,0.851 -0.69,1.541 -1.541,1.541 -0.851,0 -1.541,-0.69 -1.541,-1.541 0,-0.852 0.689,-1.541 1.541,-1.541 0.851,0 1.541,0.689 1.541,1.541 z"
   id="path482" />
&#10;				<path
   style="fill:#ffffff"
   d="m 105.161,615.684 c 0,0.851 -0.69,1.541 -1.542,1.541 -0.85,0 -1.54,-0.69 -1.54,-1.541 0,-0.852 0.69,-1.541 1.54,-1.541 0.851,0 1.542,0.689 1.542,1.541 z"
   id="path483" />
&#10;				<path
   style="fill:#ffffff"
   d="m 120.185,615.684 c 0,0.851 -0.689,1.541 -1.541,1.541 -0.851,0 -1.542,-0.69 -1.542,-1.541 0,-0.852 0.691,-1.541 1.542,-1.541 0.851,0 1.541,0.689 1.541,1.541 z"
   id="path484" />
&#10;				<path
   style="fill:#ffffff"
   d="m 135.208,615.684 c 0,0.851 -0.689,1.541 -1.54,1.541 -0.851,0 -1.542,-0.69 -1.542,-1.541 0,-0.852 0.69,-1.541 1.542,-1.541 0.851,0 1.54,0.689 1.54,1.541 z"
   id="path485" />
&#10;				<path
   style="fill:#ffffff"
   d="m 150.233,615.684 c 0,0.851 -0.69,1.541 -1.542,1.541 -0.851,0 -1.54,-0.69 -1.54,-1.541 0,-0.852 0.689,-1.541 1.54,-1.541 0.851,0 1.542,0.689 1.542,1.541 z"
   id="path486" />
&#10;				<path
   style="fill:#ffffff"
   d="m 165.256,615.684 c 0,0.851 -0.69,1.541 -1.542,1.541 -0.851,0 -1.54,-0.69 -1.54,-1.541 0,-0.852 0.689,-1.541 1.54,-1.541 0.852,0 1.542,0.689 1.542,1.541 z"
   id="path487" />
&#10;				<path
   style="fill:#ffffff"
   d="m 180.28,615.684 c 0,0.851 -0.689,1.541 -1.541,1.541 -0.851,0 -1.542,-0.69 -1.542,-1.541 0,-0.852 0.691,-1.541 1.542,-1.541 0.852,0 1.541,0.689 1.541,1.541 z"
   id="path488" />
&#10;				<path
   style="fill:#ffffff"
   d="m 52.734,625.225 c 0,0.851 -0.69,1.54 -1.541,1.54 -0.851,0 -1.541,-0.689 -1.541,-1.54 0,-0.852 0.69,-1.542 1.541,-1.542 0.851,0 1.541,0.69 1.541,1.542 z"
   id="path489" />
&#10;				<path
   style="fill:#ffffff"
   d="m 67.757,625.225 c 0,0.851 -0.689,1.54 -1.541,1.54 -0.851,0 -1.541,-0.689 -1.541,-1.54 0,-0.852 0.69,-1.542 1.541,-1.542 0.852,0 1.541,0.69 1.541,1.542 z"
   id="path490" />
&#10;				<path
   style="fill:#ffffff"
   d="m 82.782,625.225 c 0,0.851 -0.69,1.54 -1.542,1.54 -0.852,0 -1.54,-0.689 -1.54,-1.54 0,-0.852 0.689,-1.542 1.54,-1.542 0.851,0 1.542,0.69 1.542,1.542 z"
   id="path491" />
&#10;				<path
   style="fill:#ffffff"
   d="m 97.806,625.225 c 0,0.851 -0.691,1.54 -1.541,1.54 -0.851,0 -1.541,-0.689 -1.541,-1.54 0,-0.852 0.689,-1.542 1.541,-1.542 0.85,0 1.541,0.69 1.541,1.542 z"
   id="path492" />
&#10;				<path
   style="fill:#ffffff"
   d="m 112.83,625.225 c 0,0.851 -0.69,1.54 -1.542,1.54 -0.851,0 -1.54,-0.689 -1.54,-1.54 0,-0.852 0.689,-1.542 1.54,-1.542 0.851,0 1.542,0.69 1.542,1.542 z"
   id="path493" />
&#10;				<path
   style="fill:#ffffff"
   d="m 127.853,625.225 c 0,0.851 -0.689,1.54 -1.54,1.54 -0.851,0 -1.542,-0.689 -1.542,-1.54 0,-0.852 0.69,-1.542 1.542,-1.542 0.851,0 1.54,0.69 1.54,1.542 z"
   id="path494" />
&#10;				<path
   style="fill:#ffffff"
   d="m 142.877,625.225 c 0,0.851 -0.689,1.54 -1.541,1.54 -0.851,0 -1.54,-0.689 -1.54,-1.54 0,-0.852 0.689,-1.542 1.54,-1.542 0.852,0 1.541,0.69 1.541,1.542 z"
   id="path495" />
&#10;				<path
   style="fill:#ffffff"
   d="m 157.901,625.225 c 0,0.851 -0.691,1.54 -1.541,1.54 -0.851,0 -1.541,-0.689 -1.541,-1.54 0,-0.852 0.689,-1.542 1.541,-1.542 0.851,0 1.541,0.69 1.541,1.542 z"
   id="path496" />
&#10;				<path
   style="fill:#ffffff"
   d="m 172.925,625.225 c 0,0.851 -0.69,1.54 -1.542,1.54 -0.851,0 -1.54,-0.689 -1.54,-1.54 0,-0.852 0.689,-1.542 1.54,-1.542 0.852,0 1.542,0.69 1.542,1.542 z"
   id="path497" />
&#10;				<path
   style="fill:#ffffff"
   d="m 45.065,636.999 c 0,0.851 -0.69,1.54 -1.541,1.54 -0.851,0 -1.541,-0.69 -1.541,-1.54 0,-0.852 0.69,-1.542 1.541,-1.542 0.851,0 1.541,0.691 1.541,1.542 z"
   id="path498" />
&#10;				<path
   style="fill:#ffffff"
   d="m 60.089,636.999 c 0,0.851 -0.69,1.54 -1.541,1.54 -0.851,0 -1.542,-0.69 -1.542,-1.54 0,-0.852 0.69,-1.542 1.542,-1.542 0.851,0 1.541,0.691 1.541,1.542 z"
   id="path499" />
&#10;				<path
   style="fill:#ffffff"
   d="m 75.112,636.999 c 0,0.851 -0.689,1.54 -1.54,1.54 -0.851,0 -1.541,-0.69 -1.541,-1.54 0,-0.852 0.69,-1.542 1.541,-1.542 0.851,0 1.54,0.691 1.54,1.542 z"
   id="path500" />
&#10;				<path
   style="fill:#ffffff"
   d="m 90.137,636.999 c 0,0.851 -0.69,1.54 -1.541,1.54 -0.851,0 -1.541,-0.69 -1.541,-1.54 0,-0.852 0.689,-1.542 1.541,-1.542 0.851,0 1.541,0.691 1.541,1.542 z"
   id="path501" />
&#10;				<path
   style="fill:#ffffff"
   d="m 105.161,636.999 c 0,0.851 -0.69,1.54 -1.542,1.54 -0.85,0 -1.54,-0.69 -1.54,-1.54 0,-0.852 0.69,-1.542 1.54,-1.542 0.851,0 1.542,0.691 1.542,1.542 z"
   id="path502" />
&#10;				<path
   style="fill:#ffffff"
   d="m 120.185,636.999 c 0,0.851 -0.689,1.54 -1.541,1.54 -0.851,0 -1.542,-0.69 -1.542,-1.54 0,-0.852 0.691,-1.542 1.542,-1.542 0.851,0 1.541,0.691 1.541,1.542 z"
   id="path503" />
&#10;				<path
   style="fill:#ffffff"
   d="m 135.208,636.999 c 0,0.851 -0.689,1.54 -1.54,1.54 -0.851,0 -1.542,-0.69 -1.542,-1.54 0,-0.852 0.69,-1.542 1.542,-1.542 0.851,0 1.54,0.691 1.54,1.542 z"
   id="path504" />
&#10;				<path
   style="fill:#ffffff"
   d="m 150.233,636.999 c 0,0.851 -0.69,1.54 -1.542,1.54 -0.851,0 -1.54,-0.69 -1.54,-1.54 0,-0.852 0.689,-1.542 1.54,-1.542 0.851,0 1.542,0.691 1.542,1.542 z"
   id="path505" />
&#10;				<path
   style="fill:#ffffff"
   d="m 165.256,636.999 c 0,0.851 -0.69,1.54 -1.542,1.54 -0.851,0 -1.54,-0.69 -1.54,-1.54 0,-0.852 0.689,-1.542 1.54,-1.542 0.852,0 1.542,0.691 1.542,1.542 z"
   id="path506" />
&#10;				<path
   style="fill:#ffffff"
   d="m 180.28,636.999 c 0,0.851 -0.689,1.54 -1.541,1.54 -0.851,0 -1.542,-0.69 -1.542,-1.54 0,-0.852 0.691,-1.542 1.542,-1.542 0.852,0 1.541,0.691 1.541,1.542 z"
   id="path507" />
&#10;				<path
   style="fill:#ffffff"
   d="m 52.734,646.54 c 0,0.851 -0.69,1.54 -1.541,1.54 -0.851,0 -1.541,-0.689 -1.541,-1.54 0,-0.85 0.69,-1.542 1.541,-1.542 0.851,0 1.541,0.692 1.541,1.542 z"
   id="path508" />
&#10;				<path
   style="fill:#ffffff"
   d="m 67.757,646.54 c 0,0.851 -0.689,1.54 -1.541,1.54 -0.851,0 -1.541,-0.689 -1.541,-1.54 0,-0.85 0.69,-1.542 1.541,-1.542 0.852,0 1.541,0.692 1.541,1.542 z"
   id="path509" />
&#10;				<path
   style="fill:#ffffff"
   d="m 82.782,646.54 c 0,0.851 -0.69,1.54 -1.542,1.54 -0.852,0 -1.54,-0.689 -1.54,-1.54 0,-0.85 0.689,-1.542 1.54,-1.542 0.851,0 1.542,0.692 1.542,1.542 z"
   id="path510" />
&#10;				<path
   style="fill:#ffffff"
   d="m 97.806,646.54 c 0,0.851 -0.691,1.54 -1.541,1.54 -0.851,0 -1.541,-0.689 -1.541,-1.54 0,-0.85 0.689,-1.542 1.541,-1.542 0.85,0 1.541,0.692 1.541,1.542 z"
   id="path511" />
&#10;				<path
   style="fill:#ffffff"
   d="m 112.83,646.54 c 0,0.851 -0.69,1.54 -1.542,1.54 -0.851,0 -1.54,-0.689 -1.54,-1.54 0,-0.85 0.689,-1.542 1.54,-1.542 0.851,0 1.542,0.692 1.542,1.542 z"
   id="path512" />
&#10;				<path
   style="fill:#ffffff"
   d="m 127.853,646.54 c 0,0.851 -0.689,1.54 -1.54,1.54 -0.851,0 -1.542,-0.689 -1.542,-1.54 0,-0.85 0.69,-1.542 1.542,-1.542 0.851,0 1.54,0.692 1.54,1.542 z"
   id="path513" />
&#10;				<path
   style="fill:#ffffff"
   d="m 142.877,646.54 c 0,0.851 -0.689,1.54 -1.541,1.54 -0.851,0 -1.54,-0.689 -1.54,-1.54 0,-0.85 0.689,-1.542 1.54,-1.542 0.852,0 1.541,0.692 1.541,1.542 z"
   id="path514" />
&#10;				<path
   style="fill:#ffffff"
   d="m 157.901,646.54 c 0,0.851 -0.691,1.54 -1.541,1.54 -0.851,0 -1.541,-0.689 -1.541,-1.54 0,-0.85 0.689,-1.542 1.541,-1.542 0.851,0 1.541,0.692 1.541,1.542 z"
   id="path515" />
&#10;				<path
   style="fill:#ffffff"
   d="m 172.925,646.54 c 0,0.851 -0.69,1.54 -1.542,1.54 -0.851,0 -1.54,-0.689 -1.54,-1.54 0,-0.85 0.689,-1.542 1.54,-1.542 0.852,0 1.542,0.692 1.542,1.542 z"
   id="path516" />
&#10;				<path
   style="fill:#ffffff"
   d="m 45.065,658.313 c 0,0.851 -0.69,1.541 -1.541,1.541 -0.851,0 -1.541,-0.69 -1.541,-1.541 0,-0.852 0.69,-1.541 1.541,-1.541 0.851,10e-4 1.541,0.69 1.541,1.541 z"
   id="path517" />
&#10;				<path
   style="fill:#ffffff"
   d="m 60.089,658.313 c 0,0.851 -0.69,1.541 -1.541,1.541 -0.851,0 -1.542,-0.69 -1.542,-1.541 0,-0.852 0.69,-1.541 1.542,-1.541 0.851,10e-4 1.541,0.69 1.541,1.541 z"
   id="path518" />
&#10;				<path
   style="fill:#ffffff"
   d="m 75.112,658.313 c 0,0.851 -0.689,1.541 -1.54,1.541 -0.851,0 -1.541,-0.69 -1.541,-1.541 0,-0.852 0.69,-1.541 1.541,-1.541 0.851,10e-4 1.54,0.69 1.54,1.541 z"
   id="path519" />
&#10;				<path
   style="fill:#ffffff"
   d="m 90.137,658.313 c 0,0.851 -0.69,1.541 -1.541,1.541 -0.851,0 -1.541,-0.69 -1.541,-1.541 0,-0.852 0.689,-1.541 1.541,-1.541 0.851,10e-4 1.541,0.69 1.541,1.541 z"
   id="path520" />
&#10;				<path
   style="fill:#ffffff"
   d="m 105.161,658.313 c 0,0.851 -0.69,1.541 -1.542,1.541 -0.85,0 -1.54,-0.69 -1.54,-1.541 0,-0.852 0.69,-1.541 1.54,-1.541 0.851,10e-4 1.542,0.69 1.542,1.541 z"
   id="path521" />
&#10;				<path
   style="fill:#ffffff"
   d="m 120.185,658.313 c 0,0.851 -0.689,1.541 -1.541,1.541 -0.851,0 -1.542,-0.69 -1.542,-1.541 0,-0.852 0.691,-1.541 1.542,-1.541 0.851,10e-4 1.541,0.69 1.541,1.541 z"
   id="path522" />
&#10;				<path
   style="fill:#ffffff"
   d="m 135.208,658.313 c 0,0.851 -0.689,1.541 -1.54,1.541 -0.851,0 -1.542,-0.69 -1.542,-1.541 0,-0.852 0.69,-1.541 1.542,-1.541 0.851,10e-4 1.54,0.69 1.54,1.541 z"
   id="path523" />
&#10;				<path
   style="fill:#ffffff"
   d="m 150.233,658.313 c 0,0.851 -0.69,1.541 -1.542,1.541 -0.851,0 -1.54,-0.69 -1.54,-1.541 0,-0.852 0.689,-1.541 1.54,-1.541 0.851,10e-4 1.542,0.69 1.542,1.541 z"
   id="path524" />
&#10;				<path
   style="fill:#ffffff"
   d="m 165.256,658.313 c 0,0.851 -0.69,1.541 -1.542,1.541 -0.851,0 -1.54,-0.69 -1.54,-1.541 0,-0.852 0.689,-1.541 1.54,-1.541 0.852,10e-4 1.542,0.69 1.542,1.541 z"
   id="path525" />
&#10;				<path
   style="fill:#ffffff"
   d="m 180.28,658.313 c 0,0.851 -0.689,1.541 -1.541,1.541 -0.851,0 -1.542,-0.69 -1.542,-1.541 0,-0.852 0.691,-1.541 1.542,-1.541 0.852,10e-4 1.541,0.69 1.541,1.541 z"
   id="path526" />
&#10;				<circle
   style="fill:#ffffff"
   cx="51.193001"
   cy="667.854"
   r="1.541"
   id="circle526" />
&#10;				<path
   style="fill:#ffffff"
   d="m 67.757,667.854 c 0,0.851 -0.689,1.541 -1.541,1.541 -0.851,0 -1.541,-0.69 -1.541,-1.541 0,-0.851 0.69,-1.541 1.541,-1.541 0.852,0 1.541,0.691 1.541,1.541 z"
   id="path527" />
&#10;				<path
   style="fill:#ffffff"
   d="m 82.782,667.854 c 0,0.851 -0.69,1.541 -1.542,1.541 -0.852,0 -1.54,-0.69 -1.54,-1.541 0,-0.851 0.689,-1.541 1.54,-1.541 0.851,0 1.542,0.691 1.542,1.541 z"
   id="path528" />
&#10;				<path
   style="fill:#ffffff"
   d="m 97.806,667.854 c 0,0.851 -0.691,1.541 -1.541,1.541 -0.851,0 -1.541,-0.69 -1.541,-1.541 0,-0.851 0.689,-1.541 1.541,-1.541 0.85,0 1.541,0.691 1.541,1.541 z"
   id="path529" />
&#10;				<path
   style="fill:#ffffff"
   d="m 112.83,667.854 c 0,0.851 -0.69,1.541 -1.542,1.541 -0.851,0 -1.54,-0.69 -1.54,-1.541 0,-0.851 0.689,-1.541 1.54,-1.541 0.851,0 1.542,0.691 1.542,1.541 z"
   id="path530" />
&#10;				<path
   style="fill:#ffffff"
   d="m 127.853,667.854 c 0,0.851 -0.689,1.541 -1.54,1.541 -0.851,0 -1.542,-0.69 -1.542,-1.541 0,-0.851 0.69,-1.541 1.542,-1.541 0.851,0 1.54,0.691 1.54,1.541 z"
   id="path531" />
&#10;				<path
   style="fill:#ffffff"
   d="m 142.877,667.854 c 0,0.851 -0.689,1.541 -1.541,1.541 -0.851,0 -1.54,-0.69 -1.54,-1.541 0,-0.851 0.689,-1.541 1.54,-1.541 0.852,0 1.541,0.691 1.541,1.541 z"
   id="path532" />
&#10;				<path
   style="fill:#ffffff"
   d="m 157.901,667.854 c 0,0.851 -0.691,1.541 -1.541,1.541 -0.851,0 -1.541,-0.69 -1.541,-1.541 0,-0.851 0.689,-1.541 1.541,-1.541 0.851,0 1.541,0.691 1.541,1.541 z"
   id="path533" />
&#10;				<path
   style="fill:#ffffff"
   d="m 172.925,667.854 c 0,0.851 -0.69,1.541 -1.542,1.541 -0.851,0 -1.54,-0.69 -1.54,-1.541 0,-0.851 0.689,-1.541 1.54,-1.541 0.852,0 1.542,0.691 1.542,1.541 z"
   id="path534" />
&#10;				<path
   style="fill:#ffffff"
   d="m 45.065,679.629 c 0,0.851 -0.69,1.541 -1.541,1.541 -0.851,0 -1.541,-0.69 -1.541,-1.541 0,-0.852 0.69,-1.541 1.541,-1.541 0.851,0 1.541,0.689 1.541,1.541 z"
   id="path535" />
&#10;				<path
   style="fill:#ffffff"
   d="m 60.089,679.629 c 0,0.851 -0.69,1.541 -1.541,1.541 -0.851,0 -1.542,-0.69 -1.542,-1.541 0,-0.852 0.69,-1.541 1.542,-1.541 0.851,0 1.541,0.689 1.541,1.541 z"
   id="path536" />
&#10;				<path
   style="fill:#ffffff"
   d="m 75.112,679.629 c 0,0.851 -0.689,1.541 -1.54,1.541 -0.851,0 -1.541,-0.69 -1.541,-1.541 0,-0.852 0.69,-1.541 1.541,-1.541 0.851,0 1.54,0.689 1.54,1.541 z"
   id="path537" />
&#10;				<path
   style="fill:#ffffff"
   d="m 90.137,679.629 c 0,0.851 -0.69,1.541 -1.541,1.541 -0.851,0 -1.541,-0.69 -1.541,-1.541 0,-0.852 0.689,-1.541 1.541,-1.541 0.851,0 1.541,0.689 1.541,1.541 z"
   id="path538" />
&#10;				<path
   style="fill:#ffffff"
   d="m 105.161,679.629 c 0,0.851 -0.69,1.541 -1.542,1.541 -0.85,0 -1.54,-0.69 -1.54,-1.541 0,-0.852 0.69,-1.541 1.54,-1.541 0.851,0 1.542,0.689 1.542,1.541 z"
   id="path539" />
&#10;				<path
   style="fill:#ffffff"
   d="m 120.185,679.629 c 0,0.851 -0.689,1.541 -1.541,1.541 -0.851,0 -1.542,-0.69 -1.542,-1.541 0,-0.852 0.691,-1.541 1.542,-1.541 0.851,0 1.541,0.689 1.541,1.541 z"
   id="path540" />
&#10;				<path
   style="fill:#ffffff"
   d="m 135.208,679.629 c 0,0.851 -0.689,1.541 -1.54,1.541 -0.851,0 -1.542,-0.69 -1.542,-1.541 0,-0.852 0.69,-1.541 1.542,-1.541 0.851,0 1.54,0.689 1.54,1.541 z"
   id="path541" />
&#10;				<path
   style="fill:#ffffff"
   d="m 150.233,679.629 c 0,0.851 -0.69,1.541 -1.542,1.541 -0.851,0 -1.54,-0.69 -1.54,-1.541 0,-0.852 0.689,-1.541 1.54,-1.541 0.851,0 1.542,0.689 1.542,1.541 z"
   id="path542" />
&#10;				<path
   style="fill:#ffffff"
   d="m 165.256,679.629 c 0,0.851 -0.69,1.541 -1.542,1.541 -0.851,0 -1.54,-0.69 -1.54,-1.541 0,-0.852 0.689,-1.541 1.54,-1.541 0.852,0 1.542,0.689 1.542,1.541 z"
   id="path543" />
&#10;				<path
   style="fill:#ffffff"
   d="m 180.28,679.629 c 0,0.851 -0.689,1.541 -1.541,1.541 -0.851,0 -1.542,-0.69 -1.542,-1.541 0,-0.852 0.691,-1.541 1.542,-1.541 0.852,0 1.541,0.689 1.541,1.541 z"
   id="path544" />
&#10;				<path
   style="fill:#ffffff"
   d="m 52.734,689.17 c 0,0.851 -0.69,1.54 -1.541,1.54 -0.851,0 -1.541,-0.69 -1.541,-1.54 0,-0.852 0.69,-1.542 1.541,-1.542 0.851,0 1.541,0.69 1.541,1.542 z"
   id="path545" />
&#10;				<path
   style="fill:#ffffff"
   d="m 67.757,689.17 c 0,0.851 -0.689,1.54 -1.541,1.54 -0.851,0 -1.541,-0.69 -1.541,-1.54 0,-0.852 0.69,-1.542 1.541,-1.542 0.852,0 1.541,0.69 1.541,1.542 z"
   id="path546" />
&#10;				<path
   style="fill:#ffffff"
   d="m 82.782,689.17 c 0,0.851 -0.69,1.54 -1.542,1.54 -0.852,0 -1.54,-0.69 -1.54,-1.54 0,-0.852 0.689,-1.542 1.54,-1.542 0.851,0 1.542,0.69 1.542,1.542 z"
   id="path547" />
&#10;				<path
   style="fill:#ffffff"
   d="m 97.806,689.17 c 0,0.851 -0.691,1.54 -1.541,1.54 -0.851,0 -1.541,-0.69 -1.541,-1.54 0,-0.852 0.689,-1.542 1.541,-1.542 0.85,0 1.541,0.69 1.541,1.542 z"
   id="path548" />
&#10;				<path
   style="fill:#ffffff"
   d="m 112.83,689.17 c 0,0.851 -0.69,1.54 -1.542,1.54 -0.851,0 -1.54,-0.69 -1.54,-1.54 0,-0.852 0.689,-1.542 1.54,-1.542 0.851,0 1.542,0.69 1.542,1.542 z"
   id="path549" />
&#10;				<path
   style="fill:#ffffff"
   d="m 127.853,689.17 c 0,0.851 -0.689,1.54 -1.54,1.54 -0.851,0 -1.542,-0.69 -1.542,-1.54 0,-0.852 0.69,-1.542 1.542,-1.542 0.851,0 1.54,0.69 1.54,1.542 z"
   id="path550" />
&#10;				<path
   style="fill:#ffffff"
   d="m 142.877,689.17 c 0,0.851 -0.689,1.54 -1.541,1.54 -0.851,0 -1.54,-0.69 -1.54,-1.54 0,-0.852 0.689,-1.542 1.54,-1.542 0.852,0 1.541,0.69 1.541,1.542 z"
   id="path551" />
&#10;				<path
   style="fill:#ffffff"
   d="m 157.901,689.17 c 0,0.851 -0.691,1.54 -1.541,1.54 -0.851,0 -1.541,-0.69 -1.541,-1.54 0,-0.852 0.689,-1.542 1.541,-1.542 0.851,0 1.541,0.69 1.541,1.542 z"
   id="path552" />
&#10;				<path
   style="fill:#ffffff"
   d="m 172.925,689.17 c 0,0.851 -0.69,1.54 -1.542,1.54 -0.851,0 -1.54,-0.69 -1.54,-1.54 0,-0.852 0.689,-1.542 1.54,-1.542 0.852,0 1.542,0.69 1.542,1.542 z"
   id="path553" />
&#10;			</g>
&#10;		</g>
&#10;		<path
   style="fill:#6a6a61"
   d="m 80.766,692.163 h -24.57 v -25.609 h 7.13 v -92.31 h -7.13 v -24.569 h 24.57 v 8.342 h 60.04 v -7.493 h 24.57 v 24.57 h -6.535 v 92.308 h 6.535 v 24.57 h -24.57 v -7.493 h -60.04 z m -21.451,-3.119 h 18.331 v -7.685 h 66.279 v 7.492 h 18.331 V 670.52 h -6.535 v -98.547 h 6.535 v -18.331 h -18.331 v 7.493 H 77.646 v -8.342 H 59.315 v 18.331 h 7.129 v 98.548 h -7.129 z"
   id="path554" />
&#10;		<g
   id="g559">&#10;			<g
   id="g555">&#10;				<path
   style="fill:#6a6a61"
   d="m 146.599,555.185 v 13.708 h 13.708 v -13.708 z m 10.589,10.588 h -7.469 v -7.47 h 7.469 z"
   id="path555" />
&#10;				<rect
   x="151.668"
   y="560.25403"
   style="fill:#6a6a61"
   width="3.5699999"
   height="3.5699999"
   id="rect555" />
&#10;			</g>
&#10;			<g
   id="g556">&#10;				<path
   style="fill:#6a6a61"
   d="m 61.263,555.185 v 13.708 h 13.708 v -13.708 z m 10.589,10.588 h -7.469 v -7.47 h 7.469 z"
   id="path556" />
&#10;				<rect
   x="66.332001"
   y="560.25403"
   style="fill:#6a6a61"
   width="3.5699999"
   height="3.5699999"
   id="rect556" />
&#10;			</g>
&#10;			<g
   id="g557">&#10;				<path
   style="fill:#6a6a61"
   d="m 146.459,672.945 v 13.708 h 13.708 v -13.708 z m 10.588,10.589 h -7.469 v -7.47 h 7.469 z"
   id="path557" />
&#10;				<rect
   x="151.528"
   y="678.01398"
   style="fill:#6a6a61"
   width="3.5699999"
   height="3.5699999"
   id="rect557" />
&#10;			</g>
&#10;			<g
   id="g558">&#10;				<path
   style="fill:#6a6a61"
   d="m 62.163,672.945 v 13.708 h 13.708 v -13.708 z m 10.589,10.589 h -7.469 v -7.47 h 7.469 z"
   id="path558" />
&#10;				<rect
   x="67.232002"
   y="678.01398"
   style="fill:#6a6a61"
   width="3.5699999"
   height="3.5699999"
   id="rect558" />
&#10;			</g>
&#10;		</g>
&#10;		<g
   id="g562">&#10;			<rect
   x="162.229"
   y="579.46198"
   style="fill:#6a6a61"
   width="3.1199999"
   height="83.899002"
   id="rect559" />
&#10;			<rect
   x="85.427002"
   y="550.03198"
   style="fill:#6a6a61"
   width="51.382"
   height="3.119"
   id="rect560" />
&#10;			<rect
   x="85.468002"
   y="688.68701"
   style="fill:#6a6a61"
   width="51.381001"
   height="3.119"
   id="rect561" />
&#10;			<rect
   x="56.223"
   y="579.46198"
   style="fill:#6a6a61"
   width="3.119"
   height="83.899002"
   id="rect562" />
&#10;		</g>
&#10;		<g
   id="g563">&#10;			<path
   style="fill:#6a6a61"
   d="m 140.181,608.751 c -4.965,-2.942 -19.761,1.496 -26.254,4.327 5.612,-3.896 17.229,-12.842 17.237,-20.153 0.009,-6.166 -4.983,-11.168 -11.145,-11.175 -3.712,-0.004 -6.993,1.812 -9.027,4.598 0,-0.003 0,-0.003 0,-0.003 -0.002,-0.002 -0.005,-0.004 -0.007,-0.006 -2.025,-2.787 -5.297,-4.607 -9.007,-4.611 -6.162,-0.007 -11.162,3.474 -11.172,11.146 -0.011,6.983 9.532,15.482 15.543,19.637 -6.766,-3.02 -19.422,-7.004 -24.847,-3.898 -6.661,3.809 -7.175,9.898 -4.101,15.237 1.853,3.216 5.068,5.15 8.495,5.514 v 0 c -0.002,0.009 -0.003,0.017 -0.009,0.025 -1.393,3.146 -1.331,6.883 0.519,10.096 3.075,5.34 9.908,7.188 15.24,4.099 3.652,-2.116 5.906,-8.873 7.26,-15.285 l -1.194,30.583 c -0.027,0.677 0.507,1.231 1.186,1.231 h 3.777 c 0.679,0 1.213,-0.555 1.186,-1.231 l -1.18,-30.157 c 1.293,6.22 3.438,12.628 6.933,14.752 5.267,3.197 12.149,1.386 15.29,-3.915 1.894,-3.194 1.996,-6.942 0.632,-10.108 v 0 c 0.025,-0.002 0.049,-0.006 0.072,-0.01 3.407,-0.342 6.611,-2.231 8.491,-5.402 3.139,-5.306 2.683,-11.382 -3.918,-15.291 z"
   id="path562" />
&#10;		</g>
&#10;	</g>
</g>
</g>
  </g>
</svg>
