<?xml version="1.0" encoding="UTF-8" standalone="no"?>
<!-- Created with Inkscape (http://www.inkscape.org/) -->

<svg
   width="33.565037mm"
   height="43.102215mm"
   viewBox="0 0 33.565037 43.102215"
   version="1.1"
   id="svg1"
   xmlns:inkscape="http://www.inkscape.org/namespaces/inkscape"
   xmlns:sodipodi="http://sodipodi.sourceforge.net/DTD/sodipodi-0.dtd"
   xmlns:xlink="http://www.w3.org/1999/xlink"
   xmlns="http://www.w3.org/2000/svg"
   xmlns:svg="http://www.w3.org/2000/svg">
  <sodipodi:namedview
     id="namedview1"
     pagecolor="#ffffff"
     bordercolor="#000000"
     borderopacity="0.25"
     inkscape:showpageshadow="2"
     inkscape:pageopacity="0.0"
     inkscape:pagecheckerboard="0"
     inkscape:deskcolor="#d1d1d1"
     inkscape:document-units="mm" />
  <defs
     id="defs1">
    <clipPath
       id="SVGID_00000127035455637151213680000000374398836335668373_">&#10;					<use
   xlink:href="#SVGID_00000030466686943992679870000017148899919018657920_"
   style="overflow:visible"
   id="use794" />
&#10;				</clipPath>
    <path
       id="SVGID_00000030466686943992679870000017148899919018657920_"
       d="M 763.08,700.813 H 639.342 V 541.025 H 763.08 Z m -122.699,-1.04 h 121.66 V 542.065 h -121.66 z" />
  </defs>
  <g
     inkscape:label="Layer 1"
     inkscape:groupmode="layer"
     id="layer1"
     transform="translate(-135.46666,-168.53959)">
    <g
       id="g274"
       transform="matrix(0.26458333,0,0,0.26458333,-60.66102,89.56093)">&#10;		&#10;		&#10;		&#10;	<g
   id="g241"
   transform="translate(161.841,-56.476002)">&#10;		&#10;		&#10;		&#10;		&#10;	<g
   id="g844"
   transform="translate(-58.352004,-184.488)">&#10;		<g
   id="g829">&#10;			<g
   id="g793">&#10;				<rect
   x="639.86102"
   y="541.54498"
   style="fill:#dee4ca"
   width="122.699"
   height="158.748"
   id="rect792" />
&#10;				<path
   style="fill:#6a6a61"
   d="M 764.641,702.372 H 637.781 V 539.466 H 764.64 v 162.906 z m -122.7,-4.159 H 760.48 V 543.625 H 641.941 Z"
   id="path792" />
&#10;			</g>
&#10;			<g
   id="g828">&#10;				<defs
   id="defs793" />
&#10;				<use
   xlink:href="#SVGID_00000030466686943992679870000017148899919018657920_"
   style="overflow:visible;fill:#6a6a61"
   id="use793" />
&#10;				<clipPath
   id="clipPath1-2">&#10;					<use
   xlink:href="#SVGID_00000030466686943992679870000017148899919018657920_"
   style="overflow:visible"
   id="use1-5" />
&#10;				</clipPath>
&#10;				<g
   style="opacity:0.1"
   clip-path="url(#SVGID_00000127035455637151213680000000374398836335668373_)"
   id="g827">&#10;					<g
   id="g794">&#10;						&#10;							<rect
   x="531.03101"
   y="545.46002"
   transform="matrix(0.7069,-0.7073,0.7073,0.7069,-201.9375,606.4911)"
   style="fill:#526069"
   width="199.646"
   height="2.9070001"
   id="rect794" />
&#10;						<path
   style="fill:#6a6a61"
   d="m 561.297,619.262 -2.791,-2.79 141.906,-141.907 2.791,2.791 z m -1.32,-2.79 1.32,1.32 140.435,-140.436 -1.32,-1.32 z"
   id="path794" />
&#10;					</g>
&#10;					<g
   id="g795">&#10;						&#10;							<rect
   x="535.65503"
   y="550.08502"
   transform="matrix(0.7073,-0.7069,0.7069,0.7073,-203.8834,610.6887)"
   style="fill:#526069"
   width="199.646"
   height="2.9059999"
   id="rect795" />
&#10;						<path
   style="fill:#6a6a61"
   d="m 565.92,623.887 -2.791,-2.791 141.908,-141.906 2.791,2.791 z m -1.32,-2.791 1.32,1.32 140.437,-140.436 -1.32,-1.32 z"
   id="path795" />
&#10;					</g>
&#10;					<g
   id="g796">&#10;						&#10;							<rect
   x="540.28198"
   y="554.711"
   transform="matrix(0.7076,-0.7066,0.7066,0.7076,-205.8271,614.9229)"
   style="fill:#526069"
   width="199.646"
   height="2.908"
   id="rect796" />
&#10;						<path
   style="fill:#6a6a61"
   d="m 570.547,628.514 -2.791,-2.792 141.906,-141.907 2.793,2.793 z m -1.32,-2.792 1.32,1.322 140.438,-140.436 -1.322,-1.322 z"
   id="path796" />
&#10;					</g>
&#10;					<g
   id="g797">&#10;						&#10;							<rect
   x="544.90601"
   y="559.33502"
   transform="matrix(0.7071,-0.7071,0.7071,0.7071,-207.6996,620.1647)"
   style="fill:#526069"
   width="199.647"
   height="2.908"
   id="rect797" />
&#10;						<path
   style="fill:#6a6a61"
   d="m 575.172,633.139 -2.791,-2.792 141.906,-141.905 2.793,2.79 z m -1.32,-2.792 1.32,1.321 140.438,-140.437 -1.322,-1.32 z"
   id="path797" />
&#10;					</g>
&#10;					<g
   id="g798">&#10;						&#10;							<rect
   x="549.53198"
   y="563.961"
   transform="matrix(0.7073,-0.707,0.707,0.7073,-209.6298,624.5813)"
   style="fill:#526069"
   width="199.646"
   height="2.9070001"
   id="rect798" />
&#10;						<path
   style="fill:#6a6a61"
   d="m 579.797,637.764 -2.791,-2.791 141.906,-141.906 2.793,2.79 z m -1.32,-2.791 1.32,1.32 140.438,-140.437 -1.322,-1.32 z"
   id="path798" />
&#10;					</g>
&#10;					<g
   id="g799">&#10;						&#10;							<rect
   x="554.159"
   y="568.58801"
   transform="matrix(0.7071,-0.7071,0.7071,0.7071,-211.5329,629.3965)"
   style="fill:#526069"
   width="199.647"
   height="2.9059999"
   id="rect799" />
&#10;						<path
   style="fill:#6a6a61"
   d="m 584.424,642.389 -2.791,-2.789 141.908,-141.907 2.789,2.79 z m -1.32,-2.789 1.32,1.319 140.436,-140.436 -1.318,-1.32 z"
   id="path799" />
&#10;					</g>
&#10;					<g
   id="g800">&#10;						&#10;							<rect
   x="558.78302"
   y="573.21198"
   transform="matrix(0.7068,-0.7074,0.7074,0.7068,-213.4213,634.4238)"
   style="fill:#526069"
   width="199.647"
   height="2.9070001"
   id="rect800" />
&#10;						<path
   style="fill:#6a6a61"
   d="m 589.049,647.015 -2.791,-2.79 141.906,-141.908 2.791,2.791 z m -1.32,-2.79 1.32,1.319 140.436,-140.436 -1.32,-1.32 z"
   id="path800" />
&#10;					</g>
&#10;					<g
   id="g801">&#10;						&#10;							<rect
   x="563.40802"
   y="577.83698"
   transform="matrix(0.707,-0.7073,0.7073,0.707,-215.3517,638.8378)"
   style="fill:#526069"
   width="199.646"
   height="2.908"
   id="rect801" />
&#10;						<path
   style="fill:#6a6a61"
   d="m 593.674,651.64 -2.791,-2.791 141.906,-141.907 2.791,2.793 z m -1.321,-2.791 1.32,1.321 140.436,-140.436 -1.32,-1.322 z"
   id="path801" />
&#10;					</g>
&#10;					<g
   id="g802">&#10;						&#10;							<rect
   x="568.03497"
   y="582.46301"
   transform="matrix(0.7071,-0.7071,0.7071,0.7071,-217.2805,643.2725)"
   style="fill:#526069"
   width="199.647"
   height="2.9089999"
   id="rect802" />
&#10;						<path
   style="fill:#6a6a61"
   d="m 598.301,656.267 -2.793,-2.792 141.908,-141.906 2.791,2.791 z m -1.323,-2.792 1.322,1.321 140.435,-140.437 -1.32,-1.321 z"
   id="path802" />
&#10;					</g>
&#10;					<g
   id="g803">&#10;						&#10;							<rect
   x="572.659"
   y="587.08801"
   transform="matrix(0.7073,-0.7069,0.7069,0.7073,-219.2106,647.6797)"
   style="fill:#526069"
   width="199.647"
   height="2.9059999"
   id="rect803" />
&#10;						<path
   style="fill:#6a6a61"
   d="m 602.924,660.891 -2.791,-2.791 141.908,-141.907 2.791,2.791 z m -1.321,-2.791 1.32,1.32 140.438,-140.437 -1.32,-1.32 z"
   id="path803" />
&#10;					</g>
&#10;					<g
   id="g804">&#10;						&#10;							<rect
   x="577.28497"
   y="591.71301"
   transform="matrix(0.7071,-0.7071,0.7071,0.7071,-221.1121,652.5226)"
   style="fill:#526069"
   width="199.647"
   height="2.9089999"
   id="rect804" />
&#10;						<path
   style="fill:#6a6a61"
   d="m 607.551,665.517 -2.793,-2.792 141.908,-141.907 2.791,2.793 z m -1.323,-2.792 1.322,1.321 140.436,-140.436 -1.32,-1.322 z"
   id="path804" />
&#10;					</g>
&#10;					<g
   id="g805">&#10;						&#10;							<rect
   x="581.90997"
   y="596.34003"
   transform="matrix(0.7068,-0.7075,0.7075,0.7068,-222.9993,657.5883)"
   style="fill:#526069"
   width="199.64799"
   height="2.9059999"
   id="rect805" />
&#10;						<path
   style="fill:#6a6a61"
   d="m 612.176,670.142 -2.791,-2.79 141.908,-141.907 2.789,2.79 z m -1.321,-2.79 1.32,1.319 140.435,-140.437 -1.318,-1.32 z"
   id="path805" />
&#10;					</g>
&#10;					<g
   id="g806">&#10;						&#10;							<rect
   x="586.53601"
   y="600.96503"
   transform="matrix(0.7073,-0.707,0.707,0.7073,-224.957,661.574)"
   style="fill:#526069"
   width="199.64799"
   height="2.9059999"
   id="rect806" />
&#10;						<path
   style="fill:#6a6a61"
   d="m 616.801,674.767 -2.791,-2.79 141.908,-141.907 2.789,2.79 z m -1.321,-2.79 1.32,1.32 140.438,-140.438 -1.32,-1.319 z"
   id="path806" />
&#10;					</g>
&#10;					<g
   id="g807">&#10;						&#10;							<rect
   x="591.15997"
   y="605.58899"
   transform="matrix(0.7069,-0.7073,0.7073,0.7069,-226.8452,666.6209)"
   style="fill:#526069"
   width="199.647"
   height="2.908"
   id="rect807" />
&#10;						<path
   style="fill:#6a6a61"
   d="m 621.426,679.392 -2.791,-2.791 141.906,-141.906 2.791,2.791 z m -1.321,-2.791 1.32,1.32 140.435,-140.435 -1.32,-1.321 z"
   id="path807" />
&#10;					</g>
&#10;					<g
   id="g808">&#10;						&#10;							<rect
   x="595.78699"
   y="610.216"
   transform="matrix(0.707,-0.7073,0.7073,0.707,-228.763,671.2269)"
   style="fill:#526069"
   width="199.647"
   height="2.908"
   id="rect808" />
&#10;						<path
   style="fill:#6a6a61"
   d="m 626.053,684.019 -2.791,-2.791 141.906,-141.908 2.791,2.791 z m -1.321,-2.792 1.32,1.321 140.436,-140.438 -1.32,-1.32 z"
   id="path808" />
&#10;					</g>
&#10;					<g
   id="g809">&#10;						&#10;							<rect
   x="600.41199"
   y="614.84003"
   transform="matrix(0.7071,-0.7071,0.7071,0.7071,-230.6915,675.6495)"
   style="fill:#526069"
   width="199.647"
   height="2.908"
   id="rect809" />
&#10;						<path
   style="fill:#6a6a61"
   d="m 630.678,688.644 -2.793,-2.792 141.908,-141.907 2.791,2.792 z m -1.323,-2.792 1.322,1.321 140.436,-140.437 -1.32,-1.321 z"
   id="path809" />
&#10;					</g>
&#10;					<g
   id="g810">&#10;						&#10;							<rect
   x="605.03699"
   y="619.46503"
   transform="matrix(0.7073,-0.7069,0.7069,0.7073,-232.6221,680.0468)"
   style="fill:#526069"
   width="199.647"
   height="2.9089999"
   id="rect810" />
&#10;						<path
   style="fill:#6a6a61"
   d="m 635.303,693.269 -2.791,-2.793 141.906,-141.906 2.793,2.792 z m -1.323,-2.792 1.322,1.322 140.438,-140.437 -1.322,-1.322 z"
   id="path810" />
&#10;					</g>
&#10;					<g
   id="g811">&#10;						&#10;							<rect
   x="609.66302"
   y="624.09198"
   transform="matrix(0.7073,-0.7069,0.7069,0.7073,-234.5383,684.6672)"
   style="fill:#526069"
   width="199.647"
   height="2.9059999"
   id="rect811" />
&#10;						<path
   style="fill:#6a6a61"
   d="m 639.928,697.894 -2.791,-2.791 141.908,-141.907 2.789,2.791 z m -1.321,-2.79 1.32,1.32 140.438,-140.437 -1.32,-1.32 z"
   id="path811" />
&#10;					</g>
&#10;					<g
   id="g812">&#10;						&#10;							<rect
   x="614.28802"
   y="628.71698"
   transform="matrix(0.7071,-0.7071,0.7071,0.7071,-236.4393,689.5217)"
   style="fill:#526069"
   width="199.647"
   height="2.9059999"
   id="rect812" />
&#10;						<path
   style="fill:#6a6a61"
   d="m 644.553,702.519 -2.789,-2.79 141.906,-141.907 2.789,2.789 z m -1.321,-2.79 1.32,1.319 140.436,-140.437 -1.318,-1.319 z"
   id="path812" />
&#10;					</g>
&#10;					<g
   id="g813">&#10;						&#10;							<rect
   x="618.91302"
   y="633.34302"
   transform="matrix(0.7071,-0.7071,0.7071,0.7071,-238.3556,694.1469)"
   style="fill:#526069"
   width="199.646"
   height="2.9059999"
   id="rect813" />
&#10;						<path
   style="fill:#6a6a61"
   d="m 649.178,707.144 -2.789,-2.79 141.906,-141.906 2.789,2.791 z m -1.319,-2.79 1.318,1.32 140.436,-140.436 -1.318,-1.32 z"
   id="path813" />
&#10;					</g>
&#10;					<g
   id="g814">&#10;						&#10;							<rect
   x="623.53802"
   y="637.96802"
   transform="matrix(0.7073,-0.7069,0.7069,0.7073,-240.2863,698.538)"
   style="fill:#526069"
   width="199.64799"
   height="2.908"
   id="rect814" />
&#10;						<path
   style="fill:#6a6a61"
   d="m 653.803,711.771 -2.789,-2.791 141.906,-141.908 2.793,2.792 z m -1.319,-2.792 1.318,1.32 140.44,-140.435 -1.322,-1.321 z"
   id="path814" />
&#10;					</g>
&#10;					<g
   id="g815">&#10;						&#10;							<rect
   x="628.164"
   y="642.59198"
   transform="matrix(0.7069,-0.7073,0.7073,0.7069,-242.1728,703.6335)"
   style="fill:#526069"
   width="199.647"
   height="2.908"
   id="rect815" />
&#10;						<path
   style="fill:#6a6a61"
   d="m 658.43,716.396 -2.791,-2.791 141.906,-141.907 2.791,2.791 z m -1.323,-2.792 1.322,1.32 140.435,-140.437 -1.32,-1.32 z"
   id="path815" />
&#10;					</g>
&#10;					<g
   id="g816">&#10;						&#10;							<rect
   x="632.79102"
   y="647.21899"
   transform="matrix(0.7069,-0.7073,0.7073,0.7069,-244.0887,708.2618)"
   style="fill:#526069"
   width="199.647"
   height="2.908"
   id="rect816" />
&#10;						<path
   style="fill:#6a6a61"
   d="m 663.057,721.021 -2.793,-2.791 141.908,-141.907 2.791,2.791 z m -1.323,-2.79 1.322,1.32 140.436,-140.436 -1.32,-1.32 z"
   id="path816" />
&#10;					</g>
&#10;					<g
   id="g817">&#10;						&#10;							<rect
   x="637.414"
   y="651.84399"
   transform="matrix(0.7069,-0.7073,0.7073,0.7069,-246.0036,712.9113)"
   style="fill:#526069"
   width="199.64799"
   height="2.9070001"
   id="rect817" />
&#10;						<path
   style="fill:#6a6a61"
   d="m 667.68,725.646 -2.791,-2.791 141.908,-141.906 2.791,2.79 z m -1.321,-2.79 1.32,1.32 140.438,-140.436 -1.32,-1.32 z"
   id="path817" />
&#10;					</g>
&#10;					<g
   id="g818">&#10;						&#10;							<rect
   x="642.03998"
   y="656.46997"
   transform="matrix(0.707,-0.7073,0.7073,0.707,-247.922,717.4904)"
   style="fill:#526069"
   width="199.647"
   height="2.905"
   id="rect818" />
&#10;						<path
   style="fill:#6a6a61"
   d="m 672.305,730.271 -2.789,-2.789 141.906,-141.907 2.789,2.79 z m -1.319,-2.79 1.318,1.319 140.438,-140.436 -1.32,-1.319 z"
   id="path818" />
&#10;					</g>
&#10;					<g
   id="g819">&#10;						&#10;							<rect
   x="646.66602"
   y="661.09399"
   transform="matrix(0.7071,-0.7071,0.7071,0.7071,-249.8509,721.8993)"
   style="fill:#526069"
   width="199.647"
   height="2.908"
   id="rect819" />
&#10;						<path
   style="fill:#6a6a61"
   d="m 676.932,734.898 -2.791,-2.792 141.906,-141.906 2.791,2.79 z m -1.321,-2.792 1.32,1.321 140.436,-140.437 -1.32,-1.32 z"
   id="path819" />
&#10;					</g>
&#10;					<g
   id="g820">&#10;						&#10;							<rect
   x="651.29199"
   y="665.72101"
   transform="matrix(0.707,-0.7073,0.7073,0.707,-251.7538,726.7444)"
   style="fill:#526069"
   width="199.646"
   height="2.905"
   id="rect820" />
&#10;						<path
   style="fill:#6a6a61"
   d="m 681.557,739.521 -2.791,-2.789 141.908,-141.907 2.789,2.79 z m -1.321,-2.789 1.32,1.318 140.436,-140.436 -1.318,-1.319 z"
   id="path820" />
&#10;					</g>
&#10;					<g
   id="g821">&#10;						&#10;							<rect
   x="655.91602"
   y="670.34497"
   transform="matrix(0.7071,-0.7071,0.7071,0.7071,-253.6843,731.1249)"
   style="fill:#526069"
   width="199.647"
   height="2.9089999"
   id="rect821" />
&#10;						<path
   style="fill:#6a6a61"
   d="m 686.182,744.148 -2.791,-2.792 141.906,-141.907 2.791,2.792 z m -1.321,-2.792 1.32,1.321 140.438,-140.436 -1.322,-1.321 z"
   id="path821" />
&#10;					</g>
&#10;					<g
   id="g822">&#10;						&#10;							<rect
   x="660.54199"
   y="674.97198"
   transform="matrix(0.7068,-0.7074,0.7074,0.7068,-255.5713,736.2452)"
   style="fill:#526069"
   width="199.646"
   height="2.9059999"
   id="rect822" />
&#10;						<path
   style="fill:#6a6a61"
   d="m 690.809,748.773 -2.791,-2.79 141.906,-141.907 2.791,2.79 z m -1.323,-2.79 1.322,1.319 140.435,-140.436 -1.32,-1.319 z"
   id="path822" />
&#10;					</g>
&#10;					<g
   id="g823">&#10;						&#10;							<rect
   x="665.16803"
   y="679.59601"
   transform="matrix(0.7071,-0.7071,0.7071,0.7071,-257.5162,740.3759)"
   style="fill:#526069"
   width="199.646"
   height="2.908"
   id="rect823" />
&#10;						<path
   style="fill:#6a6a61"
   d="m 695.434,753.398 -2.793,-2.791 141.908,-141.906 2.791,2.791 z m -1.323,-2.791 1.322,1.321 140.435,-140.437 -1.32,-1.32 z"
   id="path823" />
&#10;					</g>
&#10;					<g
   id="g824">&#10;						&#10;							<rect
   x="669.79303"
   y="684.22198"
   transform="matrix(0.7068,-0.7074,0.7074,0.7068,-259.4031,745.5013)"
   style="fill:#526069"
   width="199.646"
   height="2.9059999"
   id="rect824" />
&#10;						<path
   style="fill:#6a6a61"
   d="m 700.059,758.023 -2.791,-2.79 141.906,-141.906 2.791,2.79 z m -1.321,-2.79 1.32,1.319 140.435,-140.435 -1.32,-1.32 z"
   id="path824" />
&#10;					</g>
&#10;					<g
   id="g825">&#10;						&#10;							<rect
   x="674.41901"
   y="688.84802"
   transform="matrix(0.7071,-0.7071,0.7071,0.7071,-261.3461,749.6563)"
   style="fill:#526069"
   width="199.647"
   height="2.9059999"
   id="rect825" />
&#10;						<path
   style="fill:#6a6a61"
   d="m 704.684,762.649 -2.791,-2.79 141.908,-141.907 2.789,2.79 z m -1.321,-2.79 1.32,1.32 140.435,-140.438 -1.318,-1.319 z"
   id="path825" />
&#10;					</g>
&#10;					<g
   id="g826">&#10;						&#10;							<rect
   x="679.04303"
   y="693.47302"
   transform="matrix(0.7073,-0.707,0.707,0.7073,-263.275,754.0532)"
   style="fill:#526069"
   width="199.64799"
   height="2.9059999"
   id="rect826" />
&#10;						<path
   style="fill:#6a6a61"
   d="m 709.309,767.275 -2.791,-2.791 141.908,-141.906 2.789,2.789 z m -1.321,-2.791 1.32,1.32 140.435,-140.438 -1.318,-1.319 z"
   id="path826" />
&#10;					</g>
&#10;				</g>
&#10;			</g>
&#10;		</g>
&#10;		<g
   id="g830">&#10;			<rect
   x="650.43201"
   y="553.13501"
   style="fill:#6a6a61"
   width="101.559"
   height="135.569"
   id="rect829" />
&#10;			<path
   style="fill:#526069"
   d="M 753.549,690.264 H 648.871 V 551.575 h 104.678 z m -101.557,-3.12 h 98.438 v -132.45 h -98.438 z"
   id="path829" />
&#10;		</g>
&#10;		<g
   id="g840">&#10;			<g
   id="g835">&#10;				<polygon
   style="fill:#dee4ca"
   points="685.918,639.965 684.92,640.262 696.475,686.584 697.56,686.584 "
   id="polygon830" />
&#10;				<polygon
   style="fill:#dee4ca"
   points="710.016,628.766 709.004,628.526 701.783,686.584 702.852,686.584 "
   id="polygon831" />
&#10;				<polygon
   style="fill:#dee4ca"
   points="698.408,615.968 697.369,615.968 699.447,686.584 700.488,686.584 "
   id="polygon832" />
&#10;				<polygon
   style="fill:#dee4ca"
   points="685.934,606.734 684.92,606.968 697.152,686.584 698.219,686.584 "
   id="polygon833" />
&#10;				<polygon
   style="fill:#dee4ca"
   points="710.533,602.444 709.498,602.326 699.068,686.584 700.115,686.584 "
   id="polygon834" />
&#10;				<polygon
   style="fill:#dee4ca"
   points="722.6,610.113 700.631,686.584 701.721,686.584 723.59,610.426 "
   id="polygon835" />
&#10;			</g>
&#10;			<g
   id="g839">&#10;				<path
   style="fill:#dee4ca"
   d="m 694.422,624.998 c 1.271,8.08 -2.793,15.432 -9.076,16.419 -6.285,0.988 -12.408,-4.76 -13.68,-12.839 -1.27,-8.08 2.793,-15.431 9.076,-16.42 6.285,-0.987 12.41,4.762 13.68,12.84 z"
   id="path835" />
&#10;				<path
   style="fill:#8ab7a1"
   d="m 721.867,629.507 c -0.629,7.611 -6.443,13.341 -12.99,12.8 -6.547,-0.541 -11.342,-7.149 -10.713,-14.76 0.631,-7.61 6.447,-13.342 12.992,-12.801 6.547,0.543 11.342,7.152 10.711,14.761 z"
   id="path836" />
&#10;				<ellipse
   style="fill:#eec84d"
   cx="697.88898"
   cy="603.19501"
   rx="11.103"
   ry="14.277"
   id="ellipse836" />
&#10;				<path
   style="fill:#dee4ca"
   d="m 721.252,593.76 c -0.947,7.828 -6.65,13.577 -12.736,12.842 -6.09,-0.736 -10.258,-7.678 -9.313,-15.506 0.945,-7.828 6.648,-13.577 12.736,-12.843 6.088,0.736 10.256,7.678 9.313,15.507 z"
   id="path837" />
&#10;				<path
   style="fill:#8ab7a1"
   d="m 695.391,593.94 c 0.772,8.789 -3.557,16.348 -9.664,16.885 -6.109,0.534 -11.688,-6.155 -12.459,-14.943 -0.771,-8.787 3.559,-16.345 9.666,-16.881 6.109,-0.537 11.687,6.152 12.457,14.939 z"
   id="path838" />
&#10;				<path
   style="fill:#eec84d"
   d="m 734.486,607.086 c -2.004,7.752 -7.639,13.001 -12.584,11.723 -4.945,-1.279 -7.33,-8.601 -5.326,-16.354 2.002,-7.751 7.637,-13 12.584,-11.721 4.945,1.279 7.33,8.599 5.326,16.352 z"
   id="path839" />
&#10;			</g>
&#10;		</g>
&#10;		<g
   id="g843">&#10;			<polygon
   style="fill:#dee4ca"
   points="745.418,561.324 738.938,561.324 738.938,558.911 747.773,558.911 747.773,568.269 745.418,568.269 "
   id="polygon840" />
&#10;			<polygon
   style="fill:#dee4ca"
   points="659.021,561.324 665.502,561.324 665.502,558.912 656.664,558.912 656.664,567.534 659.021,567.534 "
   id="polygon841" />
&#10;			<polygon
   style="fill:#dee4ca"
   points="745.365,681.554 738.883,681.554 738.883,683.966 747.723,683.966 747.723,674.336 745.365,674.336 "
   id="polygon842" />
&#10;			<polygon
   style="fill:#dee4ca"
   points="658.133,681.554 664.613,681.554 664.613,683.966 655.773,683.966 655.773,674.336 658.133,674.336 "
   id="polygon843" />
&#10;		</g>
&#10;	</g>
</g>
</g>
  </g>
</svg>
