<?xml version="1.0" encoding="UTF-8" standalone="no"?>
<!-- Created with Inkscape (http://www.inkscape.org/) -->

<svg
   width="33.564777mm"
   height="43.102215mm"
   viewBox="0 0 33.564777 43.102215"
   version="1.1"
   id="svg1"
   xmlns:inkscape="http://www.inkscape.org/namespaces/inkscape"
   xmlns:sodipodi="http://sodipodi.sourceforge.net/DTD/sodipodi-0.dtd"
   xmlns="http://www.w3.org/2000/svg"
   xmlns:svg="http://www.w3.org/2000/svg">
  <sodipodi:namedview
     id="namedview1"
     pagecolor="#ffffff"
     bordercolor="#000000"
     borderopacity="0.25"
     inkscape:showpageshadow="2"
     inkscape:pageopacity="0.0"
     inkscape:pagecheckerboard="0"
     inkscape:deskcolor="#d1d1d1"
     inkscape:document-units="mm" />
  <defs
     id="defs1" />
  <g
     inkscape:label="Layer 1"
     inkscape:groupmode="layer"
     id="layer1"
     transform="translate(-137.58333,-161.66041)">
    <g
       id="g274"
       transform="matrix(0.26458333,0,0,0.26458333,-60.66102,89.56093)">&#10;		&#10;		&#10;		&#10;	<g
   id="g241"
   transform="translate(161.841,-56.476002)">&#10;		&#10;		&#10;		&#10;		&#10;	<g
   id="g421"
   transform="translate(243.99901,-210.488)">&#10;		<g
   id="g379">&#10;			<rect
   x="345.51001"
   y="541.54498"
   style="fill:#dee4ca"
   width="122.699"
   height="158.74699"
   id="rect378" />
&#10;			<path
   style="fill:#6a6a61"
   d="M 470.289,702.372 H 343.43 V 539.466 H 470.289 Z M 347.59,698.213 H 466.129 V 543.625 H 347.59 Z"
   id="path378" />
&#10;		</g>
&#10;		<g
   style="opacity:0.1"
   id="g413">&#10;			<g
   id="g380">&#10;				<rect
   x="346.53601"
   y="543.44"
   style="fill:#6a6a61"
   width="1.653"
   height="154.95799"
   id="rect379" />
&#10;				<path
   style="fill:#6a6a61"
   d="m 348.708,698.917 h -2.692 V 542.92 h 2.692 z m -1.652,-1.039 h 0.613 V 543.96 h -0.613 z"
   id="path379" />
&#10;			</g>
&#10;			<g
   id="g381">&#10;				<rect
   x="350.254"
   y="543.44"
   style="fill:#6a6a61"
   width="1.652"
   height="154.95799"
   id="rect380" />
&#10;				<path
   style="fill:#6a6a61"
   d="m 352.426,698.917 h -2.692 V 542.92 h 2.692 z m -1.653,-1.039 h 0.612 l 0.001,-153.918 h -0.613 z"
   id="path380" />
&#10;			</g>
&#10;			<g
   id="g382">&#10;				<rect
   x="353.97198"
   y="543.44"
   style="fill:#6a6a61"
   width="1.654"
   height="154.95799"
   id="rect381" />
&#10;				<path
   style="fill:#6a6a61"
   d="m 356.146,698.917 h -2.694 V 542.92 h 2.694 z m -1.653,-1.039 h 0.614 V 543.96 h -0.614 z"
   id="path381" />
&#10;			</g>
&#10;			<g
   id="g383">&#10;				<rect
   x="357.69101"
   y="543.44"
   style="fill:#6a6a61"
   width="1.653"
   height="154.95799"
   id="rect382" />
&#10;				<path
   style="fill:#6a6a61"
   d="m 359.864,698.917 h -2.693 V 542.92 h 2.692 v 155.997 z m -1.653,-1.039 h 0.613 V 543.96 h -0.613 z"
   id="path382" />
&#10;			</g>
&#10;			<g
   id="g384">&#10;				<rect
   x="361.41"
   y="543.44"
   style="fill:#6a6a61"
   width="1.653"
   height="154.95799"
   id="rect383" />
&#10;				<path
   style="fill:#6a6a61"
   d="m 363.582,698.917 h -2.693 V 542.92 h 2.693 z m -1.653,-1.039 h 0.614 V 543.96 h -0.614 z"
   id="path383" />
&#10;			</g>
&#10;			<g
   id="g385">&#10;				<rect
   x="365.13"
   y="543.44"
   style="fill:#6a6a61"
   width="1.652"
   height="154.95799"
   id="rect384" />
&#10;				<path
   style="fill:#6a6a61"
   d="m 367.302,698.917 h -2.691 V 542.92 h 2.692 v 155.997 z m -1.652,-1.039 h 0.612 V 543.96 h -0.612 z"
   id="path384" />
&#10;			</g>
&#10;			<g
   id="g386">&#10;				<rect
   x="368.84698"
   y="543.44"
   style="fill:#6a6a61"
   width="1.653"
   height="154.95799"
   id="rect385" />
&#10;				<path
   style="fill:#6a6a61"
   d="m 371.02,698.917 h -2.693 V 542.92 h 2.693 z m -1.653,-1.039 h 0.613 V 543.96 h -0.613 z"
   id="path385" />
&#10;			</g>
&#10;			<g
   id="g387">&#10;				<rect
   x="372.56601"
   y="543.44"
   style="fill:#6a6a61"
   width="1.653"
   height="154.95799"
   id="rect386" />
&#10;				<path
   style="fill:#6a6a61"
   d="m 374.739,698.917 h -2.693 V 542.92 h 2.693 z m -1.653,-1.039 h 0.613 V 543.96 h -0.613 z"
   id="path386" />
&#10;			</g>
&#10;			<g
   id="g388">&#10;				<rect
   x="376.285"
   y="543.44"
   style="fill:#6a6a61"
   width="1.652"
   height="154.95799"
   id="rect387" />
&#10;				<path
   style="fill:#6a6a61"
   d="m 378.456,698.917 h -2.692 V 542.92 h 2.692 z m -1.652,-1.039 h 0.613 V 543.96 h -0.613 z"
   id="path387" />
&#10;			</g>
&#10;			<g
   id="g389">&#10;				<rect
   x="380.00201"
   y="543.44"
   style="fill:#6a6a61"
   width="1.653"
   height="154.95799"
   id="rect388" />
&#10;				<path
   style="fill:#6a6a61"
   d="m 382.175,698.917 h -2.692 V 542.92 h 2.692 z m -1.653,-1.039 h 0.613 V 543.96 h -0.613 z"
   id="path388" />
&#10;			</g>
&#10;			<g
   id="g390">&#10;				<rect
   x="383.72101"
   y="543.44"
   style="fill:#6a6a61"
   width="1.653"
   height="154.95799"
   id="rect389" />
&#10;				<path
   style="fill:#6a6a61"
   d="m 385.894,698.917 h -2.692 V 542.92 h 2.692 z m -1.653,-1.039 h 0.613 V 543.96 h -0.613 z"
   id="path389" />
&#10;			</g>
&#10;			<g
   id="g391">&#10;				<rect
   x="387.44101"
   y="543.43903"
   style="fill:#6a6a61"
   width="1.652"
   height="154.95799"
   id="rect390" />
&#10;				<path
   style="fill:#6a6a61"
   d="m 389.613,698.917 h -2.692 V 542.919 l 2.692,10e-4 z m -1.653,-1.039 h 0.612 V 543.96 l -0.612,-0.001 z"
   id="path390" />
&#10;			</g>
&#10;			<g
   id="g392">&#10;				<rect
   x="391.16"
   y="543.43903"
   style="fill:#6a6a61"
   width="1.651"
   height="154.95799"
   id="rect391" />
&#10;				<path
   style="fill:#6a6a61"
   d="m 393.331,698.917 h -2.692 V 542.92 l 2.692,-10e-4 z m -1.652,-1.039 h 0.612 V 543.959 l -0.612,0.001 z"
   id="path391" />
&#10;			</g>
&#10;			<g
   id="g393">&#10;				<rect
   x="394.87601"
   y="543.44"
   style="fill:#6a6a61"
   width="1.653"
   height="154.95799"
   id="rect392" />
&#10;				<path
   style="fill:#6a6a61"
   d="m 397.05,698.917 h -2.693 V 542.92 h 2.693 z m -1.653,-1.039 h 0.613 V 543.96 h -0.613 z"
   id="path392" />
&#10;			</g>
&#10;			<g
   id="g394">&#10;				<rect
   x="398.59601"
   y="543.44"
   style="fill:#6a6a61"
   width="1.653"
   height="154.95799"
   id="rect393" />
&#10;				<path
   style="fill:#6a6a61"
   d="m 400.77,698.917 h -2.693 V 542.92 h 2.693 z m -1.653,-1.039 h 0.613 V 543.96 h -0.613 z"
   id="path393" />
&#10;			</g>
&#10;			<g
   id="g395">&#10;				<rect
   x="402.314"
   y="543.44"
   style="fill:#6a6a61"
   width="1.652"
   height="154.95799"
   id="rect394" />
&#10;				<path
   style="fill:#6a6a61"
   d="m 404.486,698.917 h -2.691 V 542.92 h 2.691 z m -1.652,-1.039 h 0.613 V 543.96 h -0.613 z"
   id="path394" />
&#10;			</g>
&#10;			<g
   id="g396">&#10;				<rect
   x="406.03299"
   y="543.44"
   style="fill:#6a6a61"
   width="1.654"
   height="154.95799"
   id="rect395" />
&#10;				<path
   style="fill:#6a6a61"
   d="m 408.207,698.917 h -2.693 V 542.92 h 2.693 z m -1.654,-1.039 h 0.613 V 543.96 h -0.613 z"
   id="path395" />
&#10;			</g>
&#10;			<g
   id="g397">&#10;				<rect
   x="409.75201"
   y="543.44"
   style="fill:#6a6a61"
   width="1.652"
   height="154.95799"
   id="rect396" />
&#10;				<path
   style="fill:#6a6a61"
   d="m 411.924,698.917 h -2.691 V 542.92 h 2.691 z m -1.653,-1.039 h 0.613 V 543.96 h -0.613 z"
   id="path396" />
&#10;			</g>
&#10;			<g
   id="g398">&#10;				<rect
   x="413.47101"
   y="543.44"
   style="fill:#6a6a61"
   width="1.652"
   height="154.95799"
   id="rect397" />
&#10;				<path
   style="fill:#6a6a61"
   d="m 415.643,698.917 h -2.691 V 542.92 h 2.691 z m -1.653,-1.039 h 0.613 V 543.96 h -0.613 z"
   id="path397" />
&#10;			</g>
&#10;			<g
   id="g399">&#10;				<rect
   x="417.189"
   y="543.44"
   style="fill:#6a6a61"
   width="1.652"
   height="154.95799"
   id="rect398" />
&#10;				<path
   style="fill:#6a6a61"
   d="M 419.361,698.917 H 416.67 V 542.92 h 2.691 z m -1.652,-1.039 h 0.613 V 543.96 h -0.613 z"
   id="path398" />
&#10;			</g>
&#10;			<g
   id="g400">&#10;				<rect
   x="420.90799"
   y="543.44"
   style="fill:#6a6a61"
   width="1.653"
   height="154.95799"
   id="rect399" />
&#10;				<path
   style="fill:#6a6a61"
   d="m 423.08,698.919 -2.691,-0.002 V 542.92 h 2.693 z m -1.65,-1.041 0.611,10e-4 0.002,-153.919 h -0.613 z"
   id="path399" />
&#10;			</g>
&#10;			<g
   id="g401">&#10;				<rect
   x="424.625"
   y="543.44"
   style="fill:#6a6a61"
   width="1.654"
   height="154.95799"
   id="rect400" />
&#10;				<path
   style="fill:#6a6a61"
   d="m 426.799,698.917 h -2.693 V 542.92 h 2.693 z m -1.653,-1.039 h 0.613 V 543.96 h -0.613 z"
   id="path400" />
&#10;			</g>
&#10;			<g
   id="g402">&#10;				<rect
   x="428.34601"
   y="543.43903"
   style="fill:#6a6a61"
   width="1.652"
   height="154.95799"
   id="rect401" />
&#10;				<path
   style="fill:#6a6a61"
   d="m 430.518,698.917 h -2.691 V 542.92 l 2.691,-10e-4 z m -1.651,-1.039 h 0.611 V 543.959 l -0.611,0.001 z"
   id="path401" />
&#10;			</g>
&#10;			<g
   id="g403">&#10;				<rect
   x="432.064"
   y="543.44"
   style="fill:#6a6a61"
   width="1.652"
   height="154.95799"
   id="rect402" />
&#10;				<path
   style="fill:#6a6a61"
   d="M 431.545,698.919 V 542.92 h 2.691 v 155.997 z m 1.039,-154.959 v 153.919 l 0.611,-10e-4 V 543.96 Z"
   id="path402" />
&#10;			</g>
&#10;			<g
   id="g404">&#10;				<rect
   x="435.78299"
   y="543.44"
   style="fill:#6a6a61"
   width="1.652"
   height="154.95799"
   id="rect403" />
&#10;				<path
   style="fill:#6a6a61"
   d="m 437.955,698.917 h -2.691 V 542.92 h 2.691 z m -1.652,-1.039 h 0.611 V 543.96 h -0.611 z"
   id="path403" />
&#10;			</g>
&#10;			<g
   id="g405">&#10;				<rect
   x="439.50201"
   y="543.44"
   style="fill:#6a6a61"
   width="1.65"
   height="154.95799"
   id="rect404" />
&#10;				<path
   style="fill:#6a6a61"
   d="m 441.674,698.917 h -2.693 V 542.92 h 2.693 z m -1.653,-1.039 h 0.611 V 543.96 h -0.611 z"
   id="path404" />
&#10;			</g>
&#10;			<g
   id="g406">&#10;				<rect
   x="443.22101"
   y="543.44"
   style="fill:#6a6a61"
   width="1.65"
   height="154.95799"
   id="rect405" />
&#10;				<path
   style="fill:#6a6a61"
   d="m 445.393,698.917 h -2.691 V 542.92 h 2.691 z m -1.653,-1.039 h 0.611 V 543.96 h -0.611 z"
   id="path405" />
&#10;			</g>
&#10;			<g
   id="g407">&#10;				<rect
   x="446.93799"
   y="543.44"
   style="fill:#6a6a61"
   width="1.654"
   height="154.95799"
   id="rect406" />
&#10;				<path
   style="fill:#6a6a61"
   d="m 449.111,698.917 h -2.693 V 542.92 h 2.693 z m -1.652,-1.039 h 0.613 V 543.96 h -0.613 z"
   id="path406" />
&#10;			</g>
&#10;			<g
   id="g408">&#10;				<rect
   x="450.65799"
   y="543.44"
   style="fill:#6a6a61"
   width="1.652"
   height="154.95799"
   id="rect407" />
&#10;				<path
   style="fill:#6a6a61"
   d="m 452.83,698.917 h -2.691 V 542.92 h 2.691 z m -1.652,-1.039 h 0.613 V 543.96 h -0.613 z"
   id="path407" />
&#10;			</g>
&#10;			<g
   id="g409">&#10;				<rect
   x="454.37601"
   y="543.44"
   style="fill:#6a6a61"
   width="1.653"
   height="154.95799"
   id="rect408" />
&#10;				<path
   style="fill:#6a6a61"
   d="m 456.549,698.917 h -2.693 l 0.002,-155.997 h 2.691 z m -1.654,-1.039 h 0.613 V 543.96 h -0.611 z"
   id="path408" />
&#10;			</g>
&#10;			<g
   id="g410">&#10;				<rect
   x="458.09601"
   y="543.44"
   style="fill:#6a6a61"
   width="1.65"
   height="154.95799"
   id="rect409" />
&#10;				<path
   style="fill:#6a6a61"
   d="m 460.266,698.917 h -2.689 V 542.92 h 2.689 z m -1.651,-1.039 h 0.611 V 543.96 h -0.611 z"
   id="path409" />
&#10;			</g>
&#10;			<g
   id="g411">&#10;				<rect
   x="461.814"
   y="543.44"
   style="fill:#6a6a61"
   width="1.652"
   height="154.95799"
   id="rect410" />
&#10;				<path
   style="fill:#6a6a61"
   d="m 463.986,698.917 h -2.693 V 542.92 h 2.693 z m -1.652,-1.039 h 0.611 V 543.96 h -0.611 z"
   id="path410" />
&#10;			</g>
&#10;			<g
   id="g412">&#10;				<rect
   x="465.53299"
   y="543.44"
   style="fill:#6a6a61"
   width="1.65"
   height="154.95799"
   id="rect411" />
&#10;				<path
   style="fill:#6a6a61"
   d="m 467.703,698.919 -2.691,-0.002 V 542.92 h 2.691 z m -1.65,-1.041 0.611,10e-4 V 543.96 h -0.611 z"
   id="path411" />
&#10;			</g>
&#10;		</g>
&#10;		<g
   id="g419">&#10;			<g
   id="g418">&#10;				<g
   id="g414">&#10;					<rect
   x="369.772"
   y="541.54498"
   style="fill:#8ab7a1"
   width="73.481003"
   height="7.625"
   id="rect413" />
&#10;					<path
   style="fill:#6a6a61"
   d="m 444.814,550.729 h -76.602 v -10.744 h 76.602 z m -73.482,-3.119 h 70.363 v -4.506 h -70.363 z"
   id="path413" />
&#10;				</g>
&#10;				<g
   id="g415">&#10;					<rect
   x="345.509"
   y="564.42102"
   style="fill:#8ab7a1"
   width="7.6020002"
   height="111.022"
   id="rect414" />
&#10;					<path
   style="fill:#6a6a61"
   d="M 354.67,677.003 H 343.949 V 562.861 h 10.721 z m -7.601,-3.119 h 4.482 V 565.981 h -4.482 z"
   id="path414" />
&#10;				</g>
&#10;				<g
   id="g416">&#10;					<rect
   x="460.60901"
   y="565.40698"
   style="fill:#8ab7a1"
   width="7.6020002"
   height="111.021"
   id="rect415" />
&#10;					<path
   style="fill:#6a6a61"
   d="M 469.77,677.989 H 459.049 V 563.848 h 10.721 z m -7.602,-3.12 h 4.482 V 566.967 h -4.482 z"
   id="path415" />
&#10;				</g>
&#10;				<g
   id="g417">&#10;					<rect
   x="369.772"
   y="692.66699"
   style="fill:#8ab7a1"
   width="73.481003"
   height="7.625"
   id="rect416" />
&#10;					<path
   style="fill:#6a6a61"
   d="m 444.814,701.852 h -76.602 v -10.745 h 76.602 z m -73.482,-3.12 h 70.363 v -4.505 h -70.363 z"
   id="path416" />
&#10;				</g>
&#10;			</g>
&#10;		</g>
&#10;		<g
   id="g420">&#10;			<path
   style="fill:#63635a"
   d="m 416.043,585.884 0.389,-2.34 c 0,0 6.963,-2.729 2.34,-7.668 -3.686,-3.938 -8.174,-5.329 -11.893,-0.038 -1.195,1.699 -0.826,6.146 0.975,7.187 0.32,1.046 -0.184,2.426 -0.184,2.426 0,0 -2.207,0.084 -5.199,-0.13 -2.109,-0.151 -5.329,6.629 -10.398,11.438 -5.068,4.809 -4.51,11.435 -2.859,13.518 1.652,2.082 5.98,7.539 5.98,7.539 0,0 -18.327,12.088 -16.768,18.066 1.56,5.98 14.947,12.479 16.897,16.508 1.949,4.029 -8.189,9.229 -7.539,11.178 0.65,1.949 5.997,0 7.149,-0.65 1.152,-0.649 5.589,-3.119 7.149,-4.289 1.559,-1.17 2.697,-4.096 1.299,-6.108 -1.397,-2.013 -12.217,-14.428 -12.087,-15.727 0.13,-1.3 13.777,-6.369 13.777,-6.369 0,0 0.391,17.677 1.301,22.616 0.91,4.939 0,16.767 0,16.767 l -1.301,1.819 0.65,7.148 c 0,0 0,2.08 0.65,2.21 0.65,0.13 4.939,1.04 6.369,0 1.43,-1.04 -0.391,-6.759 -1.689,-9.488 -1.301,-2.729 5.459,-33.925 5.459,-33.925 0,0 5.588,2.6 7.539,4.16 1.949,1.56 5.588,0.779 4.029,-0.78 -1.561,-1.56 -9.1,-12.478 -10.01,-20.667 8.059,-1.3 13.129,-2.6 16.898,-10.918 3.77,-8.319 -18.923,-23.483 -18.923,-23.483 z m -17.601,20.103 c -0.909,1.56 -0.909,4.159 -2.209,4.159 -1.3,0 0.52,-10.009 2.339,-9.879 1.82,0.131 0.78,4.16 -0.13,5.72 z m 27.816,4.809 c -1.56,2.729 -6.369,2.989 -6.76,2.989 -0.389,0 4.42,-8.578 4.42,-8.578 0,0 3.898,2.859 2.34,5.589 z"
   id="path419" />
&#10;			<path
   style="fill:#63635a"
   d="m 421.525,574.842 0.082,-0.321 c 0,0 -0.008,0.002 -0.012,0.002 l 2.803,-10.673 -0.01,-0.002 c 0.004,-0.014 0.016,-0.025 0.018,-0.038 0.127,-0.773 -3.219,-1.97 -8.535,-2.844 -5.117,-0.84 -8.229,-0.753 -8.568,-0.056 l -0.021,-0.002 -0.006,0.061 c -0.002,0.009 -0.008,0.017 -0.01,0.025 -0.004,0.02 0.006,0.04 0.004,0.061 l -0.678,10.972 c -0.047,-0.021 -0.078,-0.035 -0.078,-0.035 l -0.012,0.386 c -3.149,-0.205 -5.221,0.047 -5.385,1.041 -0.271,1.655 1.625,3.83 11.629,5.474 10.006,1.644 12.859,0.168 13.131,-1.485 0.16,-0.968 -1.527,-1.806 -4.352,-2.566 z"
   id="path420" />
&#10;		</g>
&#10;	</g>
</g>
</g>
  </g>
</svg>
