<?xml version="1.0" encoding="UTF-8" standalone="no"?>
<!-- Created with Inkscape (http://www.inkscape.org/) -->

<svg
   width="33.565296mm"
   height="43.102474mm"
   viewBox="0 0 33.565296 43.102474"
   version="1.1"
   id="svg1"
   xmlns:inkscape="http://www.inkscape.org/namespaces/inkscape"
   xmlns:sodipodi="http://sodipodi.sourceforge.net/DTD/sodipodi-0.dtd"
   xmlns:xlink="http://www.w3.org/1999/xlink"
   xmlns="http://www.w3.org/2000/svg"
   xmlns:svg="http://www.w3.org/2000/svg">
  <sodipodi:namedview
     id="namedview1"
     pagecolor="#ffffff"
     bordercolor="#000000"
     borderopacity="0.25"
     inkscape:showpageshadow="2"
     inkscape:pageopacity="0.0"
     inkscape:pagecheckerboard="0"
     inkscape:deskcolor="#d1d1d1"
     inkscape:document-units="mm" />
  <defs
     id="defs1">
    <path
       id="SVGID_00000034787053047626402350000007275837035276702083_"
       d="m 572.475,609.021 v -16.103 h -37.551 v 16.103 c -9.32,6.113 -15.475,16.641 -15.475,28.607 0,18.892 16.57,25.456 35.484,25.456 18.916,0 33.014,-6.565 33.014,-25.456 0,-11.966 -6.152,-22.493 -15.472,-28.607 z" />
  </defs>
  <g
     inkscape:label="Layer 1"
     inkscape:groupmode="layer"
     id="layer1"
     transform="translate(-120.12083,-166.95208)">
    <g
       id="g274"
       transform="matrix(0.26458333,0,0,0.26458333,-60.66102,89.56093)">&#10;		&#10;		&#10;		&#10;	<g
   id="g241"
   transform="translate(161.841,-56.476002)">&#10;		&#10;		&#10;		&#10;		&#10;	<g
   id="g792"
   transform="translate(31.160996,-190.488)">&#10;		<g
   id="g724">&#10;			<rect
   x="492.34799"
   y="541.54498"
   style="fill:#6a6a61"
   width="122.701"
   height="158.74899"
   id="rect723" />
&#10;			<path
   style="fill:#526069"
   d="M 617.129,702.373 H 490.268 V 539.466 H 617.129 Z M 494.428,698.214 H 612.969 V 543.625 H 494.428 Z"
   id="path723" />
&#10;		</g>
&#10;		<g
   id="g725">&#10;			<polygon
   style="fill:#8ab7a1"
   points="590.094,692.668 590.094,675.391 607.447,675.391 607.447,565.408 590.094,565.408 590.094,549.171 516.611,549.171 516.611,565.461 499.949,565.461 499.949,675.443 516.611,675.443 516.611,692.668 "
   id="polygon724" />
&#10;			<path
   style="fill:#dee4ca"
   d="M 591.652,694.227 H 515.05 V 677.002 H 498.39 V 563.901 h 16.66 v -16.29 h 76.602 v 16.237 h 17.354 V 676.95 h -17.354 z m -73.48,-3.12 h 70.361 v -17.276 h 17.353 V 566.968 h -17.353 v -16.236 h -70.361 v 16.29 H 501.51 v 106.862 h 16.662 z"
   id="path724" />
&#10;		</g>
&#10;		<g
   id="g791">&#10;			<g
   id="g783">&#10;				<g
   id="g782">&#10;					<g
   id="g758">&#10;						<g
   id="g757">&#10;							<g
   id="g726">&#10;								<path
   style="fill:#eec84d"
   d="m 567.236,585.981 c 0,1.507 -2.109,2.726 -4.713,2.726 -2.602,0 -4.713,-1.219 -4.713,-2.726 0,-0.376 0.006,-0.955 0.006,-0.955 0,0 2.756,-1.767 4.707,-1.767 2.113,0 4.713,1.87 4.713,1.87 0,0 0,0.472 0,0.852 z"
   id="path725" />
&#10;								<path
   style="fill:#eec84d"
   d="m 567.236,585.129 c 0,1.504 -2.109,2.724 -4.713,2.724 -2.602,0 -4.713,-1.22 -4.713,-2.724 0,-1.504 2.111,-2.725 4.713,-2.725 2.604,0 4.713,1.221 4.713,2.725 z"
   id="path726" />
&#10;							</g>
&#10;							<g
   id="g728">&#10;								<path
   style="fill:#eec84d"
   d="m 568.619,588.932 c 0,1.507 -2.109,2.724 -4.713,2.724 -2.602,0 -4.711,-1.217 -4.711,-2.724 0,-0.378 0.006,-0.956 0.006,-0.956 0,0 2.756,-1.768 4.705,-1.768 2.115,0 4.713,1.87 4.713,1.87 0,0 0,0.472 0,0.854 z"
   id="path727" />
&#10;								<path
   style="fill:#eec84d"
   d="m 568.619,588.078 c 0,1.503 -2.109,2.723 -4.713,2.723 -2.602,0 -4.711,-1.22 -4.711,-2.723 0,-1.505 2.109,-2.725 4.711,-2.725 2.604,0.001 4.713,1.22 4.713,2.725 z"
   id="path728" />
&#10;							</g>
&#10;							<g
   id="g730">&#10;								<path
   style="fill:#eec84d"
   d="m 550.289,588.504 c 0,1.506 -2.107,2.726 -4.709,2.726 -2.602,0 -4.713,-1.22 -4.713,-2.726 0,-0.375 0.006,-0.955 0.006,-0.955 0,0 2.754,-1.767 4.707,-1.767 2.113,0 4.709,1.869 4.709,1.869 0,0 0,0.472 0,0.853 z"
   id="path729" />
&#10;								<path
   style="fill:#eec84d"
   d="m 550.289,587.651 c 0,1.504 -2.107,2.724 -4.709,2.724 -2.602,0 -4.713,-1.22 -4.713,-2.724 0,-1.504 2.111,-2.725 4.713,-2.725 2.602,10e-4 4.709,1.222 4.709,2.725 z"
   id="path730" />
&#10;							</g>
&#10;							<g
   id="g732">&#10;								<path
   style="fill:#eec84d"
   d="m 553.162,597.055 c 0,1.503 -2.109,2.725 -4.711,2.725 -2.604,0 -4.713,-1.222 -4.713,-2.725 0,-0.376 0.004,-0.955 0.004,-0.955 0,0 2.758,-1.77 4.709,-1.77 2.113,0 4.711,1.872 4.711,1.872 0,0 0,0.472 0,0.853 z"
   id="path731" />
&#10;								<path
   style="fill:#eec84d"
   d="m 553.162,596.202 c 0,1.505 -2.109,2.723 -4.711,2.723 -2.604,0 -4.713,-1.218 -4.713,-2.723 0,-1.505 2.109,-2.725 4.713,-2.725 2.602,0 4.711,1.22 4.711,2.725 z"
   id="path732" />
&#10;							</g>
&#10;							<g
   id="g734">&#10;								<path
   style="fill:#eec84d"
   d="m 573.703,592.963 c -1.219,0.886 -3.445,-0.101 -4.978,-2.202 -1.531,-2.102 -1.529,-3.942 -0.742,-5.655 0.625,-1.369 3.623,0.347 5.152,2.449 1.148,1.576 1.43,3.905 1.43,3.905 0,0 -0.557,1.279 -0.862,1.503 z"
   id="path733" />
&#10;								<path
   style="fill:#eec84d"
   d="m 574.008,592.164 c -1.219,0.886 -3.447,-0.101 -4.979,-2.201 -1.531,-2.101 -1.785,-4.523 -0.566,-5.408 1.217,-0.884 3.447,0.101 4.979,2.203 1.531,2.1 1.785,4.521 0.566,5.406 z"
   id="path734" />
&#10;							</g>
&#10;							<g
   id="g736">&#10;								<path
   style="fill:#eec84d"
   d="m 552.984,595.634 c -1.219,0.885 -3.449,-0.102 -4.979,-2.204 -1.531,-2.1 -1.527,-3.94 -0.742,-5.653 0.627,-1.368 3.623,0.349 5.154,2.449 1.146,1.576 1.43,3.907 1.43,3.907 0,0 -0.558,1.279 -0.863,1.501 z"
   id="path735" />
&#10;								<path
   style="fill:#eec84d"
   d="m 553.289,594.838 c -1.219,0.883 -3.445,-0.102 -4.979,-2.204 -1.529,-2.102 -1.785,-4.522 -0.564,-5.407 1.217,-0.885 3.445,0.102 4.979,2.2 1.529,2.103 1.783,4.525 0.564,5.411 z"
   id="path736" />
&#10;							</g>
&#10;							<g
   id="g738">&#10;								<path
   style="fill:#eec84d"
   d="m 557.797,585.611 c -0.822,1.26 -3.258,1.133 -5.44,-0.286 -2.18,-1.416 -2.834,-3.137 -2.713,-5.017 0.098,-1.501 3.51,-0.965 5.69,0.452 1.635,1.063 2.729,3.138 2.729,3.138 0,0 -0.061,1.396 -0.266,1.713 z"
   id="path737" />
&#10;								<path
   style="fill:#eec84d"
   d="m 557.797,584.756 c -0.822,1.262 -3.258,1.135 -5.44,-0.283 -2.18,-1.417 -3.283,-3.59 -2.461,-4.85 0.822,-1.263 3.258,-1.135 5.438,0.282 2.182,1.418 3.283,3.59 2.463,4.851 z"
   id="path738" />
&#10;							</g>
&#10;							<g
   id="g740">&#10;								<path
   style="fill:#eec84d"
   d="m 551.223,588.817 c -0.822,1.262 -3.256,1.136 -5.438,-0.284 -2.182,-1.417 -2.834,-3.137 -2.715,-5.019 0.098,-1.5 3.51,-0.964 5.691,0.452 1.635,1.065 2.731,3.14 2.731,3.14 0,0 -0.064,1.395 -0.269,1.711 z"
   id="path739" />
&#10;								<path
   style="fill:#eec84d"
   d="m 551.223,587.965 c -0.822,1.259 -3.256,1.133 -5.438,-0.284 -2.182,-1.418 -3.283,-3.589 -2.461,-4.85 0.822,-1.263 3.256,-1.134 5.438,0.284 2.181,1.415 3.281,3.586 2.461,4.85 z"
   id="path740" />
&#10;							</g>
&#10;							<g
   id="g742">&#10;								<path
   style="fill:#eec84d"
   d="m 563.227,599.319 c -0.824,1.261 -3.258,1.136 -5.439,-0.282 -2.18,-1.416 -2.836,-3.138 -2.713,-5.018 0.098,-1.5 3.508,-0.964 5.688,0.453 1.637,1.063 2.731,3.139 2.731,3.139 0,0 -0.064,1.396 -0.267,1.708 z"
   id="path741" />
&#10;								<path
   style="fill:#eec84d"
   d="m 563.227,598.467 c -0.824,1.262 -3.258,1.134 -5.439,-0.283 -2.18,-1.419 -3.283,-3.59 -2.461,-4.849 0.822,-1.263 3.256,-1.136 5.435,0.283 2.183,1.415 3.283,3.588 2.465,4.849 z"
   id="path742" />
&#10;							</g>
&#10;							<g
   id="g744">&#10;								<path
   style="fill:#eec84d"
   d="m 563.227,591.944 c -0.822,1.263 -3.258,1.135 -5.438,-0.284 -2.182,-1.417 -2.836,-3.135 -2.715,-5.018 0.098,-1.501 3.508,-0.965 5.69,0.453 1.635,1.063 2.73,3.139 2.73,3.139 0,0 -0.062,1.396 -0.267,1.71 z"
   id="path743" />
&#10;								<path
   style="fill:#eec84d"
   d="m 563.227,591.092 c -0.822,1.26 -3.258,1.134 -5.438,-0.284 -2.182,-1.418 -3.283,-3.588 -2.461,-4.852 0.82,-1.26 3.254,-1.131 5.436,0.284 2.181,1.42 3.283,3.591 2.463,4.852 z"
   id="path744" />
&#10;							</g>
&#10;							<g
   id="g746">&#10;								<path
   style="fill:#eec84d"
   d="m 551.998,594.204 c -1.254,-0.837 -1.094,-3.266 0.354,-5.425 1.449,-2.16 3.637,-3.231 4.889,-2.394 1.252,0.837 1.094,3.267 -0.355,5.427 -1.448,2.159 -3.638,3.231 -4.888,2.392 z"
   id="path745" />
&#10;								<path
   style="fill:#eec84d"
   d="m 551.998,593.351 c -1.254,-0.836 -1.094,-3.265 0.354,-5.425 1.449,-2.16 3.637,-3.232 4.889,-2.396 1.252,0.839 1.094,3.268 -0.355,5.427 -1.448,2.159 -3.638,3.231 -4.888,2.394 z"
   id="path746" />
&#10;							</g>
&#10;							<g
   id="g748">&#10;								<path
   style="fill:#eec84d"
   d="m 536.164,593.723 c -1.252,-0.837 -1.092,-3.266 0.355,-5.426 1.449,-2.159 3.637,-3.232 4.889,-2.395 1.25,0.838 1.094,3.267 -0.354,5.426 -1.449,2.16 -3.634,3.232 -4.89,2.395 z"
   id="path747" />
&#10;								<path
   style="fill:#eec84d"
   d="m 536.164,592.868 c -1.252,-0.835 -1.092,-3.265 0.355,-5.426 1.449,-2.158 3.637,-3.23 4.889,-2.393 1.25,0.835 1.094,3.267 -0.354,5.425 -1.449,2.162 -3.634,3.232 -4.89,2.394 z"
   id="path748" />
&#10;							</g>
&#10;							<g
   id="g750">&#10;								<path
   style="fill:#eec84d"
   d="m 549.352,590.023 c 0.047,1.592 -1.428,3.239 -3.951,3.875 -2.523,0.637 -4.867,-0.031 -5.238,-1.491 -0.115,-0.466 -0.049,-1.257 -0.049,-1.257 0,0 2.234,-2.103 3.949,-2.535 2.307,-0.58 5.289,0.828 5.289,0.828 0,0 -0.006,0.447 0,0.58 z"
   id="path749" />
&#10;								<path
   style="fill:#eec84d"
   d="m 549.303,589.25 c 0.365,1.459 -1.379,3.156 -3.902,3.794 -2.523,0.636 -4.867,-0.032 -5.238,-1.49 -0.367,-1.46 1.379,-3.155 3.9,-3.794 2.523,-0.636 4.869,0.032 5.24,1.49 z"
   id="path750" />
&#10;							</g>
&#10;							<g
   id="g752">&#10;								<path
   style="fill:#eec84d"
   d="m 568.113,591.19 c 0.049,1.595 -1.428,3.242 -3.947,3.877 -2.525,0.639 -4.869,-0.03 -5.238,-1.488 -0.117,-0.467 -0.049,-1.259 -0.049,-1.259 0,0 2.232,-2.103 3.951,-2.534 2.305,-0.581 5.283,0.827 5.283,0.827 0,0 -0.004,0.447 0,0.577 z"
   id="path751" />
&#10;								<path
   style="fill:#eec84d"
   d="m 568.066,590.421 c 0.367,1.457 -1.381,3.157 -3.9,3.793 -2.525,0.636 -4.869,-0.032 -5.238,-1.49 -0.369,-1.46 1.379,-3.158 3.902,-3.791 2.522,-0.639 4.865,0.029 5.236,1.488 z"
   id="path752" />
&#10;							</g>
&#10;							<g
   id="g754">&#10;								<path
   style="fill:#eec84d"
   d="m 572.723,594.981 c 0.049,1.594 -1.426,3.24 -3.951,3.876 -2.521,0.635 -4.867,-0.031 -5.236,-1.49 -0.117,-0.466 -0.049,-1.26 -0.049,-1.26 0,0 2.234,-2.1 3.949,-2.533 2.305,-0.582 5.287,0.825 5.287,0.825 0,0 -0.004,0.45 0,0.582 z"
   id="path753" />
&#10;								<path
   style="fill:#eec84d"
   d="m 572.672,594.21 c 0.369,1.458 -1.375,3.156 -3.9,3.792 -2.521,0.637 -4.867,-0.031 -5.236,-1.491 -0.369,-1.459 1.379,-3.155 3.9,-3.791 2.525,-0.636 4.869,0.03 5.236,1.49 z"
   id="path754" />
&#10;							</g>
&#10;							<g
   id="g756">&#10;								<path
   style="fill:#eec84d"
   d="m 542.992,597.481 c -0.404,1.449 -2.766,2.059 -5.271,1.357 -2.506,-0.698 -3.992,-2.425 -3.936,-3.996 0.008,-0.262 0.105,-0.638 0.105,-0.638 0,0 3.229,-1.192 5.299,-0.613 2.142,0.6 3.863,2.592 3.863,2.592 0,0 -10e-4,1.088 -0.06,1.298 z"
   id="path755" />
&#10;								<path
   style="fill:#eec84d"
   d="m 542.992,596.627 c -0.404,1.45 -2.766,2.057 -5.271,1.358 -2.506,-0.7 -4.211,-2.443 -3.805,-3.892 0.406,-1.45 2.766,-2.057 5.273,-1.357 2.504,0.701 4.209,2.442 3.803,3.891 z"
   id="path756" />
&#10;							</g>
&#10;						</g>
&#10;					</g>
&#10;					<g
   id="g779">&#10;						<g
   id="g778">&#10;							<g
   id="g759">&#10;								<path
   style="fill:#eec84d"
   d="m 575.051,588.721 c 0,1.503 -2.109,2.723 -4.713,2.723 -2.604,0 -4.711,-1.22 -4.711,-2.723 0,-0.376 0.004,-0.957 0.004,-0.957 0,0 2.756,-1.767 4.707,-1.767 2.117,0 4.713,1.868 4.713,1.868 0,0 0,0.474 0,0.856 z"
   id="path758" />
&#10;								<path
   style="fill:#eec84d"
   d="m 575.051,587.865 c 0,1.505 -2.109,2.725 -4.713,2.725 -2.604,0 -4.711,-1.22 -4.711,-2.725 0,-1.504 2.107,-2.724 4.711,-2.724 2.604,0 4.713,1.22 4.713,2.724 z"
   id="path759" />
&#10;							</g>
&#10;							<g
   id="g761">&#10;								<path
   style="fill:#eec84d"
   d="m 556.605,586.422 c 0,1.504 -2.109,2.725 -4.713,2.725 -2.602,0 -4.711,-1.221 -4.711,-2.725 0,-0.376 0.006,-0.955 0.006,-0.955 0,0 2.754,-1.769 4.705,-1.769 2.115,0 4.713,1.871 4.713,1.871 0,0 0,0.474 0,0.853 z"
   id="path760" />
&#10;								<path
   style="fill:#eec84d"
   d="m 556.605,585.569 c 0,1.504 -2.109,2.724 -4.713,2.724 -2.602,0 -4.711,-1.22 -4.711,-2.724 0,-1.506 2.109,-2.725 4.711,-2.725 2.604,0 4.713,1.219 4.713,2.725 z"
   id="path761" />
&#10;							</g>
&#10;							<g
   id="g763">&#10;								<path
   style="fill:#eec84d"
   d="m 561.316,582.389 c 0,1.505 -2.109,2.724 -4.711,2.724 -2.603,0 -4.713,-1.219 -4.713,-2.724 0,-0.378 0.004,-0.955 0.004,-0.955 0,0 2.758,-1.771 4.709,-1.771 2.115,0 4.711,1.871 4.711,1.871 0,0 0,0.474 0,0.855 z"
   id="path762" />
&#10;								<path
   style="fill:#eec84d"
   d="m 561.316,581.534 c 0,1.505 -2.109,2.727 -4.711,2.727 -2.603,0 -4.713,-1.222 -4.713,-2.727 0,-1.504 2.109,-2.724 4.713,-2.724 2.602,0 4.711,1.22 4.711,2.724 z"
   id="path763" />
&#10;							</g>
&#10;							<g
   id="g765">&#10;								<path
   style="fill:#eec84d"
   d="m 543.738,587.06 c 0,1.506 -2.109,2.725 -4.711,2.725 -2.602,0 -4.711,-1.219 -4.711,-2.725 0,-0.374 0.002,-0.956 0.002,-0.956 0,0 2.758,-1.765 4.709,-1.765 2.113,0 4.711,1.868 4.711,1.868 0,0 0,0.473 0,0.853 z"
   id="path764" />
&#10;								<path
   style="fill:#eec84d"
   d="m 543.738,586.208 c 0,1.504 -2.109,2.725 -4.711,2.725 -2.602,0 -4.711,-1.221 -4.711,-2.725 0,-1.505 2.109,-2.725 4.711,-2.725 2.602,0 4.711,1.22 4.711,2.725 z"
   id="path765" />
&#10;							</g>
&#10;							<g
   id="g767">&#10;								<path
   style="fill:#eec84d"
   d="m 544.354,592.63 c -1.254,-0.837 -1.094,-3.266 0.353,-5.426 1.447,-2.16 3.637,-3.232 4.889,-2.394 1.252,0.837 1.092,3.266 -0.356,5.425 -1.447,2.159 -3.635,3.231 -4.886,2.395 z"
   id="path766" />
&#10;								<path
   style="fill:#eec84d"
   d="m 544.354,591.776 c -1.254,-0.838 -1.094,-3.266 0.353,-5.426 1.447,-2.159 3.637,-3.232 4.889,-2.394 1.252,0.839 1.092,3.266 -0.356,5.425 -1.447,2.16 -3.635,3.232 -4.886,2.395 z"
   id="path767" />
&#10;							</g>
&#10;							<g
   id="g769">&#10;								<path
   style="fill:#eec84d"
   d="m 557.822,593.269 c -1.254,-0.837 -1.096,-3.267 0.354,-5.426 1.447,-2.159 3.637,-3.231 4.887,-2.395 1.254,0.837 1.094,3.266 -0.356,5.427 -1.447,2.159 -3.633,3.229 -4.885,2.394 z"
   id="path768" />
&#10;								<path
   style="fill:#eec84d"
   d="m 557.822,592.414 c -1.254,-0.836 -1.096,-3.266 0.354,-5.425 1.447,-2.159 3.637,-3.231 4.887,-2.394 1.254,0.837 1.094,3.268 -0.356,5.425 -1.447,2.159 -3.633,3.231 -4.885,2.394 z"
   id="path769" />
&#10;							</g>
&#10;							<g
   id="g771">&#10;								<path
   style="fill:#eec84d"
   d="m 558.19,595.168 c 0,1.504 -2.108,2.724 -4.713,2.724 -2.6,0 -4.711,-1.22 -4.711,-2.724 0,-0.375 0.004,-0.954 0.004,-0.954 0,0 2.756,-1.771 4.707,-1.771 2.115,0 4.713,1.868 4.713,1.868 0,0 0,0.476 0,0.857 z"
   id="path770" />
&#10;								<path
   style="fill:#eec84d"
   d="m 558.19,594.312 c 0,1.507 -2.108,2.727 -4.713,2.727 -2.6,0 -4.711,-1.22 -4.711,-2.727 0,-1.501 2.111,-2.721 4.711,-2.721 2.605,0 4.713,1.219 4.713,2.721 z"
   id="path771" />
&#10;							</g>
&#10;							<g
   id="g773">&#10;								<path
   style="fill:#eec84d"
   d="m 533.535,598.65 c -1.252,-0.836 -1.094,-3.265 0.355,-5.426 1.447,-2.16 3.635,-3.231 4.887,-2.395 1.252,0.838 1.094,3.268 -0.355,5.425 -1.447,2.162 -3.635,3.234 -4.887,2.396 z"
   id="path772" />
&#10;								<path
   style="fill:#eec84d"
   d="m 533.535,597.797 c -1.252,-0.837 -1.094,-3.267 0.355,-5.425 1.447,-2.16 3.635,-3.232 4.887,-2.395 1.252,0.837 1.094,3.268 -0.355,5.425 -1.447,2.158 -3.635,3.232 -4.887,2.395 z"
   id="path773" />
&#10;							</g>
&#10;							<g
   id="g775">&#10;								<path
   style="fill:#eec84d"
   d="m 549.527,598.391 c -0.824,1.26 -3.258,1.135 -5.439,-0.283 -2.18,-1.419 -2.832,-3.137 -2.713,-5.018 0.098,-1.502 3.512,-0.965 5.691,0.451 1.635,1.064 2.728,3.14 2.728,3.14 0,0 -0.06,1.393 -0.267,1.71 z"
   id="path774" />
&#10;								<path
   style="fill:#eec84d"
   d="m 549.527,597.537 c -0.824,1.259 -3.258,1.134 -5.439,-0.283 -2.18,-1.419 -3.281,-3.588 -2.459,-4.85 0.822,-1.261 3.258,-1.133 5.438,0.284 2.179,1.418 3.281,3.587 2.46,4.849 z"
   id="path775" />
&#10;							</g>
&#10;							<g
   id="g777">&#10;								<path
   style="fill:#eec84d"
   d="m 571.578,596.981 c -0.82,1.261 -3.254,1.134 -5.435,-0.285 -2.182,-1.417 -2.834,-3.137 -2.715,-5.018 0.096,-1.502 3.508,-0.965 5.69,0.45 1.637,1.065 2.73,3.141 2.73,3.141 0,0 -0.065,1.396 -0.27,1.712 z"
   id="path776" />
&#10;								<path
   style="fill:#eec84d"
   d="m 571.578,596.126 c -0.82,1.26 -3.254,1.135 -5.435,-0.283 -2.182,-1.418 -3.283,-3.589 -2.461,-4.85 0.822,-1.26 3.254,-1.134 5.436,0.284 2.181,1.417 3.284,3.589 2.46,4.849 z"
   id="path777" />
&#10;							</g>
&#10;						</g>
&#10;					</g>
&#10;					<g
   id="g781">&#10;						<path
   style="fill:#63635a"
   d="m 572.475,609.021 v -16.103 h -37.551 v 16.103 c -9.32,6.113 -15.475,16.641 -15.475,28.607 0,18.892 16.57,25.456 35.484,25.456 18.916,0 33.014,-6.565 33.014,-25.456 0,-11.966 -6.152,-22.493 -15.472,-28.607 z"
   id="path779" />
&#10;						<g
   id="g780">&#10;							<defs
   id="defs779" />
&#10;							<clipPath
   id="SVGID_00000001664152785398932230000013287251989396911799_">&#10;								<use
   xlink:href="#SVGID_00000034787053047626402350000007275837035276702083_"
   style="overflow:visible"
   id="use779" />
&#10;							</clipPath>
&#10;						</g>
&#10;						<path
   style="fill:#6a6a61"
   d="m 575.807,600.506 c 0,1.109 -0.9,2.01 -2.014,2.01 h -40.188 c -1.113,0 -2.018,-0.9 -2.018,-2.01 v -6.862 c 0,-1.113 0.904,-2.012 2.018,-2.012 h 40.188 c 1.113,0 2.014,0.898 2.014,2.012 z"
   id="path780" />
&#10;					</g>
&#10;				</g>
&#10;			</g>
&#10;			<g
   id="g786">&#10;				<polygon
   style="fill:#dee4ca"
   points="605.822,550.72 598.082,550.72 598.082,547.903 608.639,547.903 608.639,558.831 605.822,558.831 "
   id="polygon783" />
&#10;				<polygon
   style="fill:#dee4ca"
   points="502.635,550.721 510.375,550.721 510.375,547.904 499.818,547.904 499.818,557.972 502.635,557.972 "
   id="polygon784" />
&#10;				<polygon
   style="fill:#dee4ca"
   points="605.76,691.119 598.019,691.119 598.019,693.935 608.576,693.935 608.576,682.69 605.76,682.69 "
   id="polygon785" />
&#10;				<polygon
   style="fill:#dee4ca"
   points="501.574,691.119 509.313,691.119 509.313,693.935 498.756,693.935 498.756,682.69 501.574,682.69 "
   id="polygon786" />
&#10;			</g>
&#10;			<g
   id="g790">&#10;				<g
   id="g787">&#10;					<rect
   x="601.06598"
   y="576.45502"
   style="fill:#6a6a61"
   width="2.0799999"
   height="84.714996"
   id="rect786" />
&#10;					<rect
   x="504.25"
   y="576.33002"
   style="fill:#6a6a61"
   width="2.0780001"
   height="84.713997"
   id="rect787" />
&#10;				</g>
&#10;				<g
   id="g789">&#10;					<rect
   x="527.55499"
   y="553.70398"
   style="fill:#6a6a61"
   width="52.916"
   height="2.0799999"
   id="rect788" />
&#10;					<rect
   x="526.74402"
   y="686.05499"
   style="fill:#6a6a61"
   width="52.916"
   height="2.0799999"
   id="rect789" />
&#10;				</g>
&#10;			</g>
&#10;		</g>
&#10;	</g>
</g>
</g>
  </g>
</svg>
