<?xml version="1.0" encoding="UTF-8" standalone="no"?>
<!-- Created with Inkscape (http://www.inkscape.org/) -->

<svg
   width="33.565296mm"
   height="43.102215mm"
   viewBox="0 0 33.565296 43.102215"
   version="1.1"
   id="svg1"
   xmlns:inkscape="http://www.inkscape.org/namespaces/inkscape"
   xmlns:sodipodi="http://sodipodi.sourceforge.net/DTD/sodipodi-0.dtd"
   xmlns="http://www.w3.org/2000/svg"
   xmlns:svg="http://www.w3.org/2000/svg">
  <sodipodi:namedview
     id="namedview1"
     pagecolor="#ffffff"
     bordercolor="#000000"
     borderopacity="0.25"
     inkscape:showpageshadow="2"
     inkscape:pageopacity="0.0"
     inkscape:pagecheckerboard="0"
     inkscape:deskcolor="#d1d1d1"
     inkscape:document-units="mm" />
  <defs
     id="defs1" />
  <g
     inkscape:label="Layer 1"
     inkscape:groupmode="layer"
     id="layer1"
     transform="translate(-122.50209,-165.62916)">
    <g
       id="g274"
       transform="matrix(0.26458333,0,0,0.26458333,-60.66102,89.56093)">&#10;		&#10;		&#10;		&#10;	<g
   id="g241"
   transform="translate(161.841,-56.476002)">&#10;		&#10;		&#10;		&#10;		&#10;	<g
   id="g592"
   transform="translate(40.160996,29.999998)">&#10;		<g
   id="g574">&#10;			<rect
   x="492.34799"
   y="316.05801"
   style="fill:#dee4ca"
   width="122.701"
   height="158.746"
   id="rect573" />
&#10;			<path
   style="fill:#344e5d"
   d="M 615.568,475.324 H 491.828 V 315.538 h 123.74 z m -122.701,-1.04 H 614.529 V 316.578 H 492.867 Z"
   id="path573" />
&#10;		</g>
&#10;		<g
   id="g575">&#10;			<polygon
   style="fill:#6a6a61"
   points="551.617,470.472 493.734,394.911 551.619,320.39 613.66,394.91 "
   id="polygon574" />
&#10;			<path
   style="fill:#526069"
   d="m 551.574,472.981 -59.81,-78.077 59.814,-77.002 64.106,77.001 z m -55.869,-78.063 55.955,73.044 59.977,-73.044 -59.975,-72.04 z"
   id="path574" />
&#10;		</g>
&#10;		<g
   id="g583">&#10;			<g
   id="g576">&#10;				<polygon
   style="fill:#526069"
   points="606.318,324.03 606.318,370.911 566.377,324.03 "
   id="polygon575" />
&#10;				<polygon
   style="fill:#8ab7a1"
   points="601.961,327.672 601.961,359.777 575.496,327.672 "
   id="polygon576" />
&#10;			</g>
&#10;			<g
   id="g578">&#10;				<polygon
   style="fill:#526069"
   points="501.078,324.03 501.078,371.002 539.389,324.03 "
   id="polygon577" />
&#10;				<polygon
   style="fill:#8ab7a1"
   points="505.732,328.049 505.418,359.614 530.443,328.049 "
   id="polygon578" />
&#10;			</g>
&#10;			<g
   id="g580">&#10;				<polygon
   style="fill:#526069"
   points="501.123,466.786 501.123,416.785 541.063,466.786 "
   id="polygon579" />
&#10;				<polygon
   style="fill:#8ab7a1"
   points="505.232,462.658 505.232,429.168 531.906,462.658 "
   id="polygon580" />
&#10;			</g>
&#10;			<g
   id="g582">&#10;				<polygon
   style="fill:#526069"
   points="606.285,466.832 606.285,416.74 567.01,466.832 "
   id="polygon581" />
&#10;				<polygon
   style="fill:#8ab7a1"
   points="601.658,462.774 601.961,430.07 576.144,462.679 "
   id="polygon582" />
&#10;			</g>
&#10;		</g>
&#10;		<g
   id="g591">&#10;			<path
   style="fill:#526069"
   d="M 617.129,476.884 H 490.268 V 313.978 H 617.129 Z M 494.428,472.725 H 612.969 V 318.137 H 494.428 Z"
   id="path583" />
&#10;			<g
   id="g590">&#10;				<path
   style="fill:#8ab7a1"
   d="m 570.084,367.138 c -2.768,-1.639 -11.016,0.834 -14.637,2.413 3.129,-2.173 9.605,-7.158 9.609,-11.234 0.006,-3.436 -2.777,-6.224 -6.213,-6.228 -2.068,-0.003 -3.897,1.009 -5.031,2.561 v 0 c -0.002,-10e-4 -0.002,-0.002 -0.004,-0.004 -1.129,-1.552 -2.953,-2.567 -5.021,-2.57 -3.434,-0.004 -6.221,1.936 -6.227,6.213 -0.006,3.893 5.313,8.63 8.664,10.946 -3.772,-1.684 -10.826,-3.905 -13.852,-2.175 -3.711,2.124 -4,5.519 -2.283,8.496 1.031,1.792 2.822,2.87 4.734,3.073 v 0 c -0.002,0.005 -0.002,0.007 -0.006,0.013 -0.775,1.754 -0.742,3.837 0.291,5.628 1.713,2.975 5.521,4.007 8.494,2.286 2.037,-1.181 3.291,-4.947 4.047,-8.52 l -0.666,17.047 c -0.014,0.377 0.281,0.687 0.66,0.687 h 2.106 c 0.381,0 0.676,-0.31 0.662,-0.687 l -0.658,-16.811 c 0.721,3.467 1.916,7.04 3.865,8.223 2.938,1.783 6.771,0.773 8.521,-2.183 1.057,-1.78 1.113,-3.869 0.354,-5.634 v 0 c 0.012,-10e-4 0.027,-0.003 0.039,-0.005 1.898,-0.19 3.686,-1.244 4.732,-3.011 1.752,-2.957 1.498,-6.344 -2.18,-8.524 z"
   id="path584" />
&#10;				<g
   id="g589">&#10;					<path
   style="fill:#73a08a"
   d="m 523.438,401.475 c 0,-4.047 6.219,-8.676 30.685,-8.676 24.467,0 29.836,4.438 29.836,8.484 -0.002,4.045 -13.361,5.281 -30.602,5.281 -17.242,10e-4 -29.919,-1.043 -29.919,-5.089 z"
   id="path585" />
&#10;					<path
   style="fill:#8ab7a1"
   d="m 574.182,433.486 -3.381,-33.288 c 0,0 -2.269,-1.611 -18.299,-1.611 -16.031,0 -17.135,1.611 -17.135,1.611 l -3.109,32.979 z"
   id="path586" />
&#10;					<path
   style="fill:#73a08a"
   d="m 532.258,433.275 c 0,-1.896 8.436,-3.433 21.439,-3.433 13.003,0 20.484,1.536 20.484,3.433 0,1.895 -7.48,3.432 -20.484,3.432 -13.004,0 -21.439,-1.537 -21.439,-3.432 z"
   id="path587" />
&#10;					<path
   style="fill:#eec84d"
   d="m 571.666,406.794 -0.893,-6.596 c 0,0 -2.922,-1.876 -16.762,-1.876 -13.842,0 -18.676,1.647 -18.676,1.647 l -0.604,6.704 c 0,0 7.969,-1.831 18.934,-1.831 10.972,0 18.001,1.952 18.001,1.952 z"
   id="path588" />
&#10;					<path
   style="fill:#63635a"
   d="m 556.518,404.804 c 0.221,0 0.402,-0.181 0.402,-0.402 v -5.638 c 0,-0.223 -0.18,-0.403 -0.402,-0.403 h -5.639 c -0.223,0 -0.402,0.181 -0.402,0.403 v 5.638 c 0,0.222 0.18,0.402 0.4,0.402 z"
   id="path589" />
&#10;				</g>
&#10;			</g>
&#10;		</g>
&#10;	</g>
</g>
</g>
  </g>
</svg>
