<?xml version="1.0" encoding="UTF-8" standalone="no"?>
<!-- Created with Inkscape (http://www.inkscape.org/) -->

<svg
   width="33.565571mm"
   height="43.102215mm"
   viewBox="0 0 33.565571 43.102215"
   version="1.1"
   id="svg1"
   xmlns:inkscape="http://www.inkscape.org/namespaces/inkscape"
   xmlns:sodipodi="http://sodipodi.sourceforge.net/DTD/sodipodi-0.dtd"
   xmlns="http://www.w3.org/2000/svg"
   xmlns:svg="http://www.w3.org/2000/svg">
  <sodipodi:namedview
     id="namedview1"
     pagecolor="#ffffff"
     bordercolor="#000000"
     borderopacity="0.25"
     inkscape:showpageshadow="2"
     inkscape:pageopacity="0.0"
     inkscape:pagecheckerboard="0"
     inkscape:deskcolor="#d1d1d1"
     inkscape:document-units="mm" />
  <defs
     id="defs1" />
  <g
     inkscape:label="Layer 1"
     inkscape:groupmode="layer"
     id="layer1"
     transform="translate(-106.36251,-158.22084)">
    <g
       id="g274"
       transform="matrix(0.26458333,0,0,0.26458333,-60.66102,89.56093)">&#10;		&#10;		&#10;		&#10;	<g
   id="g573"
   transform="translate(-6.5090049,169.635)">&#10;		<g
   id="g565">&#10;			<rect
   x="639.85901"
   y="91.945999"
   style="fill:#dee4ca"
   width="122.701"
   height="158.74699"
   id="rect564" />
&#10;			<path
   style="fill:#6a6a61"
   d="M 764.641,252.773 H 637.779 V 89.867 H 764.64 V 252.773 Z M 641.94,248.614 H 760.483 V 94.026 H 641.94 Z"
   id="path564" />
&#10;		</g>
&#10;		<g
   id="g566">&#10;			<path
   style="fill:#8ab7a1"
   d="m 752.682,171.32 c 0,39.202 -23.045,70.982 -51.471,70.982 -28.428,0 -51.473,-31.78 -51.473,-70.982 0,-39.203 23.045,-70.982 51.473,-70.982 28.426,0 51.471,31.779 51.471,70.982 z"
   id="path565" />
&#10;			<path
   style="fill:#6a6a61"
   d="m 701.211,244.382 c -29.529,0 -53.551,-32.775 -53.551,-73.062 0,-40.287 24.021,-73.063 53.551,-73.063 29.527,0 53.551,32.775 53.551,73.063 0,40.286 -24.024,73.062 -53.551,73.062 z m 0,-141.964 c -27.234,0 -49.393,30.909 -49.393,68.903 0,37.993 22.158,68.902 49.393,68.902 27.234,0 49.391,-30.909 49.391,-68.902 0,-37.994 -22.157,-68.903 -49.391,-68.903 z"
   id="path566" />
&#10;		</g>
&#10;		<path
   style="fill:none;stroke:#6a6a61;stroke-width:4;stroke-miterlimit:10"
   d="M 701.211,171.32"
   id="path567" />
&#10;		<g
   id="g571">&#10;			<path
   style="fill:#6a6a61"
   d="m 753.592,140.138 c -4.197,-13.851 -11.129,-25.72 -20.047,-34.325 l 2.889,-2.994 c 9.426,9.097 16.736,21.584 21.139,36.112 z"
   id="path568" />
&#10;			<path
   style="fill:#6a6a61"
   d="m 648.836,141.046 -3.992,-1.168 c 4.433,-15.163 11.982,-28.111 21.826,-37.445 l 2.861,3.018 c -9.31,8.829 -16.467,21.138 -20.695,35.595 z"
   id="path569" />
&#10;			<path
   style="fill:#6a6a61"
   d="m 667.951,240.246 c -9.182,-8.241 -16.565,-19.724 -21.354,-33.207 l 3.92,-1.392 c 4.557,12.831 11.545,23.724 20.211,31.503 z"
   id="path570" />
&#10;			<path
   style="fill:#6a6a61"
   d="m 736.432,238.678 -2.889,-2.994 c 7.93,-7.65 14.375,-18.036 18.637,-30.036 l 3.92,1.393 c -4.477,12.603 -11.278,23.543 -19.668,31.637 z"
   id="path571" />
&#10;		</g>
&#10;		<g
   id="g572">&#10;			<path
   style="fill:#6a6a61"
   d="m 732.211,158.486 c -5.236,-3.1 -20.84,1.58 -27.689,4.564 5.92,-4.109 18.172,-13.541 18.18,-21.254 0.008,-6.5 -5.256,-11.776 -11.754,-11.784 -3.914,-0.006 -7.373,1.91 -9.52,4.847 0,-0.001 0,-0.001 0,-0.001 -0.002,-0.002 -0.004,-0.005 -0.008,-0.009 -2.135,-2.938 -5.586,-4.857 -9.498,-4.862 -6.498,-0.007 -11.773,3.663 -11.783,11.754 -0.012,7.365 10.053,16.328 16.393,20.71 -7.137,-3.187 -20.484,-7.388 -26.205,-4.114 -7.023,4.018 -7.566,10.44 -4.324,16.073 1.955,3.39 5.346,5.43 8.959,5.814 v 0 c -0.002,0.009 -0.004,0.014 -0.01,0.023 -1.469,3.319 -1.402,7.26 0.549,10.647 3.242,5.63 10.449,7.581 16.07,4.324 3.853,-2.233 6.228,-9.359 7.656,-16.118 l -1.258,32.251 c -0.029,0.714 0.533,1.3 1.25,1.3 h 3.982 c 0.717,0 1.279,-0.585 1.252,-1.3 l -1.244,-31.804 c 1.363,6.558 3.625,13.318 7.313,15.557 5.555,3.373 12.81,1.463 16.125,-4.128 1.996,-3.37 2.104,-7.321 0.666,-10.661 v 0 c 0.025,-0.002 0.051,-0.005 0.076,-0.01 3.59,-0.361 6.971,-2.353 8.953,-5.697 3.31,-5.59 2.83,-11.999 -4.131,-16.122 z"
   id="path572" />
&#10;		</g>
&#10;	</g>
</g>
  </g>
</svg>
