<?xml version="1.0" encoding="UTF-8" standalone="no"?>
<!-- Created with Inkscape (http://www.inkscape.org/) -->

<svg
   width="33.565037mm"
   height="43.102215mm"
   viewBox="0 0 33.565037 43.102215"
   version="1.1"
   id="svg1"
   xmlns:inkscape="http://www.inkscape.org/namespaces/inkscape"
   xmlns:sodipodi="http://sodipodi.sourceforge.net/DTD/sodipodi-0.dtd"
   xmlns:xlink="http://www.w3.org/1999/xlink"
   xmlns="http://www.w3.org/2000/svg"
   xmlns:svg="http://www.w3.org/2000/svg">
  <sodipodi:namedview
     id="namedview1"
     pagecolor="#ffffff"
     bordercolor="#000000"
     borderopacity="0.25"
     inkscape:showpageshadow="2"
     inkscape:pageopacity="0.0"
     inkscape:pagecheckerboard="0"
     inkscape:deskcolor="#d1d1d1"
     inkscape:document-units="mm" />
  <defs
     id="defs1">
    <clipPath
       id="SVGID_00000010290534071552492120000017742829231994995101_">&#10;					<use
   xlink:href="#SVGID_00000071521819364535293520000009554958729800332937_"
   style="overflow:visible"
   id="use632" />
&#10;				</clipPath>
    <path
       id="SVGID_00000071521819364535293520000009554958729800332937_"
       d="m 700.873,380.989 c 0.629,4.441 0.16,8.598 -0.969,12.171 -1.578,4.998 -2.441,6.47 -2.441,6.47 0,0 32.822,5.936 32.822,-3.249 0,-2.525 0,-5.07 0,-7.46 0,-2.572 0.352,-4.963 0.898,-7.116 1.805,-7.132 -30.806,-4.309 -30.31,-0.816 z" />
  </defs>
  <g
     inkscape:label="Layer 1"
     inkscape:groupmode="layer"
     id="layer1"
     transform="translate(-112.7125,-149.225)">
    <g
       id="g274"
       transform="matrix(0.26458333,0,0,0.26458333,-60.66102,89.56093)">&#10;		&#10;		&#10;		&#10;	<g
   id="g241"
   transform="translate(161.841,-56.476002)">&#10;		&#10;		&#10;		&#10;		&#10;	<g
   id="g635"
   transform="translate(-144.352,-32.000003)">&#10;		<g
   id="g593">&#10;			<rect
   x="639.86102"
   y="316.05801"
   style="fill:#8ab7a1"
   width="122.699"
   height="158.74699"
   id="rect592" />
&#10;			<path
   style="fill:#526069"
   d="M 764.641,476.884 H 637.781 V 313.978 H 764.64 v 162.906 z m -122.7,-4.159 H 760.48 V 318.137 H 641.941 Z"
   id="path592" />
&#10;		</g>
&#10;		<g
   style="opacity:0.06"
   id="g625">&#10;			<rect
   x="642.021"
   y="318.12799"
   style="fill:#dee4ca"
   width="118.381"
   height="2.119"
   id="rect593" />
&#10;			<rect
   x="642.021"
   y="322.89301"
   style="fill:#dee4ca"
   width="118.381"
   height="2.1159999"
   id="rect594" />
&#10;			<rect
   x="642.021"
   y="327.659"
   style="fill:#dee4ca"
   width="118.381"
   height="2.118"
   id="rect595" />
&#10;			<rect
   x="642.021"
   y="332.42401"
   style="fill:#dee4ca"
   width="118.381"
   height="2.118"
   id="rect596" />
&#10;			<rect
   x="642.021"
   y="337.189"
   style="fill:#dee4ca"
   width="118.381"
   height="2.119"
   id="rect597" />
&#10;			<rect
   x="642.021"
   y="341.95599"
   style="fill:#dee4ca"
   width="118.381"
   height="2.1170001"
   id="rect598" />
&#10;			<rect
   x="642.021"
   y="346.71899"
   style="fill:#dee4ca"
   width="118.381"
   height="2.118"
   id="rect599" />
&#10;			<rect
   x="642.021"
   y="351.48401"
   style="fill:#dee4ca"
   width="118.381"
   height="2.119"
   id="rect600" />
&#10;			<rect
   x="642.021"
   y="356.25"
   style="fill:#dee4ca"
   width="118.381"
   height="2.118"
   id="rect601" />
&#10;			<rect
   x="642.021"
   y="361.01501"
   style="fill:#dee4ca"
   width="118.381"
   height="2.118"
   id="rect602" />
&#10;			<rect
   x="642.021"
   y="365.78"
   style="fill:#dee4ca"
   width="118.381"
   height="2.119"
   id="rect603" />
&#10;			<rect
   x="642.021"
   y="370.54599"
   style="fill:#dee4ca"
   width="118.381"
   height="2.1170001"
   id="rect604" />
&#10;			<rect
   x="642.021"
   y="375.31201"
   style="fill:#dee4ca"
   width="118.381"
   height="2.1170001"
   id="rect605" />
&#10;			<rect
   x="642.021"
   y="380.07599"
   style="fill:#dee4ca"
   width="118.381"
   height="2.119"
   id="rect606" />
&#10;			<rect
   x="642.021"
   y="384.84201"
   style="fill:#dee4ca"
   width="118.381"
   height="2.119"
   id="rect607" />
&#10;			<rect
   x="642.021"
   y="389.60599"
   style="fill:#dee4ca"
   width="118.381"
   height="2.119"
   id="rect608" />
&#10;			<rect
   x="642.021"
   y="394.371"
   style="fill:#dee4ca"
   width="118.381"
   height="2.119"
   id="rect609" />
&#10;			<rect
   x="642.021"
   y="399.138"
   style="fill:#dee4ca"
   width="118.381"
   height="2.1170001"
   id="rect610" />
&#10;			<rect
   x="642.021"
   y="403.90302"
   style="fill:#dee4ca"
   width="118.381"
   height="2.1170001"
   id="rect611" />
&#10;			<rect
   x="642.021"
   y="408.668"
   style="fill:#dee4ca"
   width="118.381"
   height="2.1170001"
   id="rect612" />
&#10;			<rect
   x="642.021"
   y="413.435"
   style="fill:#dee4ca"
   width="118.382"
   height="2.1170001"
   id="rect613" />
&#10;			<rect
   x="642.021"
   y="418.19699"
   style="fill:#dee4ca"
   width="118.381"
   height="2.119"
   id="rect614" />
&#10;			<rect
   x="642.021"
   y="422.965"
   style="fill:#dee4ca"
   width="118.381"
   height="2.1170001"
   id="rect615" />
&#10;			<rect
   x="642.021"
   y="427.73001"
   style="fill:#dee4ca"
   width="118.382"
   height="2.1159999"
   id="rect616" />
&#10;			<rect
   x="642.021"
   y="432.496"
   style="fill:#dee4ca"
   width="118.381"
   height="2.115"
   id="rect617" />
&#10;			<rect
   x="642.021"
   y="437.26001"
   style="fill:#dee4ca"
   width="118.381"
   height="2.1170001"
   id="rect618" />
&#10;			<rect
   x="642.021"
   y="442.02499"
   style="fill:#dee4ca"
   width="118.381"
   height="2.1159999"
   id="rect619" />
&#10;			<rect
   x="642.021"
   y="446.79001"
   style="fill:#dee4ca"
   width="118.381"
   height="2.118"
   id="rect620" />
&#10;			<rect
   x="642.021"
   y="451.55701"
   style="fill:#dee4ca"
   width="118.381"
   height="2.118"
   id="rect621" />
&#10;			<rect
   x="642.021"
   y="456.32101"
   style="fill:#dee4ca"
   width="118.381"
   height="2.118"
   id="rect622" />
&#10;			<rect
   x="642.021"
   y="461.08701"
   style="fill:#dee4ca"
   width="118.381"
   height="2.1159999"
   id="rect623" />
&#10;			<rect
   x="642.021"
   y="465.85199"
   style="fill:#dee4ca"
   width="118.381"
   height="2.1170001"
   id="rect624" />
&#10;			<rect
   x="642.021"
   y="470.617"
   style="fill:#dee4ca"
   width="118.382"
   height="2.1170001"
   id="rect625" />
&#10;		</g>
&#10;		<g
   id="g626">&#10;			<polygon
   style="fill:#6a6a61"
   points="655.309,348.333 655.309,442.721 648.18,442.721 648.18,464.171 669.631,464.171 669.631,457.525 732.791,457.525 732.791,464.171 754.24,464.171 754.24,442.721 747.707,442.721 747.707,348.141 754.24,348.141 754.24,326.691 732.791,326.691 732.791,334.184 669.631,334.184 669.631,326.691 648.18,326.691 648.18,348.333 "
   id="polygon625" />
&#10;			<path
   style="fill:#dee4ca"
   d="m 755.801,465.73 h -24.57 v -6.645 h -60.039 v 6.645 h -24.57 v -24.569 h 7.129 v -91.268 h -7.129 v -24.761 h 24.57 v 7.493 h 60.039 v -7.493 h 24.57 v 24.569 h -6.535 v 91.46 h 6.535 z m -21.451,-3.119 h 18.332 v -18.33 h -6.535 v -97.7 h 6.535 V 328.25 H 734.35 v 7.493 H 668.073 V 328.25 H 649.74 v 18.522 h 7.129 v 97.508 h -7.129 v 18.33 h 18.332 v -6.645 h 66.277 v 6.646 z"
   id="path625" />
&#10;		</g>
&#10;		<g
   id="g629">&#10;			<polygon
   style="fill:#dee4ca"
   points="745.494,335.275 737.754,335.275 737.754,332.458 748.31,332.458 748.31,343.387 745.494,343.387 "
   id="polygon626" />
&#10;			<polygon
   style="fill:#dee4ca"
   points="656.928,336.315 664.668,336.315 664.668,333.498 654.111,333.498 654.111,343.566 656.928,343.566 "
   id="polygon627" />
&#10;			<polygon
   style="fill:#dee4ca"
   points="745.494,455.586 737.754,455.586 737.754,458.403 748.31,458.403 748.31,447.159 745.494,447.159 "
   id="polygon628" />
&#10;			<polygon
   style="fill:#dee4ca"
   points="657.1,455.586 664.84,455.586 664.84,458.403 654.283,458.403 654.283,447.159 657.1,447.159 "
   id="polygon629" />
&#10;		</g>
&#10;		<g
   id="g632">&#10;			<rect
   x="751.39398"
   y="353.198"
   style="fill:#6a6a61"
   width="2.0780001"
   height="84.716003"
   id="rect629" />
&#10;			<rect
   x="648.94897"
   y="352.66901"
   style="fill:#6a6a61"
   width="2.0780001"
   height="84.714996"
   id="rect630" />
&#10;			<rect
   x="674.88501"
   y="327.02399"
   style="fill:#6a6a61"
   width="52.916"
   height="2.0799999"
   id="rect631" />
&#10;			<rect
   x="674.17603"
   y="461.758"
   style="fill:#6a6a61"
   width="52.917999"
   height="2.0799999"
   id="rect632" />
&#10;		</g>
&#10;		<g
   id="g634">&#10;			<path
   style="fill:#8ab7a1"
   d="m 715.914,370.13 c -0.236,0 -0.494,0 -0.738,0 -4.943,0 -9.266,0 -15.965,0 4.703,8.401 2.711,16.645 0.693,23.03 -1.578,4.998 -19.982,7.454 -27.106,0.332 -4.477,2.694 -9.127,27.24 24.967,27.24 8.514,0 8.539,0 8.539,0 0,0 2.803,-6.273 8.871,-6.273 0.246,0 0.492,0 0.738,0 7.186,0 14.371,0 14.371,0 0,0 0,-14.449 0,-25.538 0,-11.09 2.436,-18.791 2.436,-18.791 0,0 -2.101,0 -16.806,0 z"
   id="path632" />
&#10;			<polygon
   style="fill:#dee4ca"
   points="715.176,414.459 714.809,414.459 712.35,414.459 712.35,420.732 714.809,420.732 715.176,420.732 730.271,420.732 730.271,414.459 "
   id="polygon632" />
&#10;			<g
   id="g633">&#10;				<defs
   id="defs632" />
&#10;				<clipPath
   id="clipPath1-4">&#10;					<use
   xlink:href="#SVGID_00000071521819364535293520000009554958729800332937_"
   style="overflow:visible"
   id="use1-3" />
&#10;				</clipPath>
&#10;				<polygon
   style="fill:#63635a"
   points="698.81,392.953 715.176,392.953 733.422,392.953 733.422,385.447 715.176,385.447 698.81,385.447 "
   clip-path="url(#SVGID_00000010290534071552492120000017742829231994995101_)"
   id="polygon633" />
&#10;			</g>
&#10;			<path
   style="fill:#eec84d"
   d="m 719.168,380.989 h -3.992 -3.615 c -2.371,0 -4.301,1.932 -4.301,4.303 v 7.605 c 0,2.373 1.93,4.303 4.301,4.303 h 3.615 3.992 c 2.371,0 4.299,-1.93 4.299,-4.303 v -7.605 c 0,-2.372 -1.928,-4.303 -4.299,-4.303 z m -0.047,11.861 h -3.945 -3.566 v -7.513 h 3.566 3.945 z"
   id="path633" />
&#10;		</g>
&#10;	</g>
</g>
</g>
  </g>
</svg>
