<?xml version="1.0" encoding="UTF-8" standalone="no"?>
<!-- Created with Inkscape (http://www.inkscape.org/) -->

<svg
   width="33.565037mm"
   height="43.102474mm"
   viewBox="0 0 33.565037 43.102474"
   version="1.1"
   id="svg1"
   xmlns:inkscape="http://www.inkscape.org/namespaces/inkscape"
   xmlns:sodipodi="http://sodipodi.sourceforge.net/DTD/sodipodi-0.dtd"
   xmlns:xlink="http://www.w3.org/1999/xlink"
   xmlns="http://www.w3.org/2000/svg"
   xmlns:svg="http://www.w3.org/2000/svg">
  <sodipodi:namedview
     id="namedview1"
     pagecolor="#ffffff"
     bordercolor="#000000"
     borderopacity="0.25"
     inkscape:showpageshadow="2"
     inkscape:pageopacity="0.0"
     inkscape:pagecheckerboard="0"
     inkscape:deskcolor="#d1d1d1"
     inkscape:document-units="mm" />
  <defs
     id="defs1">
    <clipPath
       id="SVGID_00000057827212158577165220000001785320759312790407_">&#10;				<use
   xlink:href="#SVGID_00000060739142129288450930000001843222717075316406_"
   style="overflow:visible"
   id="use167" />
&#10;			</clipPath>
    <clipPath
       id="SVGID_00000105387506018619932690000001654716718109730717_">&#10;					<use
   xlink:href="#SVGID_00000081607732776729085690000008187178162645268118_"
   style="overflow:visible"
   id="use203" />
&#10;				</clipPath>
    <rect
       id="SVGID_00000060739142129288450930000001843222717075316406_"
       x="356.07999"
       y="329.18301"
       width="101.559"
       height="132.496" />
    <rect
       id="SVGID_00000081607732776729085690000008187178162645268118_"
       x="357.64099"
       y="329.18301"
       width="98.436996"
       height="132.496" />
  </defs>
  <g
     inkscape:label="Layer 1"
     inkscape:groupmode="layer"
     id="layer1"
     transform="translate(-73.025003,-157.69166)">
    <g
       id="g274"
       transform="matrix(0.26458333,0,0,0.26458333,-60.66102,89.56093)">&#10;		&#10;		&#10;		&#10;	<g
   id="g241"
   transform="translate(161.841,-56.476002)">&#10;		<g
   id="g166">&#10;			<rect
   x="345.509"
   y="316.05801"
   style="fill:#6a6a61"
   width="122.7"
   height="158.74699"
   id="rect165" />
&#10;			<path
   style="fill:#344e5d"
   d="M 470.289,476.885 H 343.429 V 313.978 h 126.86 z m -122.701,-4.16 h 118.54 V 318.137 h -118.54 z"
   id="path165" />
&#10;		</g>
&#10;		<g
   id="g167">&#10;			<rect
   x="356.07999"
   y="327.647"
   style="fill:#8ab7a1"
   width="101.559"
   height="135.569"
   id="rect166" />
&#10;			<path
   style="fill:#dee4ca"
   d="M 459.199,464.776 H 354.52 V 326.086 H 459.199 Z M 357.64,461.657 h 98.438 V 329.206 H 357.64 Z"
   id="path166" />
&#10;		</g>
&#10;		<g
   id="g203">&#10;			<defs
   id="defs167" />
&#10;			<clipPath
   id="clipPath3">&#10;				<use
   xlink:href="#SVGID_00000060739142129288450930000001843222717075316406_"
   style="overflow:visible"
   id="use3" />
&#10;			</clipPath>
&#10;			<g
   style="opacity:0.1"
   clip-path="url(#SVGID_00000057827212158577165220000001785320759312790407_)"
   id="g202">&#10;				<g
   id="g173">&#10;					<rect
   x="358.246"
   y="326.112"
   style="fill:#344e5d"
   width="13.852"
   height="13.538"
   id="rect167" />
&#10;					<rect
   x="372.44"
   y="339.64999"
   style="fill:#344e5d"
   width="13.852"
   height="13.538"
   id="rect168" />
&#10;					<rect
   x="386.29199"
   y="326.112"
   style="fill:#344e5d"
   width="13.853"
   height="13.538"
   id="rect169" />
&#10;					<rect
   x="400.14401"
   y="339.64999"
   style="fill:#344e5d"
   width="13.852"
   height="13.538"
   id="rect170" />
&#10;					<rect
   x="413.996"
   y="326.112"
   style="fill:#344e5d"
   width="13.852"
   height="13.538"
   id="rect171" />
&#10;					<rect
   x="427.84799"
   y="339.64999"
   style="fill:#344e5d"
   width="13.851"
   height="13.538"
   id="rect172" />
&#10;					<rect
   x="441.69901"
   y="326.112"
   style="fill:#344e5d"
   width="13.852"
   height="13.538"
   id="rect173" />
&#10;				</g>
&#10;				<g
   id="g180">&#10;					<rect
   x="358.20599"
   y="353.18799"
   style="fill:#344e5d"
   width="13.852"
   height="13.537"
   id="rect174" />
&#10;					<rect
   x="372.39999"
   y="366.72501"
   style="fill:#344e5d"
   width="13.852"
   height="13.538"
   id="rect175" />
&#10;					<rect
   x="386.25101"
   y="353.18799"
   style="fill:#344e5d"
   width="13.854"
   height="13.537"
   id="rect176" />
&#10;					<rect
   x="400.10501"
   y="366.72501"
   style="fill:#344e5d"
   width="13.852"
   height="13.538"
   id="rect177" />
&#10;					<rect
   x="413.957"
   y="353.18799"
   style="fill:#344e5d"
   width="13.852"
   height="13.537"
   id="rect178" />
&#10;					<rect
   x="427.80899"
   y="366.72501"
   style="fill:#344e5d"
   width="13.852"
   height="13.538"
   id="rect179" />
&#10;					<rect
   x="441.66"
   y="353.18799"
   style="fill:#344e5d"
   width="13.851"
   height="13.537"
   id="rect180" />
&#10;				</g>
&#10;				<g
   id="g187">&#10;					<rect
   x="358.16699"
   y="380.263"
   style="fill:#344e5d"
   width="13.852"
   height="13.538"
   id="rect181" />
&#10;					<rect
   x="372.36099"
   y="393.80099"
   style="fill:#344e5d"
   width="13.852"
   height="13.537"
   id="rect182" />
&#10;					<rect
   x="386.21201"
   y="380.263"
   style="fill:#344e5d"
   width="13.852"
   height="13.538"
   id="rect183" />
&#10;					<rect
   x="400.065"
   y="393.80099"
   style="fill:#344e5d"
   width="13.853"
   height="13.537"
   id="rect184" />
&#10;					<rect
   x="413.918"
   y="380.263"
   style="fill:#344e5d"
   width="13.851"
   height="13.538"
   id="rect185" />
&#10;					<rect
   x="427.76999"
   y="393.80099"
   style="fill:#344e5d"
   width="13.852"
   height="13.537"
   id="rect186" />
&#10;					<rect
   x="441.621"
   y="380.263"
   style="fill:#344e5d"
   width="13.852"
   height="13.538"
   id="rect187" />
&#10;				</g>
&#10;				<g
   id="g194">&#10;					<rect
   x="358.12601"
   y="407.33801"
   style="fill:#344e5d"
   width="13.852"
   height="13.539"
   id="rect188" />
&#10;					<rect
   x="372.32101"
   y="420.87701"
   style="fill:#344e5d"
   width="13.852"
   height="13.537"
   id="rect189" />
&#10;					<rect
   x="386.172"
   y="407.33801"
   style="fill:#344e5d"
   width="13.853"
   height="13.539"
   id="rect190" />
&#10;					<rect
   x="400.026"
   y="420.87701"
   style="fill:#344e5d"
   width="13.851"
   height="13.537"
   id="rect191" />
&#10;					<rect
   x="413.87701"
   y="407.33801"
   style="fill:#344e5d"
   width="13.851"
   height="13.539"
   id="rect192" />
&#10;					<rect
   x="427.728"
   y="420.87701"
   style="fill:#344e5d"
   width="13.854"
   height="13.537"
   id="rect193" />
&#10;					<rect
   x="441.582"
   y="407.33801"
   style="fill:#344e5d"
   width="13.852"
   height="13.539"
   id="rect194" />
&#10;				</g>
&#10;				<g
   id="g201">&#10;					<rect
   x="358.08701"
   y="434.414"
   style="fill:#344e5d"
   width="13.852"
   height="13.539"
   id="rect195" />
&#10;					<rect
   x="372.28201"
   y="447.953"
   style="fill:#344e5d"
   width="13.852"
   height="13.537"
   id="rect196" />
&#10;					<rect
   x="386.133"
   y="434.414"
   style="fill:#344e5d"
   width="13.852"
   height="13.539"
   id="rect197" />
&#10;					<rect
   x="399.98599"
   y="447.953"
   style="fill:#344e5d"
   width="13.852"
   height="13.537"
   id="rect198" />
&#10;					<rect
   x="413.83801"
   y="434.414"
   style="fill:#344e5d"
   width="13.852"
   height="13.539"
   id="rect199" />
&#10;					<rect
   x="427.689"
   y="447.953"
   style="fill:#344e5d"
   width="13.852"
   height="13.537"
   id="rect200" />
&#10;					<rect
   x="441.54099"
   y="434.414"
   style="fill:#344e5d"
   width="13.852"
   height="13.539"
   id="rect201" />
&#10;				</g>
&#10;			</g>
&#10;		</g>
&#10;		<g
   id="g240">&#10;			<g
   id="g239">&#10;				<defs
   id="defs203" />
&#10;				<clipPath
   id="clipPath4">&#10;					<use
   xlink:href="#SVGID_00000081607732776729085690000008187178162645268118_"
   style="overflow:visible"
   id="use4" />
&#10;				</clipPath>
&#10;				<g
   clip-path="url(#SVGID_00000105387506018619932690000001654716718109730717_)"
   id="g214">&#10;					<path
   style="fill:#63635a"
   d="m 321.249,381.718 c 4.62,-0.438 9.227,-0.968 13.816,-1.588 -0.759,4.805 -1.524,9.583 -2.295,14.337 -3.837,-4.23 -7.679,-8.48 -11.521,-12.749 z"
   id="path203" />
&#10;					<path
   style="fill:#eec84d"
   d="m 336.514,379.931 c 4.587,-0.639 9.156,-1.367 13.707,-2.187 -0.736,4.913 -1.479,9.799 -2.229,14.66 -3.822,-4.139 -7.648,-8.297 -11.478,-12.473 z"
   id="path204" />
&#10;					<path
   style="fill:#63635a"
   d="m 351.658,377.483 c 4.547,-0.838 9.073,-1.763 13.578,-2.778 -0.712,5.018 -1.43,10.01 -2.154,14.978 -3.804,-4.048 -7.612,-8.116 -11.424,-12.2 z"
   id="path205" />
&#10;					<path
   style="fill:#eec84d"
   d="m 366.658,374.382 c 4.501,-1.033 8.979,-2.153 13.432,-3.362 -0.685,5.123 -1.374,10.221 -2.071,15.294 -3.783,-3.96 -7.57,-7.937 -11.361,-11.932 z"
   id="path206" />
&#10;					<path
   style="fill:#63635a"
   d="m 381.494,370.637 c 4.448,-1.227 8.872,-2.54 13.268,-3.941 -0.651,5.226 -1.313,10.428 -1.98,15.604 -3.755,-3.87 -7.518,-7.758 -11.288,-11.663 z"
   id="path207" />
&#10;					<path
   style="fill:#eec84d"
   d="m 396.149,366.251 c 4.39,-1.418 8.751,-2.922 13.08,-4.512 -0.613,5.329 -1.242,10.632 -1.875,15.913 -3.731,-3.783 -7.465,-7.583 -11.205,-11.401 z"
   id="path208" />
&#10;					<path
   style="fill:#63635a"
   d="m 410.596,361.233 c 4.326,-1.607 8.617,-3.3 12.879,-5.076 -0.576,5.43 -1.164,10.836 -1.764,16.218 -3.697,-3.696 -7.404,-7.409 -11.115,-11.142 z"
   id="path209" />
&#10;					<path
   style="fill:#eec84d"
   d="m 424.82,355.593 c 4.254,-1.794 8.477,-3.674 12.66,-5.636 -0.537,5.532 -1.086,11.038 -1.645,16.521 -3.663,-3.612 -7.335,-7.239 -11.015,-10.885 z"
   id="path210" />
&#10;					<path
   style="fill:#63635a"
   d="m 438.799,349.334 c 4.178,-1.979 8.322,-4.044 12.424,-6.189 -0.496,5.629 -1,11.237 -1.518,16.819 -3.627,-3.526 -7.262,-7.068 -10.906,-10.63 z"
   id="path211" />
&#10;					<path
   style="fill:#eec84d"
   d="m 452.516,342.465 c 4.096,-2.164 8.15,-4.409 12.166,-6.735 -0.449,5.729 -0.908,11.434 -1.377,17.114 -3.59,-3.443 -7.184,-6.902 -10.789,-10.379 z"
   id="path212" />
&#10;					<path
   style="fill:#63635a"
   d="m 465.945,334.992 c 4.008,-2.344 7.969,-4.769 11.887,-7.274 -0.395,5.826 -0.803,11.628 -1.227,17.407 -3.545,-3.361 -7.097,-6.739 -10.66,-10.133 z"
   id="path213" />
&#10;					<path
   style="fill:#63635a"
   d="m 483.375,324.102 c -49.84,33.192 -107.177,53.148 -166.69,58.021 -0.15,-0.442 -0.301,-0.881 -0.451,-1.323 59.51,-4.882 116.842,-24.847 166.682,-58.047 0.152,0.45 0.307,0.899 0.459,1.349 z"
   id="path214" />
&#10;				</g>
&#10;				<g
   clip-path="url(#SVGID_00000105387506018619932690000001654716718109730717_)"
   id="g226">&#10;					<path
   style="fill:#63635a"
   d="m 345.434,390.389 c 3.649,0.893 7.313,1.71 10.986,2.456 -1.837,3.474 -3.671,6.928 -5.503,10.36 -1.83,-4.256 -3.658,-8.529 -5.483,-12.816 z"
   id="path215" />
&#10;					<path
   style="fill:#eec84d"
   d="m 357.581,393.077 c 3.676,0.73 7.361,1.386 11.058,1.97 -1.847,3.563 -3.693,7.103 -5.536,10.623 -1.843,-4.182 -3.684,-8.379 -5.522,-12.593 z"
   id="path216" />
&#10;					<path
   style="fill:#63635a"
   d="m 369.807,395.228 c 3.697,0.566 7.402,1.061 11.113,1.482 -1.856,3.651 -3.709,7.28 -5.563,10.888 -1.851,-4.109 -3.701,-8.233 -5.55,-12.37 z"
   id="path217" />
&#10;					<path
   style="fill:#eec84d"
   d="m 382.093,396.841 c 3.714,0.405 7.432,0.737 11.156,0.995 -1.862,3.738 -3.724,7.455 -5.582,11.151 -1.859,-4.034 -3.716,-8.083 -5.574,-12.146 z"
   id="path218" />
&#10;					<path
   style="fill:#63635a"
   d="m 394.423,397.916 c 3.725,0.244 7.452,0.414 11.18,0.51 -1.863,3.826 -3.728,7.631 -5.591,11.414 -1.862,-3.96 -3.725,-7.934 -5.589,-11.924 z"
   id="path219" />
&#10;					<path
   style="fill:#eec84d"
   d="m 406.781,398.455 c 3.73,0.08 7.459,0.088 11.186,0.023 -1.863,3.913 -3.727,7.805 -5.592,11.676 -1.863,-3.884 -3.729,-7.784 -5.594,-11.699 z"
   id="path220" />
&#10;					<path
   style="fill:#63635a"
   d="m 419.148,398.455 c 3.727,-0.081 7.455,-0.234 11.18,-0.463 -1.861,4.002 -3.725,7.98 -5.59,11.939 -1.863,-3.81 -3.726,-7.635 -5.59,-11.476 z"
   id="path221" />
&#10;					<path
   style="fill:#eec84d"
   d="m 431.504,397.918 c 3.723,-0.242 7.445,-0.559 11.16,-0.949 -1.858,4.09 -3.717,8.156 -5.578,12.203 -1.859,-3.737 -3.719,-7.487 -5.582,-11.254 z"
   id="path222" />
&#10;					<path
   style="fill:#63635a"
   d="m 443.836,396.844 c 3.715,-0.404 7.422,-0.884 11.121,-1.436 -1.85,4.177 -3.701,8.332 -5.557,12.466 -1.851,-3.661 -3.709,-7.338 -5.564,-11.03 z"
   id="path223" />
&#10;					<path
   style="fill:#eec84d"
   d="m 456.125,395.232 c 3.699,-0.567 7.389,-1.209 11.066,-1.922 -1.84,4.265 -3.682,8.508 -5.527,12.729 -1.842,-3.586 -3.691,-7.189 -5.539,-10.807 z"
   id="path224" />
&#10;					<path
   style="fill:#63635a"
   d="m 468.353,393.082 c 3.678,-0.729 7.34,-1.531 10.996,-2.407 -1.826,4.352 -3.658,8.683 -5.49,12.993 -1.832,-3.514 -3.668,-7.041 -5.506,-10.586 z"
   id="path225" />
&#10;					<path
   style="fill:#63635a"
   d="m 484.533,389.381 c -46.807,12.152 -95.89,12.188 -142.696,0.106 0,-0.378 0,-0.755 0,-1.132 46.806,12.075 95.889,12.033 142.696,-0.127 0,0.384 0,0.769 0,1.153 z"
   id="path226" />
&#10;				</g>
&#10;				<g
   clip-path="url(#SVGID_00000105387506018619932690000001654716718109730717_)"
   id="g238">&#10;					<path
   style="fill:#63635a"
   d="m 346.7,413.416 c 3.121,1.666 6.272,3.27 9.449,4.809 -2.474,2.736 -4.94,5.455 -7.399,8.156 -0.69,-4.309 -1.374,-8.631 -2.05,-12.965 z"
   id="path227" />
&#10;					<path
   style="fill:#eec84d"
   d="m 357.153,418.707 c 3.183,1.525 6.393,2.986 9.627,4.381 -2.503,2.816 -5.001,5.611 -7.49,8.389 -0.718,-4.243 -1.431,-8.499 -2.137,-12.77 z"
   id="path228" />
&#10;					<path
   style="fill:#63635a"
   d="m 367.802,423.527 c 3.239,1.383 6.503,2.699 9.789,3.951 -2.531,2.893 -5.057,5.768 -7.575,8.623 -0.743,-4.178 -1.48,-8.369 -2.214,-12.574 z"
   id="path229" />
&#10;					<path
   style="fill:#eec84d"
   d="m 378.63,427.871 c 3.29,1.238 6.605,2.412 9.938,3.518 -2.556,2.971 -5.107,5.925 -7.652,8.857 -0.767,-4.111 -1.528,-8.236 -2.286,-12.375 z"
   id="path230" />
&#10;					<path
   style="fill:#63635a"
   d="m 389.623,431.736 c 3.338,1.092 6.697,2.119 10.072,3.08 -2.578,3.051 -5.153,6.082 -7.722,9.096 -0.787,-4.045 -1.57,-8.103 -2.35,-12.176 z"
   id="path231" />
&#10;					<path
   style="fill:#eec84d"
   d="m 400.762,435.117 c 3.38,0.945 6.779,1.826 10.193,2.639 -2.6,3.131 -5.195,6.242 -7.785,9.334 -0.807,-3.978 -1.61,-7.968 -2.408,-11.973 z"
   id="path232" />
&#10;					<path
   style="fill:#63635a"
   d="m 412.035,438.01 c 3.418,0.799 6.85,1.531 10.297,2.194 -2.619,3.212 -5.232,6.403 -7.842,9.575 -0.822,-3.909 -1.642,-7.832 -2.455,-11.769 z"
   id="path233" />
&#10;					<path
   style="fill:#eec84d"
   d="m 423.42,440.411 c 3.451,0.649 6.914,1.232 10.391,1.745 -2.633,3.293 -5.266,6.565 -7.891,9.818 -0.836,-3.839 -1.668,-7.694 -2.5,-11.563 z"
   id="path234" />
&#10;					<path
   style="fill:#63635a"
   d="m 434.908,442.316 c 3.478,0.5 6.969,0.932 10.467,1.293 -2.647,3.375 -5.289,6.728 -7.932,10.064 -0.847,-3.771 -1.693,-7.557 -2.535,-11.357 z"
   id="path235" />
&#10;					<path
   style="fill:#eec84d"
   d="m 446.48,443.723 c 3.502,0.348 7.014,0.627 10.529,0.836 -2.658,3.457 -5.315,6.893 -7.965,10.311 -0.855,-3.702 -1.71,-7.419 -2.564,-11.147 z"
   id="path236" />
&#10;					<path
   style="fill:#63635a"
   d="m 458.121,444.623 c 3.52,0.195 7.047,0.322 10.576,0.378 -2.666,3.54 -5.33,7.059 -7.99,10.558 -0.863,-3.631 -1.727,-7.276 -2.586,-10.936 z"
   id="path237" />
&#10;					<path
   style="fill:#63635a"
   d="m 473.723,445.034 c -45.463,0.128 -90.21,-11.321 -130.094,-33.283 0.087,-0.344 0.174,-0.688 0.261,-1.032 39.886,21.955 84.634,33.398 130.099,33.264 -0.091,0.35 -0.179,0.701 -0.266,1.051 z"
   id="path238" />
&#10;				</g>
&#10;			</g>
&#10;			<text
   style="font-size:16.0142px;font-family:'Lobster1.3';fill:#dee4ca"
   id="text239"
   x="363.1748"
   y="351.5542">Party</text>
&#10;		</g>
&#10;	</g>
</g>
  </g>
</svg>
