<?xml version="1.0" encoding="UTF-8" standalone="no"?>
<!-- Created with Inkscape (http://www.inkscape.org/) -->

<svg
   width="33.289352mm"
   height="42.82732mm"
   viewBox="0 0 33.289352 42.82732"
   version="1.1"
   id="svg1"
   xmlns:inkscape="http://www.inkscape.org/namespaces/inkscape"
   xmlns:sodipodi="http://sodipodi.sourceforge.net/DTD/sodipodi-0.dtd"
   xmlns="http://www.w3.org/2000/svg"
   xmlns:svg="http://www.w3.org/2000/svg">
  <sodipodi:namedview
     id="namedview1"
     pagecolor="#ffffff"
     bordercolor="#000000"
     borderopacity="0.25"
     inkscape:showpageshadow="2"
     inkscape:pageopacity="0.0"
     inkscape:pagecheckerboard="0"
     inkscape:deskcolor="#d1d1d1"
     inkscape:document-units="mm" />
  <defs
     id="defs1" />
  <g
     inkscape:label="Layer 1"
     inkscape:groupmode="layer"
     id="layer1"
     transform="translate(-69.193567,-113.37925)">
    <g
       id="g274"
       transform="matrix(0.26458333,0,0,0.26458333,-60.66102,89.56093)">&#10;		<g
   id="g242">&#10;			<rect
   x="492.34799"
   y="91.582001"
   style="fill:#6a6a61"
   width="122.701"
   height="158.74699"
   id="rect241" />
&#10;			<path
   style="fill:#526069"
   d="M 617.127,252.409 H 490.27 V 89.502 h 126.858 v 162.907 z m -122.699,-4.16 H 612.969 V 93.662 H 494.428 Z"
   id="path241" />
&#10;		</g>
&#10;		<g
   id="g248">&#10;			<g
   id="g247">&#10;				<g
   id="g243">&#10;					<rect
   x="516.61102"
   y="91.582001"
   style="fill:#dee4ca"
   width="73.480003"
   height="7.625"
   id="rect242" />
&#10;					<path
   style="fill:#526069"
   d="m 591.652,100.767 h -76.6 V 90.022 h 76.6 z m -73.48,-3.12 h 70.361 v -4.505 h -70.361 z"
   id="path242" />
&#10;				</g>
&#10;				<g
   id="g244">&#10;					<rect
   x="492.34799"
   y="114.458"
   style="fill:#dee4ca"
   width="7.6020002"
   height="111.022"
   id="rect243" />
&#10;					<path
   style="fill:#526069"
   d="M 501.51,227.04 H 490.789 V 112.898 h 10.721 z m -7.602,-3.12 h 4.482 V 116.018 h -4.482 z"
   id="path243" />
&#10;				</g>
&#10;				<g
   id="g245">&#10;					<rect
   x="607.44501"
   y="115.445"
   style="fill:#dee4ca"
   width="7.6030002"
   height="111.021"
   id="rect244" />
&#10;					<path
   style="fill:#526069"
   d="M 616.607,228.026 H 605.886 V 113.885 h 10.721 z m -7.601,-3.119 h 4.482 V 117.004 h -4.482 z"
   id="path244" />
&#10;				</g>
&#10;				<g
   id="g246">&#10;					<rect
   x="516.61102"
   y="242.70399"
   style="fill:#dee4ca"
   width="73.480003"
   height="7.625"
   id="rect245" />
&#10;					<path
   style="fill:#526069"
   d="m 591.652,251.889 h -76.6 v -10.745 h 76.6 z m -73.48,-3.119 h 70.361 v -4.506 h -70.361 z"
   id="path245" />
&#10;				</g>
&#10;			</g>
&#10;		</g>
&#10;		<g
   id="g273">&#10;			<text
   style="font-size:15px;font-family:'Lobster1.3';fill:#dee4ca"
   id="text248"
   x="534.5498"
   y="173.96001">Lucky</text>
&#10;			<g
   id="g258">&#10;				<path
   style="fill:#eec84d"
   d="m 583.389,139.715 c 0.498,-1.122 4.314,-2.764 6.359,-3.638 2.051,-0.876 -1.367,-7.261 -3.609,-6.627 -2.244,0.636 -15.236,4.111 -16.045,6.357 -0.811,2.245 16.818,58.306 -16.947,59.753 -33.658,-3.086 -13.33,-58.227 -14.031,-60.505 -0.697,-2.28 -13.504,-6.387 -15.717,-7.129 -2.209,-0.744 -5.93,5.472 -3.928,6.445 2.004,0.971 5.732,2.798 6.176,3.94 0.443,1.141 -14.572,20.204 -9.406,45.731 5.164,25.519 25.523,29.721 36.457,29.988 10.936,0.265 31.473,-2.945 37.869,-28.187 6.396,-25.241 -7.676,-45.012 -7.178,-46.128 z m -58.826,21.31 c 1.539,0.039 2.752,1.311 2.713,2.844 -0.037,1.54 -1.311,2.755 -2.848,2.716 -1.535,-0.037 -2.748,-1.313 -2.711,-2.849 0.037,-1.534 1.312,-2.747 2.846,-2.711 z m 0.511,25.631 c -1.537,-0.038 -2.75,-1.313 -2.715,-2.849 0.037,-1.538 1.316,-2.748 2.848,-2.714 1.537,0.04 2.752,1.314 2.715,2.849 -0.039,1.535 -1.313,2.749 -2.848,2.714 z m 4.242,-37.65 c -1.535,-0.038 -2.75,-1.313 -2.711,-2.847 0.037,-1.535 1.313,-2.75 2.85,-2.714 1.531,0.039 2.748,1.316 2.711,2.849 -0.037,1.535 -1.314,2.75 -2.85,2.712 z m 6.727,53.179 c -1.535,-0.037 -2.75,-1.314 -2.711,-2.847 0.037,-1.537 1.313,-2.75 2.846,-2.716 1.533,0.038 2.75,1.313 2.715,2.849 -0.039,1.536 -1.315,2.752 -2.85,2.714 z m 16.57,6.988 c -1.535,-0.039 -2.748,-1.314 -2.711,-2.849 0.037,-1.534 1.311,-2.752 2.846,-2.712 v -0.003 c 1.535,0.04 2.752,1.315 2.713,2.848 -0.035,1.54 -1.313,2.753 -2.848,2.716 z m 16.893,-6.177 c -1.539,-0.035 -2.754,-1.31 -2.715,-2.848 0.037,-1.534 1.314,-2.746 2.85,-2.709 1.535,0.034 2.75,1.311 2.711,2.847 -0.036,1.534 -1.313,2.747 -2.846,2.71 z m 6.584,-55.634 c 0.035,-1.538 1.311,-2.752 2.844,-2.715 1.539,0.037 2.752,1.311 2.715,2.847 -0.037,1.536 -1.31,2.749 -2.85,2.716 -1.531,-0.041 -2.746,-1.316 -2.709,-2.848 z m 5.125,40.655 c -1.535,-0.038 -2.75,-1.313 -2.713,-2.847 0.037,-1.538 1.313,-2.752 2.848,-2.713 1.535,0.04 2.75,1.313 2.713,2.848 -0.038,1.536 -1.311,2.754 -2.848,2.712 z m 1.617,-20.014 c -1.535,-0.038 -2.748,-1.313 -2.711,-2.848 0.037,-1.532 1.31,-2.749 2.848,-2.712 1.537,0.038 2.75,1.313 2.711,2.845 -0.037,1.537 -1.313,2.751 -2.848,2.715 z"
   id="path248" />
&#10;				<g
   id="g257">&#10;					<path
   style="fill:#c8a940"
   d="m 524.563,161.025 c 1.539,0.039 2.752,1.311 2.713,2.844 -0.037,1.54 -1.311,2.755 -2.848,2.716 -1.535,-0.037 -2.748,-1.313 -2.711,-2.849 0.037,-1.534 1.312,-2.747 2.846,-2.711 z"
   id="path249" />
&#10;					<path
   style="fill:#c8a940"
   d="m 525.074,186.656 c -1.537,-0.038 -2.75,-1.313 -2.715,-2.849 0.037,-1.538 1.316,-2.748 2.848,-2.714 1.537,0.04 2.752,1.314 2.715,2.849 -0.039,1.535 -1.313,2.749 -2.848,2.714 z"
   id="path250" />
&#10;					<path
   style="fill:#c8a940"
   d="m 529.316,149.006 c -1.535,-0.038 -2.75,-1.313 -2.711,-2.847 0.037,-1.535 1.313,-2.75 2.85,-2.714 1.531,0.039 2.748,1.316 2.711,2.849 -0.037,1.535 -1.314,2.75 -2.85,2.712 z"
   id="path251" />
&#10;					<path
   style="fill:#c8a940"
   d="m 536.043,202.185 c -1.535,-0.037 -2.75,-1.314 -2.711,-2.847 0.037,-1.537 1.313,-2.75 2.846,-2.716 1.533,0.038 2.75,1.313 2.715,2.849 -0.039,1.536 -1.315,2.752 -2.85,2.714 z"
   id="path252" />
&#10;					<path
   style="fill:#c8a940"
   d="m 552.613,209.173 c -1.535,-0.039 -2.748,-1.314 -2.711,-2.849 0.037,-1.534 1.311,-2.752 2.846,-2.712 v -0.003 c 1.535,0.04 2.752,1.315 2.713,2.848 -0.035,1.54 -1.313,2.753 -2.848,2.716 z"
   id="path253" />
&#10;					<path
   style="fill:#c8a940"
   d="m 569.506,202.996 c -1.539,-0.035 -2.754,-1.31 -2.715,-2.848 0.037,-1.534 1.314,-2.746 2.85,-2.709 1.535,0.034 2.75,1.311 2.711,2.847 -0.036,1.534 -1.313,2.747 -2.846,2.71 z"
   id="path254" />
&#10;					<path
   style="fill:#c8a940"
   d="m 576.09,147.362 c 0.035,-1.538 1.311,-2.752 2.844,-2.715 1.539,0.037 2.752,1.311 2.715,2.847 -0.037,1.536 -1.31,2.749 -2.85,2.716 -1.531,-0.041 -2.746,-1.316 -2.709,-2.848 z"
   id="path255" />
&#10;					<path
   style="fill:#c8a940"
   d="m 581.215,188.017 c -1.535,-0.038 -2.75,-1.313 -2.713,-2.847 0.037,-1.538 1.313,-2.752 2.848,-2.713 1.535,0.04 2.75,1.313 2.713,2.848 -0.038,1.536 -1.311,2.754 -2.848,2.712 z"
   id="path256" />
&#10;					<path
   style="fill:#c8a940"
   d="m 582.832,168.003 c -1.535,-0.038 -2.748,-1.313 -2.711,-2.848 0.037,-1.532 1.31,-2.749 2.848,-2.712 1.537,0.038 2.75,1.313 2.711,2.845 -0.037,1.537 -1.313,2.751 -2.848,2.715 z"
   id="path257" />
&#10;				</g>
&#10;			</g>
&#10;			<g
   id="g261">&#10;				<g
   id="g259">&#10;					<rect
   x="599.80902"
   y="118.106"
   style="fill:#dee4ca"
   width="2.0799999"
   height="103.983"
   id="rect258" />
&#10;					<rect
   x="505.50601"
   y="118.106"
   style="fill:#dee4ca"
   width="2.0799999"
   height="103.983"
   id="rect259" />
&#10;				</g>
&#10;				<rect
   x="519.38501"
   y="104.278"
   style="fill:#dee4ca"
   width="66.834"
   height="2.0799999"
   id="rect260" />
&#10;				<rect
   x="521.41803"
   y="235.554"
   style="fill:#dee4ca"
   width="66.835999"
   height="2.0799999"
   id="rect261" />
&#10;			</g>
&#10;			<g
   id="g272">&#10;				<g
   id="g264">&#10;					<g
   id="g262">&#10;						<rect
   x="596.62097"
   y="97.501999"
   style="fill:#dee4ca"
   width="12.219"
   height="12.218"
   id="rect262" />
&#10;						<path
   style="fill:#526069"
   d="M 610.398,111.279 H 595.062 V 95.942 h 15.336 z m -12.216,-3.119 h 9.098 v -9.099 h -9.098 z"
   id="path262" />
&#10;					</g>
&#10;					<g
   id="g263">&#10;						<rect
   x="498.35699"
   y="97.501999"
   style="fill:#dee4ca"
   width="12.219"
   height="12.218"
   id="rect263" />
&#10;						<path
   style="fill:#526069"
   d="M 512.135,111.279 H 496.799 V 95.942 h 15.336 z m -12.217,-3.119 h 9.098 v -9.099 h -9.098 z"
   id="path263" />
&#10;					</g>
&#10;				</g>
&#10;				<g
   id="g268">&#10;					<g
   id="g267">&#10;						<g
   id="g265">&#10;							<rect
   x="596.82001"
   y="232.19099"
   style="fill:#dee4ca"
   width="12.217"
   height="12.218"
   id="rect264" />
&#10;							<path
   style="fill:#526069"
   d="M 610.598,245.969 H 595.26 v -15.337 h 15.338 z m -12.219,-3.119 h 9.1 v -9.099 h -9.1 z"
   id="path264" />
&#10;						</g>
&#10;						<g
   id="g266">&#10;							<rect
   x="498.55701"
   y="232.19099"
   style="fill:#dee4ca"
   width="12.217"
   height="12.218"
   id="rect265" />
&#10;							<path
   style="fill:#526069"
   d="m 512.334,245.969 h -15.338 v -15.337 h 15.338 z m -12.219,-3.119 h 9.1 v -9.099 h -9.1 z"
   id="path265" />
&#10;						</g>
&#10;					</g>
&#10;				</g>
&#10;				<g
   id="g271">&#10;					<rect
   x="502.586"
   y="236.22099"
   style="fill:#526069"
   width="4.158"
   height="4.1589999"
   id="rect268" />
&#10;					<rect
   x="502.38699"
   y="101.531"
   style="fill:#526069"
   width="4.1599998"
   height="4.1589999"
   id="rect269" />
&#10;					<rect
   x="600.65002"
   y="101.531"
   style="fill:#526069"
   width="4.1599998"
   height="4.1589999"
   id="rect270" />
&#10;					<rect
   x="600.84998"
   y="236.22099"
   style="fill:#526069"
   width="4.158"
   height="4.1589999"
   id="rect271" />
&#10;				</g>
&#10;			</g>
&#10;		</g>
&#10;	</g>
  </g>
</svg>
