<?xml version="1.0" encoding="UTF-8" standalone="no"?>
<!-- Created with Inkscape (http://www.inkscape.org/) -->

<svg
   width="33.565296mm"
   height="43.102215mm"
   viewBox="0 0 33.565296 43.102215"
   version="1.1"
   id="svg1"
   xmlns:inkscape="http://www.inkscape.org/namespaces/inkscape"
   xmlns:sodipodi="http://sodipodi.sourceforge.net/DTD/sodipodi-0.dtd"
   xmlns:xlink="http://www.w3.org/1999/xlink"
   xmlns="http://www.w3.org/2000/svg"
   xmlns:svg="http://www.w3.org/2000/svg">
  <sodipodi:namedview
     id="namedview1"
     pagecolor="#ffffff"
     bordercolor="#000000"
     borderopacity="0.25"
     inkscape:showpageshadow="2"
     inkscape:pageopacity="0.0"
     inkscape:pagecheckerboard="0"
     inkscape:deskcolor="#d1d1d1"
     inkscape:document-units="mm" />
  <defs
     id="defs1">
    <clipPath
       id="SVGID_00000172439259233730294310000015732704803519319953_">&#10;				<use
   xlink:href="#SVGID_00000031897840837405194210000005315203322708111790_"
   style="overflow:visible"
   id="use678" />
&#10;			</clipPath>
    <polygon
       id="SVGID_00000031897840837405194210000005315203322708111790_"
       points="313.532,171.991 256.37,243.914 203.11,171.992 256.371,100.068 " />
  </defs>
  <g
     inkscape:label="Layer 1"
     inkscape:groupmode="layer"
     id="layer1"
     transform="translate(-154.25208,-178.06459)">
    <g
       id="g723"
       transform="matrix(0.26458333,0,0,0.26458333,102.68717,154.10947)">&#10;		<g
   id="g677">&#10;			<rect
   x="196.97"
   y="92.617996"
   style="fill:#6a6a61"
   width="122.702"
   height="158.74699"
   id="rect676" />
&#10;			<path
   style="fill:#526069"
   d="M 321.751,253.445 H 194.891 V 90.539 H 321.752 V 253.445 Z M 199.05,249.285 H 317.592 V 94.698 H 199.05 Z"
   id="path676" />
&#10;		</g>
&#10;		<g
   id="g678">&#10;			<polygon
   style="fill:#8ab7a1"
   points="256.332,246.339 200.971,171.992 256.333,97.644 315.671,171.991 "
   id="polygon677" />
&#10;			<path
   style="fill:#dee4ca"
   d="m 256.289,248.893 -57.263,-76.901 57.264,-76.902 61.376,76.901 z m -53.373,-76.901 53.458,71.794 57.301,-71.794 -57.3,-71.793 z"
   id="path677" />
&#10;		</g>
&#10;		<path
   style="fill:#344e5d"
   d="M 321.751,253.445 H 194.891 V 90.539 H 321.752 V 253.445 Z M 199.05,249.285 H 317.592 V 94.698 H 199.05 Z"
   id="path678" />
&#10;		<g
   id="g711">&#10;			<defs
   id="defs678" />
&#10;			<clipPath
   id="clipPath1">&#10;				<use
   xlink:href="#SVGID_00000031897840837405194210000005315203322708111790_"
   style="overflow:visible"
   id="use1" />
&#10;			</clipPath>
&#10;			<g
   style="opacity:0.15"
   clip-path="url(#SVGID_00000172439259233730294310000015732704803519319953_)"
   id="g710">&#10;				<g
   id="g709">&#10;					<g
   id="g679">&#10;						<polygon
   style="fill:#344e5d"
   points="223.368,209.035 257.735,171.524 220.223,205.891 "
   id="polygon678" />
&#10;						<polygon
   style="fill:#344e5d"
   points="259.727,169.531 296.935,135.441 293.817,132.323 "
   id="polygon679" />
&#10;					</g>
&#10;					<g
   id="g681">&#10;						<polygon
   style="fill:#344e5d"
   points="215.569,201.237 257.548,171.295 212.281,197.95 "
   id="polygon680" />
&#10;						<polygon
   style="fill:#344e5d"
   points="259.912,169.761 304.814,143.32 301.553,140.059 "
   id="polygon681" />
&#10;					</g>
&#10;					<g
   id="g683">&#10;						<polygon
   style="fill:#344e5d"
   points="207.195,192.863 257.414,171.032 203.227,188.896 "
   id="polygon682" />
&#10;						<polygon
   style="fill:#344e5d"
   points="260.046,170.023 313.82,152.328 309.861,148.368 "
   id="polygon683" />
&#10;					</g>
&#10;					<g
   id="g685">&#10;						<polygon
   style="fill:#344e5d"
   points="198.638,184.306 257.337,170.748 192.865,178.533 "
   id="polygon684" />
&#10;						<polygon
   style="fill:#344e5d"
   points="260.122,170.307 324.626,163.131 319.431,157.938 "
   id="polygon685" />
&#10;					</g>
&#10;					<g
   id="g687">&#10;						<polygon
   style="fill:#344e5d"
   points="257.323,170.454 191.026,164.392 185.551,169.869 "
   id="polygon686" />
&#10;						<polygon
   style="fill:#344e5d"
   points="331.399,171.456 260.137,170.601 326.209,176.645 "
   id="polygon687" />
&#10;					</g>
&#10;					<g
   id="g690">&#10;						<polygon
   style="fill:#344e5d"
   points="202.182,152.418 197.87,156.73 198.539,156.881 202.803,152.617 "
   id="polygon688" />
&#10;						<polygon
   style="fill:#344e5d"
   points="257.369,170.163 202.803,152.617 198.539,156.881 "
   id="polygon689" />
&#10;						<polygon
   style="fill:#344e5d"
   points="318.742,184.113 260.092,170.893 314.409,188.446 "
   id="polygon690" />
&#10;					</g>
&#10;					<g
   id="g692">&#10;						<polygon
   style="fill:#344e5d"
   points="257.475,169.887 211.549,143.871 208.071,147.349 "
   id="polygon691" />
&#10;						<polygon
   style="fill:#344e5d"
   points="309.224,193.63 259.986,171.168 305.757,197.097 "
   id="polygon692" />
&#10;					</g>
&#10;					<g
   id="g694">&#10;						<polygon
   style="fill:#344e5d"
   points="257.635,169.64 219.533,135.887 216.356,139.064 "
   id="polygon693" />
&#10;						<polygon
   style="fill:#344e5d"
   points="300.968,201.887 259.825,171.415 297.798,205.055 "
   id="polygon694" />
&#10;					</g>
&#10;					<g
   id="g696">&#10;						<polygon
   style="fill:#344e5d"
   points="257.843,169.431 227.311,128.108 224.133,131.287 "
   id="polygon695" />
&#10;						<polygon
   style="fill:#344e5d"
   points="293.215,209.64 259.617,171.624 290.046,212.808 "
   id="polygon696" />
&#10;					</g>
&#10;					<g
   id="g698">&#10;						<polygon
   style="fill:#344e5d"
   points="258.091,169.271 235.6,119.819 232.12,123.299 "
   id="polygon697" />
&#10;						<polygon
   style="fill:#344e5d"
   points="285.253,217.601 259.37,171.783 281.785,221.07 "
   id="polygon698" />
&#10;					</g>
&#10;					<g
   id="g700">&#10;						<polygon
   style="fill:#344e5d"
   points="258.365,169.167 245.845,109.574 240.699,114.72 "
   id="polygon699" />
&#10;						<polygon
   style="fill:#344e5d"
   points="275.894,226.96 259.093,171.888 271.744,231.112 "
   id="polygon700" />
&#10;					</g>
&#10;					<g
   id="g702">&#10;						<polygon
   style="fill:#344e5d"
   points="252.778,102.641 258.657,169.121 258.923,97.428 258.456,96.963 "
   id="polygon701" />
&#10;						<polygon
   style="fill:#344e5d"
   points="265.463,237.392 258.803,171.936 259.521,243.335 "
   id="polygon702" />
&#10;					</g>
&#10;					<g
   id="g704">&#10;						<polygon
   style="fill:#344e5d"
   points="258.95,169.135 271.098,109.603 266.362,104.868 "
   id="polygon703" />
&#10;						<polygon
   style="fill:#344e5d"
   points="251.461,237.129 258.508,171.919 246.384,232.053 "
   id="polygon704" />
&#10;					</g>
&#10;					<g
   id="g706">&#10;						<polygon
   style="fill:#344e5d"
   points="259.238,169.212 280.94,119.446 276.946,115.453 "
   id="polygon705" />
&#10;						<polygon
   style="fill:#344e5d"
   points="240.378,226.045 258.224,171.843 236.344,222.011 "
   id="polygon706" />
&#10;					</g>
&#10;					<g
   id="g708">&#10;						<polygon
   style="fill:#344e5d"
   points="259.499,169.346 289.243,127.749 285.984,124.489 "
   id="polygon707" />
&#10;						<polygon
   style="fill:#344e5d"
   points="231.262,216.93 257.963,171.709 227.976,213.644 "
   id="polygon708" />
&#10;					</g>
&#10;				</g>
&#10;			</g>
&#10;		</g>
&#10;		<g
   id="g722">&#10;			<g
   id="g712">&#10;				<path
   style="fill:#63635a"
   d="m 264.937,146.747 0.281,-1.686 c 0,0 5.016,-1.967 1.685,-5.526 -2.655,-2.837 -5.89,-3.84 -8.569,-0.027 -0.86,1.224 -0.595,4.429 0.703,5.178 0.231,0.754 -0.132,1.748 -0.132,1.748 0,0 -1.59,0.061 -3.746,-0.093 -1.521,-0.109 -3.84,4.776 -7.492,8.242 -3.653,3.465 -3.251,8.239 -2.061,9.74 1.19,1.5 4.308,5.432 4.308,5.432 0,0 -13.205,8.71 -12.081,13.018 1.123,4.308 10.77,8.991 12.174,11.894 1.406,2.903 -5.899,6.65 -5.432,8.055 0.468,1.404 4.322,0 5.152,-0.469 0.831,-0.468 4.027,-2.247 5.15,-3.09 1.124,-0.843 1.943,-2.952 0.937,-4.402 -1.006,-1.45 -8.804,-10.396 -8.71,-11.332 0.093,-0.937 9.928,-4.589 9.928,-4.589 0,0 0.28,12.738 0.936,16.296 0.656,3.559 0,12.081 0,12.081 l -0.936,1.311 0.468,5.151 c 0,0 0,1.499 0.468,1.592 0.468,0.094 3.559,0.749 4.589,0 1.031,-0.749 -0.28,-4.87 -1.217,-6.836 -0.936,-1.967 3.934,-24.444 3.934,-24.444 0,0 4.027,1.873 5.432,2.997 1.405,1.124 4.027,0.562 2.903,-0.563 -1.123,-1.124 -6.556,-8.991 -7.211,-14.891 5.807,-0.936 9.459,-1.873 12.175,-7.867 2.716,-5.994 -13.636,-16.92 -13.636,-16.92 z m -12.681,14.485 c -0.656,1.124 -0.656,2.997 -1.592,2.997 -0.936,0 0.375,-7.211 1.686,-7.118 1.31,0.094 0.562,2.997 -0.094,4.121 z m 20.042,3.465 c -1.124,1.966 -4.589,2.154 -4.87,2.154 -0.281,0 3.185,-6.181 3.185,-6.181 0,0 2.809,2.06 1.685,4.027 z"
   id="path711" />
&#10;				<path
   style="fill:#63635a"
   d="m 268.888,138.79 0.06,-0.231 c 0,0 -0.007,0.001 -0.008,0.001 l 2.02,-7.69 -0.008,-0.002 c 0.003,-0.009 0.01,-0.018 0.012,-0.027 0.093,-0.557 -2.318,-1.419 -6.149,-2.049 -3.687,-0.605 -5.929,-0.542 -6.174,-0.041 l -0.016,-0.001 -0.004,0.044 c -10e-4,0.006 -0.006,0.012 -0.007,0.018 -0.003,0.014 0.003,0.029 0.003,0.044 l -0.488,7.905 c -0.034,-0.015 -0.056,-0.025 -0.056,-0.025 l -0.008,0.278 c -2.271,-0.148 -3.763,0.034 -3.881,0.75 -0.196,1.193 1.171,2.76 8.379,3.944 7.209,1.185 9.266,0.121 9.462,-1.07 0.113,-0.696 -1.101,-1.3 -3.137,-1.848 z"
   id="path712" />
&#10;			</g>
&#10;			<g
   id="g716">&#10;				<path
   style="fill:#8ab7a1"
   d="m 219.57,101.771 c -1.773,0.454 -4.098,4.77 -4.92,6.862 0.386,-2.133 0.985,-6.747 -0.654,-8.39 -1.381,-1.385 -3.624,-1.387 -5.007,-0.006 -0.835,0.831 -1.163,1.975 -0.994,3.056 -0.001,0 -0.001,0 -0.001,0 -0.001,0 -0.002,0 -0.003,-0.001 -1.079,-0.17 -2.222,0.156 -3.055,0.987 -1.384,1.381 -1.725,3.284 -0.007,5.008 1.565,1.569 5.614,1.334 7.895,0.918 -2.196,0.84 -5.93,2.786 -6.451,4.699 -0.64,2.35 0.611,3.831 2.5,4.34 1.137,0.306 2.292,0.019 3.143,-0.669 v 0 c 0.002,0.002 0.003,0.004 0.003,0.007 0.393,1.019 1.246,1.843 2.382,2.149 1.887,0.507 3.835,-0.61 4.339,-2.5 0.344,-1.294 -0.666,-3.316 -1.8,-5.058 l 0.941,-0.752 c 1.686,1.104 3.605,2.062 4.866,1.754 1.9,-0.464 3.037,-2.414 2.553,-4.309 -0.293,-1.141 -1.11,-2.005 -2.127,-2.41 v 0 c 0.005,-0.005 0.01,-0.012 0.015,-0.018 0.686,-0.841 0.982,-1.984 0.693,-3.118 -0.486,-1.891 -1.952,-3.152 -4.311,-2.549 z"
   id="path713" />
&#10;				<path
   style="fill:#8ab7a1"
   d="m 297.072,101.772 c 1.774,0.454 4.098,4.769 4.92,6.862 -0.386,-2.133 -0.985,-6.747 0.654,-8.39 1.381,-1.385 3.623,-1.387 5.007,-0.006 0.835,0.831 1.164,1.975 0.994,3.056 v 0 c 0.001,-10e-4 0.003,-10e-4 0.004,-10e-4 1.079,-0.171 2.222,0.156 3.055,0.987 1.384,1.381 1.726,3.284 0.007,5.008 -1.565,1.569 -5.613,1.334 -7.894,0.918 2.196,0.84 5.93,2.786 6.451,4.699 0.64,2.35 -0.611,3.831 -2.5,4.34 -1.137,0.306 -2.292,0.019 -3.143,-0.669 v 0 c -0.002,0.003 -0.003,0.004 -0.003,0.007 -0.394,1.018 -1.247,1.843 -2.383,2.149 -1.887,0.507 -3.835,-0.61 -4.339,-2.5 -0.345,-1.294 0.666,-3.316 1.8,-5.058 l -0.942,-0.752 c -1.686,1.104 -3.605,2.062 -4.866,1.754 -1.9,-0.464 -3.037,-2.414 -2.553,-4.309 0.292,-1.141 1.11,-2.005 2.127,-2.41 v 0 c -0.005,-0.005 -0.01,-0.012 -0.014,-0.018 -0.687,-0.841 -0.983,-1.984 -0.693,-3.118 0.487,-1.892 1.952,-3.152 4.311,-2.549 z"
   id="path714" />
&#10;				<path
   style="fill:#8ab7a1"
   d="m 220.505,242.211 c -1.773,-0.454 -4.097,-4.77 -4.92,-6.862 0.386,2.134 0.985,6.747 -0.654,8.39 -1.381,1.385 -3.623,1.387 -5.007,0.006 -0.834,-0.831 -1.163,-1.975 -0.994,-3.057 0,0 0,0 0,0 -0.001,0 -0.002,0 -0.003,0.001 -1.079,0.17 -2.222,-0.155 -3.055,-0.986 -1.384,-1.381 -1.725,-3.285 -0.006,-5.008 1.565,-1.569 5.613,-1.335 7.894,-0.918 -2.196,-0.84 -5.93,-2.787 -6.451,-4.7 -0.64,-2.349 0.611,-3.831 2.5,-4.339 1.137,-0.306 2.292,-0.019 3.143,0.669 v 0 c 0.001,-0.003 0.002,-0.004 0.002,-0.007 0.394,-1.018 1.247,-1.843 2.383,-2.149 1.887,-0.507 3.836,0.61 4.339,2.5 0.344,1.295 -0.666,3.316 -1.8,5.058 l 0.942,0.752 c 1.686,-1.105 3.605,-2.063 4.866,-1.754 1.899,0.465 3.037,2.415 2.553,4.309 -0.292,1.142 -1.11,2.005 -2.127,2.41 v 0 c 0.005,0.006 0.01,0.012 0.014,0.019 0.687,0.841 0.982,1.984 0.693,3.117 -0.487,1.892 -1.953,3.153 -4.312,2.549 z"
   id="path715" />
&#10;				<path
   style="fill:#8ab7a1"
   d="m 297.072,242.21 c 1.774,-0.454 4.098,-4.77 4.92,-6.862 -0.386,2.134 -0.985,6.747 0.654,8.39 1.381,1.385 3.623,1.387 5.007,0.006 0.835,-0.831 1.164,-1.975 0.994,-3.057 v 0 c 0.001,10e-4 0.003,10e-4 0.004,10e-4 1.079,0.17 2.222,-0.155 3.055,-0.986 1.384,-1.381 1.726,-3.285 0.007,-5.008 -1.565,-1.569 -5.613,-1.335 -7.894,-0.918 2.196,-0.84 5.93,-2.787 6.451,-4.7 0.64,-2.349 -0.611,-3.831 -2.5,-4.339 -1.137,-0.306 -2.292,-0.019 -3.143,0.669 v 0 c -0.002,-0.003 -0.003,-0.004 -0.003,-0.007 -0.394,-1.019 -1.247,-1.843 -2.383,-2.149 -1.887,-0.507 -3.835,0.61 -4.339,2.5 -0.345,1.295 0.666,3.316 1.8,5.058 l -0.942,0.752 c -1.686,-1.105 -3.605,-2.063 -4.866,-1.754 -1.9,0.465 -3.037,2.415 -2.553,4.309 0.292,1.142 1.11,2.005 2.127,2.41 v 0 c -0.005,0.006 -0.01,0.012 -0.014,0.019 -0.687,0.841 -0.983,1.984 -0.693,3.117 0.487,1.893 1.952,3.153 4.311,2.549 z"
   id="path716" />
&#10;			</g>
&#10;			<g
   id="g721">&#10;				<g
   id="g717">&#10;					<line
   style="fill:#344e5d"
   x1="310.91"
   y1="190.715"
   x2="272.97501"
   y2="239.073"
   id="line716" />
&#10;					&#10;						<rect
   x="261.211"
   y="213.854"
   transform="matrix(0.6173,-0.7867,0.7867,0.6173,-57.3395,311.909)"
   style="fill:#dee4ca"
   width="61.462002"
   height="2.079"
   id="rect716" />
&#10;				</g>
&#10;				<g
   id="g718">&#10;					<line
   style="fill:#344e5d"
   x1="242.43201"
   y1="104.558"
   x2="205.733"
   y2="153.85899"
   id="line717" />
&#10;					&#10;						<rect
   x="193.35201"
   y="128.168"
   transform="matrix(0.5972,-0.8021,0.8021,0.5972,-13.373,231.7878)"
   style="fill:#dee4ca"
   width="61.460999"
   height="2.0799999"
   id="rect717" />
&#10;				</g>
&#10;				<g
   id="g719">&#10;					<line
   style="fill:#344e5d"
   x1="310.30499"
   y1="153.545"
   x2="272.77802"
   y2="104.871"
   id="line718" />
&#10;					&#10;						<rect
   x="290.50201"
   y="98.477997"
   transform="matrix(0.7919,-0.6106,0.6106,0.7919,-18.2371,204.8941)"
   style="fill:#dee4ca"
   width="2.0799999"
   height="61.460999"
   id="rect718" />
&#10;				</g>
&#10;				<g
   id="g720">&#10;					<line
   style="fill:#344e5d"
   x1="242.978"
   y1="239.42599"
   x2="206.384"
   y2="190.047"
   id="line719" />
&#10;					&#10;						<rect
   x="223.642"
   y="184.006"
   transform="matrix(0.8034,-0.5954,0.5954,0.8034,-83.6885,175.9882)"
   style="fill:#dee4ca"
   width="2.079"
   height="61.460999"
   id="rect719" />
&#10;				</g>
&#10;			</g>
&#10;		</g>
&#10;	</g>
  </g>
</svg>
