<?xml version="1.0" encoding="UTF-8" standalone="no"?>
<!-- Created with Inkscape (http://www.inkscape.org/) -->

<svg
   width="24.81142mm"
   height="34.313152mm"
   viewBox="0 0 24.81142 34.313152"
   version="1.1"
   id="svg1"
   xmlns="http://www.w3.org/2000/svg"
   xmlns:svg="http://www.w3.org/2000/svg">
  <defs
     id="defs1" />
  <g
     id="layer1"
     transform="translate(-117.21158,-211.27349)">
    <g
       id="g198"
       transform="matrix(0.26458333,0,0,0.26458333,106.35069,123.18299)">&#10;		<g
   style="opacity:0.1"
   id="g188">&#10;			<path
   style="fill:#1c0d3f"
   d="m 120.13,393.47 c 6.36,8.33 8.5,17.69 6.21,27.93 -2.03,9.09 -6.02,17.26 -12.26,24.22 -4.01,4.48 -8.77,7.99 -14.68,9.52 -6.03,1.55 -12.19,2.11 -18.43,1.57 -10.27,-0.88 -19.12,-4.92 -26.5,-12.06 -5.93,-5.74 -8.91,-12.84 -9.61,-21.09 -0.83,-9.84 2.23,-18.41 7.76,-26.31 1.76,-2.52 3.63,-4.97 5.93,-7.04 0.37,-0.34 0.47,-0.82 0.76,-1.28 -0.17,-0.28 -0.27,-0.5 -0.42,-0.68 -4.71,-5.71 -5.85,-12.46 -5.61,-19.58 0.48,-14.22 12,-25.82 25.28,-28.76 7.72,-1.71 15.37,-0.96 22.49,2.77 5.11,2.69 8.6,6.93 10.87,12.2 3.42,7.97 3.11,15.86 -0.4,23.7 -0.42,0.95 -0.82,1.91 -1.24,2.85 -0.63,1.41 -0.36,2.66 0.92,3.59 3.35,2.43 6.43,5.17 8.93,8.45 z m -26.26,40.29 c 4.32,-3.17 7.79,-10.3 6.11,-16.76 -2.82,-10.86 -15.05,-13.42 -22.78,-8.28 -4.68,3.11 -6.48,7.75 -6.29,13.21 0.28,7.78 5.24,14.47 14.05,14.34 3.37,0.05 6.37,-0.65 8.91,-2.51 z m -8.16,-56.21 c 5.15,-1.35 8.32,-7.26 6.82,-12.74 -1.13,-4.17 -4.04,-6.23 -8.31,-5.96 -4.4,0.29 -7.03,2.88 -8.68,6.69 -2.59,6.01 1.53,12.25 8.13,12.21 0.61,-0.04 1.33,-0.01 2.04,-0.2 z"
   id="path181" />
&#10;			<path
   style="fill:#1c0d3f"
   d="m 129.35,399.78 c -3.05,-6.31 -6.65,-12.24 -13.29,-15.72 0.43,-0.67 0.85,-1.25 1.2,-1.88 2.69,-4.77 3.49,-10 3.4,-15.37 -0.14,-8.9 -4.05,-16.13 -10.24,-22.27 -3.34,-3.32 -7.49,-5.2 -11.91,-6.64 -2.98,-0.98 -5.99,-1.71 -9.1,-1.89 -6.5,-0.38 -12.73,0.79 -18.6,3.69 -11.26,5.57 -18.54,14.11 -19.73,26.99 -0.53,5.63 0.07,11.19 2.37,16.44 0.92,2.11 1.96,4.17 3.58,5.99 -2,1.2 -3.62,2.66 -5.14,4.26 -5.09,5.37 -8.62,11.57 -10.1,18.85 -1.27,6.22 -0.81,12.4 0.64,18.53 0.68,2.84 1.21,5.74 2.66,8.3 3.9,6.85 8.99,12.58 15.86,16.63 8.59,5.06 17.74,7.71 27.81,6.74 11.63,-1.13 21.99,-4.99 30.2,-13.67 6.19,-6.54 11.03,-13.78 12.79,-22.87 1.74,-8.99 1.65,-17.73 -2.4,-26.11 z m -3.01,21.62 c -2.03,9.09 -6.02,17.26 -12.26,24.22 -4.01,4.48 -8.77,7.99 -14.68,9.52 -6.03,1.55 -12.19,2.11 -18.43,1.57 -10.27,-0.88 -19.12,-4.92 -26.5,-12.06 -5.93,-5.74 -8.91,-12.84 -9.61,-21.09 -0.83,-9.84 2.23,-18.41 7.76,-26.31 1.76,-2.52 3.63,-4.97 5.93,-7.04 0.37,-0.34 0.47,-0.82 0.76,-1.28 -0.17,-0.28 -0.27,-0.5 -0.42,-0.68 -4.71,-5.71 -5.85,-12.46 -5.61,-19.58 0.48,-14.22 12,-25.82 25.28,-28.76 7.72,-1.71 15.37,-0.96 22.49,2.77 5.11,2.69 8.6,6.93 10.87,12.2 3.42,7.97 3.11,15.86 -0.4,23.7 -0.42,0.95 -0.82,1.91 -1.24,2.85 -0.63,1.41 -0.36,2.66 0.92,3.59 3.35,2.43 6.43,5.17 8.93,8.45 6.36,8.33 8.5,17.69 6.21,27.93 z"
   id="path182" />
&#10;			<path
   style="fill:#1c0d3f"
   d="m 77.2,408.72 c -4.68,3.11 -6.48,7.75 -6.29,13.21 0.28,7.78 5.24,14.47 14.05,14.34 3.37,0.05 6.37,-0.65 8.91,-2.51 4.32,-3.17 7.79,-10.3 6.11,-16.76 -2.82,-10.86 -15.05,-13.42 -22.78,-8.28 z m 16.03,22.85 c -1.67,1.71 -3.86,1.71 -5.97,1.9 -3.67,0.17 -6.43,-1.62 -8.91,-4.03 -0.71,-0.7 -0.99,-1.63 -1.36,-2.51 -1.65,-3.91 -0.8,-11.51 3.29,-14.96 3.12,-2.63 6.68,-3.54 10.39,-2.41 4.15,1.28 6.73,4.4 7.26,8.84 0.62,5.13 -1.12,9.49 -4.7,13.17 z"
   id="path183" />
&#10;			<path
   style="fill:#1c0d3f"
   d="m 83.67,377.75 c 0.61,-0.04 1.33,-0.01 2.04,-0.2 5.15,-1.35 8.32,-7.26 6.82,-12.74 -1.13,-4.17 -4.04,-6.23 -8.31,-5.96 -4.4,0.29 -7.03,2.88 -8.68,6.69 -2.59,6.01 1.53,12.25 8.13,12.21 z m 1.24,-15.83 c 1.5,-0.9 2.76,-0.79 4.01,0.45 1.47,1.45 2.04,3.29 2.13,5.48 -0.19,2.46 -1.03,4.75 -3.3,6.31 -2.47,1.7 -6.42,1.47 -7.11,-2.93 -0.55,-3.43 1.31,-7.52 4.27,-9.31 z"
   id="path184" />
&#10;			<path
   style="fill:#1c0d3f"
   d="m 67.1,351.232 c 0.239,0.633 -0.087,0.892 -0.217,1.204 -1.83,4.368 -4.196,8.508 -5.48,13.113 -0.488,1.751 -0.808,3.485 -0.685,5.303 0.054,0.792 0.105,1.591 -0.087,2.383 -0.14,0.579 -0.365,1.072 -0.998,1.215 -0.665,0.15 -1.163,-0.172 -1.557,-0.664 -0.625,-0.783 -0.863,-1.725 -0.859,-2.689 0.014,-3.495 0.338,-6.914 2.179,-10.04 1.375,-2.335 2.505,-4.818 4.245,-6.924 0.954,-1.156 1.94,-2.292 3.459,-2.901 z"
   id="path185" />
&#10;			<path
   style="fill:#1c0d3f"
   d="m 90.772,439.494 c -0.008,-0.534 0.454,-0.714 0.779,-0.967 1.604,-1.25 3.204,-2.506 4.845,-3.705 1.626,-1.188 3.045,-2.557 4.181,-4.228 0.84,-1.237 1.996,-1.583 2.942,-0.957 0.927,0.613 1.077,1.848 0.361,3.107 -0.416,0.732 -0.899,1.441 -1.544,1.97 -2.89,2.37 -5.97,4.398 -9.761,5.028 -0.857,0.142 -1.098,0.102 -1.803,-0.248 z"
   id="path186" />
&#10;			<path
   style="fill:#1c0d3f"
   d="m 74.687,345.92 c 0.102,1.84 -2.079,4.485 -3.803,4.677 -0.727,0.081 -1.348,-0.142 -1.762,-0.763 -0.469,-0.704 -0.4,-1.43 0.026,-2.132 0.947,-1.56 3.702,-2.466 5.539,-1.782 z"
   id="path187" />
&#10;			<path
   style="fill:#1c0d3f"
   d="m 95.641,372.382 c -0.576,-0.898 -0.734,-1.867 -0.384,-2.906 0.215,-0.637 0.652,-0.991 1.346,-0.908 0.727,0.087 0.964,0.624 1.033,1.255 0.144,1.328 -0.737,2.477 -1.995,2.559 z"
   id="path188" />
&#10;		</g>
&#10;		<g
   id="g197">&#10;			<g
   id="g196">&#10;				<path
   style="fill:#f46f22"
   d="m 122.13,390.47 c 6.36,8.33 8.5,17.69 6.21,27.93 -2.03,9.09 -6.02,17.26 -12.26,24.22 -4.01,4.48 -8.77,7.99 -14.68,9.52 -6.03,1.55 -12.19,2.11 -18.43,1.57 -10.27,-0.88 -19.12,-4.92 -26.5,-12.06 -5.93,-5.74 -8.91,-12.84 -9.61,-21.09 -0.83,-9.84 2.23,-18.41 7.76,-26.31 1.76,-2.52 3.63,-4.97 5.93,-7.04 0.37,-0.34 0.47,-0.82 0.76,-1.28 -0.17,-0.28 -0.27,-0.5 -0.42,-0.68 -4.71,-5.71 -5.85,-12.46 -5.61,-19.58 0.48,-14.22 12,-25.82 25.28,-28.76 7.72,-1.71 15.37,-0.96 22.49,2.77 5.11,2.69 8.6,6.93 10.87,12.2 3.42,7.97 3.11,15.86 -0.4,23.7 -0.42,0.95 -0.82,1.91 -1.24,2.85 -0.63,1.41 -0.36,2.66 0.92,3.59 3.35,2.43 6.43,5.17 8.93,8.45 z m -26.26,40.29 c 4.32,-3.17 7.79,-10.3 6.11,-16.76 -2.82,-10.86 -15.05,-13.42 -22.78,-8.28 -4.68,3.11 -6.48,7.75 -6.29,13.21 0.28,7.78 5.24,14.47 14.05,14.34 3.37,0.05 6.37,-0.65 8.91,-2.51 z m -8.16,-56.21 c 5.15,-1.35 8.32,-7.26 6.82,-12.74 -1.13,-4.17 -4.04,-6.23 -8.31,-5.96 -4.4,0.29 -7.03,2.88 -8.68,6.69 -2.59,6.01 1.53,12.25 8.13,12.21 0.61,-0.04 1.33,-0.01 2.04,-0.2 z"
   id="path189" />
&#10;				<g
   id="g192">&#10;					<path
   style="fill:#231333"
   d="m 131.35,396.78 c -3.05,-6.31 -6.65,-12.24 -13.29,-15.72 0.43,-0.67 0.85,-1.25 1.2,-1.88 2.69,-4.77 3.49,-10 3.4,-15.37 -0.14,-8.9 -4.05,-16.13 -10.24,-22.27 -3.34,-3.32 -7.49,-5.2 -11.91,-6.64 -2.98,-0.98 -5.99,-1.71 -9.1,-1.89 -6.5,-0.38 -12.73,0.79 -18.6,3.69 -11.26,5.57 -18.54,14.11 -19.73,26.99 -0.53,5.63 0.07,11.19 2.37,16.44 0.92,2.11 1.96,4.17 3.58,5.99 -2,1.2 -3.62,2.66 -5.14,4.26 -5.09,5.37 -8.62,11.57 -10.1,18.85 -1.27,6.22 -0.81,12.4 0.64,18.53 0.68,2.84 1.21,5.74 2.66,8.3 3.9,6.85 8.99,12.58 15.86,16.63 8.59,5.06 17.74,7.71 27.81,6.74 11.63,-1.13 21.99,-4.99 30.2,-13.67 6.19,-6.54 11.03,-13.78 12.79,-22.87 1.74,-8.99 1.65,-17.73 -2.4,-26.11 z m -3.01,21.62 c -2.03,9.09 -6.02,17.26 -12.26,24.22 -4.01,4.48 -8.77,7.99 -14.68,9.52 -6.03,1.55 -12.19,2.11 -18.43,1.57 -10.27,-0.88 -19.12,-4.92 -26.5,-12.06 -5.93,-5.74 -8.91,-12.84 -9.61,-21.09 -0.83,-9.84 2.23,-18.41 7.76,-26.31 1.76,-2.52 3.63,-4.97 5.93,-7.04 0.37,-0.34 0.47,-0.82 0.76,-1.28 -0.17,-0.28 -0.27,-0.5 -0.42,-0.68 -4.71,-5.71 -5.85,-12.46 -5.61,-19.58 0.48,-14.22 12,-25.82 25.28,-28.76 7.72,-1.71 15.37,-0.96 22.49,2.77 5.11,2.69 8.6,6.93 10.87,12.2 3.42,7.97 3.11,15.86 -0.4,23.7 -0.42,0.95 -0.82,1.91 -1.24,2.85 -0.63,1.41 -0.36,2.66 0.92,3.59 3.35,2.43 6.43,5.17 8.93,8.45 6.36,8.33 8.5,17.69 6.21,27.93 z"
   id="path190" />
&#10;					<path
   style="fill:#231333"
   d="m 79.2,405.72 c -4.68,3.11 -6.48,7.75 -6.29,13.21 0.28,7.78 5.24,14.47 14.05,14.34 3.37,0.05 6.37,-0.65 8.91,-2.51 4.32,-3.17 7.79,-10.3 6.11,-16.76 -2.82,-10.86 -15.05,-13.42 -22.78,-8.28 z m 16.03,22.85 c -1.67,1.71 -3.86,1.71 -5.97,1.9 -3.67,0.17 -6.43,-1.62 -8.91,-4.03 -0.71,-0.7 -0.99,-1.63 -1.36,-2.51 -1.65,-3.91 -0.8,-11.51 3.29,-14.96 3.12,-2.63 6.68,-3.54 10.39,-2.41 4.15,1.28 6.73,4.4 7.26,8.84 0.62,5.13 -1.12,9.49 -4.7,13.17 z"
   id="path191" />
&#10;					<path
   style="fill:#231333"
   d="m 85.67,374.75 c 0.61,-0.04 1.33,-0.01 2.04,-0.2 5.15,-1.35 8.32,-7.26 6.82,-12.74 -1.13,-4.17 -4.04,-6.23 -8.31,-5.96 -4.4,0.29 -7.03,2.88 -8.68,6.69 -2.59,6.01 1.53,12.25 8.13,12.21 z m 1.24,-15.83 c 1.5,-0.9 2.76,-0.79 4.01,0.45 1.47,1.45 2.04,3.29 2.13,5.48 -0.19,2.46 -1.03,4.75 -3.3,6.31 -2.47,1.7 -6.42,1.47 -7.11,-2.93 -0.55,-3.43 1.31,-7.52 4.27,-9.31 z"
   id="path192" />
&#10;				</g>
&#10;				<path
   style="fill:#fff4db"
   d="m 69.1,348.232 c 0.239,0.633 -0.087,0.892 -0.217,1.204 -1.83,4.368 -4.196,8.508 -5.48,13.113 -0.488,1.751 -0.808,3.485 -0.685,5.303 0.054,0.792 0.105,1.591 -0.087,2.383 -0.14,0.579 -0.365,1.072 -0.998,1.215 -0.665,0.15 -1.163,-0.172 -1.557,-0.664 -0.625,-0.783 -0.863,-1.725 -0.859,-2.689 0.014,-3.495 0.338,-6.914 2.179,-10.04 1.375,-2.335 2.505,-4.818 4.245,-6.924 0.954,-1.156 1.94,-2.292 3.459,-2.901 z"
   id="path193" />
&#10;				<path
   style="fill:#fff4db"
   d="m 92.772,436.494 c -0.008,-0.534 0.454,-0.714 0.779,-0.967 1.604,-1.25 3.204,-2.506 4.845,-3.705 1.626,-1.188 3.045,-2.557 4.181,-4.228 0.84,-1.237 1.996,-1.583 2.942,-0.957 0.927,0.613 1.077,1.848 0.361,3.107 -0.416,0.732 -0.899,1.441 -1.544,1.97 -2.89,2.37 -5.97,4.398 -9.761,5.028 -0.857,0.142 -1.098,0.102 -1.803,-0.248 z"
   id="path194" />
&#10;				<path
   style="fill:#fff4db"
   d="m 76.687,342.92 c 0.102,1.84 -2.079,4.485 -3.803,4.677 -0.727,0.081 -1.348,-0.142 -1.762,-0.763 -0.469,-0.704 -0.4,-1.43 0.026,-2.132 0.947,-1.56 3.702,-2.466 5.539,-1.782 z"
   id="path195" />
&#10;				<path
   style="fill:#fff4db"
   d="m 97.641,369.382 c -0.576,-0.898 -0.734,-1.867 -0.384,-2.906 0.215,-0.637 0.652,-0.991 1.346,-0.908 0.727,0.087 0.964,0.624 1.033,1.255 0.144,1.328 -0.737,2.477 -1.995,2.559 z"
   id="path196" />
&#10;			</g>
&#10;		</g>
&#10;	</g>
  </g>
</svg>
