<?xml version="1.0" encoding="UTF-8" standalone="no"?>
<!-- Created with Inkscape (http://www.inkscape.org/) -->

<svg
   width="24.830629mm"
   height="34.490265mm"
   viewBox="0 0 24.830629 34.490265"
   version="1.1"
   id="svg1"
   xmlns="http://www.w3.org/2000/svg"
   xmlns:svg="http://www.w3.org/2000/svg">
  <defs
     id="defs1" />
  <g
     id="layer1"
     transform="translate(-40.754159,-107.327)">
    <g
       id="g151"
       transform="matrix(0.26458333,0,0,0.26458333,32.834278,57.290853)">&#10;		<g
   style="opacity:0.1"
   id="g143">&#10;			<path
   style="fill:#1c0d3f"
   d="m 121.69,244.62 c 0.09,9.03 0.18,18.06 -0.3,27.08 -0.55,10.37 -0.79,20.74 -1.16,31.12 -0.07,1.79 0.09,3.58 0,5.37 -0.24,4.65 -2.85,7.71 -6.91,9.39 -4.69,1.95 -9.68,2.27 -14.7,1.51 -6.24,-0.95 -10.28,-4.27 -12.05,-10.54 -1.94,-6.86 -3.43,-13.79 -4.45,-20.83 -0.7,-4.82 -1.51,-9.62 -2.02,-14.47 -0.03,-0.31 -0.12,-0.62 -0.21,-1.04 -9.52,1.09 -18.92,1.75 -28.37,1.38 -4.35,-0.18 -8.66,-0.78 -12.9,-1.88 -4.01,-1.04 -6.46,-3.54 -7.65,-7.46 -0.74,-2.41 -1.09,-4.84 -1.03,-7.33 0.25,-10.48 1.51,-20.86 3.34,-31.18 0.89,-5 1.88,-9.97 3.49,-14.79 0.78,-2.33 1.74,-4.54 2.93,-6.67 1.74,-3.1 4.37,-4.98 7.75,-5.99 5.24,-1.57 10.49,-3.12 16.01,-3.34 1.94,-0.08 3.83,0.33 5.62,1.03 1.84,0.74 2.74,2.36 3.28,4.18 0.76,2.56 0.23,5.09 -0.27,7.59 -1.26,6.34 -2.6,12.67 -3.44,19.09 -0.59,4.47 -0.97,8.96 -0.84,13.56 1.07,0.5 2.24,0.58 3.36,0.71 3.46,0.39 6.92,0.73 10.39,0.21 2.01,-0.31 2.49,-0.76 2.51,-2.81 0.03,-6.04 0.41,-12.06 0.93,-18.06 0.56,-6.53 1.54,-13 2.61,-19.46 0.77,-4.72 3.48,-7.21 7.95,-8.24 3.65,-0.84 7.3,-0.75 10.96,-0.3 2.02,0.25 4.02,0.64 6.04,0.89 2.63,0.31 4.78,1.51 6.55,3.41 1.7,1.82 2.22,4.15 2.3,6.52 0.14,3.83 -0.04,7.68 0.15,11.51 0.47,9.94 0.03,19.89 0.13,29.84 z m -5.27,-28.79 c 0.02,-5.15 -0.18,-10.31 -0.7,-15.44 -0.27,-2.66 -0.77,-3.19 -3.38,-3.7 -3.06,-0.6 -6.12,-1.16 -9.24,-1.37 -3.21,-0.21 -6.39,-0.13 -9.45,1.06 -1.5,0.59 -2.41,1.58 -2.7,3.22 -1.64,9.13 -2.63,18.34 -3.28,27.59 -0.28,3.99 -0.34,7.99 -0.94,11.95 -0.45,2.89 -1.33,3.88 -4.21,4.46 -5.88,1.2 -11.68,0.75 -17.38,-1.05 -1.39,-0.43 -2.21,-1.54 -2.65,-2.9 -0.39,-1.23 -0.36,-2.52 -0.32,-3.8 0.15,-4.35 0.42,-8.7 1.04,-13.01 1.01,-7.13 2.31,-14.19 4.5,-21.06 0.15,-0.46 0.23,-0.94 0.27,-1.41 0.07,-1.07 -0.32,-1.71 -1.5,-1.88 -1.89,-0.26 -3.76,-0.11 -5.62,0.16 -4.56,0.67 -8.92,2.11 -13.3,3.52 -2.39,0.77 -3.96,2.24 -5.15,4.34 -2.31,4.1 -3.46,8.58 -4.39,13.12 -1.91,9.28 -3.3,18.64 -4,28.09 -0.28,3.87 -0.61,7.73 -0.42,11.62 0.2,4.27 2.1,6.87 7.24,7.81 2.55,0.47 5.16,0.71 7.75,0.73 10.95,0.11 21.9,0.29 32.82,-0.58 1.03,-0.09 1.58,0.32 1.66,1.38 0.07,0.79 0.2,1.58 0.31,2.37 1.26,9.38 2.29,18.8 4.3,28.06 0.76,3.51 1.67,6.99 2.8,10.4 0.77,2.35 2.2,3.57 4.77,3.78 4.35,0.34 8.63,0.09 12.87,-0.83 4.22,-0.91 5.71,-2.48 6.15,-6.77 0.8,-7.63 1.45,-15.3 1.35,-22.97 -0.14,-10.87 -0.21,-21.74 0.48,-32.35 0.11,-11.68 0.26,-23.11 0.32,-34.54 z"
   id="path138" />
&#10;			<path
   style="fill:#1c0d3f"
   d="m 115.72,200.39 c 0.52,5.13 0.72,10.29 0.7,15.44 -0.06,11.43 -0.21,22.86 -0.32,34.54 -0.69,10.61 -0.62,21.48 -0.48,32.35 0.1,7.67 -0.55,15.34 -1.35,22.97 -0.44,4.29 -1.93,5.86 -6.15,6.77 -4.24,0.92 -8.52,1.17 -12.87,0.83 -2.57,-0.21 -4,-1.43 -4.77,-3.78 -1.13,-3.41 -2.04,-6.89 -2.8,-10.4 -2.01,-9.26 -3.04,-18.68 -4.3,-28.06 -0.11,-0.79 -0.24,-1.58 -0.31,-2.37 -0.08,-1.06 -0.63,-1.47 -1.66,-1.38 -10.92,0.87 -21.87,0.69 -32.82,0.58 -2.59,-0.02 -5.2,-0.26 -7.75,-0.73 -5.14,-0.94 -7.04,-3.54 -7.24,-7.81 -0.19,-3.89 0.14,-7.75 0.42,-11.62 0.7,-9.45 2.09,-18.81 4,-28.09 0.93,-4.54 2.08,-9.02 4.39,-13.12 1.19,-2.1 2.76,-3.57 5.15,-4.34 4.38,-1.41 8.74,-2.85 13.3,-3.52 1.86,-0.27 3.73,-0.42 5.62,-0.16 1.18,0.17 1.57,0.81 1.5,1.88 -0.04,0.47 -0.12,0.95 -0.27,1.41 -2.19,6.87 -3.49,13.93 -4.5,21.06 -0.62,4.31 -0.89,8.66 -1.04,13.01 -0.04,1.28 -0.07,2.57 0.32,3.8 0.44,1.36 1.26,2.47 2.65,2.9 5.7,1.8 11.5,2.25 17.38,1.05 2.88,-0.58 3.76,-1.57 4.21,-4.46 0.6,-3.96 0.66,-7.96 0.94,-11.95 0.65,-9.25 1.64,-18.46 3.28,-27.59 0.29,-1.64 1.2,-2.63 2.7,-3.22 3.06,-1.19 6.24,-1.27 9.45,-1.06 3.12,0.21 6.18,0.77 9.24,1.37 2.61,0.51 3.11,1.04 3.38,3.7 z"
   id="path139" />
&#10;			<path
   style="fill:#1c0d3f"
   d="m 44.527,215.035 c 0.297,0.635 0.16,1.234 0.143,1.811 -0.172,5.672 -0.94,11.29 -1.514,16.927 -0.368,3.611 -0.338,7.26 -1.041,10.839 -0.161,0.823 -0.297,1.651 -0.667,2.413 -0.316,0.651 -0.789,1.131 -1.551,1.14 -0.758,0.009 -1.256,-0.454 -1.598,-1.085 -0.347,-0.64 -0.509,-1.338 -0.589,-2.058 -0.193,-1.758 -0.201,-3.533 0.143,-5.252 1.276,-6.372 2.297,-12.799 3.988,-19.084 0.435,-1.616 0.934,-3.218 1.701,-4.715 0.187,-0.362 0.298,-0.845 0.985,-0.936 z"
   id="path140" />
&#10;			<path
   style="fill:#1c0d3f"
   d="m 95.1,302.615 c -0.978,0.072 -0.996,-0.6 -1.163,-1.019 -1.903,-4.799 -3.25,-9.764 -4.347,-14.8 -0.323,-1.482 -0.59,-2.977 -0.86,-4.47 -0.136,-0.751 -0.153,-1.505 0.069,-2.255 0.237,-0.8 0.699,-1.344 1.554,-1.458 0.846,-0.114 1.472,0.26 1.917,0.958 0.369,0.58 0.563,1.231 0.717,1.895 1.335,5.736 2.209,11.533 2.281,17.432 0.015,1.228 -0.107,2.458 -0.168,3.717 z"
   id="path141" />
&#10;			<path
   style="fill:#1c0d3f"
   d="m 93.042,214.76 c -0.44,-3.186 -0.417,-6.192 -0.211,-9.2 0.065,-0.952 0.151,-1.911 0.346,-2.842 0.21,-1.001 0.85,-1.659 1.952,-1.515 1.034,0.135 1.571,0.898 1.493,1.857 -0.32,3.962 -1.489,7.714 -3.017,11.362 -0.044,0.107 -0.241,0.151 -0.563,0.338 z"
   id="path142" />
&#10;			<path
   style="fill:#1c0d3f"
   d="m 47.445,206.258 c 0.597,1.422 0.455,2.775 10e-4,4.122 -0.238,0.704 -0.699,1.198 -1.498,1.072 -0.884,-0.139 -1.081,-0.814 -1.062,-1.601 0.041,-1.719 1.188,-3.392 2.559,-3.593 z"
   id="path143" />
&#10;		</g>
&#10;		<g
   id="g150">&#10;			<g
   id="g149">&#10;				<path
   style="fill:#231333"
   d="m 123.69,241.62 c 0.09,9.03 0.18,18.06 -0.3,27.08 -0.55,10.37 -0.79,20.74 -1.16,31.12 -0.07,1.79 0.09,3.58 0,5.37 -0.24,4.65 -2.85,7.71 -6.91,9.39 -4.69,1.95 -9.68,2.27 -14.7,1.51 -6.24,-0.95 -10.28,-4.27 -12.05,-10.54 -1.94,-6.86 -3.43,-13.79 -4.45,-20.83 -0.7,-4.82 -1.51,-9.62 -2.02,-14.47 -0.03,-0.31 -0.12,-0.62 -0.21,-1.04 -9.52,1.09 -18.92,1.75 -28.37,1.38 -4.35,-0.18 -8.66,-0.78 -12.9,-1.88 -4.01,-1.04 -6.46,-3.54 -7.65,-7.46 -0.74,-2.41 -1.09,-4.84 -1.03,-7.33 0.25,-10.48 1.51,-20.86 3.34,-31.18 0.89,-5 1.88,-9.97 3.49,-14.79 0.78,-2.33 1.74,-4.54 2.93,-6.67 1.74,-3.1 4.37,-4.98 7.75,-5.99 5.24,-1.57 10.49,-3.12 16.01,-3.34 1.94,-0.08 3.83,0.33 5.62,1.03 1.84,0.74 2.74,2.36 3.28,4.18 0.76,2.56 0.23,5.09 -0.27,7.59 -1.26,6.34 -2.6,12.67 -3.44,19.09 -0.59,4.47 -0.97,8.96 -0.84,13.56 1.07,0.5 2.24,0.58 3.36,0.71 3.46,0.39 6.92,0.73 10.39,0.21 2.01,-0.31 2.49,-0.76 2.51,-2.81 0.03,-6.04 0.41,-12.06 0.93,-18.06 0.56,-6.53 1.54,-13 2.61,-19.46 0.77,-4.72 3.48,-7.21 7.95,-8.24 3.65,-0.84 7.3,-0.75 10.96,-0.3 2.02,0.25 4.02,0.64 6.04,0.89 2.63,0.31 4.78,1.51 6.55,3.41 1.7,1.82 2.22,4.15 2.3,6.52 0.14,3.83 -0.04,7.68 0.15,11.51 0.47,9.94 0.03,19.89 0.13,29.84 z m -5.27,-28.79 c 0.02,-5.15 -0.18,-10.31 -0.7,-15.44 -0.27,-2.66 -0.77,-3.19 -3.38,-3.7 -3.06,-0.6 -6.12,-1.16 -9.24,-1.37 -3.21,-0.21 -6.39,-0.13 -9.45,1.06 -1.5,0.59 -2.41,1.58 -2.7,3.22 -1.64,9.13 -2.63,18.34 -3.28,27.59 -0.28,3.99 -0.34,7.99 -0.94,11.95 -0.45,2.89 -1.33,3.88 -4.21,4.46 -5.88,1.2 -11.68,0.75 -17.38,-1.05 -1.39,-0.43 -2.21,-1.54 -2.65,-2.9 -0.39,-1.23 -0.36,-2.52 -0.32,-3.8 0.15,-4.35 0.42,-8.7 1.04,-13.01 1.01,-7.13 2.31,-14.19 4.5,-21.06 0.15,-0.46 0.23,-0.94 0.27,-1.41 0.07,-1.07 -0.32,-1.71 -1.5,-1.88 -1.89,-0.26 -3.76,-0.11 -5.62,0.16 -4.56,0.67 -8.92,2.11 -13.3,3.52 -2.39,0.77 -3.96,2.24 -5.15,4.34 -2.31,4.1 -3.46,8.58 -4.39,13.12 -1.91,9.28 -3.3,18.64 -4,28.09 -0.28,3.87 -0.61,7.73 -0.42,11.62 0.2,4.27 2.1,6.87 7.24,7.81 2.55,0.47 5.16,0.71 7.75,0.73 10.95,0.11 21.9,0.29 32.82,-0.58 1.03,-0.09 1.58,0.32 1.66,1.38 0.07,0.79 0.2,1.58 0.31,2.37 1.26,9.38 2.29,18.8 4.3,28.06 0.76,3.51 1.67,6.99 2.8,10.4 0.77,2.35 2.2,3.57 4.77,3.78 4.35,0.34 8.63,0.09 12.87,-0.83 4.22,-0.91 5.71,-2.48 6.15,-6.77 0.8,-7.63 1.45,-15.3 1.35,-22.97 -0.14,-10.87 -0.21,-21.74 0.48,-32.35 0.11,-11.68 0.26,-23.11 0.32,-34.54 z"
   id="path144" />
&#10;				<path
   style="fill:#f17084"
   d="m 117.72,197.39 c 0.52,5.13 0.72,10.29 0.7,15.44 -0.06,11.43 -0.21,22.86 -0.32,34.54 -0.69,10.61 -0.62,21.48 -0.48,32.35 0.1,7.67 -0.55,15.34 -1.35,22.97 -0.44,4.29 -1.93,5.86 -6.15,6.77 -4.24,0.92 -8.52,1.17 -12.87,0.83 -2.57,-0.21 -4,-1.43 -4.77,-3.78 -1.13,-3.41 -2.04,-6.89 -2.8,-10.4 -2.01,-9.26 -3.04,-18.68 -4.3,-28.06 -0.11,-0.79 -0.24,-1.58 -0.31,-2.37 -0.08,-1.06 -0.63,-1.47 -1.66,-1.38 -10.92,0.87 -21.87,0.69 -32.82,0.58 -2.59,-0.02 -5.2,-0.26 -7.75,-0.73 -5.14,-0.94 -7.04,-3.54 -7.24,-7.81 -0.19,-3.89 0.14,-7.75 0.42,-11.62 0.7,-9.45 2.09,-18.81 4,-28.09 0.93,-4.54 2.08,-9.02 4.39,-13.12 1.19,-2.1 2.76,-3.57 5.15,-4.34 4.38,-1.41 8.74,-2.85 13.3,-3.52 1.86,-0.27 3.73,-0.42 5.62,-0.16 1.18,0.17 1.57,0.81 1.5,1.88 -0.04,0.47 -0.12,0.95 -0.27,1.41 -2.19,6.87 -3.49,13.93 -4.5,21.06 -0.62,4.31 -0.89,8.66 -1.04,13.01 -0.04,1.28 -0.07,2.57 0.32,3.8 0.44,1.36 1.26,2.47 2.65,2.9 5.7,1.8 11.5,2.25 17.38,1.05 2.88,-0.58 3.76,-1.57 4.21,-4.46 0.6,-3.96 0.66,-7.96 0.94,-11.95 0.65,-9.25 1.64,-18.46 3.28,-27.59 0.29,-1.64 1.2,-2.63 2.7,-3.22 3.06,-1.19 6.24,-1.27 9.45,-1.06 3.12,0.21 6.18,0.77 9.24,1.37 2.61,0.51 3.11,1.04 3.38,3.7 z"
   id="path145" />
&#10;				<path
   style="fill:#fff4db"
   d="m 46.527,212.035 c 0.297,0.635 0.16,1.234 0.143,1.811 -0.172,5.672 -0.94,11.29 -1.514,16.927 -0.368,3.611 -0.338,7.26 -1.041,10.839 -0.161,0.823 -0.297,1.651 -0.667,2.413 -0.316,0.651 -0.789,1.131 -1.551,1.14 -0.758,0.009 -1.256,-0.454 -1.598,-1.085 -0.347,-0.64 -0.509,-1.338 -0.589,-2.058 -0.193,-1.758 -0.201,-3.533 0.143,-5.252 1.276,-6.372 2.297,-12.799 3.988,-19.084 0.435,-1.616 0.934,-3.218 1.701,-4.715 0.187,-0.362 0.298,-0.845 0.985,-0.936 z"
   id="path146" />
&#10;				<path
   style="fill:#fff4db"
   d="m 97.1,299.615 c -0.978,0.072 -0.996,-0.6 -1.163,-1.019 -1.903,-4.799 -3.25,-9.764 -4.347,-14.8 -0.323,-1.482 -0.59,-2.977 -0.86,-4.47 -0.136,-0.751 -0.153,-1.505 0.069,-2.255 0.237,-0.8 0.699,-1.344 1.554,-1.458 0.846,-0.114 1.472,0.26 1.917,0.958 0.369,0.58 0.563,1.231 0.717,1.895 1.335,5.736 2.209,11.533 2.281,17.432 0.015,1.228 -0.107,2.458 -0.168,3.717 z"
   id="path147" />
&#10;				<path
   style="fill:#fff4db"
   d="m 95.042,211.76 c -0.44,-3.186 -0.417,-6.192 -0.211,-9.2 0.065,-0.952 0.151,-1.911 0.346,-2.842 0.21,-1.001 0.85,-1.659 1.952,-1.515 1.034,0.135 1.571,0.898 1.493,1.857 -0.32,3.962 -1.489,7.714 -3.017,11.362 -0.044,0.107 -0.241,0.151 -0.563,0.338 z"
   id="path148" />
&#10;				<path
   style="fill:#fff4db"
   d="m 49.445,203.258 c 0.597,1.422 0.455,2.775 10e-4,4.122 -0.238,0.704 -0.699,1.198 -1.498,1.072 -0.884,-0.139 -1.081,-0.814 -1.062,-1.601 0.041,-1.719 1.188,-3.392 2.559,-3.593 z"
   id="path149" />
&#10;			</g>
&#10;		</g>
&#10;	</g>
  </g>
</svg>
