<?xml version="1.0" encoding="UTF-8" standalone="no"?>
<!-- Created with Inkscape (http://www.inkscape.org/) -->

<svg
   width="22.393986mm"
   height="34.480713mm"
   viewBox="0 0 22.393986 34.480713"
   version="1.1"
   id="svg1"
   xmlns="http://www.w3.org/2000/svg"
   xmlns:svg="http://www.w3.org/2000/svg">
  <defs
     id="defs1" />
  <g
     id="layer1"
     transform="translate(-65.881242,-65.352079)">
    <g
       id="g95"
       transform="matrix(0.26458333,0,0,0.26458333,-33.303811,19.626273)">&#10;		<g
   style="opacity:0.1"
   id="g88">&#10;			<path
   style="fill:#1c0d3f"
   d="m 452.77,184.17 c 0.24,3.17 -0.46,6.21 -1.25,9.22 -2.82,10.79 -6.75,21.21 -10.75,31.6 -3.01,7.82 -5.88,15.7 -8.85,23.53 -4.73,12.47 -9.2,25.04 -14.87,37.12 -1.4,2.96 -3,5.81 -4.9,8.5 -2.35,3.34 -5.47,4.75 -9.51,4.22 -5.02,-0.66 -9.88,-1.87 -14.49,-4.01 -1.73,-0.79 -2.91,-1.99 -3.45,-3.88 -0.29,-1.05 -0.22,-2.03 -0.01,-3.01 0.04,-0.18 0.08,-0.36 0.12,-0.53 1.52,-6.13 3.69,-12.06 5.8,-18.01 5.71,-16.09 12.43,-31.76 19.08,-47.47 1.4,-3.3 3.02,-6.53 3.79,-10.07 0.1,-0.43 0.15,-0.87 0.15,-1.31 0,-1.42 -0.5,-1.8 -1.9,-1.7 -8.56,0.6 -17.07,1.9 -25.69,1.75 -0.24,-0.01 -0.48,-0.02 -0.72,-0.02 -3.08,-0.01 -5.05,-1.34 -5.9,-4.47 -1.55,-5.75 -2.42,-11.57 -1.7,-17.51 0.05,-0.4 0.12,-0.79 0.21,-1.16 0.66,-2.55 2.45,-4.14 5.41,-4.81 5.46,-1.22 10.99,-1.5 16.53,-1.86 7.69,-0.5 15.39,-0.93 23.1,-1.25 7.68,-0.32 15.33,0.1 22.98,0.79 1.43,0.13 2.82,0.45 4.21,0.88 1.76,0.56 2.47,1.75 2.61,3.46 z"
   id="path84" />
&#10;			<path
   style="fill:#1c0d3f"
   d="m 457.29,187 c -0.68,-5.04 -3.85,-8.55 -8.8,-9.5 -7.84,-1.51 -15.79,-1.83 -23.75,-1.62 -8.59,0.22 -17.16,0.95 -25.73,1.46 -5.5,0.33 -11,0.83 -16.35,2.31 -3.7,1.02 -6.08,3.3 -7.04,6.72 -0.12,0.44 -0.22,0.89 -0.3,1.37 -0.71,4.44 -0.46,8.93 -0.04,13.39 0.34,3.67 1.56,7.09 3.26,10.33 1.49,2.87 3.75,4.67 7.07,5.09 3.42,0.45 6.84,0.62 10.28,0.39 4.3,-0.29 8.6,-0.52 13.03,-1.24 -0.19,0.52 -0.31,0.88 -0.46,1.23 -1.19,2.71 -2.4,5.4 -3.58,8.11 -4.16,9.6 -8.16,19.26 -11.74,29.09 -3.95,10.85 -8.35,21.54 -10.66,32.91 -0.14,0.7 -0.28,1.39 -0.4,2.09 -0.58,3.25 0.13,8.03 4.27,9.66 5.96,2.35 12.07,3.98 18.46,4.3 1.92,0.09 3.92,0.19 5.72,-0.85 2.94,-1.7 5.28,-4.02 6.92,-6.97 4.72,-8.44 8.89,-17.16 12.53,-26.13 5.54,-13.68 10.25,-27.69 16.18,-41.23 3.78,-8.63 6.91,-17.54 9.54,-26.6 1.35,-4.65 2.25,-9.41 1.59,-14.31 z m -5.77,6.39 c -2.82,10.79 -6.75,21.21 -10.75,31.6 -3.01,7.82 -5.88,15.7 -8.85,23.53 -4.73,12.47 -9.2,25.04 -14.87,37.12 -1.4,2.96 -3,5.81 -4.9,8.5 -2.35,3.34 -5.47,4.75 -9.51,4.22 -5.02,-0.66 -9.88,-1.87 -14.49,-4.01 -1.73,-0.79 -2.91,-1.99 -3.45,-3.88 -0.29,-1.05 -0.22,-2.03 -0.01,-3.01 0.04,-0.18 0.08,-0.36 0.12,-0.53 1.52,-6.13 3.69,-12.06 5.8,-18.01 5.71,-16.09 12.43,-31.76 19.08,-47.47 1.4,-3.3 3.02,-6.53 3.79,-10.07 0.1,-0.43 0.15,-0.87 0.15,-1.31 0,-1.42 -0.5,-1.8 -1.9,-1.7 -8.56,0.6 -17.07,1.9 -25.69,1.75 -0.24,-0.01 -0.48,-0.02 -0.72,-0.02 -3.08,-0.01 -5.05,-1.34 -5.9,-4.47 -1.55,-5.75 -2.42,-11.57 -1.7,-17.51 0.05,-0.4 0.12,-0.79 0.21,-1.16 0.66,-2.55 2.45,-4.14 5.41,-4.81 5.46,-1.22 10.99,-1.5 16.53,-1.86 7.69,-0.5 15.39,-0.93 23.1,-1.25 7.68,-0.32 15.33,0.1 22.98,0.79 1.43,0.13 2.82,0.45 4.21,0.88 1.76,0.56 2.47,1.75 2.61,3.46 0.24,3.17 -0.46,6.21 -1.25,9.22 z"
   id="path85" />
&#10;			<path
   style="fill:#1c0d3f"
   d="m 419.325,264.332 c 0.265,1.082 -0.079,2.035 -0.291,2.99 -0.674,3.042 -1.69,5.979 -2.812,8.879 -1.222,3.16 -2.486,6.304 -3.718,9.46 -0.775,1.987 -1.798,3.826 -3.188,5.448 -0.684,0.799 -1.51,1.448 -2.596,0.893 -1.099,-0.562 -1.023,-1.603 -0.74,-2.624 0.374,-1.348 0.782,-2.697 1.508,-3.895 2.733,-4.513 4.836,-9.347 7.239,-14.027 1.111,-2.164 2.258,-4.31 3.654,-6.309 0.219,-0.315 0.357,-0.717 0.944,-0.815 z"
   id="path86" />
&#10;			<path
   style="fill:#1c0d3f"
   d="m 406.978,184.105 c -1.292,0.944 -2.457,1.217 -3.588,1.551 -3.915,1.157 -7.982,1.564 -11.958,2.414 -2.282,0.488 -4.565,0.749 -6.889,0.726 -0.837,-0.008 -1.678,-0.104 -1.894,-1.083 -0.228,-1.034 0.52,-1.536 1.328,-1.859 1.895,-0.758 3.832,-1.35 5.898,-1.456 3.389,-0.173 6.751,-0.739 10.151,-0.757 1.716,-0.009 3.434,0.039 5.149,0.105 0.493,0.018 0.981,0.189 1.803,0.359 z"
   id="path87" />
&#10;			<path
   style="fill:#1c0d3f"
   d="m 417.04,183.916 c -0.809,1.482 -2.93,2.227 -4.339,1.567 -0.622,-0.292 -1.03,-0.759 -0.973,-1.489 0.056,-0.717 0.517,-1.142 1.15,-1.383 1.441,-0.551 3.15,-0.023 4.162,1.305 z"
   id="path88" />
&#10;		</g>
&#10;		<g
   id="g94">&#10;			<g
   id="g93">&#10;				<path
   style="fill:#ec184b"
   d="m 454.77,181.17 c 0.24,3.17 -0.46,6.21 -1.25,9.22 -2.82,10.79 -6.75,21.21 -10.75,31.6 -3.01,7.82 -5.88,15.7 -8.85,23.53 -4.73,12.47 -9.2,25.04 -14.87,37.12 -1.4,2.96 -3,5.81 -4.9,8.5 -2.35,3.34 -5.47,4.75 -9.51,4.22 -5.02,-0.66 -9.88,-1.87 -14.49,-4.01 -1.73,-0.79 -2.91,-1.99 -3.45,-3.88 -0.29,-1.05 -0.22,-2.03 -0.01,-3.01 0.04,-0.18 0.08,-0.36 0.12,-0.53 1.52,-6.13 3.69,-12.06 5.8,-18.01 5.71,-16.09 12.43,-31.76 19.08,-47.47 1.4,-3.3 3.02,-6.53 3.79,-10.07 0.1,-0.43 0.15,-0.87 0.15,-1.31 0,-1.42 -0.5,-1.8 -1.9,-1.7 -8.56,0.6 -17.07,1.9 -25.69,1.75 -0.24,-0.01 -0.48,-0.02 -0.72,-0.02 -3.08,-0.01 -5.05,-1.34 -5.9,-4.47 -1.55,-5.75 -2.42,-11.57 -1.7,-17.51 0.05,-0.4 0.12,-0.79 0.21,-1.16 0.66,-2.55 2.45,-4.14 5.41,-4.81 5.46,-1.22 10.99,-1.5 16.53,-1.86 7.69,-0.5 15.39,-0.93 23.1,-1.25 7.68,-0.32 15.33,0.1 22.98,0.79 1.43,0.13 2.82,0.45 4.21,0.88 1.76,0.56 2.47,1.75 2.61,3.46 z"
   id="path89" />
&#10;				<path
   style="fill:#231333"
   d="m 459.29,184 c -0.68,-5.04 -3.85,-8.55 -8.8,-9.5 -7.84,-1.51 -15.79,-1.83 -23.75,-1.62 -8.59,0.22 -17.16,0.95 -25.73,1.46 -5.5,0.33 -11,0.83 -16.35,2.31 -3.7,1.02 -6.08,3.3 -7.04,6.72 -0.12,0.44 -0.22,0.89 -0.3,1.37 -0.71,4.44 -0.46,8.93 -0.04,13.39 0.34,3.67 1.56,7.09 3.26,10.33 1.49,2.87 3.75,4.67 7.07,5.09 3.42,0.45 6.84,0.62 10.28,0.39 4.3,-0.29 8.6,-0.52 13.03,-1.24 -0.19,0.52 -0.31,0.88 -0.46,1.23 -1.19,2.71 -2.4,5.4 -3.58,8.11 -4.16,9.6 -8.16,19.26 -11.74,29.09 -3.95,10.85 -8.35,21.54 -10.66,32.91 -0.14,0.7 -0.28,1.39 -0.4,2.09 -0.58,3.25 0.13,8.03 4.27,9.66 5.96,2.35 12.07,3.98 18.46,4.3 1.92,0.09 3.92,0.19 5.72,-0.85 2.94,-1.7 5.28,-4.02 6.92,-6.97 4.72,-8.44 8.89,-17.16 12.53,-26.13 5.54,-13.68 10.25,-27.69 16.18,-41.23 3.78,-8.63 6.91,-17.54 9.54,-26.6 1.35,-4.65 2.25,-9.41 1.59,-14.31 z m -5.77,6.39 c -2.82,10.79 -6.75,21.21 -10.75,31.6 -3.01,7.82 -5.88,15.7 -8.85,23.53 -4.73,12.47 -9.2,25.04 -14.87,37.12 -1.4,2.96 -3,5.81 -4.9,8.5 -2.35,3.34 -5.47,4.75 -9.51,4.22 -5.02,-0.66 -9.88,-1.87 -14.49,-4.01 -1.73,-0.79 -2.91,-1.99 -3.45,-3.88 -0.29,-1.05 -0.22,-2.03 -0.01,-3.01 0.04,-0.18 0.08,-0.36 0.12,-0.53 1.52,-6.13 3.69,-12.06 5.8,-18.01 5.71,-16.09 12.43,-31.76 19.08,-47.47 1.4,-3.3 3.02,-6.53 3.79,-10.07 0.1,-0.43 0.15,-0.87 0.15,-1.31 0,-1.42 -0.5,-1.8 -1.9,-1.7 -8.56,0.6 -17.07,1.9 -25.69,1.75 -0.24,-0.01 -0.48,-0.02 -0.72,-0.02 -3.08,-0.01 -5.05,-1.34 -5.9,-4.47 -1.55,-5.75 -2.42,-11.57 -1.7,-17.51 0.05,-0.4 0.12,-0.79 0.21,-1.16 0.66,-2.55 2.45,-4.14 5.41,-4.81 5.46,-1.22 10.99,-1.5 16.53,-1.86 7.69,-0.5 15.39,-0.93 23.1,-1.25 7.68,-0.32 15.33,0.1 22.98,0.79 1.43,0.13 2.82,0.45 4.21,0.88 1.76,0.56 2.47,1.75 2.61,3.46 0.24,3.17 -0.46,6.21 -1.25,9.22 z"
   id="path90" />
&#10;				<path
   style="fill:#fff4db"
   d="m 421.325,261.332 c 0.265,1.082 -0.079,2.035 -0.291,2.99 -0.674,3.042 -1.69,5.979 -2.812,8.879 -1.222,3.16 -2.486,6.304 -3.718,9.46 -0.775,1.987 -1.798,3.826 -3.188,5.448 -0.684,0.799 -1.51,1.448 -2.596,0.893 -1.099,-0.562 -1.023,-1.603 -0.74,-2.624 0.374,-1.348 0.782,-2.697 1.508,-3.895 2.733,-4.513 4.836,-9.347 7.239,-14.027 1.111,-2.164 2.258,-4.31 3.654,-6.309 0.219,-0.315 0.357,-0.717 0.944,-0.815 z"
   id="path91" />
&#10;				<path
   style="fill:#fff4db"
   d="m 408.978,181.105 c -1.292,0.944 -2.457,1.217 -3.588,1.551 -3.915,1.157 -7.982,1.564 -11.958,2.414 -2.282,0.488 -4.565,0.749 -6.889,0.726 -0.837,-0.008 -1.678,-0.104 -1.894,-1.083 -0.228,-1.034 0.52,-1.536 1.328,-1.859 1.895,-0.758 3.832,-1.35 5.898,-1.456 3.389,-0.173 6.751,-0.739 10.151,-0.757 1.716,-0.009 3.434,0.039 5.149,0.105 0.493,0.018 0.981,0.189 1.803,0.359 z"
   id="path92" />
&#10;				<path
   style="fill:#fff4db"
   d="m 419.04,180.916 c -0.809,1.482 -2.93,2.227 -4.339,1.567 -0.622,-0.292 -1.03,-0.759 -0.973,-1.489 0.056,-0.717 0.517,-1.142 1.15,-1.383 1.441,-0.551 3.15,-0.023 4.162,1.305 z"
   id="path93" />
&#10;			</g>
&#10;		</g>
&#10;	</g>
  </g>
</svg>
