<?xml version="1.0" encoding="UTF-8" standalone="no"?>
<!-- Created with Inkscape (http://www.inkscape.org/) -->

<svg
   width="22.176729mm"
   height="34.414978mm"
   viewBox="0 0 22.176729 34.414978"
   version="1.1"
   id="svg1"
   xmlns="http://www.w3.org/2000/svg"
   xmlns:svg="http://www.w3.org/2000/svg">
  <defs
     id="defs1" />
  <g
     id="layer1"
     transform="translate(-39.718347,-24.887849)">
    <g
       id="g62"
       transform="matrix(0.26458333,0,0,0.26458333,-58.406597,16.226026)">&#10;		<g
   style="opacity:0.1"
   id="g54">&#10;			<path
   style="fill:#1c0d3f"
   d="m 444.242,116.358 c 2.404,8.913 0.619,17.093 -4.869,24.551 -6.437,8.727 -15.412,12.843 -25.769,14.535 -6.932,1.145 -13.802,0.66 -20.57,-1.186 -5.199,-1.413 -9.903,-3.838 -14.071,-7.262 -2.352,-1.939 -4.075,-4.312 -4.188,-7.531 -0.072,-1.795 0.939,-3.229 1.743,-4.694 2.115,-3.827 4.487,-7.479 7.665,-10.563 1.465,-1.434 2.806,-1.981 4.818,-1.124 2.238,0.939 4.209,2.435 6.571,3.115 5.385,1.537 10.759,1.96 16.144,0.475 0.413,-0.113 0.836,-0.247 1.248,-0.382 4.425,-1.465 7.19,-5.323 6.891,-9.594 -0.34,-4.931 -3.972,-9.15 -8.521,-9.934 -2.331,-0.402 -4.683,-0.248 -7.025,-0.31 -1.651,-0.031 -3.332,-0.041 -4.663,-1.258 -0.691,-0.629 -1.155,-1.403 -1.393,-2.28 -0.031,-0.124 -0.062,-0.248 -0.082,-0.382 -0.619,-3.414 -0.598,-6.798 0.371,-10.161 0.567,-1.991 1.712,-3.249 3.858,-3.672 2.847,-0.557 5.725,-0.681 8.583,-1.011 2.703,-0.299 5.168,-1.197 7.293,-2.827 3.806,-2.919 4.518,-5.725 3.497,-11.131 -1.857,-9.872 -12.492,-12.389 -19.095,-10.244 -3.126,1.011 -5.973,2.558 -8.768,4.24 -1.805,1.083 -3.59,2.207 -5.746,2.486 -1.547,0.196 -2.796,-0.289 -3.59,-1.63 -2.373,-4.003 -3.807,-8.315 -4.003,-12.977 -0.124,-2.857 1.073,-5.075 3.394,-6.747 4.735,-3.425 10.079,-5.55 15.515,-7.53 3.93,-1.424 7.892,-2.383 12.1,-1.939 9.14,0.949 17.609,3.652 24.448,10.11 3.569,3.373 6.035,7.572 7.995,12.08 3.497,8.057 2.775,16.113 -0.072,24.108 -1.909,5.333 -5.075,9.779 -9.975,12.843 -0.237,0.144 -0.433,0.361 -0.567,0.475 4.674,5.25 8.996,10.584 10.833,17.351 z"
   id="path49" />
&#10;			<path
   style="fill:#1c0d3f"
   d="m 444.654,95.592 c 2.713,-3.683 4.818,-7.675 6.2,-12.039 3.559,-11.193 1.97,-21.632 -5.158,-30.978 -5.251,-6.87 -12.379,-11.244 -20.477,-14.122 -7.376,-2.61 -14.896,-3.456 -22.622,-2.022 -5.395,1.001 -10.141,3.59 -14.937,6.066 -2.672,1.382 -5.003,3.146 -7.087,5.302 -2.373,2.445 -4.157,5.251 -3.91,8.768 0.371,5.313 1.981,10.254 5.313,14.514 2.28,2.93 5.086,4.683 9.006,3.734 1.486,-0.361 2.899,-0.908 4.271,-1.599 2.765,-1.382 5.364,-3.115 8.366,-3.961 3.858,-1.083 7.603,-0.887 10.976,1.537 1.434,1.032 2.259,2.589 3.157,4.075 1.785,2.919 1.228,5.694 -1.537,7.654 -1.032,0.732 -2.187,1.135 -3.384,1.475 -3.043,0.867 -6.21,0.691 -9.305,1.238 -4.879,0.846 -7.623,3.446 -8.418,8.345 -0.557,3.342 -0.289,6.633 0.371,9.893 0.175,0.867 0.382,1.723 0.598,2.579 0.557,2.104 1.888,3.394 3.982,3.992 2.032,0.578 4.116,0.784 6.22,0.908 5.117,0.32 8.397,3.218 8.944,7.892 0.309,2.589 -0.464,3.879 -2.868,4.756 -0.433,0.165 -0.877,0.309 -1.331,0.423 -0.155,0.031 -0.299,0.062 -0.454,0.093 -4.116,0.743 -8.201,0.402 -12.276,-0.382 -3.095,-0.598 -5.767,-2.146 -8.48,-3.631 -1.021,-0.557 -2.063,-1.001 -3.27,-0.99 -2.404,0.031 -4.302,1.186 -5.818,2.868 -3.858,4.281 -7.004,9.006 -9.037,14.483 -2.383,6.406 0.598,14.122 6.499,17.372 1.847,1.011 3.724,1.929 5.643,2.796 6.747,3.023 13.844,4.9 21.127,5.88 6.943,0.939 13.71,-0.433 20.271,-2.734 4.343,-1.527 8.346,-3.693 11.822,-6.777 2.93,-2.589 5.189,-5.715 7.365,-8.933 4.725,-7.025 6.004,-14.906 5.21,-23.045 -0.774,-7.85 -3.693,-14.927 -9.872,-20.415 1.795,-1.528 3.508,-3.117 4.9,-5.015 z m -0.412,20.766 c 2.404,8.913 0.619,17.093 -4.869,24.551 -6.437,8.727 -15.412,12.843 -25.769,14.535 -6.932,1.145 -13.802,0.66 -20.57,-1.186 -5.199,-1.413 -9.903,-3.838 -14.071,-7.262 -2.352,-1.939 -4.075,-4.312 -4.188,-7.53 -0.072,-1.795 0.939,-3.229 1.743,-4.694 2.115,-3.827 4.487,-7.479 7.665,-10.563 1.465,-1.434 2.806,-1.981 4.818,-1.124 2.238,0.939 4.209,2.434 6.571,3.115 5.385,1.537 10.759,1.96 16.144,0.475 0.413,-0.114 0.836,-0.248 1.248,-0.382 4.425,-1.465 7.19,-5.323 6.891,-9.594 -0.34,-4.931 -3.972,-9.15 -8.521,-9.934 -2.331,-0.402 -4.683,-0.248 -7.025,-0.31 -1.65,-0.031 -3.332,-0.041 -4.663,-1.258 -0.691,-0.629 -1.155,-1.403 -1.393,-2.28 -0.031,-0.124 -0.062,-0.248 -0.082,-0.382 -0.619,-3.414 -0.598,-6.798 0.371,-10.161 0.567,-1.991 1.712,-3.249 3.858,-3.672 2.847,-0.557 5.725,-0.681 8.583,-1.011 2.703,-0.299 5.168,-1.197 7.293,-2.826 3.807,-2.919 4.518,-5.725 3.497,-11.131 -1.857,-9.872 -12.492,-12.389 -19.094,-10.244 -3.126,1.011 -5.973,2.558 -8.768,4.24 -1.805,1.083 -3.59,2.207 -5.746,2.486 -1.547,0.196 -2.796,-0.289 -3.59,-1.63 -2.373,-4.002 -3.807,-8.315 -4.003,-12.977 -0.124,-2.857 1.073,-5.075 3.394,-6.747 4.735,-3.425 10.079,-5.55 15.515,-7.53 3.93,-1.424 7.892,-2.383 12.1,-1.939 9.14,0.949 17.609,3.652 24.448,10.11 3.569,3.373 6.035,7.572 7.995,12.08 3.497,8.057 2.775,16.113 -0.072,24.108 -1.908,5.333 -5.075,9.779 -9.975,12.843 -0.237,0.144 -0.433,0.361 -0.567,0.475 4.673,5.248 8.995,10.582 10.832,17.349 z"
   id="path50" />
&#10;			<path
   style="fill:#1c0d3f"
   d="m 409.998,132.371 c -0.214,0.799 -0.84,0.891 -1.338,1.106 -1.262,0.542 -2.615,0.765 -3.963,0.878 -3.955,0.33 -7.912,0.255 -11.827,-0.413 -1.753,-0.299 -3.418,-0.971 -4.721,-2.274 -0.715,-0.715 -1.133,-1.578 -0.624,-2.566 0.506,-0.984 1.492,-1.076 2.377,-0.794 5.573,1.775 11.4,2.133 17.106,3.158 1.001,0.178 2.023,0.34 2.99,0.905 z"
   id="path51" />
&#10;			<path
   style="fill:#1c0d3f"
   d="m 403.785,45.775 c -0.223,0.624 -0.726,0.793 -1.126,1.048 -2.255,1.44 -4.616,2.693 -7.004,3.896 -2.244,1.13 -4.441,2.332 -6.431,3.885 -0.32,0.249 -0.69,0.473 -1.073,0.593 -0.651,0.204 -1.306,0.185 -1.84,-0.345 -0.554,-0.549 -0.66,-1.193 -0.437,-1.928 0.226,-0.749 0.686,-1.363 1.317,-1.739 4.688,-2.797 9.585,-5.062 15.105,-5.627 0.465,-0.048 0.972,-0.101 1.489,0.217 z"
   id="path52" />
&#10;			<path
   style="fill:#1c0d3f"
   d="m 415.5,45.384 c -0.036,0.416 -0.146,0.61 -0.401,0.727 -1.797,0.821 -3.677,1.101 -5.623,0.792 -0.754,-0.12 -1.263,-0.618 -1.302,-1.422 -0.041,-0.848 0.403,-1.48 1.213,-1.623 2.278,-0.404 4.312,0.224 6.113,1.526 z"
   id="path53" />
&#10;			<path
   style="fill:#1c0d3f"
   d="m 409.199,93.075 c -0.737,1.417 -4.047,2.837 -5.521,2.368 -1.234,-0.393 -1.607,-1.665 -0.771,-2.63 1.273,-1.469 5.071,-1.311 6.292,0.262 z"
   id="path54" />
&#10;		</g>
&#10;		<g
   id="g61">&#10;			<g
   id="g60">&#10;				<path
   style="fill:#9dcb44"
   d="m 446.242,113.358 c 2.404,8.913 0.619,17.093 -4.869,24.551 -6.437,8.727 -15.412,12.843 -25.769,14.535 -6.932,1.145 -13.802,0.66 -20.57,-1.186 -5.199,-1.413 -9.903,-3.838 -14.071,-7.262 -2.352,-1.939 -4.075,-4.312 -4.188,-7.531 -0.072,-1.795 0.939,-3.229 1.743,-4.694 2.115,-3.827 4.487,-7.479 7.665,-10.563 1.465,-1.434 2.806,-1.981 4.818,-1.124 2.238,0.939 4.209,2.435 6.571,3.115 5.385,1.537 10.759,1.96 16.144,0.475 0.413,-0.113 0.836,-0.247 1.248,-0.382 4.425,-1.465 7.19,-5.323 6.891,-9.594 -0.34,-4.931 -3.972,-9.15 -8.521,-9.934 -2.331,-0.402 -4.683,-0.248 -7.025,-0.31 -1.651,-0.031 -3.332,-0.041 -4.663,-1.258 -0.691,-0.629 -1.155,-1.403 -1.393,-2.28 -0.031,-0.124 -0.062,-0.248 -0.082,-0.382 -0.619,-3.414 -0.598,-6.798 0.371,-10.161 0.567,-1.991 1.712,-3.249 3.858,-3.672 2.847,-0.557 5.725,-0.681 8.583,-1.011 2.703,-0.299 5.168,-1.197 7.293,-2.827 3.806,-2.919 4.518,-5.725 3.497,-11.131 -1.857,-9.872 -12.492,-12.389 -19.095,-10.244 -3.126,1.011 -5.973,2.558 -8.768,4.24 -1.805,1.083 -3.59,2.207 -5.746,2.486 -1.547,0.196 -2.796,-0.289 -3.59,-1.63 -2.373,-4.003 -3.807,-8.315 -4.003,-12.977 -0.124,-2.857 1.073,-5.075 3.394,-6.747 4.735,-3.425 10.079,-5.55 15.515,-7.53 3.93,-1.424 7.892,-2.383 12.1,-1.939 9.14,0.949 17.609,3.652 24.448,10.11 3.569,3.373 6.035,7.572 7.995,12.08 3.497,8.057 2.775,16.113 -0.072,24.108 -1.909,5.333 -5.075,9.779 -9.975,12.843 -0.237,0.144 -0.433,0.361 -0.567,0.475 4.674,5.25 8.996,10.584 10.833,17.351 z"
   id="path55" />
&#10;				<path
   style="fill:#231333"
   d="m 446.654,92.592 c 2.713,-3.683 4.818,-7.675 6.2,-12.039 3.559,-11.193 1.97,-21.632 -5.158,-30.978 -5.251,-6.87 -12.379,-11.244 -20.477,-14.122 -7.376,-2.61 -14.896,-3.456 -22.622,-2.022 -5.395,1.001 -10.141,3.59 -14.937,6.066 -2.672,1.382 -5.003,3.146 -7.087,5.302 -2.373,2.445 -4.157,5.251 -3.91,8.768 0.371,5.313 1.981,10.254 5.313,14.514 2.28,2.93 5.086,4.683 9.006,3.734 1.486,-0.361 2.899,-0.908 4.271,-1.599 2.765,-1.382 5.364,-3.115 8.366,-3.961 3.858,-1.083 7.603,-0.887 10.976,1.537 1.434,1.032 2.259,2.589 3.157,4.075 1.785,2.919 1.228,5.694 -1.537,7.654 -1.032,0.732 -2.187,1.135 -3.384,1.475 -3.043,0.867 -6.21,0.691 -9.305,1.238 -4.879,0.846 -7.623,3.446 -8.418,8.345 -0.557,3.342 -0.289,6.633 0.371,9.893 0.175,0.867 0.382,1.723 0.598,2.579 0.557,2.104 1.888,3.394 3.982,3.992 2.032,0.578 4.116,0.784 6.22,0.908 5.117,0.32 8.397,3.218 8.944,7.892 0.309,2.589 -0.464,3.879 -2.868,4.756 -0.433,0.165 -0.877,0.309 -1.331,0.423 -0.155,0.031 -0.299,0.062 -0.454,0.093 -4.116,0.743 -8.201,0.402 -12.276,-0.382 -3.095,-0.598 -5.767,-2.146 -8.48,-3.631 -1.021,-0.557 -2.063,-1.001 -3.27,-0.99 -2.404,0.031 -4.302,1.186 -5.818,2.868 -3.858,4.281 -7.004,9.006 -9.037,14.483 -2.383,6.406 0.598,14.122 6.499,17.372 1.847,1.011 3.724,1.929 5.643,2.796 6.747,3.023 13.844,4.9 21.127,5.88 6.943,0.939 13.71,-0.433 20.271,-2.734 4.343,-1.527 8.346,-3.693 11.822,-6.777 2.93,-2.589 5.189,-5.715 7.365,-8.933 4.725,-7.025 6.004,-14.906 5.21,-23.045 -0.774,-7.85 -3.693,-14.927 -9.872,-20.415 1.795,-1.528 3.508,-3.117 4.9,-5.015 z m -0.412,20.766 c 2.404,8.913 0.619,17.093 -4.869,24.551 -6.437,8.727 -15.412,12.843 -25.769,14.535 -6.932,1.145 -13.802,0.66 -20.57,-1.186 -5.199,-1.413 -9.903,-3.838 -14.071,-7.262 -2.352,-1.939 -4.075,-4.312 -4.188,-7.53 -0.072,-1.795 0.939,-3.229 1.743,-4.694 2.115,-3.827 4.487,-7.479 7.665,-10.563 1.465,-1.434 2.806,-1.981 4.818,-1.124 2.238,0.939 4.209,2.434 6.571,3.115 5.385,1.537 10.759,1.96 16.144,0.475 0.413,-0.114 0.836,-0.248 1.248,-0.382 4.425,-1.465 7.19,-5.323 6.891,-9.594 -0.34,-4.931 -3.972,-9.15 -8.521,-9.934 -2.331,-0.402 -4.683,-0.248 -7.025,-0.31 -1.65,-0.031 -3.332,-0.041 -4.663,-1.258 -0.691,-0.629 -1.155,-1.403 -1.393,-2.28 -0.031,-0.124 -0.062,-0.248 -0.082,-0.382 -0.619,-3.414 -0.598,-6.798 0.371,-10.161 0.567,-1.991 1.712,-3.249 3.858,-3.672 2.847,-0.557 5.725,-0.681 8.583,-1.011 2.703,-0.299 5.168,-1.197 7.293,-2.826 3.807,-2.919 4.518,-5.725 3.497,-11.131 -1.857,-9.872 -12.492,-12.389 -19.094,-10.244 -3.126,1.011 -5.973,2.558 -8.768,4.24 -1.805,1.083 -3.59,2.207 -5.746,2.486 -1.547,0.196 -2.796,-0.289 -3.59,-1.63 -2.373,-4.002 -3.807,-8.315 -4.003,-12.977 -0.124,-2.857 1.073,-5.075 3.394,-6.747 4.735,-3.425 10.079,-5.55 15.515,-7.53 3.93,-1.424 7.892,-2.383 12.1,-1.939 9.14,0.949 17.609,3.652 24.448,10.11 3.569,3.373 6.035,7.572 7.995,12.08 3.497,8.057 2.775,16.113 -0.072,24.108 -1.908,5.333 -5.075,9.779 -9.975,12.843 -0.237,0.144 -0.433,0.361 -0.567,0.475 4.673,5.248 8.995,10.582 10.832,17.349 z"
   id="path56" />
&#10;				<path
   style="fill:#fff4db"
   d="m 411.998,129.371 c -0.214,0.799 -0.84,0.891 -1.338,1.106 -1.262,0.542 -2.615,0.765 -3.963,0.878 -3.955,0.33 -7.912,0.255 -11.827,-0.413 -1.753,-0.299 -3.418,-0.971 -4.721,-2.274 -0.715,-0.715 -1.133,-1.578 -0.624,-2.566 0.506,-0.984 1.492,-1.076 2.377,-0.794 5.573,1.775 11.4,2.133 17.106,3.158 1.001,0.178 2.023,0.34 2.99,0.905 z"
   id="path57" />
&#10;				<path
   style="fill:#fff4db"
   d="m 405.785,42.775 c -0.223,0.624 -0.726,0.793 -1.126,1.048 -2.255,1.44 -4.616,2.693 -7.004,3.896 -2.244,1.13 -4.441,2.332 -6.431,3.885 -0.32,0.249 -0.69,0.473 -1.073,0.593 -0.651,0.204 -1.306,0.185 -1.84,-0.345 -0.554,-0.549 -0.66,-1.193 -0.437,-1.928 0.226,-0.749 0.686,-1.363 1.317,-1.739 4.688,-2.797 9.585,-5.062 15.105,-5.627 0.465,-0.048 0.972,-0.101 1.489,0.217 z"
   id="path58" />
&#10;				<path
   style="fill:#fff4db"
   d="m 417.5,42.384 c -0.036,0.416 -0.146,0.61 -0.401,0.727 -1.797,0.821 -3.677,1.101 -5.623,0.792 -0.754,-0.12 -1.263,-0.618 -1.302,-1.422 -0.041,-0.848 0.403,-1.48 1.213,-1.623 2.278,-0.404 4.312,0.224 6.113,1.526 z"
   id="path59" />
&#10;				<path
   style="fill:#fff4db"
   d="m 411.199,90.075 c -0.737,1.417 -4.047,2.837 -5.521,2.368 -1.234,-0.393 -1.607,-1.665 -0.771,-2.63 1.273,-1.469 5.071,-1.311 6.292,0.262 z"
   id="path60" />
&#10;			</g>
&#10;		</g>
&#10;	</g>
  </g>
</svg>
