<?xml version="1.0" encoding="UTF-8" standalone="no"?>
<!-- Created with Inkscape (http://www.inkscape.org/) -->

<svg
   width="25.28866mm"
   height="33.678192mm"
   viewBox="0 0 25.28866 33.678192"
   version="1.1"
   id="svg1"
   xmlns="http://www.w3.org/2000/svg"
   xmlns:svg="http://www.w3.org/2000/svg">
  <defs
     id="defs1" />
  <g
     id="layer1"
     transform="translate(-68.527086,-139.17083)">
    <g
       id="g125"
       transform="matrix(0.26458333,0,0,0.26458333,0.51680233,92.655387)">&#10;		<g
   style="opacity:0.1"
   id="g116">&#10;			<path
   style="fill:#1c0d3f"
   d="m 345.742,255.351 c 0.143,7.378 -1.454,14.258 -5.359,20.554 -3.914,6.315 -9.33,11.071 -15.607,14.918 -6.65,4.076 -13.875,6.134 -25.473,6.239 -5.512,-0.038 -14.392,-1.636 -22.152,-7.225 -5.215,-3.751 -8.861,-8.794 -11.923,-14.344 -3.875,-7.005 -5.177,-14.669 -5.751,-22.478 -0.277,-3.856 -0.249,-7.684 0.077,-11.464 0.545,-6.182 1.914,-12.258 4.086,-18.191 3.655,-9.98 9.464,-18.535 17.511,-25.54 6.239,-5.435 13.224,-9.626 20.927,-12.564 6.66,-2.526 13.511,-4.163 20.717,-3.694 0.947,0.067 1.885,0.249 2.823,0.411 2.258,0.392 3.636,1.809 4.153,3.942 1.254,5.253 1.531,10.593 0.9,15.932 -0.316,2.67 -1.521,3.397 -3.531,3.703 -2.459,0.383 -4.928,0.612 -7.406,0.832 -5.053,0.459 -9.981,1.426 -14.612,3.617 -6.191,2.928 -10.756,7.559 -14.076,13.492 -0.995,1.78 -1.828,3.617 -2.325,5.588 -0.134,0.555 -0.249,1.129 -0.297,1.694 -0.163,1.799 0.392,2.172 2.038,1.359 1.282,-0.632 2.507,-1.416 3.808,-2.019 0.182,-0.086 0.373,-0.172 0.565,-0.249 9.301,-3.789 18.851,-5.435 28.793,-2.832 6.163,1.608 11.014,5.282 15.301,9.866 4.871,5.21 6.679,11.478 6.813,18.453 z m -27.931,2.814 c 0,-0.383 0.01,-0.766 -0.01,-1.148 -0.297,-5.636 -4.813,-9.311 -10.382,-8.449 -7.368,1.129 -12.134,8.067 -10.449,15.33 0.66,2.813 1.847,5.416 4.603,6.794 3.426,1.713 6.842,1.215 9.942,-0.746 4.257,-2.7 6.286,-6.739 6.296,-11.781 z"
   id="path110" />
&#10;			<path
   style="fill:#1c0d3f"
   d="m 348.977,247.84 c -1.531,-5.359 -4.66,-9.866 -8.564,-13.799 -5.923,-5.981 -12.976,-9.713 -21.473,-10.507 -5.732,-0.545 -11.387,-0.277 -16.918,1.388 -2.804,0.852 -5.627,1.675 -8.325,3.263 0.077,-0.66 0.325,-1.033 0.612,-1.368 0.565,-0.679 1.139,-1.34 1.713,-2 4.316,-4.899 9.205,-8.938 15.597,-10.861 3.655,-1.091 7.387,-1.608 11.167,-1.857 2.297,-0.153 4.574,-0.392 6.775,-1.119 1.856,-0.612 3.072,-1.799 3.837,-3.627 2.239,-5.32 2.373,-10.899 2.354,-16.545 -0.029,-6 -4.679,-10.105 -9.33,-11.358 -3.579,-0.966 -7.215,-0.67 -10.832,-0.239 -6.899,0.823 -13.406,2.966 -19.683,5.923 -7.799,3.674 -14.727,8.574 -20.621,14.87 -9.894,10.564 -15.377,23.195 -17.454,37.434 -0.191,1.301 -0.345,2.612 -0.45,3.914 -0.431,4.871 -0.373,9.741 -0.23,14.621 0.115,3.866 0.354,7.732 1.33,11.483 1.282,4.938 3.186,9.646 5.875,14 4.679,7.569 10.65,13.827 18.87,17.53 7.569,3.407 15.569,4.717 23.836,3.847 8.047,-0.852 15.636,-3.186 22.545,-7.512 5.751,-3.617 10.143,-8.66 13.904,-14.133 6.996,-10.182 8.862,-21.425 5.465,-33.348 z m -8.593,28.066 c -3.914,6.315 -9.33,11.071 -15.607,14.918 -6.651,4.076 -13.875,6.134 -25.473,6.239 -5.512,-0.038 -14.392,-1.636 -22.152,-7.225 -5.215,-3.751 -8.861,-8.794 -11.923,-14.344 -3.875,-7.005 -5.177,-14.669 -5.751,-22.478 -0.278,-3.856 -0.249,-7.684 0.077,-11.464 0.546,-6.182 1.914,-12.258 4.086,-18.191 3.655,-9.98 9.464,-18.535 17.511,-25.54 6.239,-5.435 13.224,-9.626 20.927,-12.564 6.66,-2.526 13.511,-4.163 20.717,-3.694 0.947,0.067 1.885,0.249 2.823,0.411 2.258,0.392 3.636,1.809 4.153,3.942 1.254,5.254 1.531,10.593 0.899,15.933 -0.316,2.67 -1.522,3.397 -3.531,3.703 -2.459,0.383 -4.928,0.612 -7.406,0.832 -5.052,0.459 -9.98,1.426 -14.612,3.617 -6.191,2.928 -10.756,7.56 -14.076,13.492 -0.995,1.78 -1.828,3.617 -2.325,5.588 -0.134,0.555 -0.249,1.129 -0.297,1.694 -0.163,1.799 0.392,2.172 2.038,1.359 1.282,-0.632 2.507,-1.416 3.809,-2.019 0.182,-0.086 0.373,-0.172 0.564,-0.249 9.301,-3.789 18.851,-5.435 28.793,-2.832 6.163,1.608 11.014,5.282 15.301,9.866 4.871,5.206 6.679,11.473 6.813,18.449 0.144,7.38 -1.454,14.26 -5.358,20.557 z"
   id="path111" />
&#10;			<path
   style="fill:#1c0d3f"
   d="m 307.419,248.567 c -7.368,1.129 -12.133,8.067 -10.449,15.33 0.66,2.813 1.847,5.416 4.603,6.794 3.426,1.713 6.842,1.215 9.942,-0.746 4.258,-2.698 6.287,-6.737 6.296,-11.779 0,-0.383 0.01,-0.766 -0.01,-1.148 -0.297,-5.638 -4.813,-9.312 -10.382,-8.451 z m 7.655,12.966 c -0.785,2.344 -1.962,4.469 -3.818,6.163 -1.895,1.722 -4.574,2.115 -7.062,0.804 -2.124,-1.11 -2.957,-3.072 -2.995,-5.56 0.383,-2.785 0.698,-5.722 2.689,-8.115 2.507,-3.005 6.019,-3.914 9.224,-2.431 0.737,0.335 1.234,0.823 1.589,1.56 1.177,2.479 1.234,5.014 0.373,7.579 z"
   id="path112" />
&#10;			<path
   style="fill:#1c0d3f"
   d="m 294.577,193.09 c 0.132,0.67 -0.317,0.873 -0.602,1.143 -1.774,1.683 -3.516,3.405 -5.36,5.009 -7.749,6.742 -13.233,15.039 -17.012,24.529 -0.395,0.991 -0.848,1.964 -1.34,2.91 -0.3,0.577 -0.711,1.145 -1.518,0.929 -0.838,-0.224 -0.949,-0.927 -0.95,-1.636 0,-1.077 0.207,-2.128 0.552,-3.148 3.323,-9.824 8.636,-18.257 17.071,-24.532 1.992,-1.482 3.901,-3.081 6.123,-4.222 0.937,-0.48 1.882,-0.982 3.036,-0.982 z"
   id="path113" />
&#10;			<path
   style="fill:#1c0d3f"
   d="m 299.479,291.429 c 2.332,-0.503 4.665,-0.998 6.994,-1.512 2.424,-0.534 4.842,-1.092 7.264,-1.631 4.805,-1.07 8.928,-3.486 12.776,-6.449 0.576,-0.444 1.202,-1.048 1.888,-0.295 0.613,0.674 0.222,1.38 -0.286,1.945 -0.925,1.029 -2.001,1.915 -3.167,2.632 -6.849,4.211 -14.206,6.696 -22.353,6.338 -1.082,-0.048 -2.169,-0.204 -3.148,-0.712 0.012,-0.105 0.022,-0.211 0.032,-0.316 z"
   id="path114" />
&#10;			<path
   style="fill:#1c0d3f"
   d="m 318.254,246.989 c -1.402,-0.065 -2.58,-0.507 -3.78,-0.82 -1.401,-0.365 -2.799,-0.751 -4.181,-1.182 -0.861,-0.268 -1.534,-0.818 -1.428,-1.818 0.109,-1.035 0.906,-1.442 1.832,-1.596 0.331,-0.055 0.695,-0.046 1.021,0.03 2.299,0.534 4.264,1.641 5.753,3.503 0.395,0.494 0.801,1.015 0.783,1.883 z"
   id="path115" />
&#10;			<path
   style="fill:#1c0d3f"
   d="m 304.285,189.129 c -1.028,1.402 -2.311,2.418 -3.942,2.964 -0.543,0.182 -1.063,0.015 -1.411,-0.485 -0.307,-0.44 -0.187,-0.877 0.067,-1.286 0.725,-1.164 3.93,-1.933 5.286,-1.193 z"
   id="path116" />
&#10;		</g>
&#10;		<g
   id="g124">&#10;			<g
   id="g123">&#10;				<path
   style="fill:#1db6ce"
   d="m 347.742,252.351 c 0.143,7.378 -1.454,14.258 -5.359,20.554 -3.914,6.315 -9.33,11.071 -15.607,14.918 -6.65,4.076 -13.875,6.134 -25.473,6.239 -5.512,-0.038 -14.392,-1.636 -22.152,-7.225 -5.215,-3.751 -8.861,-8.794 -11.923,-14.344 -3.875,-7.005 -5.177,-14.669 -5.751,-22.478 -0.277,-3.856 -0.249,-7.684 0.077,-11.464 0.545,-6.182 1.914,-12.258 4.086,-18.191 3.655,-9.98 9.464,-18.535 17.511,-25.54 6.239,-5.435 13.224,-9.626 20.927,-12.564 6.66,-2.526 13.511,-4.163 20.717,-3.694 0.947,0.067 1.885,0.249 2.823,0.411 2.258,0.392 3.636,1.809 4.153,3.942 1.254,5.253 1.531,10.593 0.9,15.932 -0.316,2.67 -1.521,3.397 -3.531,3.703 -2.459,0.383 -4.928,0.612 -7.406,0.832 -5.053,0.459 -9.981,1.426 -14.612,3.617 -6.191,2.928 -10.756,7.559 -14.076,13.492 -0.995,1.78 -1.828,3.617 -2.325,5.588 -0.134,0.555 -0.249,1.129 -0.297,1.694 -0.163,1.799 0.392,2.172 2.038,1.359 1.282,-0.632 2.507,-1.416 3.808,-2.019 0.182,-0.086 0.373,-0.172 0.565,-0.249 9.301,-3.789 18.851,-5.435 28.793,-2.832 6.163,1.608 11.014,5.282 15.301,9.866 4.871,5.21 6.679,11.478 6.813,18.453 z m -27.931,2.814 c 0,-0.383 0.01,-0.766 -0.01,-1.148 -0.297,-5.636 -4.813,-9.311 -10.382,-8.45 -7.368,1.129 -12.134,8.067 -10.449,15.33 0.66,2.813 1.847,5.416 4.603,6.794 3.426,1.713 6.842,1.215 9.942,-0.746 4.257,-2.699 6.286,-6.738 6.296,-11.78 z"
   id="path117" />
&#10;				<g
   id="g119">&#10;					<path
   style="fill:#231333"
   d="m 350.977,244.84 c -1.531,-5.359 -4.66,-9.866 -8.564,-13.799 -5.923,-5.981 -12.976,-9.713 -21.473,-10.507 -5.732,-0.545 -11.387,-0.277 -16.918,1.388 -2.804,0.852 -5.627,1.675 -8.325,3.263 0.077,-0.66 0.325,-1.033 0.612,-1.368 0.565,-0.679 1.139,-1.34 1.713,-2 4.316,-4.899 9.205,-8.938 15.597,-10.861 3.655,-1.091 7.387,-1.608 11.167,-1.857 2.297,-0.153 4.574,-0.392 6.775,-1.119 1.856,-0.612 3.072,-1.799 3.837,-3.627 2.239,-5.32 2.373,-10.899 2.354,-16.545 -0.029,-6 -4.679,-10.105 -9.33,-11.358 -3.579,-0.966 -7.215,-0.67 -10.832,-0.239 -6.899,0.823 -13.406,2.966 -19.683,5.923 -7.799,3.674 -14.727,8.574 -20.621,14.87 -9.894,10.564 -15.377,23.195 -17.454,37.434 -0.191,1.301 -0.345,2.612 -0.45,3.914 -0.431,4.871 -0.373,9.741 -0.23,14.621 0.115,3.866 0.354,7.732 1.33,11.483 1.282,4.938 3.186,9.646 5.875,14 4.679,7.569 10.65,13.827 18.87,17.53 7.569,3.407 15.569,4.717 23.836,3.847 8.047,-0.852 15.636,-3.186 22.545,-7.512 5.751,-3.617 10.143,-8.66 13.904,-14.133 6.996,-10.182 8.862,-21.425 5.465,-33.348 z m -8.593,28.066 c -3.914,6.315 -9.33,11.071 -15.607,14.918 -6.651,4.076 -13.875,6.134 -25.473,6.239 -5.512,-0.038 -14.392,-1.636 -22.152,-7.225 -5.215,-3.751 -8.861,-8.794 -11.923,-14.344 -3.875,-7.005 -5.177,-14.669 -5.751,-22.478 -0.278,-3.856 -0.249,-7.684 0.077,-11.464 0.546,-6.182 1.914,-12.258 4.086,-18.191 3.655,-9.98 9.464,-18.535 17.511,-25.54 6.239,-5.435 13.224,-9.626 20.927,-12.564 6.66,-2.526 13.511,-4.163 20.717,-3.694 0.947,0.067 1.885,0.249 2.823,0.411 2.258,0.392 3.636,1.809 4.153,3.942 1.254,5.254 1.531,10.593 0.899,15.933 -0.316,2.67 -1.522,3.397 -3.531,3.703 -2.459,0.383 -4.928,0.612 -7.406,0.832 -5.052,0.459 -9.98,1.426 -14.612,3.617 -6.191,2.928 -10.756,7.56 -14.076,13.492 -0.995,1.78 -1.828,3.617 -2.325,5.588 -0.134,0.555 -0.249,1.129 -0.297,1.694 -0.163,1.799 0.392,2.172 2.038,1.359 1.282,-0.632 2.507,-1.416 3.809,-2.019 0.182,-0.086 0.373,-0.172 0.564,-0.249 9.301,-3.789 18.851,-5.435 28.793,-2.832 6.163,1.608 11.014,5.282 15.301,9.866 4.871,5.206 6.679,11.473 6.813,18.449 0.144,7.38 -1.454,14.26 -5.358,20.557 z"
   id="path118" />
&#10;					<path
   style="fill:#231333"
   d="m 309.419,245.567 c -7.368,1.129 -12.133,8.067 -10.449,15.33 0.66,2.813 1.847,5.416 4.603,6.794 3.426,1.713 6.842,1.215 9.942,-0.746 4.258,-2.698 6.287,-6.737 6.296,-11.779 0,-0.383 0.01,-0.766 -0.01,-1.148 -0.297,-5.638 -4.813,-9.312 -10.382,-8.451 z m 7.655,12.966 c -0.785,2.344 -1.962,4.469 -3.818,6.163 -1.895,1.722 -4.574,2.115 -7.062,0.804 -2.124,-1.11 -2.957,-3.072 -2.995,-5.56 0.383,-2.785 0.698,-5.722 2.689,-8.115 2.507,-3.005 6.019,-3.914 9.224,-2.431 0.737,0.335 1.234,0.823 1.589,1.56 1.177,2.479 1.234,5.014 0.373,7.579 z"
   id="path119" />
&#10;				</g>
&#10;				<path
   style="fill:#fff4db"
   d="m 296.577,190.09 c 0.132,0.67 -0.317,0.873 -0.602,1.143 -1.774,1.683 -3.516,3.405 -5.36,5.009 -7.749,6.742 -13.233,15.039 -17.012,24.529 -0.395,0.991 -0.848,1.964 -1.34,2.91 -0.3,0.577 -0.711,1.145 -1.518,0.929 -0.838,-0.224 -0.949,-0.927 -0.95,-1.636 0,-1.077 0.207,-2.128 0.552,-3.148 3.323,-9.824 8.636,-18.257 17.071,-24.532 1.992,-1.482 3.901,-3.081 6.123,-4.222 0.937,-0.48 1.882,-0.982 3.036,-0.982 z"
   id="path120" />
&#10;				<path
   style="fill:#fff4db"
   d="m 301.479,288.429 c 2.332,-0.503 4.665,-0.998 6.994,-1.512 2.424,-0.534 4.842,-1.092 7.264,-1.631 4.805,-1.07 8.928,-3.486 12.776,-6.449 0.576,-0.444 1.202,-1.048 1.888,-0.295 0.613,0.674 0.222,1.38 -0.286,1.945 -0.925,1.029 -2.001,1.915 -3.167,2.632 -6.849,4.211 -14.206,6.696 -22.353,6.338 -1.082,-0.048 -2.169,-0.204 -3.148,-0.712 0.012,-0.105 0.022,-0.211 0.032,-0.316 z"
   id="path121" />
&#10;				<path
   style="fill:#fff4db"
   d="m 320.254,243.989 c -1.402,-0.065 -2.58,-0.507 -3.78,-0.82 -1.401,-0.365 -2.799,-0.751 -4.181,-1.182 -0.861,-0.268 -1.534,-0.818 -1.428,-1.818 0.109,-1.035 0.906,-1.442 1.832,-1.596 0.331,-0.055 0.695,-0.046 1.021,0.03 2.299,0.534 4.264,1.641 5.753,3.503 0.395,0.494 0.801,1.015 0.783,1.883 z"
   id="path122" />
&#10;				<path
   style="fill:#fff4db"
   d="m 306.285,186.129 c -1.028,1.402 -2.311,2.418 -3.942,2.964 -0.543,0.182 -1.063,0.015 -1.411,-0.485 -0.307,-0.44 -0.187,-0.877 0.067,-1.286 0.725,-1.164 3.93,-1.933 5.286,-1.193 z"
   id="path123" />
&#10;			</g>
&#10;		</g>
&#10;	</g>
  </g>
</svg>
