<?xml version="1.0" encoding="UTF-8" standalone="no"?>
<!-- Created with Inkscape (http://www.inkscape.org/) -->

<svg
   width="25.221134mm"
   height="33.129276mm"
   viewBox="0 0 25.221134 33.129276"
   version="1.1"
   id="svg1"
   xmlns:inkscape="http://www.inkscape.org/namespaces/inkscape"
   xmlns:sodipodi="http://sodipodi.sourceforge.net/DTD/sodipodi-0.dtd"
   xmlns="http://www.w3.org/2000/svg"
   xmlns:svg="http://www.w3.org/2000/svg">
  <sodipodi:namedview
     id="namedview1"
     pagecolor="#ffffff"
     bordercolor="#000000"
     borderopacity="0.25"
     inkscape:showpageshadow="2"
     inkscape:pageopacity="0.0"
     inkscape:pagecheckerboard="0"
     inkscape:deskcolor="#d1d1d1"
     inkscape:document-units="mm" />
  <defs
     id="defs1" />
  <g
     inkscape:label="Layer 1"
     inkscape:groupmode="layer"
     id="layer1"
     transform="translate(-109.00833,-150.54791)">
    <g
       id="g48"
       transform="matrix(0.26458333,0,0,0.26458333,99.204263,139.78547)">&#10;			<g
   id="g47"
   inkscape:export-filename="funny-digits/g47.svg"
   inkscape:export-xdpi="96"
   inkscape:export-ydpi="96">&#10;				<path
   style="fill:#39beb1"
   d="m 125.98,99.47 c -0.06,11.13 -1.41,21.26 -4.01,31.26 -3.22,12.42 -10.61,21.1 -22.53,25.87 -9.55,3.82 -19.37,4.68 -29.39,2.39 -9.11,-2.09 -15.69,-7.76 -20.74,-15.41 -3.76,-5.7 -5.95,-11.98 -7.07,-18.69 -1.18,-7.01 -1.25,-14.08 -1.41,-21.15 -0.12,-5.44 0,-10.87 1,-16.24 1.36,-7.25 3.15,-14.36 6.8,-20.87 3.58,-6.38 8.7,-11.29 14.66,-15.41 4.47,-3.09 9.35,-5.27 14.73,-6.05 4.32,-0.62 8.65,-0.46 12.99,0.38 10.39,2 18.37,7.55 24.27,16.16 4.68,6.81 7.56,14.39 9.14,22.49 1.04,5.32 1.52,10.67 1.56,15.27 z m -26.04,6.47 c 0.26,-5.05 0.15,-10.08 -1.21,-14.99 -1.35,-4.84 -3.61,-9.13 -7.81,-12.14 -4.64,-3.33 -9.52,-2.92 -13.39,1.14 -1.49,1.57 -2.74,3.32 -3.65,5.3 -2.66,5.75 -3.52,11.83 -3.44,18.16 0.18,5.03 0.86,10.03 2.75,14.82 1.38,3.52 3.39,6.53 6.79,8.38 1.81,0.98 3.72,1.58 5.86,1.3 5.78,-0.75 9.26,-4.33 11.48,-9.37 1.75,-4 2.39,-8.27 2.62,-12.6 z"
   id="path42" />
&#10;				<g
   id="g44">&#10;					<path
   style="fill:#231333"
   d="M 132.08,93.62 C 131.16,81.67 127.8,70.48 121.46,60.28 118.47,55.46 114.59,51.52 109.63,48.62 104.32,45.5 98.55,43.67 92.69,42.09 83.19,39.52 73.97,40.39 65.32,45.24 53.55,51.83 45.77,61.68 41.59,74.49 c -3.57,10.97 -4.62,22.25 -4.53,33.44 0.14,5.58 0.45,10.88 1.34,16.13 1.1,6.47 3.27,12.59 5.93,18.56 2.67,5.99 6.4,11.18 11.65,15.13 7.71,5.79 16.54,8.14 26.07,8.14 5.78,0 11.31,-1.31 16.77,-3.11 8.43,-2.79 15.57,-7.36 20.86,-14.58 4.61,-6.31 7.61,-13.39 9.47,-20.94 2.72,-11.05 3.81,-22.26 2.93,-33.64 z m -10.11,37.11 c -3.22,12.42 -10.61,21.1 -22.53,25.87 -9.55,3.82 -19.37,4.68 -29.39,2.39 -9.11,-2.09 -15.69,-7.76 -20.74,-15.41 -3.76,-5.7 -5.95,-11.98 -7.07,-18.69 -1.18,-7.01 -1.25,-14.08 -1.41,-21.15 -0.12,-5.44 0,-10.87 1,-16.24 1.36,-7.25 3.15,-14.36 6.8,-20.87 3.58,-6.38 8.7,-11.29 14.66,-15.41 4.47,-3.09 9.35,-5.27 14.73,-6.05 4.32,-0.62 8.65,-0.46 12.99,0.38 10.39,2 18.37,7.55 24.27,16.16 4.68,6.81 7.56,14.39 9.14,22.49 1.04,5.32 1.52,10.67 1.56,15.27 -0.06,11.13 -1.41,21.26 -4.01,31.26 z"
   id="path43" />
&#10;					<path
   style="fill:#231333"
   d="m 90.92,78.81 c -4.64,-3.33 -9.52,-2.92 -13.39,1.14 -1.49,1.57 -2.74,3.32 -3.65,5.3 -2.66,5.75 -3.52,11.83 -3.44,18.16 0.18,5.03 0.86,10.03 2.75,14.82 1.38,3.52 3.39,6.53 6.79,8.38 1.81,0.98 3.72,1.58 5.86,1.3 5.78,-0.75 9.26,-4.33 11.48,-9.37 1.75,-4 2.39,-8.27 2.62,-12.6 0.26,-5.05 0.15,-10.08 -1.21,-14.99 -1.35,-4.84 -3.61,-9.13 -7.81,-12.14 z m 6.56,24.39 c -0.13,5.16 -0.42,10.3 -2.4,15.17 -1.78,4.38 -5.64,6.75 -10,6.09 -2,-0.31 -3.57,-1.26 -4.71,-2.97 -1.85,-2.79 -2.99,-5.86 -3.24,-9.16 -0.39,-5.13 -0.69,-10.3 0.27,-15.4 0.99,-5.34 2.16,-10.65 5.27,-15.28 1.31,-1.95 3,-2.47 5.17,-1.48 3.42,1.57 5.51,4.41 7.03,7.69 1.93,4.13 2.41,8.58 2.6,13.07 0.04,0.76 0.01,1.52 0.01,2.27 z"
   id="path44" />
&#10;				</g>
&#10;				<path
   style="fill:#fff4db"
   d="m 57.624,64.869 c 0.139,0.825 -0.175,1.487 -0.36,2.158 -1.514,5.511 -3.862,10.729 -5.669,16.139 -1.168,3.496 -2.03,7.051 -2.391,10.724 -0.082,0.833 -0.178,1.672 -0.557,2.438 -0.645,1.305 -1.766,1.37 -2.567,0.146 -0.449,-0.686 -0.594,-1.474 -0.675,-2.272 -0.419,-4.124 0.119,-8.16 1.519,-12.023 1.728,-4.768 3.836,-9.379 6.66,-13.625 0.642,-0.966 1.333,-1.899 2.183,-2.691 0.481,-0.447 0.935,-0.996 1.857,-0.994 z"
   id="path45" />
&#10;				<path
   style="fill:#fff4db"
   d="m 103.608,119.464 c 0.653,0.97 0.232,1.728 0.032,2.378 -1.163,3.795 -3.134,7.158 -5.897,9.999 -1.67,1.717 -3.743,2.833 -6.158,3.206 -0.768,0.119 -1.51,0.035 -2.218,-0.296 -0.555,-0.259 -0.892,-0.699 -0.894,-1.307 -0.002,-0.619 0.37,-1.032 0.925,-1.278 0.108,-0.048 0.226,-0.083 0.342,-0.106 3.729,-0.722 6.275,-3.064 8.47,-5.996 1.667,-2.224 3.516,-4.312 5.398,-6.6 z"
   id="path46" />
&#10;				<path
   style="fill:#fff4db"
   d="m 65.265,56.869 c 0.163,1.763 -1.642,4.542 -3.237,5.072 -0.583,0.193 -1.108,0.104 -1.563,-0.291 -0.521,-0.452 -0.526,-1.06 -0.372,-1.657 0.457,-1.778 3.202,-3.458 5.172,-3.124 z"
   id="path47" />
&#10;			</g>
&#10;		</g>
  </g>
</svg>
