<?xml version="1.0" encoding="UTF-8" standalone="no"?>
<!-- Created with Inkscape (http://www.inkscape.org/) -->

<svg
   width="23.354532mm"
   height="33.632347mm"
   viewBox="0 0 23.354532 33.632347"
   version="1.1"
   id="svg1"
   xmlns="http://www.w3.org/2000/svg"
   xmlns:svg="http://www.w3.org/2000/svg">
  <defs
     id="defs1" />
  <g
     id="layer1"
     transform="translate(-156.63333,-197.11459)">
    <g
       id="g73"
       transform="matrix(0.26458333,0,0,0.26458333,89.161554,188.04383)">&#10;		<g
   style="opacity:0.1"
   id="g66">&#10;			<path
   style="fill:#1c0d3f"
   d="m 331.8,127.37 c 2.96,0.19 4.31,1.77 4.21,4.92 -0.14,4.79 -0.36,9.58 -0.56,14.37 -0.09,2.16 -0.23,4.31 -0.64,6.43 -0.42,2.23 -1.07,2.83 -3.34,2.98 -7.72,0.53 -15.42,0.14 -23.13,-0.08 -2.48,-0.08 -4.95,-0.02 -7.43,-0.02 -9.78,-0.53 -19.58,-0.51 -29.36,-0.58 -3.06,-0.02 -3.21,-0.12 -3.67,-3.14 -0.78,-5.25 -0.41,-10.4 1.24,-15.48 2.45,-7.55 6.58,-14.14 11.28,-20.43 3.69,-4.93 7.77,-9.54 11.65,-14.31 3.05,-3.76 5.88,-7.68 7.62,-12.26 1.57,-4.13 1.5,-8.18 -0.74,-12.01 -2.32,-3.96 -6.41,-5 -10.7,-2.9 -3.47,1.71 -6.21,4.34 -8.66,7.27 -1.7,2.02 -3.26,4.14 -4.72,6.34 -1.1,1.65 -1.51,1.74 -3.24,0.76 -5.86,-3.3 -9.99,-8.26 -13.22,-14.04 -0.85,-1.51 -0.54,-3.18 -0.04,-4.78 0.63,-1.99 1.47,-3.86 2.46,-5.64 1,-1.79 2.16,-3.49 3.42,-5.13 4.43,-5.79 9.58,-10.71 16.16,-14.01 7.92,-3.96 16.27,-5.73 25.08,-4.69 7.25,0.85 13.55,3.66 17.9,9.87 2.65,3.81 3.49,8.18 3.79,12.7 0.52,7.95 -1.46,15.45 -4.32,22.76 -3.3,8.42 -7.57,16.38 -11.8,24.36 -2.51,4.73 -5.19,9.37 -8.16,13.82 -0.78,1.17 0,2.52 1.49,2.51 2.64,-0.02 5.27,-0.14 7.9,-0.19 1.06,-0.02 2.12,-0.03 3.18,-0.03 5.46,0 10.91,0.28 16.35,0.63 z"
   id="path62" />
&#10;			<path
   style="fill:#1c0d3f"
   d="m 338.95,127.94 c -1.09,-1.84 -2.6,-2.77 -4.72,-3.01 -6.26,-0.71 -12.52,-0.91 -18.8,-0.84 -0.47,0 -0.95,0 -1.42,0.01 -1.54,0.03 -3.08,0 -4.76,0 0.63,-1.21 1.21,-2.37 1.85,-3.51 4.46,-8.03 9.24,-15.88 13.41,-24.07 3.95,-7.75 7.19,-15.67 7.71,-24.5 0.34,-5.72 0.06,-11.35 -1.95,-16.77 -3.16,-8.51 -9.66,-13.52 -17.96,-16.33 -6.69,-2.27 -13.57,-1.93 -20.38,-0.49 -10.36,2.19 -19.17,7.19 -26.26,15.09 -2.84,3.16 -5.43,6.5 -7.44,10.2 -0.92,1.68 -1.72,3.44 -2.36,5.29 -0.75,2.15 -1.19,4.36 -0.55,6.58 1.36,4.7 3.55,9.02 6.75,12.71 2.36,2.73 5.2,5.02 8.65,6.28 3.14,1.15 6.26,1.16 8.46,-2.18 0.68,-1.03 1.38,-2.05 2.06,-3.08 2.07,-3.17 4.46,-6.06 7.48,-8.34 1.75,-1.32 3.73,-2.2 6,-2.06 1.54,0.1 2.06,0.64 2.4,2.15 0.53,2.33 0.25,4.59 -0.57,6.81 -1.44,3.88 -3.74,7.24 -6.17,10.51 -4.41,5.93 -9.29,11.51 -13.61,17.51 -4.31,5.98 -8.13,12.23 -10.54,19.26 -2.49,7.25 -2.98,14.48 -0.23,21.79 0.78,2.08 2.15,3.33 4.27,3.75 3.04,0.61 6.13,0.52 9.2,0.52 6.31,-0.01 12.62,-0.22 18.93,-0.19 6.48,0.02 12.95,0.26 19.42,0.34 5.11,0.06 10.23,0.09 15.31,-0.67 2.5,-0.38 4.73,-1.06 5.86,-3.69 0.48,-1.11 0.51,-2.24 0.69,-3.37 0.94,-5.72 1.37,-11.49 1.59,-17.28 0.12,-3.08 -0.79,-5.81 -2.32,-8.42 z m -3.5,18.72 c -0.09,2.16 -0.23,4.31 -0.64,6.43 -0.42,2.23 -1.07,2.83 -3.34,2.98 -7.72,0.53 -15.42,0.14 -23.13,-0.08 -2.48,-0.08 -4.95,-0.02 -7.43,-0.02 -9.78,-0.53 -19.58,-0.51 -29.36,-0.58 -3.06,-0.02 -3.21,-0.12 -3.67,-3.14 -0.78,-5.25 -0.41,-10.4 1.24,-15.48 2.45,-7.55 6.58,-14.14 11.28,-20.43 3.69,-4.93 7.77,-9.54 11.65,-14.31 3.05,-3.76 5.88,-7.68 7.62,-12.26 1.57,-4.13 1.5,-8.18 -0.74,-12.01 -2.32,-3.96 -6.41,-5 -10.7,-2.9 -3.47,1.71 -6.21,4.34 -8.66,7.27 -1.7,2.02 -3.26,4.14 -4.72,6.34 -1.1,1.65 -1.51,1.74 -3.24,0.76 -5.86,-3.3 -9.99,-8.26 -13.22,-14.04 -0.85,-1.51 -0.54,-3.18 -0.04,-4.78 0.63,-1.99 1.47,-3.86 2.46,-5.64 1,-1.79 2.16,-3.49 3.42,-5.13 4.43,-5.79 9.58,-10.71 16.16,-14.01 7.92,-3.96 16.27,-5.73 25.08,-4.69 7.25,0.85 13.55,3.66 17.9,9.87 2.65,3.81 3.49,8.18 3.79,12.7 0.52,7.95 -1.46,15.45 -4.32,22.76 -3.3,8.42 -7.57,16.38 -11.8,24.36 -2.51,4.73 -5.19,9.37 -8.16,13.82 -0.78,1.17 0,2.52 1.49,2.51 2.64,-0.02 5.27,-0.14 7.9,-0.19 1.06,-0.02 2.12,-0.03 3.18,-0.03 5.46,0 10.91,0.28 16.35,0.63 2.96,0.19 4.31,1.77 4.21,4.92 -0.14,4.79 -0.36,9.58 -0.56,14.37 z"
   id="path63" />
&#10;			<path
   style="fill:#1c0d3f"
   d="m 279.32,54.253 c -0.051,0.801 -0.508,1.215 -0.866,1.664 -1.718,2.156 -3.56,4.203 -5.511,6.152 -3.004,3 -5.776,6.181 -7.747,9.988 -0.253,0.489 -0.607,0.945 -0.993,1.34 -0.529,0.543 -1.184,0.805 -1.959,0.506 -0.76,-0.293 -1.092,-0.893 -1.18,-1.658 -0.104,-0.909 0.183,-1.742 0.572,-2.536 3.026,-6.176 7.731,-10.786 13.519,-14.354 1.214,-0.748 2.535,-1.347 4.165,-1.102 z"
   id="path64" />
&#10;			<path
   style="fill:#1c0d3f"
   d="m 322.119,132.171 c -0.913,0.691 -1.879,0.76 -2.79,0.934 -4.138,0.788 -8.324,1.005 -12.528,0.969 -0.848,-0.007 -1.68,-0.092 -2.454,-0.459 -0.614,-0.291 -1.038,-0.743 -1.073,-1.466 -0.037,-0.774 0.372,-1.286 1.01,-1.635 0.606,-0.331 1.28,-0.486 1.959,-0.503 4.362,-0.105 8.716,-0.023 12.996,0.957 0.958,0.22 1.938,0.449 2.88,1.203 z"
   id="path65" />
&#10;			<path
   style="fill:#1c0d3f"
   d="m 288.343,47.585 c 0.252,0.566 -0.028,0.93 -0.291,1.272 -0.959,1.247 -2.132,2.252 -3.526,2.981 -0.755,0.395 -1.584,0.565 -2.141,-0.245 -0.546,-0.795 -0.137,-1.502 0.498,-2.1 1.509,-1.418 3.64,-2.177 5.46,-1.908 z"
   id="path66" />
&#10;		</g>
&#10;		<g
   id="g72">&#10;			<g
   id="g71">&#10;				<path
   style="fill:#f54480"
   d="m 333.8,124.37 c 2.96,0.19 4.31,1.77 4.21,4.92 -0.14,4.79 -0.36,9.58 -0.56,14.37 -0.09,2.16 -0.23,4.31 -0.64,6.43 -0.42,2.23 -1.07,2.83 -3.34,2.98 -7.72,0.53 -15.42,0.14 -23.13,-0.08 -2.48,-0.08 -4.95,-0.02 -7.43,-0.02 -9.78,-0.53 -19.58,-0.51 -29.36,-0.58 -3.06,-0.02 -3.21,-0.12 -3.67,-3.14 -0.78,-5.25 -0.41,-10.4 1.24,-15.48 2.45,-7.55 6.58,-14.14 11.28,-20.43 3.69,-4.93 7.77,-9.54 11.65,-14.31 3.05,-3.76 5.88,-7.68 7.62,-12.26 1.57,-4.13 1.5,-8.18 -0.74,-12.01 -2.32,-3.96 -6.41,-5 -10.7,-2.9 -3.47,1.71 -6.21,4.34 -8.66,7.27 -1.7,2.02 -3.26,4.14 -4.72,6.34 -1.1,1.65 -1.51,1.74 -3.24,0.76 -5.86,-3.3 -9.99,-8.26 -13.22,-14.04 -0.85,-1.51 -0.54,-3.18 -0.04,-4.78 0.63,-1.99 1.47,-3.86 2.46,-5.64 1,-1.79 2.16,-3.49 3.42,-5.13 4.43,-5.79 9.58,-10.71 16.16,-14.01 7.92,-3.96 16.27,-5.73 25.08,-4.69 7.25,0.85 13.55,3.66 17.9,9.87 2.65,3.81 3.49,8.18 3.79,12.7 0.52,7.95 -1.46,15.45 -4.32,22.76 -3.3,8.42 -7.57,16.38 -11.8,24.36 -2.51,4.73 -5.19,9.37 -8.16,13.82 -0.78,1.17 0,2.52 1.49,2.51 2.64,-0.02 5.27,-0.14 7.9,-0.19 1.06,-0.02 2.12,-0.03 3.18,-0.03 5.46,0 10.91,0.28 16.35,0.63 z"
   id="path67" />
&#10;				<path
   style="fill:#231333"
   d="m 340.95,124.94 c -1.09,-1.84 -2.6,-2.77 -4.72,-3.01 -6.26,-0.71 -12.52,-0.91 -18.8,-0.84 -0.47,0 -0.95,0 -1.42,0.01 -1.54,0.03 -3.08,0 -4.76,0 0.63,-1.21 1.21,-2.37 1.85,-3.51 4.46,-8.03 9.24,-15.88 13.41,-24.07 3.95,-7.75 7.19,-15.67 7.71,-24.5 0.34,-5.72 0.06,-11.35 -1.95,-16.77 -3.16,-8.51 -9.66,-13.52 -17.96,-16.33 -6.69,-2.27 -13.57,-1.93 -20.38,-0.49 -10.36,2.19 -19.17,7.19 -26.26,15.09 -2.84,3.16 -5.43,6.5 -7.44,10.2 -0.92,1.68 -1.72,3.44 -2.36,5.29 -0.75,2.15 -1.19,4.36 -0.55,6.58 1.36,4.7 3.55,9.02 6.75,12.71 2.36,2.73 5.2,5.02 8.65,6.28 3.14,1.15 6.26,1.16 8.46,-2.18 0.68,-1.03 1.38,-2.05 2.06,-3.08 2.07,-3.17 4.46,-6.06 7.48,-8.34 1.75,-1.32 3.73,-2.2 6,-2.06 1.54,0.1 2.06,0.64 2.4,2.15 0.53,2.33 0.25,4.59 -0.57,6.81 -1.44,3.88 -3.74,7.24 -6.17,10.51 -4.41,5.93 -9.29,11.51 -13.61,17.51 -4.31,5.98 -8.13,12.23 -10.54,19.26 -2.49,7.25 -2.98,14.48 -0.23,21.79 0.78,2.08 2.15,3.33 4.27,3.75 3.04,0.61 6.13,0.52 9.2,0.52 6.31,-0.01 12.62,-0.22 18.93,-0.19 6.48,0.02 12.95,0.26 19.42,0.34 5.11,0.06 10.23,0.09 15.31,-0.67 2.5,-0.38 4.73,-1.06 5.86,-3.69 0.48,-1.11 0.51,-2.24 0.69,-3.37 0.94,-5.72 1.37,-11.49 1.59,-17.28 0.12,-3.08 -0.79,-5.81 -2.32,-8.42 z m -3.5,18.72 c -0.09,2.16 -0.23,4.31 -0.64,6.43 -0.42,2.23 -1.07,2.83 -3.34,2.98 -7.72,0.53 -15.42,0.14 -23.13,-0.08 -2.48,-0.08 -4.95,-0.02 -7.43,-0.02 -9.78,-0.53 -19.58,-0.51 -29.36,-0.58 -3.06,-0.02 -3.21,-0.12 -3.67,-3.14 -0.78,-5.25 -0.41,-10.4 1.24,-15.48 2.45,-7.55 6.58,-14.14 11.28,-20.43 3.69,-4.93 7.77,-9.54 11.65,-14.31 3.05,-3.76 5.88,-7.68 7.62,-12.26 1.57,-4.13 1.5,-8.18 -0.74,-12.01 -2.32,-3.96 -6.41,-5 -10.7,-2.9 -3.47,1.71 -6.21,4.34 -8.66,7.27 -1.7,2.02 -3.26,4.14 -4.72,6.34 -1.1,1.65 -1.51,1.74 -3.24,0.76 -5.86,-3.3 -9.99,-8.26 -13.22,-14.04 -0.85,-1.51 -0.54,-3.18 -0.04,-4.78 0.63,-1.99 1.47,-3.86 2.46,-5.64 1,-1.79 2.16,-3.49 3.42,-5.13 4.43,-5.79 9.58,-10.71 16.16,-14.01 7.92,-3.96 16.27,-5.73 25.08,-4.69 7.25,0.85 13.55,3.66 17.9,9.87 2.65,3.81 3.49,8.18 3.79,12.7 0.52,7.95 -1.46,15.45 -4.32,22.76 -3.3,8.42 -7.57,16.38 -11.8,24.36 -2.51,4.73 -5.19,9.37 -8.16,13.82 -0.78,1.17 0,2.52 1.49,2.51 2.64,-0.02 5.27,-0.14 7.9,-0.19 1.06,-0.02 2.12,-0.03 3.18,-0.03 5.46,0 10.91,0.28 16.35,0.63 2.96,0.19 4.31,1.77 4.21,4.92 -0.14,4.79 -0.36,9.58 -0.56,14.37 z"
   id="path68" />
&#10;				<path
   style="fill:#fff4db"
   d="m 281.32,51.253 c -0.051,0.801 -0.508,1.215 -0.866,1.664 -1.718,2.156 -3.56,4.203 -5.511,6.152 -3.004,3 -5.776,6.181 -7.747,9.988 -0.253,0.489 -0.607,0.945 -0.993,1.34 -0.529,0.543 -1.184,0.805 -1.959,0.506 -0.76,-0.293 -1.092,-0.893 -1.18,-1.658 -0.104,-0.909 0.183,-1.742 0.572,-2.536 3.026,-6.176 7.731,-10.786 13.519,-14.354 1.214,-0.748 2.535,-1.347 4.165,-1.102 z"
   id="path69" />
&#10;				<path
   style="fill:#fff4db"
   d="m 324.119,129.171 c -0.913,0.691 -1.879,0.76 -2.79,0.934 -4.138,0.788 -8.324,1.005 -12.528,0.969 -0.848,-0.007 -1.68,-0.092 -2.454,-0.459 -0.614,-0.291 -1.038,-0.743 -1.073,-1.466 -0.037,-0.774 0.372,-1.286 1.01,-1.635 0.606,-0.331 1.28,-0.486 1.959,-0.503 4.362,-0.104 8.716,-0.023 12.996,0.957 0.958,0.22 1.938,0.449 2.88,1.203 z"
   id="path70" />
&#10;				<path
   style="fill:#fff4db"
   d="m 290.343,44.585 c 0.252,0.566 -0.028,0.93 -0.291,1.272 -0.959,1.247 -2.132,2.252 -3.526,2.981 -0.755,0.395 -1.584,0.565 -2.141,-0.245 -0.546,-0.795 -0.137,-1.502 0.498,-2.1 1.509,-1.418 3.64,-2.177 5.46,-1.908 z"
   id="path71" />
&#10;			</g>
&#10;		</g>
&#10;	</g>
  </g>
</svg>
