<?xml version="1.0" encoding="UTF-8" standalone="no"?>
<!-- Created with Inkscape (http://www.inkscape.org/) -->

<svg
   width="24.603493mm"
   height="34.642624mm"
   viewBox="0 0 24.603493 34.642624"
   version="1.1"
   id="svg1"
   xmlns="http://www.w3.org/2000/svg"
   xmlns:svg="http://www.w3.org/2000/svg">
  <defs
     id="defs1" />
  <g
     id="layer1"
     transform="translate(-66.939577,-207.16876)">
    <g
       id="g138"
       transform="matrix(0.26458333,0,0,0.26458333,28.647003,159.11748)">&#10;		<g
   style="opacity:0.1"
   id="g130">&#10;			<path
   style="fill:#1c0d3f"
   d="m 230.08,247.32 c 3.74,9.11 3.72,18.31 0.08,27.43 -4.32,10.83 -11.38,19.36 -21.65,25.04 -5.77,3.2 -12.07,4.76 -18.58,5.66 -8.66,1.2 -17.29,1.04 -25.9,-0.44 -3.73,-0.65 -7.27,-1.85 -10.23,-4.38 -3.09,-2.66 -4.79,-5.88 -4.57,-10.07 0.34,-6.8 2.81,-12.72 7.13,-17.91 1.15,-1.38 2.54,-1.75 4.29,-1.31 3.31,0.84 6.4,2.26 9.5,3.61 5.65,2.47 11.42,3.18 17.23,1.9 0.88,-0.19 1.76,-0.43 2.64,-0.71 5.62,-1.82 9.52,-5.68 11.47,-11.38 1.89,-5.5 0.2,-10.29 -2.78,-14.83 -2.1,-3.19 -4.61,-5.96 -8.32,-7.3 -2.58,-0.94 -5.28,-1.25 -8,-1.37 -4.4,-0.19 -8.79,0.24 -13.19,0.14 -1.56,-0.04 -3.1,-0.27 -4.62,-0.6 -2.43,-0.52 -4.04,-2.01 -5.02,-4.22 -0.64,-1.44 -1.1,-2.94 -1.43,-4.45 -0.33,-1.52 -0.53,-3.07 -0.66,-4.62 -0.81,-9.5 -0.64,-19 -0.04,-28.5 0.13,-2.1 0.58,-4.18 0.88,-6.27 0.18,-1.33 0.91,-1.92 2.25,-2.2 8.81,-1.83 17.74,-2.14 26.68,-2.42 4.6,-0.15 9.19,0.17 13.7,0.04 6.36,0.21 12.64,-0.09 18.91,0.23 3.07,0.15 3.26,0.27 3.53,3.35 0.54,6.11 0.18,12.21 -0.5,18.29 -0.32,2.86 -1.43,3.72 -4.35,3.89 -4.09,0.25 -8.13,-0.38 -12.2,-0.61 -3.75,-0.21 -7.49,-0.52 -11.24,-0.74 -1.64,-0.1 -2.26,0.51 -2.35,2.14 -0.14,2.69 0.09,5.36 0.49,8 0.38,2.48 1,2.94 3.38,3.43 0.82,0.17 1.63,0.33 2.45,0.5 4.62,0.93 9.22,1.91 13.68,3.53 8.44,3.08 14,9 17.34,17.15 z"
   id="path125" />
&#10;			<path
   style="fill:#1c0d3f"
   d="m 231.66,243.97 c -2.36,-4.59 -5.26,-8.75 -9.44,-11.91 -4.96,-3.75 -10.73,-5.4 -16.66,-6.66 -2,-0.43 -4.06,-0.59 -6.04,-1.03 -0.29,-0.06 -0.57,-0.13 -0.85,-0.21 0,-1.53 0,-2.95 0,-4.31 0.32,-0.27 0.61,-0.18 0.88,-0.17 2.88,0.06 5.75,0.12 8.63,0.19 4.2,0.09 8.4,-0.09 12.51,-1.03 2.71,-0.62 4.67,-2.1 5.71,-4.9 1.04,-2.77 1.53,-5.6 1.83,-8.51 0.53,-4.95 0.36,-9.87 -0.64,-14.76 -0.55,-2.72 -3.13,-4.92 -5.64,-5.14 -1.24,-0.11 -2.47,-0.3 -3.7,-0.33 -5.07,-0.12 -10.15,-0.14 -15.22,-0.3 -9.79,-0.31 -19.58,-0.6 -29.35,0.43 -4.89,0.51 -9.76,1.15 -14.48,2.62 -2.3,0.72 -3.7,2.16 -3.95,4.58 -0.21,2.03 -0.32,4.06 -0.52,6.09 -0.71,7.04 -1.21,14.08 -0.65,21.17 0.34,4.32 0.91,8.58 1.74,12.8 0.42,2.16 0.91,4.3 1.47,6.43 0.72,2.75 2.19,5.05 4.89,6.34 1.39,0.66 2.89,0.92 4.41,1.05 3.42,0.3 6.85,0.52 10.27,0.84 4.29,0.39 8.47,1.29 12.21,3.55 5,3.02 7.98,7.25 7.2,13.36 -0.57,4.56 -3.16,9.66 -9.29,10.87 -0.41,0.08 -0.84,0.15 -1.28,0.19 -5.16,0.52 -9.99,-0.29 -14.75,-2.23 -3.14,-1.27 -6.15,-2.88 -9.46,-3.72 -2.11,-0.54 -4.04,-0.24 -5.75,1.16 -6.92,5.67 -10.61,12.98 -10.99,21.89 -0.3,6.8 2.44,11.86 8.72,14.92 6.75,3.28 13.84,5.14 21.34,5.29 8.41,0.16 16.67,-1.07 24.7,-3.51 12.71,-3.86 22.48,-11.68 29.69,-22.78 7.24,-11.15 9,-29.55 2.46,-42.27 z m -23.15,55.82 c -5.77,3.2 -12.07,4.76 -18.58,5.66 -8.66,1.2 -17.29,1.04 -25.9,-0.44 -3.73,-0.65 -7.27,-1.85 -10.23,-4.38 -3.09,-2.66 -4.79,-5.88 -4.57,-10.07 0.34,-6.8 2.81,-12.72 7.13,-17.91 1.15,-1.38 2.54,-1.75 4.29,-1.31 3.31,0.84 6.4,2.26 9.5,3.61 5.65,2.47 11.42,3.18 17.23,1.9 0.88,-0.19 1.76,-0.43 2.64,-0.71 5.62,-1.82 9.52,-5.68 11.47,-11.38 1.89,-5.5 0.2,-10.29 -2.78,-14.83 -2.1,-3.19 -4.61,-5.96 -8.32,-7.3 -2.58,-0.94 -5.28,-1.25 -8,-1.37 -4.4,-0.19 -8.79,0.24 -13.19,0.14 -1.56,-0.04 -3.1,-0.27 -4.62,-0.6 -2.43,-0.52 -4.04,-2.01 -5.02,-4.22 -0.64,-1.44 -1.1,-2.94 -1.43,-4.45 -0.33,-1.52 -0.53,-3.07 -0.66,-4.62 -0.81,-9.5 -0.64,-19 -0.04,-28.5 0.13,-2.1 0.58,-4.18 0.88,-6.27 0.18,-1.33 0.91,-1.92 2.25,-2.2 8.81,-1.83 17.74,-2.14 26.68,-2.42 4.6,-0.15 9.19,0.17 13.7,0.04 6.36,0.21 12.64,-0.09 18.91,0.23 3.07,0.15 3.26,0.27 3.53,3.35 0.54,6.11 0.18,12.21 -0.5,18.29 -0.32,2.86 -1.43,3.72 -4.35,3.89 -4.09,0.25 -8.13,-0.38 -12.2,-0.61 -3.75,-0.21 -7.49,-0.52 -11.24,-0.74 -1.64,-0.1 -2.26,0.51 -2.35,2.14 -0.14,2.69 0.09,5.36 0.49,8 0.38,2.48 1,2.94 3.38,3.43 0.82,0.17 1.63,0.33 2.45,0.5 4.62,0.93 9.22,1.91 13.68,3.53 8.44,3.08 14,9 17.34,17.15 3.74,9.11 3.72,18.31 0.08,27.43 -4.32,10.83 -11.38,19.36 -21.65,25.04 z"
   id="path126" />
&#10;			<path
   style="fill:#1c0d3f"
   d="m 189.063,280.989 c -0.857,1.067 -2.058,1.329 -3.254,1.512 -5.256,0.803 -10.433,0.249 -15.556,-1.019 -2.515,-0.622 -5.071,-1.116 -7.41,-2.315 -0.965,-0.495 -1.889,-1.048 -2.698,-1.767 -0.624,-0.554 -0.927,-1.258 -0.427,-2.024 0.533,-0.815 1.314,-0.681 2.014,-0.259 5.845,3.529 12.367,4.566 19.001,5.214 1.748,0.171 3.501,0.332 5.234,0.607 1.035,0.165 2.042,-0.078 3.096,0.051 z"
   id="path127" />
&#10;			<path
   style="fill:#1c0d3f"
   d="m 163.057,222.763 c -0.712,-0.156 -0.705,-0.718 -0.845,-1.127 -1.502,-4.398 -1.894,-8.971 -2.057,-13.571 -0.051,-1.435 0.018,-2.876 0.066,-4.312 0.02,-0.602 0.204,-1.179 0.498,-1.712 0.311,-0.564 0.739,-0.93 1.435,-0.885 0.654,0.042 0.995,0.464 1.23,0.997 0.278,0.63 0.379,1.309 0.375,1.991 -0.034,6.073 -0.015,12.148 -0.578,18.205 -0.01,0.111 -0.065,0.221 -0.124,0.414 z"
   id="path128" />
&#10;			<path
   style="fill:#1c0d3f"
   d="m 216.275,237.799 c -1.428,0.308 -2.613,-0.137 -3.792,-0.438 -2.629,-0.67 -5.242,-1.408 -7.852,-2.151 -1.772,-0.504 -2.637,-1.653 -2.219,-2.85 0.418,-1.196 1.853,-1.712 3.483,-1.079 3.315,1.288 6.634,2.596 9.276,5.113 0.288,0.274 0.548,0.58 0.806,0.883 0.095,0.113 0.15,0.259 0.298,0.522 z"
   id="path129" />
&#10;			<path
   style="fill:#1c0d3f"
   d="m 163.746,232.347 c -1.479,-0.651 -2.599,-3.336 -1.98,-4.748 0.379,-0.865 1.416,-1.01 2.049,-0.287 0.842,0.961 0.801,3.937 -0.069,5.035 z"
   id="path130" />
&#10;		</g>
&#10;		<g
   id="g137">&#10;			<g
   id="g136">&#10;				<path
   style="fill:#16b47f"
   d="m 232.08,244.32 c 3.74,9.11 3.72,18.31 0.08,27.43 -4.32,10.83 -11.38,19.36 -21.65,25.04 -5.77,3.2 -12.07,4.76 -18.58,5.66 -8.66,1.2 -17.29,1.04 -25.9,-0.44 -3.73,-0.65 -7.27,-1.85 -10.23,-4.38 -3.09,-2.66 -4.79,-5.88 -4.57,-10.07 0.34,-6.8 2.81,-12.72 7.13,-17.91 1.15,-1.38 2.54,-1.75 4.29,-1.31 3.31,0.84 6.4,2.26 9.5,3.61 5.65,2.47 11.42,3.18 17.23,1.9 0.88,-0.19 1.76,-0.43 2.64,-0.71 5.62,-1.82 9.52,-5.68 11.47,-11.38 1.89,-5.5 0.2,-10.29 -2.78,-14.83 -2.1,-3.19 -4.61,-5.96 -8.32,-7.3 -2.58,-0.94 -5.28,-1.25 -8,-1.37 -4.4,-0.19 -8.79,0.24 -13.19,0.14 -1.56,-0.04 -3.1,-0.27 -4.62,-0.6 -2.43,-0.52 -4.04,-2.01 -5.02,-4.22 -0.64,-1.44 -1.1,-2.94 -1.43,-4.45 -0.33,-1.52 -0.53,-3.07 -0.66,-4.62 -0.81,-9.5 -0.64,-19 -0.04,-28.5 0.13,-2.1 0.58,-4.18 0.88,-6.27 0.18,-1.33 0.91,-1.92 2.25,-2.2 8.81,-1.83 17.74,-2.14 26.68,-2.42 4.6,-0.15 9.19,0.17 13.7,0.04 6.36,0.21 12.64,-0.09 18.91,0.23 3.07,0.15 3.26,0.27 3.53,3.35 0.54,6.11 0.18,12.21 -0.5,18.29 -0.32,2.86 -1.43,3.72 -4.35,3.89 -4.09,0.25 -8.13,-0.38 -12.2,-0.61 -3.75,-0.21 -7.49,-0.52 -11.24,-0.74 -1.64,-0.1 -2.26,0.51 -2.35,2.14 -0.14,2.69 0.09,5.36 0.49,8 0.38,2.48 1,2.94 3.38,3.43 0.82,0.17 1.63,0.33 2.45,0.5 4.62,0.93 9.22,1.91 13.68,3.53 8.44,3.08 14,9 17.34,17.15 z"
   id="path131" />
&#10;				<path
   style="fill:#231333"
   d="m 233.66,240.97 c -2.36,-4.59 -5.26,-8.75 -9.44,-11.91 -4.96,-3.75 -10.73,-5.4 -16.66,-6.66 -2,-0.43 -4.06,-0.59 -6.04,-1.03 -0.29,-0.06 -0.57,-0.13 -0.85,-0.21 0,-1.53 0,-2.95 0,-4.31 0.32,-0.27 0.61,-0.18 0.88,-0.17 2.88,0.06 5.75,0.12 8.63,0.19 4.2,0.09 8.4,-0.09 12.51,-1.03 2.71,-0.62 4.67,-2.1 5.71,-4.9 1.04,-2.77 1.53,-5.6 1.83,-8.51 0.53,-4.95 0.36,-9.87 -0.64,-14.76 -0.55,-2.72 -3.13,-4.92 -5.64,-5.14 -1.24,-0.11 -2.47,-0.3 -3.7,-0.33 -5.07,-0.12 -10.15,-0.14 -15.22,-0.3 -9.79,-0.31 -19.58,-0.6 -29.35,0.43 -4.89,0.51 -9.76,1.15 -14.48,2.62 -2.3,0.72 -3.7,2.16 -3.95,4.58 -0.21,2.03 -0.32,4.06 -0.52,6.09 -0.71,7.04 -1.21,14.08 -0.65,21.17 0.34,4.32 0.91,8.58 1.74,12.8 0.42,2.16 0.91,4.3 1.47,6.43 0.72,2.75 2.19,5.05 4.89,6.34 1.39,0.66 2.89,0.92 4.41,1.05 3.42,0.3 6.85,0.52 10.27,0.84 4.29,0.39 8.47,1.29 12.21,3.55 5,3.02 7.98,7.25 7.2,13.36 -0.57,4.56 -3.16,9.66 -9.29,10.87 -0.41,0.08 -0.84,0.15 -1.28,0.19 -5.16,0.52 -9.99,-0.29 -14.75,-2.23 -3.14,-1.27 -6.15,-2.88 -9.46,-3.72 -2.11,-0.54 -4.04,-0.24 -5.75,1.16 -6.92,5.67 -10.61,12.98 -10.99,21.89 -0.3,6.8 2.44,11.86 8.72,14.92 6.75,3.28 13.84,5.14 21.34,5.29 8.41,0.16 16.67,-1.07 24.7,-3.51 12.71,-3.86 22.48,-11.68 29.69,-22.78 7.24,-11.15 9,-29.55 2.46,-42.27 z m -23.15,55.82 c -5.77,3.2 -12.07,4.76 -18.58,5.66 -8.66,1.2 -17.29,1.04 -25.9,-0.44 -3.73,-0.65 -7.27,-1.85 -10.23,-4.38 -3.09,-2.66 -4.79,-5.88 -4.57,-10.07 0.34,-6.8 2.81,-12.72 7.13,-17.91 1.15,-1.38 2.54,-1.75 4.29,-1.31 3.31,0.84 6.4,2.26 9.5,3.61 5.65,2.47 11.42,3.18 17.23,1.9 0.88,-0.19 1.76,-0.43 2.64,-0.71 5.62,-1.82 9.52,-5.68 11.47,-11.38 1.89,-5.5 0.2,-10.29 -2.78,-14.83 -2.1,-3.19 -4.61,-5.96 -8.32,-7.3 -2.58,-0.94 -5.28,-1.25 -8,-1.37 -4.4,-0.19 -8.79,0.24 -13.19,0.14 -1.56,-0.04 -3.1,-0.27 -4.62,-0.6 -2.43,-0.52 -4.04,-2.01 -5.02,-4.22 -0.64,-1.44 -1.1,-2.94 -1.43,-4.45 -0.33,-1.52 -0.53,-3.07 -0.66,-4.62 -0.81,-9.5 -0.64,-19 -0.04,-28.5 0.13,-2.1 0.58,-4.18 0.88,-6.27 0.18,-1.33 0.91,-1.92 2.25,-2.2 8.81,-1.83 17.74,-2.14 26.68,-2.42 4.6,-0.15 9.19,0.17 13.7,0.04 6.36,0.21 12.64,-0.09 18.91,0.23 3.07,0.15 3.26,0.27 3.53,3.35 0.54,6.11 0.18,12.21 -0.5,18.29 -0.32,2.86 -1.43,3.72 -4.35,3.89 -4.09,0.25 -8.13,-0.38 -12.2,-0.61 -3.75,-0.21 -7.49,-0.52 -11.24,-0.74 -1.64,-0.1 -2.26,0.51 -2.35,2.14 -0.14,2.69 0.09,5.36 0.49,8 0.38,2.48 1,2.94 3.38,3.43 0.82,0.17 1.63,0.33 2.45,0.5 4.62,0.93 9.22,1.91 13.68,3.53 8.44,3.08 14,9 17.34,17.15 3.74,9.11 3.72,18.31 0.08,27.43 -4.32,10.83 -11.38,19.36 -21.65,25.04 z"
   id="path132" />
&#10;				<path
   style="fill:#fff4db"
   d="m 191.063,277.989 c -0.857,1.067 -2.058,1.329 -3.254,1.512 -5.256,0.803 -10.433,0.249 -15.556,-1.019 -2.515,-0.622 -5.071,-1.116 -7.41,-2.315 -0.965,-0.495 -1.889,-1.048 -2.698,-1.767 -0.624,-0.554 -0.927,-1.258 -0.427,-2.024 0.533,-0.815 1.314,-0.681 2.014,-0.259 5.845,3.529 12.367,4.566 19.001,5.214 1.748,0.171 3.501,0.332 5.234,0.607 1.035,0.165 2.042,-0.078 3.096,0.051 z"
   id="path133" />
&#10;				<path
   style="fill:#fff4db"
   d="m 165.057,219.763 c -0.712,-0.156 -0.705,-0.718 -0.845,-1.127 -1.502,-4.398 -1.894,-8.971 -2.057,-13.571 -0.051,-1.435 0.018,-2.876 0.066,-4.312 0.02,-0.602 0.204,-1.179 0.498,-1.712 0.311,-0.564 0.739,-0.93 1.435,-0.885 0.654,0.042 0.995,0.464 1.23,0.997 0.278,0.63 0.379,1.309 0.375,1.991 -0.034,6.073 -0.015,12.148 -0.578,18.205 -0.01,0.111 -0.065,0.221 -0.124,0.414 z"
   id="path134" />
&#10;				<path
   style="fill:#fff4db"
   d="m 218.275,234.799 c -1.428,0.308 -2.613,-0.137 -3.792,-0.438 -2.629,-0.67 -5.242,-1.408 -7.852,-2.151 -1.772,-0.504 -2.637,-1.653 -2.219,-2.85 0.418,-1.196 1.853,-1.712 3.483,-1.079 3.315,1.288 6.634,2.596 9.276,5.113 0.288,0.274 0.548,0.58 0.806,0.883 0.095,0.113 0.15,0.259 0.298,0.522 z"
   id="path135" />
&#10;				<path
   style="fill:#fff4db"
   d="m 165.746,229.347 c -1.479,-0.651 -2.599,-3.336 -1.98,-4.748 0.379,-0.865 1.416,-1.01 2.049,-0.287 0.842,0.961 0.801,3.937 -0.069,5.035 z"
   id="path136" />
&#10;			</g>
&#10;		</g>
&#10;	</g>
  </g>
</svg>
