<?xml version="1.0" encoding="UTF-8" standalone="no"?>
<!-- Created with Inkscape (http://www.inkscape.org/) -->

<svg
   width="23.563059mm"
   height="33.935867mm"
   viewBox="0 0 23.563059 33.935867"
   version="1.1"
   id="svg1"
   xmlns="http://www.w3.org/2000/svg"
   xmlns:svg="http://www.w3.org/2000/svg">
  <defs
     id="defs1" />
  <g
     id="layer1"
     transform="translate(-18.785414,-181.23959)">
    <g
       id="g27"
       transform="matrix(0.26458333,0,0,0.26458333,-20.90665,93.286405)">&#10;		<g
   style="opacity:0.1"
   id="g18">&#10;			<path
   style="fill:#1c0d3f"
   d="m 231.01,384.16 c 0.05,7 -0.33,13.96 -1.82,20.82 -1.62,7.4 -3.88,14.58 -7.3,21.36 -3.73,7.41 -8.49,14.01 -15.39,18.81 -6.71,4.67 -14.2,7.19 -22.33,7.9 -6.93,0.6 -13.73,-0.07 -20.38,-2.1 -2.44,-0.74 -4.85,-1.58 -6.84,-3.33 -1.51,-1.32 -2.2,-2.95 -2,-4.89 0.57,-5.43 2.72,-10.21 6.23,-14.37 0.85,-1.01 1.96,-0.93 3.1,-0.66 2.29,0.54 4.54,1.3 6.89,1.49 7.08,0.58 14.1,0.85 20.84,-2.19 8.76,-3.95 12.07,-12.26 10.74,-20.5 -0.09,-0.59 -0.22,-1.23 -0.89,-1.43 -0.72,-0.22 -1.04,0.38 -1.46,0.82 -2.79,2.93 -6.39,4.39 -10.14,5.64 -2.92,0.97 -5.81,0.77 -8.75,0.24 -6.15,-1.09 -11.63,-3.59 -16,-8.07 -4.33,-4.44 -7.3,-9.75 -9.25,-15.64 -2.31,-6.97 -2.75,-14.02 -0.95,-21.14 1.42,-5.64 4.27,-10.57 8.21,-14.83 3.67,-3.96 7.79,-7.38 12.79,-9.53 10.09,-4.34 20.37,-4.8 30.72,-0.99 6,2.21 11.09,5.78 15.04,10.89 3.03,3.93 4.73,8.47 6.17,13.15 1.85,6.05 2.73,12.23 2.77,18.55 z m -39.94,2.98 c 9.77,0.05 16.7,-10.02 13.23,-19.15 -2.72,-7.14 -11.99,-8.72 -16.42,-5.75 -4.46,3 -6.3,7.35 -6.4,12.57 -0.05,1.83 0.28,3.59 0.82,5.31 1.42,4.47 4.61,7 8.77,7.02 z"
   id="path12" />
&#10;			<path
   style="fill:#1c0d3f"
   d="m 236.59,380.5 c -0.94,-7.61 -2.68,-15.03 -5.81,-22.06 -2.79,-6.28 -7.61,-10.88 -12.86,-15.09 -7.64,-6.14 -16.5,-8.29 -26.12,-7.88 -7.9,0.34 -15.13,2.75 -21.74,7.06 -7.56,4.93 -13.7,11.11 -17.12,19.65 -2.59,6.48 -2.96,13.28 -2.92,20.14 0.01,3.37 0.58,6.68 1.57,9.9 1.15,3.73 2.99,7.13 5.21,10.33 2.62,3.76 5.63,7.17 9.4,9.82 6.66,4.66 14.05,5.86 21.93,4.34 3.78,-0.73 7.43,-1.85 10.84,-3.85 -0.39,2.31 -1.18,4.42 -2.29,6.4 -2.08,3.67 -5.51,5.51 -9.44,6.41 -6.92,1.58 -13.82,1.03 -20.63,-0.75 -4.02,-1.05 -6.57,-0.25 -9.22,2.98 -4.13,5.01 -6,10.83 -6.37,17.22 -0.15,2.55 0.47,4.86 2.06,6.94 1.72,2.25 4.13,3.35 6.62,4.33 4.15,1.63 8.48,2.56 12.85,3.34 7.36,1.31 14.66,1.48 21.91,-0.84 7.72,-2.48 14.12,-7.1 20.11,-12.3 7.02,-6.1 11.56,-13.97 15.1,-22.48 1.97,-4.75 3.1,-9.73 4.43,-14.66 2.56,-9.51 3.7,-19.13 2.49,-28.95 z m -7.4,24.48 c -1.62,7.4 -3.88,14.58 -7.3,21.36 -3.73,7.41 -8.49,14.01 -15.39,18.81 -6.71,4.67 -14.2,7.19 -22.33,7.9 -6.93,0.6 -13.73,-0.07 -20.38,-2.1 -2.44,-0.74 -4.85,-1.58 -6.84,-3.33 -1.51,-1.32 -2.2,-2.95 -2,-4.89 0.57,-5.43 2.72,-10.21 6.23,-14.37 0.85,-1.01 1.96,-0.93 3.1,-0.66 2.29,0.54 4.54,1.3 6.89,1.49 7.08,0.58 14.1,0.85 20.84,-2.19 8.76,-3.95 12.07,-12.26 10.74,-20.5 -0.09,-0.59 -0.22,-1.23 -0.89,-1.43 -0.72,-0.22 -1.04,0.38 -1.46,0.82 -2.79,2.93 -6.39,4.39 -10.14,5.64 -2.92,0.97 -5.81,0.77 -8.75,0.24 -6.15,-1.09 -11.63,-3.59 -16,-8.07 -4.33,-4.44 -7.3,-9.75 -9.25,-15.64 -2.31,-6.97 -2.75,-14.02 -0.95,-21.14 1.42,-5.64 4.27,-10.57 8.21,-14.83 3.67,-3.96 7.79,-7.38 12.79,-9.53 10.09,-4.34 20.37,-4.8 30.72,-0.99 6,2.21 11.09,5.78 15.04,10.89 3.03,3.93 4.73,8.47 6.17,13.15 1.85,6.05 2.73,12.23 2.77,18.55 0.05,7 -0.33,13.96 -1.82,20.82 z"
   id="path13" />
&#10;			<path
   style="fill:#1c0d3f"
   d="m 187.88,362.24 c -4.46,3 -6.3,7.35 -6.4,12.57 -0.05,1.83 0.28,3.59 0.82,5.31 1.42,4.47 4.61,7 8.77,7.02 9.77,0.05 16.7,-10.02 13.23,-19.15 -2.72,-7.14 -11.99,-8.72 -16.42,-5.75 z m 4.5,21.36 c -4.34,0.02 -6.82,-3.21 -6.45,-8.06 0.28,-3.72 1.84,-7.05 4.64,-9.45 4.14,-3.54 8.19,-2.98 11.08,1.85 0.96,1.61 1.4,3.39 1.37,5.68 -0.2,6.29 -4.18,9.95 -10.64,9.98 z"
   id="path14" />
&#10;			<path
   style="fill:#1c0d3f"
   d="m 169.819,353.468 c 0.296,0.713 -0.047,1.166 -0.23,1.628 -1.576,3.967 -3.137,7.94 -4.768,11.885 -2.05,4.958 -2.966,10.081 -2.5,15.442 0.11,1.268 -0.406,2.049 -1.349,2.194 -0.903,0.138 -1.73,-0.491 -2.001,-1.675 -1.176,-5.148 -1.07,-10.235 1.005,-15.157 1.457,-3.456 2.971,-6.895 5.168,-9.974 0.908,-1.272 1.886,-2.482 3.114,-3.462 0.455,-0.363 0.905,-0.766 1.561,-0.881 z"
   id="path15" />
&#10;			<path
   style="fill:#1c0d3f"
   d="m 188.894,432.695 c -0.63,0.859 -1.52,1.291 -2.433,1.676 -1.6,0.675 -3.296,0.979 -5.008,1.086 -4.025,0.251 -8.057,0.405 -12.076,-0.124 -1.312,-0.173 -2.585,-0.519 -3.793,-1.056 -0.932,-0.415 -1.505,-1.116 -1.169,-2.191 0.323,-1.032 1.182,-1.251 2.124,-1.083 7.113,1.264 14.314,1.094 21.489,1.356 0.275,0.01 0.563,-0.048 0.866,0.336 z"
   id="path16" />
&#10;			<path
   style="fill:#1c0d3f"
   d="m 210.303,378.498 c -0.624,-2.648 -0.533,-5.224 -0.211,-7.789 0.106,-0.842 0.735,-1.406 1.664,-1.448 0.958,-0.043 1.573,0.435 1.917,1.311 0.149,0.38 0.219,0.772 0.166,1.17 -0.246,1.866 -0.655,3.688 -1.7,5.292 -0.405,0.621 -0.831,1.261 -1.836,1.464 z"
   id="path17" />
&#10;			<path
   style="fill:#1c0d3f"
   d="m 180.149,345.807 c 0.232,0.444 0.066,0.859 -0.147,1.243 -0.934,1.684 -2.241,3.012 -3.947,3.903 -0.842,0.439 -1.742,0.451 -2.412,-0.329 -0.671,-0.783 -0.502,-1.64 0.059,-2.425 1.333,-1.866 4.624,-3.081 6.447,-2.392 z"
   id="path18" />
&#10;		</g>
&#10;		<g
   id="g26">&#10;			<g
   id="g25">&#10;				<path
   style="fill:#39beb1"
   d="m 233.01,381.16 c 0.05,7 -0.33,13.96 -1.82,20.82 -1.62,7.4 -3.88,14.58 -7.3,21.36 -3.73,7.41 -8.49,14.01 -15.39,18.81 -6.71,4.67 -14.2,7.19 -22.33,7.9 -6.93,0.6 -13.73,-0.07 -20.38,-2.1 -2.44,-0.74 -4.85,-1.58 -6.84,-3.33 -1.51,-1.32 -2.2,-2.95 -2,-4.89 0.57,-5.43 2.72,-10.21 6.23,-14.37 0.85,-1.01 1.96,-0.93 3.1,-0.66 2.29,0.54 4.54,1.3 6.89,1.49 7.08,0.58 14.1,0.85 20.84,-2.19 8.76,-3.95 12.07,-12.26 10.74,-20.5 -0.09,-0.59 -0.22,-1.23 -0.89,-1.43 -0.72,-0.22 -1.04,0.38 -1.46,0.82 -2.79,2.93 -6.39,4.39 -10.14,5.64 -2.92,0.97 -5.81,0.77 -8.75,0.24 -6.15,-1.09 -11.63,-3.59 -16,-8.07 -4.33,-4.44 -7.3,-9.75 -9.25,-15.64 -2.31,-6.97 -2.75,-14.02 -0.95,-21.14 1.42,-5.64 4.27,-10.57 8.21,-14.83 3.67,-3.96 7.79,-7.38 12.79,-9.53 10.09,-4.34 20.37,-4.8 30.72,-0.99 6,2.21 11.09,5.78 15.04,10.89 3.03,3.93 4.73,8.47 6.17,13.15 1.85,6.05 2.73,12.23 2.77,18.55 z m -39.94,2.98 c 9.77,0.05 16.7,-10.02 13.23,-19.15 -2.72,-7.14 -11.99,-8.72 -16.42,-5.75 -4.46,3 -6.3,7.35 -6.4,12.57 -0.05,1.83 0.28,3.59 0.82,5.31 1.42,4.47 4.61,7 8.77,7.02 z"
   id="path19" />
&#10;				<g
   id="g21">&#10;					<path
   style="fill:#231333"
   d="m 238.59,377.5 c -0.94,-7.61 -2.68,-15.03 -5.81,-22.06 -2.79,-6.28 -7.61,-10.88 -12.86,-15.09 -7.64,-6.14 -16.5,-8.29 -26.12,-7.88 -7.9,0.34 -15.13,2.75 -21.74,7.06 -7.56,4.93 -13.7,11.11 -17.12,19.65 -2.59,6.48 -2.96,13.28 -2.92,20.14 0.01,3.37 0.58,6.68 1.57,9.9 1.15,3.73 2.99,7.13 5.21,10.33 2.62,3.76 5.63,7.17 9.4,9.82 6.66,4.66 14.05,5.86 21.93,4.34 3.78,-0.73 7.43,-1.85 10.84,-3.85 -0.39,2.31 -1.18,4.42 -2.29,6.4 -2.08,3.67 -5.51,5.51 -9.44,6.41 -6.92,1.58 -13.82,1.03 -20.63,-0.75 -4.02,-1.05 -6.57,-0.25 -9.22,2.98 -4.13,5.01 -6,10.83 -6.37,17.22 -0.15,2.55 0.47,4.86 2.06,6.94 1.72,2.25 4.13,3.35 6.62,4.33 4.15,1.63 8.48,2.56 12.85,3.34 7.36,1.31 14.66,1.48 21.91,-0.84 7.72,-2.48 14.12,-7.1 20.11,-12.3 7.02,-6.1 11.56,-13.97 15.1,-22.48 1.97,-4.75 3.1,-9.73 4.43,-14.66 2.56,-9.51 3.7,-19.13 2.49,-28.95 z m -7.4,24.48 c -1.62,7.4 -3.88,14.58 -7.3,21.36 -3.73,7.41 -8.49,14.01 -15.39,18.81 -6.71,4.67 -14.2,7.19 -22.33,7.9 -6.93,0.6 -13.73,-0.07 -20.38,-2.1 -2.44,-0.74 -4.85,-1.58 -6.84,-3.33 -1.51,-1.32 -2.2,-2.95 -2,-4.89 0.57,-5.43 2.72,-10.21 6.23,-14.37 0.85,-1.01 1.96,-0.93 3.1,-0.66 2.29,0.54 4.54,1.3 6.89,1.49 7.08,0.58 14.1,0.85 20.84,-2.19 8.76,-3.95 12.07,-12.26 10.74,-20.5 -0.09,-0.59 -0.22,-1.23 -0.89,-1.43 -0.72,-0.22 -1.04,0.38 -1.46,0.82 -2.79,2.93 -6.39,4.39 -10.14,5.64 -2.92,0.97 -5.81,0.77 -8.75,0.24 -6.15,-1.09 -11.63,-3.59 -16,-8.07 -4.33,-4.44 -7.3,-9.75 -9.25,-15.64 -2.31,-6.97 -2.75,-14.02 -0.95,-21.14 1.42,-5.64 4.27,-10.57 8.21,-14.83 3.67,-3.96 7.79,-7.38 12.79,-9.53 10.09,-4.34 20.37,-4.8 30.72,-0.99 6,2.21 11.09,5.78 15.04,10.89 3.03,3.93 4.73,8.47 6.17,13.15 1.85,6.05 2.73,12.23 2.77,18.55 0.05,7 -0.33,13.96 -1.82,20.82 z"
   id="path20" />
&#10;					<path
   style="fill:#231333"
   d="m 189.88,359.24 c -4.46,3 -6.3,7.35 -6.4,12.57 -0.05,1.83 0.28,3.59 0.82,5.31 1.42,4.47 4.61,7 8.77,7.02 9.77,0.05 16.7,-10.02 13.23,-19.15 -2.72,-7.14 -11.99,-8.72 -16.42,-5.75 z m 4.5,21.36 c -4.34,0.02 -6.82,-3.21 -6.45,-8.06 0.28,-3.72 1.84,-7.05 4.64,-9.45 4.14,-3.54 8.19,-2.98 11.08,1.85 0.96,1.61 1.4,3.39 1.37,5.68 -0.2,6.29 -4.18,9.95 -10.64,9.98 z"
   id="path21" />
&#10;				</g>
&#10;				<path
   style="fill:#fff4db"
   d="m 171.819,350.468 c 0.296,0.713 -0.047,1.166 -0.23,1.628 -1.576,3.967 -3.137,7.94 -4.768,11.885 -2.05,4.958 -2.966,10.081 -2.5,15.442 0.11,1.268 -0.406,2.049 -1.349,2.194 -0.903,0.138 -1.73,-0.491 -2.001,-1.675 -1.176,-5.148 -1.07,-10.235 1.005,-15.157 1.457,-3.456 2.971,-6.895 5.168,-9.974 0.908,-1.272 1.886,-2.482 3.114,-3.462 0.455,-0.363 0.905,-0.766 1.561,-0.881 z"
   id="path22" />
&#10;				<path
   style="fill:#fff4db"
   d="m 190.894,429.695 c -0.63,0.859 -1.52,1.291 -2.433,1.676 -1.6,0.675 -3.296,0.979 -5.008,1.086 -4.025,0.251 -8.057,0.405 -12.076,-0.124 -1.312,-0.173 -2.585,-0.519 -3.793,-1.056 -0.932,-0.415 -1.505,-1.116 -1.169,-2.191 0.323,-1.032 1.182,-1.251 2.124,-1.083 7.113,1.264 14.314,1.094 21.489,1.356 0.275,0.01 0.563,-0.048 0.866,0.336 z"
   id="path23" />
&#10;				<path
   style="fill:#fff4db"
   d="m 212.303,375.498 c -0.624,-2.648 -0.533,-5.224 -0.211,-7.789 0.106,-0.842 0.735,-1.406 1.664,-1.448 0.958,-0.043 1.573,0.435 1.917,1.311 0.149,0.38 0.219,0.772 0.166,1.17 -0.246,1.866 -0.655,3.688 -1.7,5.292 -0.405,0.621 -0.831,1.261 -1.836,1.464 z"
   id="path24" />
&#10;				<path
   style="fill:#fff4db"
   d="m 182.149,342.807 c 0.232,0.444 0.066,0.859 -0.147,1.243 -0.934,1.684 -2.241,3.012 -3.947,3.903 -0.842,0.439 -1.742,0.451 -2.412,-0.329 -0.671,-0.783 -0.502,-1.64 0.059,-2.425 1.333,-1.866 4.624,-3.081 6.447,-2.392 z"
   id="path25" />
&#10;			</g>
&#10;		</g>
&#10;	</g>
  </g>
</svg>
