<?xml version="1.0" encoding="UTF-8" standalone="no"?>
<!-- Created with Inkscape (http://www.inkscape.org/) -->

<svg
   width="20.451698mm"
   height="34.956566mm"
   viewBox="0 0 20.451698 34.956566"
   version="1.1"
   id="svg1"
   xmlns:inkscape="http://www.inkscape.org/namespaces/inkscape"
   xmlns:sodipodi="http://sodipodi.sourceforge.net/DTD/sodipodi-0.dtd"
   xmlns="http://www.w3.org/2000/svg"
   xmlns:svg="http://www.w3.org/2000/svg">
  <sodipodi:namedview
     id="namedview1"
     pagecolor="#ffffff"
     bordercolor="#000000"
     borderopacity="0.25"
     inkscape:showpageshadow="2"
     inkscape:pageopacity="0.0"
     inkscape:pagecheckerboard="0"
     inkscape:deskcolor="#d1d1d1"
     inkscape:document-units="mm" />
  <defs
     id="defs1" />
  <g
     inkscape:label="Layer 1"
     inkscape:groupmode="layer"
     id="layer1"
     transform="translate(-112.97708,-86.78333)">
    <g
       id="g84"
       inkscape:export-filename="funny-digits/g84.svg"
       inkscape:export-xdpi="96"
       inkscape:export-ydpi="96"
       transform="matrix(0.26458333,0,0,0.26458333,74.46056,77.053959)">&#10;		<g
   style="opacity:0.1"
   id="g77">&#10;			<path
   style="fill:#1c0d3f"
   d="m 214.331,66.205 c -0.177,6.066 0.582,12.101 0.478,18.167 -0.135,7.842 -0.322,15.674 -0.53,23.516 -0.229,8.787 -0.488,17.575 -0.779,26.372 -0.229,7.084 -0.332,14.178 -1.07,21.241 -0.166,1.558 -0.478,3.116 -0.862,4.643 -0.55,2.223 -1.963,3.365 -4.259,3.542 -6.201,0.478 -12.34,-0.135 -18.468,-1.049 -1.849,-0.28 -3.698,-0.488 -5.547,-0.789 -1.818,-0.291 -2.296,-0.862 -2.441,-2.721 -0.364,-4.529 0.208,-9.026 0.54,-13.534 0.53,-7.229 1.132,-14.448 1.745,-21.667 0.748,-8.673 1.548,-17.336 2.306,-26.009 0.384,-4.414 0.758,-8.839 1.101,-13.264 0.093,-1.07 0.176,-2.15 0.26,-3.23 0.104,-1.402 0.062,-2.815 0.052,-4.227 -0.01,-0.561 0.125,-1.226 -0.561,-1.527 -0.748,-0.322 -1.257,0.197 -1.724,0.665 -1.143,1.153 -2.254,2.327 -3.386,3.48 -5.63,5.702 -11.083,11.571 -16.173,17.762 -1.506,1.839 -2.327,1.953 -4.279,0.571 -4.124,-2.908 -7.717,-6.409 -11.145,-10.075 -1.413,-1.517 -1.755,-3.189 -0.748,-5.131 1.579,-3.095 3.76,-5.765 5.941,-8.424 4.092,-4.954 8.195,-9.909 12.402,-14.77 4.342,-5.007 8.642,-10.065 13.763,-14.355 1.6,-1.34 3.324,-2.171 5.152,-2.607 1.454,-0.343 2.992,-0.447 4.581,-0.343 5.515,0.353 10.979,1.184 16.432,2.036 1.226,0.187 2.43,0.488 3.656,0.748 1.485,0.301 2.233,1.215 2.41,2.742 0.696,6.053 1.403,12.119 1.153,18.237 z"
   id="path73" />
&#10;			<path
   style="fill:#1c0d3f"
   d="m 220.74,84.704 c -0.073,-5.962 -0.281,-11.935 -0.436,-17.907 -0.125,-4.674 -0.125,-9.359 -0.447,-14.043 -0.322,-4.498 -4.363,-10.242 -9.992,-10.937 -5.962,-0.727 -11.893,-1.672 -17.907,-2.005 -2.254,-0.125 -4.394,0.042 -6.43,0.561 -2.14,0.551 -4.165,1.506 -6.087,2.95 -4.736,3.532 -8.58,7.925 -12.423,12.319 -3.438,3.937 -6.741,7.987 -10.19,11.914 -3.594,4.092 -6.959,8.341 -9.67,13.098 -2.545,4.466 -1.839,8.725 0.81,12.776 2.69,4.134 6.668,6.907 10.833,9.359 3.906,2.295 5.547,2.005 8.829,-1.132 4.383,-4.186 8.33,-8.798 12.381,-13.295 1.298,-1.444 2.566,-2.919 4.072,-4.643 0,0.395 0.011,0.603 0.011,0.737 0,0.073 0,0.125 -0.011,0.177 -0.841,8.881 -1.703,17.762 -2.545,26.632 -1.111,11.862 -2.212,23.713 -3.095,35.586 -0.26,3.594 -0.602,7.198 -0.457,10.813 0.094,2.285 0.229,4.653 1.911,6.419 2.15,2.243 4.788,3.594 7.956,3.978 3.262,0.395 6.544,0.384 9.805,0.623 3.428,0.239 6.876,0.405 10.293,-0.281 2.763,-0.561 4.944,-1.849 6.284,-4.404 1.184,-2.264 1.973,-4.664 2.379,-7.177 2.119,-13.171 2.753,-26.487 3.417,-39.792 0.301,-5.921 -0.26,-11.852 0.478,-17.772 0.605,-4.832 0.283,-9.704 0.231,-14.554 z m -5.931,-0.333 c -0.135,7.842 -0.322,15.674 -0.53,23.516 -0.229,8.787 -0.488,17.575 -0.779,26.372 -0.229,7.084 -0.332,14.178 -1.07,21.241 -0.166,1.558 -0.478,3.116 -0.862,4.643 -0.55,2.223 -1.963,3.365 -4.259,3.542 -6.201,0.478 -12.34,-0.135 -18.468,-1.049 -1.849,-0.28 -3.698,-0.488 -5.547,-0.789 -1.818,-0.291 -2.296,-0.862 -2.441,-2.721 -0.364,-4.529 0.208,-9.026 0.54,-13.534 0.53,-7.229 1.132,-14.448 1.745,-21.667 0.748,-8.673 1.548,-17.336 2.306,-26.009 0.384,-4.414 0.758,-8.839 1.101,-13.264 0.094,-1.07 0.176,-2.15 0.26,-3.23 0.104,-1.402 0.062,-2.815 0.052,-4.228 -0.01,-0.561 0.125,-1.226 -0.561,-1.527 -0.748,-0.322 -1.257,0.197 -1.724,0.665 -1.143,1.153 -2.254,2.327 -3.386,3.48 -5.63,5.702 -11.083,11.571 -16.172,17.762 -1.506,1.839 -2.327,1.953 -4.279,0.571 -4.124,-2.908 -7.717,-6.409 -11.145,-10.075 -1.413,-1.517 -1.755,-3.189 -0.748,-5.131 1.579,-3.095 3.76,-5.765 5.941,-8.424 4.092,-4.955 8.195,-9.909 12.402,-14.77 4.342,-5.007 8.642,-10.065 13.763,-14.355 1.6,-1.34 3.324,-2.171 5.152,-2.607 1.454,-0.343 2.992,-0.447 4.581,-0.343 5.516,0.353 10.979,1.184 16.432,2.036 1.226,0.187 2.431,0.488 3.656,0.748 1.485,0.301 2.233,1.215 2.41,2.742 0.696,6.056 1.402,12.122 1.153,18.239 -0.177,6.066 0.581,12.1 0.477,18.166 z"
   id="path74" />
&#10;			<path
   style="fill:#1c0d3f"
   d="m 177.914,57.41 c -0.049,0.757 -0.508,1.266 -0.848,1.81 -1.012,1.619 -2.172,3.136 -3.417,4.581 -5.655,6.562 -11.326,13.11 -16.997,19.658 -0.297,0.343 -0.622,0.672 -0.977,0.953 -0.563,0.445 -1.224,0.616 -1.833,0.154 -0.635,-0.482 -0.562,-1.192 -0.24,-1.807 0.363,-0.694 0.813,-1.349 1.278,-1.982 5.39,-7.338 11.468,-14.062 18.153,-20.238 1.127,-1.041 2.328,-1.999 3.656,-2.778 0.331,-0.194 0.622,-0.583 1.225,-0.351 z"
   id="path75" />
&#10;			<path
   style="fill:#1c0d3f"
   d="m 210.234,134.612 c 0.621,3.912 0.699,7.626 0.522,11.349 -0.136,2.86 -0.318,5.718 -0.489,8.577 -0.052,0.874 -0.174,1.74 -0.66,2.5 -0.354,0.554 -0.83,0.947 -1.534,0.874 -0.696,-0.072 -1.099,-0.534 -1.351,-1.145 -0.225,-0.547 -0.315,-1.13 -0.246,-1.709 0.76,-6.339 1.27,-12.716 2.865,-18.929 0.179,-0.693 0.257,-0.839 0.893,-1.517 z"
   id="path76" />
&#10;			<path
   style="fill:#1c0d3f"
   d="m 184.779,50.207 c 0.157,1.508 -1.47,4.51 -2.703,5.032 -0.655,0.277 -1.311,0.268 -1.847,-0.253 -0.61,-0.593 -0.618,-1.299 -0.308,-2.058 0.53,-1.299 3.094,-3.071 4.858,-2.721 z"
   id="path77" />
&#10;		</g>
&#10;		<g
   id="g83">&#10;			<g
   id="g82">&#10;				<path
   style="fill:#fdc74d"
   d="m 216.331,63.205 c -0.177,6.066 0.582,12.101 0.478,18.167 -0.135,7.842 -0.322,15.674 -0.53,23.516 -0.229,8.787 -0.488,17.575 -0.779,26.372 -0.229,7.084 -0.332,14.178 -1.07,21.241 -0.166,1.558 -0.478,3.116 -0.862,4.643 -0.55,2.223 -1.963,3.365 -4.259,3.542 -6.201,0.478 -12.34,-0.135 -18.468,-1.049 -1.849,-0.28 -3.698,-0.488 -5.547,-0.789 -1.818,-0.291 -2.296,-0.862 -2.441,-2.721 -0.364,-4.529 0.208,-9.026 0.54,-13.534 0.53,-7.229 1.132,-14.448 1.745,-21.667 0.748,-8.673 1.548,-17.336 2.306,-26.009 0.384,-4.414 0.758,-8.839 1.101,-13.264 0.093,-1.07 0.176,-2.15 0.26,-3.23 0.104,-1.402 0.062,-2.815 0.052,-4.227 -0.01,-0.561 0.125,-1.226 -0.561,-1.527 -0.748,-0.322 -1.257,0.197 -1.724,0.665 -1.143,1.153 -2.254,2.327 -3.386,3.48 -5.63,5.702 -11.083,11.571 -16.173,17.762 -1.506,1.839 -2.327,1.953 -4.279,0.571 -4.124,-2.908 -7.717,-6.409 -11.145,-10.075 -1.413,-1.517 -1.755,-3.189 -0.748,-5.131 1.579,-3.095 3.76,-5.765 5.941,-8.424 4.092,-4.954 8.195,-9.909 12.402,-14.77 4.342,-5.007 8.642,-10.065 13.763,-14.355 1.6,-1.34 3.324,-2.171 5.152,-2.607 1.454,-0.343 2.992,-0.447 4.581,-0.343 5.515,0.353 10.979,1.184 16.432,2.036 1.226,0.187 2.43,0.488 3.656,0.748 1.485,0.301 2.233,1.215 2.41,2.742 0.696,6.053 1.403,12.119 1.153,18.237 z"
   id="path78" />
&#10;				<path
   style="fill:#231333"
   d="m 222.74,81.704 c -0.073,-5.962 -0.281,-11.935 -0.436,-17.907 -0.125,-4.674 -0.125,-9.359 -0.447,-14.043 -0.322,-4.498 -4.363,-10.242 -9.992,-10.937 -5.962,-0.727 -11.893,-1.672 -17.907,-2.005 -2.254,-0.125 -4.394,0.042 -6.43,0.561 -2.14,0.551 -4.165,1.506 -6.087,2.95 -4.736,3.532 -8.58,7.925 -12.423,12.319 -3.438,3.937 -6.741,7.987 -10.19,11.914 -3.594,4.092 -6.959,8.341 -9.67,13.098 -2.545,4.466 -1.839,8.725 0.81,12.776 2.69,4.134 6.668,6.907 10.833,9.359 3.906,2.295 5.547,2.005 8.829,-1.132 4.383,-4.186 8.33,-8.798 12.381,-13.295 1.298,-1.444 2.566,-2.919 4.072,-4.643 0,0.395 0.011,0.603 0.011,0.737 0,0.073 0,0.125 -0.011,0.177 -0.841,8.881 -1.703,17.762 -2.545,26.632 -1.111,11.862 -2.212,23.713 -3.095,35.586 -0.26,3.594 -0.602,7.198 -0.457,10.813 0.094,2.285 0.229,4.653 1.911,6.419 2.15,2.243 4.788,3.594 7.956,3.978 3.262,0.395 6.544,0.384 9.805,0.623 3.428,0.239 6.876,0.405 10.293,-0.281 2.763,-0.561 4.944,-1.849 6.284,-4.404 1.184,-2.264 1.973,-4.664 2.379,-7.177 2.119,-13.171 2.753,-26.487 3.417,-39.792 0.301,-5.921 -0.26,-11.852 0.478,-17.772 0.605,-4.832 0.283,-9.704 0.231,-14.554 z m -5.931,-0.333 c -0.135,7.842 -0.322,15.674 -0.53,23.516 -0.229,8.787 -0.488,17.575 -0.779,26.372 -0.229,7.084 -0.332,14.178 -1.07,21.241 -0.166,1.558 -0.478,3.116 -0.862,4.643 -0.55,2.223 -1.963,3.365 -4.259,3.542 -6.201,0.478 -12.34,-0.135 -18.468,-1.049 -1.849,-0.28 -3.698,-0.488 -5.547,-0.789 -1.818,-0.291 -2.296,-0.862 -2.441,-2.721 -0.364,-4.529 0.208,-9.026 0.54,-13.534 0.53,-7.229 1.132,-14.448 1.745,-21.667 0.748,-8.673 1.548,-17.336 2.306,-26.009 0.384,-4.414 0.758,-8.839 1.101,-13.264 0.094,-1.07 0.176,-2.15 0.26,-3.23 0.104,-1.402 0.062,-2.815 0.052,-4.228 -0.01,-0.561 0.125,-1.226 -0.561,-1.527 -0.748,-0.322 -1.257,0.197 -1.724,0.665 -1.143,1.153 -2.254,2.327 -3.386,3.48 -5.63,5.702 -11.083,11.571 -16.172,17.762 -1.506,1.839 -2.327,1.953 -4.279,0.571 -4.124,-2.908 -7.717,-6.409 -11.145,-10.075 -1.413,-1.517 -1.755,-3.189 -0.748,-5.131 1.579,-3.095 3.76,-5.765 5.941,-8.424 4.092,-4.955 8.195,-9.909 12.402,-14.77 4.342,-5.007 8.642,-10.065 13.763,-14.355 1.6,-1.34 3.324,-2.171 5.152,-2.607 1.454,-0.343 2.992,-0.447 4.581,-0.343 5.516,0.353 10.979,1.184 16.432,2.036 1.226,0.187 2.431,0.488 3.656,0.748 1.485,0.301 2.233,1.215 2.41,2.742 0.696,6.056 1.402,12.122 1.153,18.24 -0.177,6.065 0.581,12.099 0.477,18.165 z"
   id="path79" />
&#10;				<path
   style="fill:#fff4db"
   d="m 179.914,54.41 c -0.049,0.757 -0.508,1.266 -0.848,1.81 -1.012,1.619 -2.172,3.136 -3.417,4.581 -5.655,6.562 -11.326,13.11 -16.997,19.658 -0.297,0.343 -0.622,0.672 -0.977,0.953 -0.563,0.445 -1.224,0.616 -1.833,0.154 -0.635,-0.482 -0.562,-1.192 -0.24,-1.807 0.363,-0.694 0.813,-1.349 1.278,-1.982 5.39,-7.338 11.468,-14.062 18.153,-20.238 1.127,-1.041 2.328,-1.999 3.656,-2.778 0.331,-0.194 0.622,-0.583 1.225,-0.351 z"
   id="path80" />
&#10;				<path
   style="fill:#fff4db"
   d="m 212.234,131.612 c 0.621,3.912 0.699,7.626 0.522,11.349 -0.136,2.86 -0.318,5.718 -0.489,8.577 -0.052,0.874 -0.174,1.74 -0.66,2.5 -0.354,0.554 -0.83,0.947 -1.534,0.874 -0.696,-0.072 -1.099,-0.534 -1.351,-1.145 -0.225,-0.547 -0.315,-1.13 -0.246,-1.709 0.76,-6.339 1.27,-12.716 2.865,-18.929 0.179,-0.693 0.257,-0.839 0.893,-1.517 z"
   id="path81" />
&#10;				<path
   style="fill:#fff4db"
   d="m 186.779,47.207 c 0.157,1.508 -1.47,4.51 -2.703,5.032 -0.655,0.277 -1.311,0.268 -1.847,-0.253 -0.61,-0.593 -0.618,-1.299 -0.308,-2.058 0.53,-1.299 3.094,-3.071 4.858,-2.721 z"
   id="path82" />
&#10;			</g>
&#10;		</g>
&#10;	</g>
  </g>
</svg>
