<?xml version="1.0" encoding="UTF-8" standalone="no"?>
<!-- Created with Inkscape (http://www.inkscape.org/) -->

<svg
   width="66.11805mm"
   height="92.561829mm"
   viewBox="0 0 66.11805 92.561829"
   version="1.1"
   id="svg1"
   xmlns:inkscape="http://www.inkscape.org/namespaces/inkscape"
   xmlns:sodipodi="http://sodipodi.sourceforge.net/DTD/sodipodi-0.dtd"
   xmlns="http://www.w3.org/2000/svg"
   xmlns:svg="http://www.w3.org/2000/svg">
  <sodipodi:namedview
     id="namedview1"
     pagecolor="#ffffff"
     bordercolor="#000000"
     borderopacity="0.25"
     inkscape:showpageshadow="2"
     inkscape:pageopacity="0.0"
     inkscape:pagecheckerboard="0"
     inkscape:deskcolor="#d1d1d1"
     inkscape:document-units="mm" />
  <defs
     id="defs1">
    <radialGradient
       id="SVGID_00000003783168719678546540000011747229601002091652_"
       cx="137.5452"
       cy="262.59421"
       r="505.87909"
       gradientUnits="userSpaceOnUse">&#10;					<stop
   offset="0.6156"
   style="stop-color:#FFFFFF"
   id="stop485" />
&#10;					<stop
   offset="0.7878"
   style="stop-color:#FDFDFD"
   id="stop486" />
&#10;					<stop
   offset="0.8537"
   style="stop-color:#F6F6F6"
   id="stop487" />
&#10;					<stop
   offset="0.9014"
   style="stop-color:#EAEAEA"
   id="stop488" />
&#10;					<stop
   offset="0.9403"
   style="stop-color:#D9D9D9"
   id="stop489" />
&#10;					<stop
   offset="0.9735"
   style="stop-color:#C3C3C3"
   id="stop490" />
&#10;					<stop
   offset="1"
   style="stop-color:#ABABAB"
   id="stop491" />
&#10;				</radialGradient>
    <radialGradient
       id="SVGID_00000173144154036412166710000006627777915803779459_"
       cx="142.5499"
       cy="704.69531"
       r="362.49481"
       gradientUnits="userSpaceOnUse">&#10;					<stop
   offset="0.6156"
   style="stop-color:#FFFFFF"
   id="stop503" />
&#10;					<stop
   offset="0.747"
   style="stop-color:#FDFDFD"
   id="stop504" />
&#10;					<stop
   offset="0.8206"
   style="stop-color:#F5F5F5"
   id="stop505" />
&#10;					<stop
   offset="0.8799"
   style="stop-color:#E7E7E7"
   id="stop506" />
&#10;					<stop
   offset="0.9316"
   style="stop-color:#D3D3D3"
   id="stop507" />
&#10;					<stop
   offset="0.9778"
   style="stop-color:#BABABA"
   id="stop508" />
&#10;					<stop
   offset="1"
   style="stop-color:#ABABAB"
   id="stop509" />
&#10;				</radialGradient>
    <radialGradient
       id="SVGID_00000086654147301249781070000008554782220973036693_"
       cx="5.7797999"
       cy="381.702"
       r="402.49481"
       gradientUnits="userSpaceOnUse">&#10;					<stop
   offset="0.0988"
   style="stop-color:#FFFFFF"
   id="stop512" />
&#10;					<stop
   offset="1"
   style="stop-color:#ABABAB"
   id="stop513" />
&#10;				</radialGradient>
    <radialGradient
       id="SVGID_00000060737731813077252380000016485574297571851650_"
       cx="84.724297"
       cy="483.67389"
       r="342.81839"
       gradientUnits="userSpaceOnUse">&#10;				<stop
   offset="0"
   style="stop-color:#FFFFFF"
   id="stop526" />
&#10;				<stop
   offset="0.1413"
   style="stop-color:#FFFFFF"
   id="stop527" />
&#10;				<stop
   offset="1"
   style="stop-color:#FFFFFF"
   id="stop528" />
&#10;			</radialGradient>
    <radialGradient
       id="SVGID_00000145748196325034410400000005044701628462634907_"
       cx="1938.2528"
       cy="381.7005"
       r="402.57458"
       gradientTransform="matrix(-1,0,0,1,2215.418,0)"
       gradientUnits="userSpaceOnUse">&#10;					<stop
   offset="0.0988"
   style="stop-color:#FFFFFF"
   id="stop531" />
&#10;					<stop
   offset="1"
   style="stop-color:#ABABAB"
   id="stop532" />
&#10;				</radialGradient>
    <filter
       id="Adobe_OpacityMaskFilter_00000170962638107586899130000016543790863235339192_"
       filterUnits="userSpaceOnUse"
       x="16.469"
       y="570.659"
       width="249.88499"
       height="161.041">&#10;						<feFlood
   result="back"
   id="feFlood472" />
&#10;						<feBlend
   in="SourceGraphic"
   in2="back"
   mode="normal"
   id="feBlend472" />
&#10;					</filter>
    <filter
       id="Adobe_OpacityMaskFilter_00000156581921331345917400000005836440042296366746_"
       filterUnits="userSpaceOnUse"
       x="16.469"
       y="570.659"
       width="249.88499"
       height="161.041">&#10;								<feFlood
   result="back"
   id="feFlood473" />
&#10;								<feBlend
   in="SourceGraphic"
   in2="back"
   mode="normal"
   id="feBlend473" />
&#10;							</filter>
    <filter
       id="Adobe_OpacityMaskFilter_00000181806477950594977540000014510153369625912193_"
       filterUnits="userSpaceOnUse"
       x="16.468"
       y="381.85999"
       width="249.88699"
       height="174.632">&#10;						<feFlood
   result="back"
   id="feFlood491" />
&#10;						<feBlend
   in="SourceGraphic"
   in2="back"
   mode="normal"
   id="feBlend491" />
&#10;					</filter>
    <filter
       id="Adobe_OpacityMaskFilter_00000050652989914796584840000006142823261347614626_"
       filterUnits="userSpaceOnUse"
       x="16.468"
       y="381.85999"
       width="249.88699"
       height="174.632">&#10;								<feFlood
   result="back"
   id="feFlood492" />
&#10;								<feBlend
   in="SourceGraphic"
   in2="back"
   mode="normal"
   id="feBlend492" />
&#10;							</filter>
    <filter
       id="Adobe_OpacityMaskFilter_00000095338962603638410100000002170001267222695073_"
       filterUnits="userSpaceOnUse"
       x="21.070999"
       y="381.85901"
       width="245.285"
       height="349.84">&#10;						<feFlood
   result="back"
   id="feFlood509" />
&#10;						<feBlend
   in="SourceGraphic"
   in2="back"
   mode="normal"
   id="feBlend509" />
&#10;					</filter>
    <filter
       id="Adobe_OpacityMaskFilter_00000174582819981468958190000007002953100394861476_"
       filterUnits="userSpaceOnUse"
       x="21.070999"
       y="381.85901"
       width="245.285"
       height="349.84">&#10;								<feFlood
   result="back"
   id="feFlood510" />
&#10;								<feBlend
   in="SourceGraphic"
   in2="back"
   mode="normal"
   id="feBlend510" />
&#10;							</filter>
    <filter
       id="Adobe_OpacityMaskFilter_00000140719494913540241310000002276448308455402652_"
       filterUnits="userSpaceOnUse"
       x="16.468"
       y="381.85999"
       width="245.286"
       height="349.84">&#10;					<feFlood
   result="back"
   id="feFlood513" />
&#10;					<feBlend
   in="SourceGraphic"
   in2="back"
   mode="normal"
   id="feBlend513" />
&#10;				</filter>
    <filter
       id="Adobe_OpacityMaskFilter_00000171705043317966833260000005062662821966946989_"
       filterUnits="userSpaceOnUse"
       x="16.468"
       y="381.85999"
       width="245.286"
       height="349.84">&#10;							<feFlood
   result="back"
   id="feFlood514" />
&#10;							<feBlend
   in="SourceGraphic"
   in2="back"
   mode="normal"
   id="feBlend514" />
&#10;						</filter>
    <filter
       id="Adobe_OpacityMaskFilter_00000165225248106107692170000003443685880584376229_"
       filterUnits="userSpaceOnUse"
       x="16.461"
       y="407.13901"
       width="0.50700003"
       height="301.65399">&#10;						<feFlood
   result="back"
   id="feFlood528" />
&#10;						<feBlend
   in="SourceGraphic"
   in2="back"
   mode="normal"
   id="feBlend528" />
&#10;					</filter>
    <filter
       id="Adobe_OpacityMaskFilter_00000181808656578352393980000017777131531622024105_"
       filterUnits="userSpaceOnUse"
       x="16.461"
       y="407.13901"
       width="0.50700003"
       height="301.65399">&#10;								<feFlood
   result="back"
   id="feFlood529" />
&#10;								<feBlend
   in="SourceGraphic"
   in2="back"
   mode="normal"
   id="feBlend529" />
&#10;							</filter>
  </defs>
  <g
     inkscape:label="Layer 1"
     inkscape:groupmode="layer"
     id="layer1"
     transform="translate(-63.500001,-156.63334)">
    <g
       id="g558"
       transform="matrix(0.26458333,0,0,0.26458333,59.144694,55.599543)">&#10;		<g
   id="g533">&#10;			<g
   id="g509">&#10;				<path
   style="fill:#ffffff"
   d="M 256.684,381.86 H 146.117 136.707 26.14 c 0,0 -9.672,0.263 -9.672,13.065 l 0.001,87.263 v 149.183 87.266 c 0,12.801 9.671,13.063 9.671,13.063 h 110.567 9.41 110.566 c 0,0 9.671,-0.263 9.671,-13.063 V 631.371 482.189 394.926 c 0,-12.803 -9.67,-13.066 -9.67,-13.066 z"
   id="path472" />
&#10;				<defs
   id="defs472" />
&#10;				&#10;					<mask
   maskUnits="userSpaceOnUse"
   x="16.469"
   y="570.659"
   width="249.885"
   height="161.041"
   id="mask484">&#10;					<g
   style="filter:url(#Adobe_OpacityMaskFilter_00000170962638107586899130000016543790863235339192_)"
   id="g484">&#10;						<defs
   id="defs473" />
&#10;						&#10;							<mask
   maskUnits="userSpaceOnUse"
   x="16.469"
   y="570.659"
   width="249.885"
   height="161.041"
   id="SVGID_00000062900647104396059410000004435033719854770851_">&#10;							<g
   style="filter:url(#Adobe_OpacityMaskFilter_00000156581921331345917400000005836440042296366746_)"
   id="g473">&#10;							</g>
&#10;						</mask>
&#10;						&#10;							<radialGradient
   id="SVGID_00000118397456601868866590000016971292725475468937_"
   cx="137.5452"
   cy="262.59421"
   r="505.87909"
   gradientUnits="userSpaceOnUse">&#10;							<stop
   offset="0.6156"
   style="stop-color:#000000"
   id="stop473" />
&#10;							<stop
   offset="0.7516"
   style="stop-color:#020202"
   id="stop474" />
&#10;							<stop
   offset="0.8037"
   style="stop-color:#090909"
   id="stop475" />
&#10;							<stop
   offset="0.8413"
   style="stop-color:#151515"
   id="stop476" />
&#10;							<stop
   offset="0.8721"
   style="stop-color:#262626"
   id="stop477" />
&#10;							<stop
   offset="0.8986"
   style="stop-color:#3C3C3C"
   id="stop478" />
&#10;							<stop
   offset="0.9222"
   style="stop-color:#585858"
   id="stop479" />
&#10;							<stop
   offset="0.9436"
   style="stop-color:#797979"
   id="stop480" />
&#10;							<stop
   offset="0.9634"
   style="stop-color:#9F9F9F"
   id="stop481" />
&#10;							<stop
   offset="0.9817"
   style="stop-color:#CBCBCB"
   id="stop482" />
&#10;							<stop
   offset="0.9982"
   style="stop-color:#F9F9F9"
   id="stop483" />
&#10;							<stop
   offset="1"
   style="stop-color:#FFFFFF"
   id="stop484" />
&#10;						</radialGradient>
&#10;						&#10;							<path
   style="fill:url(#SVGID_00000118397456601868866590000016971292725475468937_)"
   d="m 163.806,570.673 c -49.112,0.01 -98.224,0.03 -147.336,0.051 v 147.913 c 0,12.801 9.671,13.063 9.671,13.063 h 230.543 c 0,0 9.671,-0.263 9.671,-13.063 V 570.659 c -34.183,0.004 -68.366,0.006 -102.549,0.014 z"
   mask="url(#SVGID_00000062900647104396059410000004435033719854770851_)"
   id="path484" />
&#10;					</g>
&#10;				</mask>
&#10;				&#10;					<radialGradient
   id="radialGradient7"
   cx="137.5452"
   cy="262.59421"
   r="505.87909"
   gradientUnits="userSpaceOnUse">&#10;					<stop
   offset="0.6156"
   style="stop-color:#FFFFFF"
   id="stop1" />
&#10;					<stop
   offset="0.7878"
   style="stop-color:#FDFDFD"
   id="stop2" />
&#10;					<stop
   offset="0.8537"
   style="stop-color:#F6F6F6"
   id="stop3" />
&#10;					<stop
   offset="0.9014"
   style="stop-color:#EAEAEA"
   id="stop4" />
&#10;					<stop
   offset="0.9403"
   style="stop-color:#D9D9D9"
   id="stop5" />
&#10;					<stop
   offset="0.9735"
   style="stop-color:#C3C3C3"
   id="stop6" />
&#10;					<stop
   offset="1"
   style="stop-color:#ABABAB"
   id="stop7" />
&#10;				</radialGradient>
&#10;				<path
   style="fill:url(#SVGID_00000003783168719678546540000011747229601002091652_)"
   d="m 163.806,570.673 c -49.112,0.01 -98.224,0.03 -147.336,0.051 v 147.913 c 0,12.801 9.671,13.063 9.671,13.063 h 230.543 c 0,0 9.671,-0.263 9.671,-13.063 V 570.659 c -34.183,0.004 -68.366,0.006 -102.549,0.014 z"
   id="path491" />
&#10;				<defs
   id="defs491" />
&#10;				&#10;					<mask
   maskUnits="userSpaceOnUse"
   x="16.468"
   y="381.86"
   width="249.887"
   height="174.632"
   id="mask502">&#10;					<g
   style="filter:url(#Adobe_OpacityMaskFilter_00000181806477950594977540000014510153369625912193_)"
   id="g502">&#10;						<defs
   id="defs492" />
&#10;						&#10;							<mask
   maskUnits="userSpaceOnUse"
   x="16.468"
   y="381.86"
   width="249.887"
   height="174.632"
   id="SVGID_00000092433848143848645340000006638793533386668418_">&#10;							<g
   style="filter:url(#Adobe_OpacityMaskFilter_00000050652989914796584840000006142823261347614626_)"
   id="g492">&#10;							</g>
&#10;						</mask>
&#10;						&#10;							<radialGradient
   id="SVGID_00000074436741057025465360000007972436291755649437_"
   cx="142.5499"
   cy="704.69531"
   r="362.49481"
   gradientUnits="userSpaceOnUse">&#10;							<stop
   offset="0.6156"
   style="stop-color:#000000"
   id="stop492" />
&#10;							<stop
   offset="0.7096"
   style="stop-color:#020202"
   id="stop493" />
&#10;							<stop
   offset="0.7623"
   style="stop-color:#0A0A0A"
   id="stop494" />
&#10;							<stop
   offset="0.8047"
   style="stop-color:#181818"
   id="stop495" />
&#10;							<stop
   offset="0.8418"
   style="stop-color:#2C2C2C"
   id="stop496" />
&#10;							<stop
   offset="0.8752"
   style="stop-color:#464646"
   id="stop497" />
&#10;							<stop
   offset="0.9062"
   style="stop-color:#656565"
   id="stop498" />
&#10;							<stop
   offset="0.9352"
   style="stop-color:#8A8A8A"
   id="stop499" />
&#10;							<stop
   offset="0.9626"
   style="stop-color:#B6B6B6"
   id="stop500" />
&#10;							<stop
   offset="0.9879"
   style="stop-color:#E5E5E5"
   id="stop501" />
&#10;							<stop
   offset="1"
   style="stop-color:#FFFFFF"
   id="stop502" />
&#10;						</radialGradient>
&#10;						&#10;							<path
   style="fill:url(#SVGID_00000074436741057025465360000007972436291755649437_)"
   d="m 16.469,556.401 c 21.029,0.016 42.059,0.032 63.088,0.044 60.603,0.035 121.205,0.039 181.81,0.047 1.662,0 3.324,-10e-4 4.987,-10e-4 V 394.926 c 0,-12.803 -9.671,-13.065 -9.671,-13.065 H 26.14 c 0,0 -9.672,0.263 -9.672,13.065 l 0.001,87.263 z"
   mask="url(#SVGID_00000092433848143848645340000006638793533386668418_)"
   id="path502" />
&#10;					</g>
&#10;				</mask>
&#10;				&#10;					<radialGradient
   id="radialGradient14"
   cx="142.5499"
   cy="704.69531"
   r="362.49481"
   gradientUnits="userSpaceOnUse">&#10;					<stop
   offset="0.6156"
   style="stop-color:#FFFFFF"
   id="stop8" />
&#10;					<stop
   offset="0.747"
   style="stop-color:#FDFDFD"
   id="stop9" />
&#10;					<stop
   offset="0.8206"
   style="stop-color:#F5F5F5"
   id="stop10" />
&#10;					<stop
   offset="0.8799"
   style="stop-color:#E7E7E7"
   id="stop11" />
&#10;					<stop
   offset="0.9316"
   style="stop-color:#D3D3D3"
   id="stop12" />
&#10;					<stop
   offset="0.9778"
   style="stop-color:#BABABA"
   id="stop13" />
&#10;					<stop
   offset="1"
   style="stop-color:#ABABAB"
   id="stop14-4" />
&#10;				</radialGradient>
&#10;				<path
   style="fill:url(#SVGID_00000173144154036412166710000006627777915803779459_)"
   d="m 16.469,556.401 c 21.029,0.016 42.059,0.032 63.088,0.044 60.603,0.035 121.205,0.039 181.81,0.047 1.662,0 3.324,-10e-4 4.987,-10e-4 V 394.926 c 0,-12.803 -9.671,-13.065 -9.671,-13.065 H 26.14 c 0,0 -9.672,0.263 -9.672,13.065 l 0.001,87.263 z"
   id="path509" />
&#10;			</g>
&#10;			<g
   id="g513">&#10;				<defs
   id="defs509" />
&#10;				&#10;					<mask
   maskUnits="userSpaceOnUse"
   x="21.071"
   y="381.859"
   width="245.285"
   height="349.84"
   id="mask511">&#10;					<g
   style="filter:url(#Adobe_OpacityMaskFilter_00000095338962603638410100000002170001267222695073_)"
   id="g511">&#10;						<defs
   id="defs510" />
&#10;						&#10;							<mask
   maskUnits="userSpaceOnUse"
   x="21.071"
   y="381.859"
   width="245.285"
   height="349.84"
   id="SVGID_00000129196274132726787620000004549302521012266401_">&#10;							<g
   style="filter:url(#Adobe_OpacityMaskFilter_00000174582819981468958190000007002953100394861476_)"
   id="g510">&#10;							</g>
&#10;						</mask>
&#10;						&#10;							<radialGradient
   id="SVGID_00000124149695013268367650000008766532164870455451_"
   cx="5.7797999"
   cy="381.702"
   r="402.49481"
   gradientUnits="userSpaceOnUse">&#10;							<stop
   offset="0.0988"
   style="stop-color:#000000"
   id="stop510" />
&#10;							<stop
   offset="1"
   style="stop-color:#FFFFFF"
   id="stop511" />
&#10;						</radialGradient>
&#10;						&#10;							<path
   style="fill:url(#SVGID_00000124149695013268367650000008766532164870455451_)"
   d="m 265.849,394.904 v 87.139 148.967 l 0.001,87.137 c 0,12.784 -9.683,13.047 -9.683,13.047 H 145.491 136.07 25.392 c 0,0 -2.086,-0.059 -4.32,-1.398 2.492,1.829 5.069,1.903 5.069,1.903 h 110.568 9.41 110.565 c 0,0 9.672,-0.263 9.672,-13.066 V 631.371 482.188 394.924 c 0,-12.801 -9.672,-13.064 -9.672,-13.064 h -0.516 c 0,-0.001 9.681,0.262 9.681,13.044 z"
   mask="url(#SVGID_00000129196274132726787620000004549302521012266401_)"
   id="path511" />
&#10;					</g>
&#10;				</mask>
&#10;				&#10;					<radialGradient
   id="radialGradient16"
   cx="5.7797999"
   cy="381.702"
   r="402.49481"
   gradientUnits="userSpaceOnUse">&#10;					<stop
   offset="0.0988"
   style="stop-color:#FFFFFF"
   id="stop15-8" />
&#10;					<stop
   offset="1"
   style="stop-color:#ABABAB"
   id="stop16-7" />
&#10;				</radialGradient>
&#10;				<path
   style="fill:url(#SVGID_00000086654147301249781070000008554782220973036693_)"
   d="m 265.849,394.904 v 87.139 148.967 l 0.001,87.137 c 0,12.784 -9.683,13.047 -9.683,13.047 H 145.491 136.07 25.392 c 0,0 -2.086,-0.059 -4.32,-1.398 2.492,1.829 5.069,1.903 5.069,1.903 h 110.568 9.41 110.565 c 0,0 9.672,-0.263 9.672,-13.066 V 631.371 482.188 394.924 c 0,-12.801 -9.672,-13.064 -9.672,-13.064 h -0.516 c 0,-0.001 9.681,0.262 9.681,13.044 z"
   id="path513" />
&#10;			</g>
&#10;			<defs
   id="defs513" />
&#10;			&#10;				<mask
   maskUnits="userSpaceOnUse"
   x="16.468"
   y="381.86"
   width="245.286"
   height="349.84"
   id="mask525">&#10;				<g
   style="filter:url(#Adobe_OpacityMaskFilter_00000140719494913540241310000002276448308455402652_)"
   id="g525">&#10;					<defs
   id="defs514" />
&#10;					&#10;						<mask
   maskUnits="userSpaceOnUse"
   x="16.468"
   y="381.86"
   width="245.286"
   height="349.84"
   id="SVGID_00000077294891805815443860000015987681124379409562_">&#10;						<g
   style="filter:url(#Adobe_OpacityMaskFilter_00000171705043317966833260000005062662821966946989_)"
   id="g514">&#10;						</g>
&#10;					</mask>
&#10;					&#10;						<radialGradient
   id="SVGID_00000162346251613460220090000002426144903922146999_"
   cx="84.724297"
   cy="483.67389"
   r="342.81839"
   gradientUnits="userSpaceOnUse">&#10;						<stop
   offset="0"
   style="stop-color:#000000"
   id="stop514" />
&#10;						<stop
   offset="0.0074"
   style="stop-color:#090909"
   id="stop515" />
&#10;						<stop
   offset="0.0477"
   style="stop-color:#373737"
   id="stop516" />
&#10;						<stop
   offset="0.0931"
   style="stop-color:#626262"
   id="stop517" />
&#10;						<stop
   offset="0.1419"
   style="stop-color:#888888"
   id="stop518" />
&#10;						<stop
   offset="0.195"
   style="stop-color:#A8A8A8"
   id="stop519" />
&#10;						<stop
   offset="0.2537"
   style="stop-color:#C4C4C4"
   id="stop520" />
&#10;						<stop
   offset="0.32"
   style="stop-color:#DADADA"
   id="stop521" />
&#10;						<stop
   offset="0.3974"
   style="stop-color:#EBEBEB"
   id="stop522" />
&#10;						<stop
   offset="0.4931"
   style="stop-color:#F6F6F6"
   id="stop523" />
&#10;						<stop
   offset="0.6274"
   style="stop-color:#FDFDFD"
   id="stop524" />
&#10;						<stop
   offset="1"
   style="stop-color:#FFFFFF"
   id="stop525" />
&#10;					</radialGradient>
&#10;					&#10;						<path
   style="fill:url(#SVGID_00000162346251613460220090000002426144903922146999_)"
   d="M 16.975,718.654 V 631.517 482.55 395.413 c 0,-12.784 9.681,-13.047 9.681,-13.047 h 110.678 9.419 110.681 c 0,0 2.085,0.059 4.32,1.397 -2.494,-1.829 -5.07,-1.903 -5.07,-1.903 H 146.117 136.707 26.14 c 0,0 -9.672,0.263 -9.672,13.065 l 0.001,87.263 v 149.183 87.266 c 0,12.801 9.671,13.063 9.671,13.063 h 0.516 c 0,0 -9.681,-0.262 -9.681,-13.046 z"
   mask="url(#SVGID_00000077294891805815443860000015987681124379409562_)"
   id="path525" />
&#10;				</g>
&#10;			</mask>
&#10;			&#10;				<radialGradient
   id="radialGradient19"
   cx="84.724297"
   cy="483.67389"
   r="342.81839"
   gradientUnits="userSpaceOnUse">&#10;				<stop
   offset="0"
   style="stop-color:#FFFFFF"
   id="stop17-1" />
&#10;				<stop
   offset="0.1413"
   style="stop-color:#FFFFFF"
   id="stop18-7" />
&#10;				<stop
   offset="1"
   style="stop-color:#FFFFFF"
   id="stop19-2" />
&#10;			</radialGradient>
&#10;			<path
   style="fill:url(#SVGID_00000060737731813077252380000016485574297571851650_)"
   d="M 16.975,718.654 V 631.517 482.55 395.413 c 0,-12.784 9.681,-13.047 9.681,-13.047 h 110.678 9.419 110.681 c 0,0 2.085,0.059 4.32,1.397 -2.494,-1.829 -5.07,-1.903 -5.07,-1.903 H 146.117 136.707 26.14 c 0,0 -9.672,0.263 -9.672,13.065 l 0.001,87.263 v 149.183 87.266 c 0,12.801 9.671,13.063 9.671,13.063 h 0.516 c 0,0 -9.681,-0.262 -9.681,-13.046 z"
   id="path528" />
&#10;			<g
   id="g532">&#10;				<defs
   id="defs528" />
&#10;				&#10;					<mask
   maskUnits="userSpaceOnUse"
   x="16.461"
   y="407.139"
   width="0.507"
   height="301.654"
   id="mask530">&#10;					<g
   style="filter:url(#Adobe_OpacityMaskFilter_00000165225248106107692170000003443685880584376229_)"
   id="g530">&#10;						<defs
   id="defs529" />
&#10;						&#10;							<mask
   maskUnits="userSpaceOnUse"
   x="16.461"
   y="407.139"
   width="0.507"
   height="301.654"
   id="SVGID_00000183932525141608401350000016242233966760885928_">&#10;							<g
   style="filter:url(#Adobe_OpacityMaskFilter_00000181808656578352393980000017777131531622024105_)"
   id="g529">&#10;							</g>
&#10;						</mask>
&#10;						&#10;							<radialGradient
   id="SVGID_00000111183115478381963540000017299627911238253447_"
   cx="1938.2528"
   cy="381.7005"
   r="402.57458"
   gradientTransform="matrix(-1,0,0,1,2215.418,0)"
   gradientUnits="userSpaceOnUse">&#10;							<stop
   offset="0.0988"
   style="stop-color:#000000"
   id="stop529" />
&#10;							<stop
   offset="1"
   style="stop-color:#FFFFFF"
   id="stop530" />
&#10;						</radialGradient>
&#10;						&#10;							<path
   style="fill:url(#SVGID_00000111183115478381963540000017299627911238253447_)"
   d="m 16.461,407.139 v 301.654 c 0.168,-0.61 0.335,-1.223 0.505,-1.832 L 16.968,631.01 V 412.607 c -0.173,-1.823 -0.342,-3.646 -0.507,-5.468 z"
   mask="url(#SVGID_00000183932525141608401350000016242233966760885928_)"
   id="path530" />
&#10;					</g>
&#10;				</mask>
&#10;				&#10;					<radialGradient
   id="radialGradient21"
   cx="1938.2528"
   cy="381.7005"
   r="402.57458"
   gradientTransform="matrix(-1,0,0,1,2215.418,0)"
   gradientUnits="userSpaceOnUse">&#10;					<stop
   offset="0.0988"
   style="stop-color:#FFFFFF"
   id="stop20-7" />
&#10;					<stop
   offset="1"
   style="stop-color:#ABABAB"
   id="stop21" />
&#10;				</radialGradient>
&#10;				<path
   style="fill:url(#SVGID_00000145748196325034410400000005044701628462634907_)"
   d="m 16.461,407.139 v 301.654 c 0.168,-0.61 0.335,-1.223 0.505,-1.832 L 16.968,631.01 V 412.607 c -0.173,-1.823 -0.342,-3.646 -0.507,-5.468 z"
   id="path532" />
&#10;			</g>
&#10;		</g>
&#10;		<g
   id="g557">&#10;			<g
   id="g535">&#10;				<g
   id="g534">&#10;					<path
   d="m 35.527,449.036 c -0.544,6.501 -4.21,11.056 -4.21,11.056 h 4.21 4.21 c 0,0 -3.666,-4.555 -4.21,-11.056 z"
   id="path533" />
&#10;					<path
   d="m 43.388,439.398 c -5.214,-3.604 -7.791,-7.372 -7.859,-7.47 v -0.005 l -0.001,0.002 -0.002,-0.002 v 0.005 c -0.067,0.098 -2.643,3.866 -7.858,7.47 -5.284,3.65 -6.488,8.205 -4.598,11.643 1.89,3.437 9.449,5.111 12.457,-1.715 3.008,6.826 10.568,5.151 12.456,1.715 1.891,-3.438 0.688,-7.992 -4.595,-11.643 z"
   id="path534" />
&#10;				</g>
&#10;				<path
   d="m 40.497,411.447 0.044,0.286 c 1.665,0.648 2.924,1.596 3.778,2.84 0.854,1.245 1.281,2.742 1.281,4.495 0,1.723 -0.412,3.241 -1.236,4.552 -0.826,1.311 -2.022,2.323 -3.591,3.038 -1.568,0.714 -3.398,1.07 -5.49,1.07 -1.958,0 -3.677,-0.328 -5.158,-0.983 -1.479,-0.655 -2.629,-1.611 -3.446,-2.872 -0.817,-1.259 -1.226,-2.742 -1.226,-4.45 0,-1.282 0.221,-2.395 0.663,-3.336 0.441,-0.943 1.019,-1.72 1.734,-2.331 0.713,-0.61 1.616,-1.167 2.706,-1.668 l -0.044,-0.287 c -3.167,-1.37 -4.75,-3.719 -4.75,-7.047 0,-1.517 0.416,-2.872 1.249,-4.065 0.831,-1.192 2.017,-2.128 3.556,-2.806 1.538,-0.677 3.243,-1.016 5.114,-1.016 2.12,0 3.902,0.299 5.346,0.895 1.443,0.596 2.529,1.457 3.258,2.584 0.729,1.127 1.093,2.478 1.093,4.054 0,1.62 -0.397,3.017 -1.192,4.186 -0.795,1.172 -2.024,2.125 -3.689,2.861 z m -10.824,7.599 c 0,0.958 0.109,1.854 0.331,2.685 0.22,0.832 0.57,1.551 1.049,2.154 0.479,0.604 1.094,1.083 1.845,1.436 0.751,0.354 1.665,0.531 2.739,0.531 1.207,0 2.243,-0.248 3.104,-0.74 0.861,-0.494 1.517,-1.227 1.966,-2.199 0.449,-0.972 0.673,-2.121 0.673,-3.446 0,-1.413 -0.243,-2.632 -0.729,-3.656 -0.486,-1.023 -1.171,-1.803 -2.055,-2.341 -0.883,-0.538 -1.907,-0.807 -3.07,-0.807 -1.09,0 -2.007,0.17 -2.75,0.508 -0.743,0.34 -1.348,0.795 -1.811,1.37 -0.464,0.574 -0.796,1.247 -0.995,2.021 -0.198,0.773 -0.297,1.6 -0.297,2.484 z m 0.243,-14.491 c 0,0.869 0.102,1.686 0.308,2.452 0.206,0.767 0.538,1.428 0.995,1.988 0.457,0.56 1.05,1.006 1.778,1.336 0.729,0.332 1.625,0.497 2.685,0.497 1.222,0 2.249,-0.239 3.081,-0.718 0.831,-0.479 1.451,-1.177 1.855,-2.098 0.405,-0.921 0.608,-1.985 0.608,-3.192 0,-1.325 -0.24,-2.449 -0.718,-3.368 -0.479,-0.921 -1.137,-1.603 -1.977,-2.045 -0.84,-0.441 -1.804,-0.662 -2.894,-0.662 -1.855,0 -3.273,0.504 -4.252,1.514 -0.98,1.008 -1.469,2.44 -1.469,4.296 z"
   id="path535" />
&#10;			</g>
&#10;			<g
   id="g538">&#10;				<g
   id="g537">&#10;					<path
   d="m 246.758,663.913 c 0.544,-6.501 4.209,-11.056 4.209,-11.056 h -4.209 -4.21 c 0,0 3.666,4.555 4.21,11.056 z"
   id="path536" />
&#10;					<path
   d="m 238.898,673.551 c 5.214,3.604 7.791,7.373 7.859,7.471 v 0.004 l 0.001,-0.002 10e-4,0.002 v -0.004 c 0.067,-0.098 2.644,-3.867 7.858,-7.471 5.284,-3.65 6.488,-8.205 4.597,-11.643 -1.89,-3.435 -9.448,-5.111 -12.457,1.715 -3.008,-6.826 -10.568,-5.15 -12.456,-1.715 -1.89,3.438 -0.688,7.992 4.597,11.643 z"
   id="path537" />
&#10;				</g>
&#10;				<path
   d="m 241.789,701.502 -0.044,-0.286 c -1.665,-0.647 -2.924,-1.596 -3.778,-2.839 -0.854,-1.246 -1.281,-2.743 -1.281,-4.496 0,-1.723 0.412,-3.24 1.236,-4.551 0.826,-1.311 2.022,-2.324 3.591,-3.038 1.567,-0.715 3.398,-1.071 5.49,-1.071 1.958,0 3.677,0.328 5.156,0.983 1.482,0.655 2.63,1.612 3.447,2.872 0.817,1.259 1.226,2.742 1.226,4.451 0,1.282 -0.221,2.395 -0.663,3.336 -0.442,0.942 -1.02,1.719 -1.735,2.33 -0.713,0.611 -1.616,1.167 -2.706,1.668 l 0.044,0.287 c 3.167,1.37 4.748,3.719 4.748,7.047 0,1.518 -0.415,2.872 -1.248,4.065 -0.832,1.192 -2.017,2.128 -3.557,2.806 -1.538,0.678 -3.243,1.016 -5.114,1.016 -2.12,0 -3.902,-0.299 -5.346,-0.894 -1.442,-0.596 -2.529,-1.457 -3.259,-2.584 -0.728,-1.127 -1.093,-2.478 -1.093,-4.054 0,-1.62 0.398,-3.017 1.192,-4.187 0.8,-1.172 2.029,-2.125 3.694,-2.861 z m 10.824,-7.599 c 0,-0.958 -0.11,-1.853 -0.332,-2.685 -0.22,-0.832 -0.569,-1.551 -1.048,-2.154 -0.479,-0.604 -1.094,-1.082 -1.846,-1.436 -0.75,-0.354 -1.663,-0.531 -2.738,-0.531 -1.207,0 -2.243,0.248 -3.104,0.74 -0.861,0.494 -1.517,1.227 -1.966,2.199 -0.449,0.973 -0.673,2.121 -0.673,3.447 0,1.412 0.243,2.631 0.728,3.655 0.486,1.023 1.171,1.804 2.055,2.341 0.883,0.539 1.908,0.807 3.07,0.807 1.09,0 2.007,-0.17 2.751,-0.508 0.744,-0.34 1.348,-0.795 1.812,-1.37 0.464,-0.573 0.796,-1.247 0.995,-2.021 0.197,-0.773 0.296,-1.6 0.296,-2.484 z m -0.243,14.491 c 0,-0.869 -0.103,-1.685 -0.309,-2.452 -0.206,-0.767 -0.538,-1.428 -0.995,-1.988 -0.456,-0.56 -1.05,-1.005 -1.778,-1.336 -0.729,-0.332 -1.625,-0.497 -2.685,-0.497 -1.222,0 -2.249,0.239 -3.083,0.718 -0.83,0.479 -1.45,1.177 -1.854,2.099 -0.405,0.92 -0.608,1.984 -0.608,3.191 0,1.326 0.24,2.449 0.718,3.369 0.479,0.92 1.137,1.602 1.977,2.044 0.839,0.442 1.804,0.663 2.894,0.663 1.855,0 3.273,-0.504 4.252,-1.514 0.982,-1.008 1.471,-2.441 1.471,-4.297 z"
   id="path538" />
&#10;			</g>
&#10;			<g
   id="g556">&#10;				<g
   id="g545">&#10;					<g
   id="g540">&#10;						<path
   d="m 96.181,562.789 c -1.079,12.905 -8.356,21.943 -8.356,21.943 h 8.356 8.356 c 0,0 -7.275,-9.038 -8.356,-21.943 z"
   id="path539" />
&#10;						<path
   d="m 111.781,543.664 c -10.35,-7.152 -15.463,-14.632 -15.597,-14.826 v -0.011 l -0.003,0.005 -0.003,-0.005 v 0.011 c -0.133,0.194 -5.249,7.674 -15.597,14.826 -10.488,7.247 -12.875,16.283 -9.123,23.106 3.751,6.818 18.752,10.144 24.722,-3.404 5.971,13.548 20.973,10.223 24.724,3.404 3.752,-6.823 1.365,-15.859 -9.123,-23.106 z"
   id="path540" />
&#10;					</g>
&#10;					<g
   id="g542">&#10;						<path
   d="m 96.181,647.25 c -1.079,-12.903 -8.356,-21.941 -8.356,-21.941 h 8.356 8.356 c 0,0 -7.275,9.038 -8.356,21.941 z"
   id="path541" />
&#10;						<path
   d="m 111.781,666.376 c -10.35,7.151 -15.463,14.632 -15.597,14.827 v 0.01 l -0.003,-0.005 -0.003,0.005 v -0.01 c -0.133,-0.195 -5.249,-7.676 -15.597,-14.827 -10.488,-7.246 -12.875,-16.283 -9.123,-23.105 3.751,-6.819 18.752,-10.143 24.722,3.403 5.971,-13.547 20.973,-10.223 24.724,-3.403 3.752,6.822 1.365,15.859 -9.123,23.105 z"
   id="path542" />
&#10;					</g>
&#10;					<g
   id="g544">&#10;						<path
   d="m 96.181,466.309 c -1.079,12.903 -8.356,21.941 -8.356,21.941 h 8.356 8.356 c 0,0 -7.275,-9.038 -8.356,-21.941 z"
   id="path543" />
&#10;						<path
   d="M 111.781,447.183 C 101.432,440.032 96.318,432.551 96.184,432.357 v -0.011 l -0.003,0.005 -0.003,-0.005 v 0.011 c -0.133,0.194 -5.248,7.675 -15.596,14.826 -10.488,7.246 -12.875,16.283 -9.123,23.105 3.751,6.819 18.752,10.145 24.722,-3.403 5.971,13.548 20.973,10.223 24.724,3.403 3.751,-6.822 1.364,-15.859 -9.124,-23.105 z"
   id="path544" />
&#10;					</g>
&#10;				</g>
&#10;				<g
   id="g551">&#10;					<g
   id="g546">&#10;						<path
   d="m 186.631,562.789 c -1.08,12.905 -8.356,21.943 -8.356,21.943 h 8.356 8.356 c 0,0 -7.275,-9.038 -8.356,-21.943 z"
   id="path545" />
&#10;						<path
   d="m 202.232,543.664 c -10.35,-7.152 -15.464,-14.632 -15.597,-14.826 v -0.011 l -0.003,0.005 -0.003,-0.005 v 0.011 c -0.133,0.194 -5.248,7.674 -15.596,14.826 -10.488,7.247 -12.876,16.283 -9.123,23.106 3.751,6.818 18.752,10.144 24.722,-3.404 5.97,13.548 20.973,10.223 24.724,3.404 3.751,-6.823 1.363,-15.859 -9.124,-23.106 z"
   id="path546" />
&#10;					</g>
&#10;					<g
   id="g548">&#10;						<path
   d="m 186.631,647.25 c -1.08,-12.903 -8.356,-21.941 -8.356,-21.941 h 8.356 8.356 c 0,0 -7.275,9.038 -8.356,21.941 z"
   id="path547" />
&#10;						<path
   d="m 202.232,666.376 c -10.35,7.151 -15.464,14.632 -15.597,14.827 v 0.01 l -0.003,-0.005 -0.003,0.005 v -0.01 c -0.133,-0.195 -5.248,-7.676 -15.596,-14.827 -10.488,-7.246 -12.876,-16.283 -9.123,-23.105 3.751,-6.819 18.752,-10.143 24.722,3.403 5.97,-13.547 20.973,-10.223 24.724,-3.403 3.751,6.822 1.363,15.859 -9.124,23.105 z"
   id="path548" />
&#10;					</g>
&#10;					<g
   id="g550">&#10;						<path
   d="m 186.631,466.309 c -1.08,12.903 -8.356,21.941 -8.356,21.941 h 8.356 8.356 c 0,0 -7.275,-9.038 -8.356,-21.941 z"
   id="path549" />
&#10;						<path
   d="m 202.232,447.183 c -10.349,-7.151 -15.464,-14.632 -15.597,-14.826 v -0.011 l -0.003,0.005 -0.003,-0.005 v 0.011 c -0.132,0.194 -5.247,7.675 -15.596,14.826 -10.488,7.246 -12.877,16.283 -9.124,23.105 3.751,6.819 18.752,10.145 24.722,-3.403 5.97,13.548 20.973,10.223 24.724,3.403 3.752,-6.822 1.364,-15.859 -9.123,-23.105 z"
   id="path550" />
&#10;					</g>
&#10;				</g>
&#10;				<g
   id="g555">&#10;					<g
   id="g552">&#10;						<path
   d="m 141.406,512.042 c -1.08,12.904 -8.356,21.942 -8.356,21.942 h 8.356 8.355 c 0.001,0 -7.274,-9.038 -8.355,-21.942 z"
   id="path551" />
&#10;						<path
   d="m 157.006,492.917 c -10.349,-7.152 -15.463,-14.632 -15.597,-14.827 v -0.011 l -0.003,0.006 -0.003,-0.006 v 0.011 c -0.133,0.195 -5.248,7.675 -15.597,14.827 -10.488,7.246 -12.876,16.283 -9.123,23.106 3.751,6.819 18.752,10.143 24.723,-3.404 5.97,13.548 20.973,10.224 24.724,3.404 3.752,-6.823 1.364,-15.86 -9.124,-23.106 z"
   id="path552" />
&#10;					</g>
&#10;					<g
   id="g554">&#10;						<path
   d="m 141.406,601.518 c -1.08,-12.904 -8.356,-21.942 -8.356,-21.942 h 8.356 8.355 c 0.001,-10e-4 -7.274,9.037 -8.355,21.942 z"
   id="path553" />
&#10;						<path
   d="m 157.006,620.643 c -10.349,7.152 -15.463,14.632 -15.597,14.827 v 0.011 l -0.003,-0.006 -0.003,0.006 v -0.011 c -0.133,-0.195 -5.248,-7.675 -15.597,-14.827 -10.488,-7.246 -12.876,-16.283 -9.123,-23.105 3.751,-6.819 18.752,-10.143 24.723,3.404 5.97,-13.548 20.973,-10.224 24.724,-3.404 3.752,6.821 1.364,15.858 -9.124,23.105 z"
   id="path554" />
&#10;					</g>
&#10;				</g>
&#10;			</g>
&#10;		</g>
&#10;	</g>
  </g>
</svg>
