<?xml version="1.0" encoding="UTF-8" standalone="no"?>
<!-- Created with Inkscape (http://www.inkscape.org/) -->

<svg
   width="66.118057mm"
   height="92.561829mm"
   viewBox="0 0 66.118057 92.561829"
   version="1.1"
   id="svg1"
   xmlns:inkscape="http://www.inkscape.org/namespaces/inkscape"
   xmlns:sodipodi="http://sodipodi.sourceforge.net/DTD/sodipodi-0.dtd"
   xmlns="http://www.w3.org/2000/svg"
   xmlns:svg="http://www.w3.org/2000/svg">
  <sodipodi:namedview
     id="namedview1"
     pagecolor="#ffffff"
     bordercolor="#000000"
     borderopacity="0.25"
     inkscape:showpageshadow="2"
     inkscape:pageopacity="0.0"
     inkscape:pagecheckerboard="0"
     inkscape:deskcolor="#d1d1d1"
     inkscape:document-units="mm" />
  <defs
     id="defs1">
    <radialGradient
       id="SVGID_00000044173679154308070200000011000285939710244751_"
       cx="674.47412"
       cy="262.59421"
       r="505.879"
       gradientUnits="userSpaceOnUse">&#10;					<stop
   offset="0.6156"
   style="stop-color:#FFFFFF"
   id="stop659" />
&#10;					<stop
   offset="0.7878"
   style="stop-color:#FDFDFD"
   id="stop660" />
&#10;					<stop
   offset="0.8537"
   style="stop-color:#F6F6F6"
   id="stop661" />
&#10;					<stop
   offset="0.9014"
   style="stop-color:#EAEAEA"
   id="stop662" />
&#10;					<stop
   offset="0.9403"
   style="stop-color:#D9D9D9"
   id="stop663" />
&#10;					<stop
   offset="0.9735"
   style="stop-color:#C3C3C3"
   id="stop664" />
&#10;					<stop
   offset="1"
   style="stop-color:#ABABAB"
   id="stop665" />
&#10;				</radialGradient>
    <radialGradient
       id="SVGID_00000004535377271617379100000013083376663782612900_"
       cx="679.47882"
       cy="704.69531"
       r="362.49451"
       gradientUnits="userSpaceOnUse">&#10;					<stop
   offset="0.6156"
   style="stop-color:#FFFFFF"
   id="stop677" />
&#10;					<stop
   offset="0.747"
   style="stop-color:#FDFDFD"
   id="stop678" />
&#10;					<stop
   offset="0.8206"
   style="stop-color:#F5F5F5"
   id="stop679" />
&#10;					<stop
   offset="0.8799"
   style="stop-color:#E7E7E7"
   id="stop680" />
&#10;					<stop
   offset="0.9316"
   style="stop-color:#D3D3D3"
   id="stop681" />
&#10;					<stop
   offset="0.9778"
   style="stop-color:#BABABA"
   id="stop682" />
&#10;					<stop
   offset="1"
   style="stop-color:#ABABAB"
   id="stop683" />
&#10;				</radialGradient>
    <radialGradient
       id="SVGID_00000128464983348472363290000006099578444638661770_"
       cx="542.70837"
       cy="381.702"
       r="402.49509"
       gradientUnits="userSpaceOnUse">&#10;					<stop
   offset="0.0988"
   style="stop-color:#FFFFFF"
   id="stop686" />
&#10;					<stop
   offset="1"
   style="stop-color:#ABABAB"
   id="stop687" />
&#10;				</radialGradient>
    <radialGradient
       id="SVGID_00000093882997466298081600000012504013567979230141_"
       cx="621.6535"
       cy="483.67389"
       r="342.81839"
       gradientUnits="userSpaceOnUse">&#10;				<stop
   offset="0"
   style="stop-color:#FFFFFF"
   id="stop700" />
&#10;				<stop
   offset="0.1413"
   style="stop-color:#FFFFFF"
   id="stop701" />
&#10;				<stop
   offset="1"
   style="stop-color:#FFFFFF"
   id="stop702" />
&#10;			</radialGradient>
    <radialGradient
       id="SVGID_00000127764355520830967660000011110945634274682266_"
       cx="1401.5806"
       cy="381.7005"
       r="402.4205"
       gradientTransform="matrix(-1,0,0,1,2215.418,0)"
       gradientUnits="userSpaceOnUse">&#10;					<stop
   offset="0.0988"
   style="stop-color:#FFFFFF"
   id="stop705" />
&#10;					<stop
   offset="1"
   style="stop-color:#ABABAB"
   id="stop706" />
&#10;				</radialGradient>
    <filter
       id="Adobe_OpacityMaskFilter_00000084490050110334494220000003805154974786475396_"
       filterUnits="userSpaceOnUse"
       x="553.39801"
       y="570.659"
       width="249.88499"
       height="161.041">&#10;						<feFlood
   result="back"
   id="feFlood646" />
&#10;						<feBlend
   in="SourceGraphic"
   in2="back"
   mode="normal"
   id="feBlend646" />
&#10;					</filter>
    <filter
       id="Adobe_OpacityMaskFilter_00000168087572704796998660000005662255967516033186_"
       filterUnits="userSpaceOnUse"
       x="553.39801"
       y="570.659"
       width="249.88499"
       height="161.041">&#10;								<feFlood
   result="back"
   id="feFlood647" />
&#10;								<feBlend
   in="SourceGraphic"
   in2="back"
   mode="normal"
   id="feBlend647" />
&#10;							</filter>
    <filter
       id="Adobe_OpacityMaskFilter_00000171708508131537388690000004768408275032555933_"
       filterUnits="userSpaceOnUse"
       x="553.39697"
       y="381.85999"
       width="249.886"
       height="174.632">&#10;						<feFlood
   result="back"
   id="feFlood665" />
&#10;						<feBlend
   in="SourceGraphic"
   in2="back"
   mode="normal"
   id="feBlend665" />
&#10;					</filter>
    <filter
       id="Adobe_OpacityMaskFilter_00000021093955503620042720000009373193611255645350_"
       filterUnits="userSpaceOnUse"
       x="553.39697"
       y="381.85999"
       width="249.886"
       height="174.632">&#10;								<feFlood
   result="back"
   id="feFlood666" />
&#10;								<feBlend
   in="SourceGraphic"
   in2="back"
   mode="normal"
   id="feBlend666" />
&#10;							</filter>
    <filter
       id="Adobe_OpacityMaskFilter_00000050664070623132471510000002218821888604835485_"
       filterUnits="userSpaceOnUse"
       x="558"
       y="381.85901"
       width="245.285"
       height="349.84">&#10;						<feFlood
   result="back"
   id="feFlood683" />
&#10;						<feBlend
   in="SourceGraphic"
   in2="back"
   mode="normal"
   id="feBlend683" />
&#10;					</filter>
    <filter
       id="Adobe_OpacityMaskFilter_00000137108636246661684530000017124546146493099393_"
       filterUnits="userSpaceOnUse"
       x="558"
       y="381.85901"
       width="245.285"
       height="349.84">&#10;								<feFlood
   result="back"
   id="feFlood684" />
&#10;								<feBlend
   in="SourceGraphic"
   in2="back"
   mode="normal"
   id="feBlend684" />
&#10;							</filter>
    <filter
       id="Adobe_OpacityMaskFilter_00000103260802825892515850000011472261653957964437_"
       filterUnits="userSpaceOnUse"
       x="553.39697"
       y="381.85999"
       width="245.286"
       height="349.84">&#10;					<feFlood
   result="back"
   id="feFlood687" />
&#10;					<feBlend
   in="SourceGraphic"
   in2="back"
   mode="normal"
   id="feBlend687" />
&#10;				</filter>
    <filter
       id="Adobe_OpacityMaskFilter_00000044147173148960216260000000349002137273405113_"
       filterUnits="userSpaceOnUse"
       x="553.39697"
       y="381.85999"
       width="245.286"
       height="349.84">&#10;							<feFlood
   result="back"
   id="feFlood688" />
&#10;							<feBlend
   in="SourceGraphic"
   in2="back"
   mode="normal"
   id="feBlend688" />
&#10;						</filter>
    <filter
       id="Adobe_OpacityMaskFilter_00000157287274541283355010000017989240101080009396_"
       filterUnits="userSpaceOnUse"
       x="553.39001"
       y="407.13901"
       width="0.50700003"
       height="301.65399">&#10;						<feFlood
   result="back"
   id="feFlood702" />
&#10;						<feBlend
   in="SourceGraphic"
   in2="back"
   mode="normal"
   id="feBlend702" />
&#10;					</filter>
    <filter
       id="Adobe_OpacityMaskFilter_00000080178347572349651490000014193314029480736410_"
       filterUnits="userSpaceOnUse"
       x="553.39001"
       y="407.13901"
       width="0.50700003"
       height="301.65399">&#10;								<feFlood
   result="back"
   id="feFlood703" />
&#10;								<feBlend
   in="SourceGraphic"
   in2="back"
   mode="normal"
   id="feBlend703" />
&#10;							</filter>
  </defs>
  <g
     inkscape:label="Layer 1"
     inkscape:groupmode="layer"
     id="layer1"
     transform="translate(-85.195833,-180.71041)">
    <g
       id="g739"
       transform="matrix(0.26458333,0,0,0.26458333,-61.221937,79.676627)">&#10;		<g
   id="g707">&#10;			<g
   id="g683">&#10;				<path
   style="fill:#ffffff"
   d="m 793.612,381.86 h -110.566 -9.41 -110.567 c 0,0 -9.672,0.263 -9.672,13.065 l 0.002,87.263 v 149.183 87.266 c 0,12.801 9.671,13.063 9.671,13.063 h 110.566 9.41 110.566 c 0,0 9.671,-0.263 9.671,-13.063 V 631.371 482.189 394.926 c 0,-12.803 -9.671,-13.066 -9.671,-13.066 z"
   id="path646" />
&#10;				<defs
   id="defs646" />
&#10;				&#10;					<mask
   maskUnits="userSpaceOnUse"
   x="553.398"
   y="570.659"
   width="249.885"
   height="161.041"
   id="mask658">&#10;					<g
   style="filter:url(#Adobe_OpacityMaskFilter_00000084490050110334494220000003805154974786475396_)"
   id="g658">&#10;						<defs
   id="defs647" />
&#10;						&#10;							<mask
   maskUnits="userSpaceOnUse"
   x="553.398"
   y="570.659"
   width="249.885"
   height="161.041"
   id="SVGID_00000158733051786473597500000009631188867216793234_">&#10;							<g
   style="filter:url(#Adobe_OpacityMaskFilter_00000168087572704796998660000005662255967516033186_)"
   id="g647">&#10;							</g>
&#10;						</mask>
&#10;						&#10;							<radialGradient
   id="SVGID_00000058553021774247669120000018341228238462267542_"
   cx="674.47412"
   cy="262.59421"
   r="505.879"
   gradientUnits="userSpaceOnUse">&#10;							<stop
   offset="0.6156"
   style="stop-color:#000000"
   id="stop647" />
&#10;							<stop
   offset="0.7516"
   style="stop-color:#020202"
   id="stop648" />
&#10;							<stop
   offset="0.8037"
   style="stop-color:#090909"
   id="stop649" />
&#10;							<stop
   offset="0.8413"
   style="stop-color:#151515"
   id="stop650" />
&#10;							<stop
   offset="0.8721"
   style="stop-color:#262626"
   id="stop651" />
&#10;							<stop
   offset="0.8986"
   style="stop-color:#3C3C3C"
   id="stop652" />
&#10;							<stop
   offset="0.9222"
   style="stop-color:#585858"
   id="stop653" />
&#10;							<stop
   offset="0.9436"
   style="stop-color:#797979"
   id="stop654" />
&#10;							<stop
   offset="0.9634"
   style="stop-color:#9F9F9F"
   id="stop655" />
&#10;							<stop
   offset="0.9817"
   style="stop-color:#CBCBCB"
   id="stop656" />
&#10;							<stop
   offset="0.9982"
   style="stop-color:#F9F9F9"
   id="stop657" />
&#10;							<stop
   offset="1"
   style="stop-color:#FFFFFF"
   id="stop658" />
&#10;						</radialGradient>
&#10;						&#10;							<path
   style="fill:url(#SVGID_00000058553021774247669120000018341228238462267542_)"
   d="m 700.735,570.673 c -49.113,0.01 -98.224,0.03 -147.336,0.051 v 147.913 c 0,12.801 9.671,13.063 9.671,13.063 h 230.543 c 0,0 9.671,-0.263 9.671,-13.063 V 570.659 c -34.183,0.004 -68.366,0.006 -102.549,0.014 z"
   mask="url(#SVGID_00000158733051786473597500000009631188867216793234_)"
   id="path658" />
&#10;					</g>
&#10;				</mask>
&#10;				&#10;					<radialGradient
   id="radialGradient7"
   cx="674.47412"
   cy="262.59421"
   r="505.879"
   gradientUnits="userSpaceOnUse">&#10;					<stop
   offset="0.6156"
   style="stop-color:#FFFFFF"
   id="stop1" />
&#10;					<stop
   offset="0.7878"
   style="stop-color:#FDFDFD"
   id="stop2" />
&#10;					<stop
   offset="0.8537"
   style="stop-color:#F6F6F6"
   id="stop3" />
&#10;					<stop
   offset="0.9014"
   style="stop-color:#EAEAEA"
   id="stop4" />
&#10;					<stop
   offset="0.9403"
   style="stop-color:#D9D9D9"
   id="stop5" />
&#10;					<stop
   offset="0.9735"
   style="stop-color:#C3C3C3"
   id="stop6" />
&#10;					<stop
   offset="1"
   style="stop-color:#ABABAB"
   id="stop7" />
&#10;				</radialGradient>
&#10;				<path
   style="fill:url(#SVGID_00000044173679154308070200000011000285939710244751_)"
   d="m 700.735,570.673 c -49.113,0.01 -98.224,0.03 -147.336,0.051 v 147.913 c 0,12.801 9.671,13.063 9.671,13.063 h 230.543 c 0,0 9.671,-0.263 9.671,-13.063 V 570.659 c -34.183,0.004 -68.366,0.006 -102.549,0.014 z"
   id="path665" />
&#10;				<defs
   id="defs665" />
&#10;				&#10;					<mask
   maskUnits="userSpaceOnUse"
   x="553.397"
   y="381.86"
   width="249.886"
   height="174.632"
   id="mask676">&#10;					<g
   style="filter:url(#Adobe_OpacityMaskFilter_00000171708508131537388690000004768408275032555933_)"
   id="g676">&#10;						<defs
   id="defs666" />
&#10;						&#10;							<mask
   maskUnits="userSpaceOnUse"
   x="553.397"
   y="381.86"
   width="249.886"
   height="174.632"
   id="SVGID_00000083078427863536339720000005945017814321642145_">&#10;							<g
   style="filter:url(#Adobe_OpacityMaskFilter_00000021093955503620042720000009373193611255645350_)"
   id="g666">&#10;							</g>
&#10;						</mask>
&#10;						&#10;							<radialGradient
   id="SVGID_00000068638297108079665530000005862569715358250625_"
   cx="679.47882"
   cy="704.69531"
   r="362.49451"
   gradientUnits="userSpaceOnUse">&#10;							<stop
   offset="0.6156"
   style="stop-color:#000000"
   id="stop666" />
&#10;							<stop
   offset="0.7096"
   style="stop-color:#020202"
   id="stop667" />
&#10;							<stop
   offset="0.7623"
   style="stop-color:#0A0A0A"
   id="stop668" />
&#10;							<stop
   offset="0.8047"
   style="stop-color:#181818"
   id="stop669" />
&#10;							<stop
   offset="0.8418"
   style="stop-color:#2C2C2C"
   id="stop670" />
&#10;							<stop
   offset="0.8752"
   style="stop-color:#464646"
   id="stop671" />
&#10;							<stop
   offset="0.9062"
   style="stop-color:#656565"
   id="stop672" />
&#10;							<stop
   offset="0.9352"
   style="stop-color:#8A8A8A"
   id="stop673" />
&#10;							<stop
   offset="0.9626"
   style="stop-color:#B6B6B6"
   id="stop674" />
&#10;							<stop
   offset="0.9879"
   style="stop-color:#E5E5E5"
   id="stop675" />
&#10;							<stop
   offset="1"
   style="stop-color:#FFFFFF"
   id="stop676" />
&#10;						</radialGradient>
&#10;						&#10;							<path
   style="fill:url(#SVGID_00000068638297108079665530000005862569715358250625_)"
   d="m 553.398,556.401 c 21.029,0.016 42.059,0.032 63.087,0.044 60.603,0.035 121.206,0.039 181.81,0.047 1.662,0 3.324,-10e-4 4.987,-10e-4 V 394.926 c 0,-12.803 -9.671,-13.065 -9.671,-13.065 H 563.069 c 0,0 -9.672,0.263 -9.672,13.065 l 0.002,87.263 v 74.212 z"
   mask="url(#SVGID_00000083078427863536339720000005945017814321642145_)"
   id="path676" />
&#10;					</g>
&#10;				</mask>
&#10;				&#10;					<radialGradient
   id="radialGradient14"
   cx="679.47882"
   cy="704.69531"
   r="362.49451"
   gradientUnits="userSpaceOnUse">&#10;					<stop
   offset="0.6156"
   style="stop-color:#FFFFFF"
   id="stop8" />
&#10;					<stop
   offset="0.747"
   style="stop-color:#FDFDFD"
   id="stop9" />
&#10;					<stop
   offset="0.8206"
   style="stop-color:#F5F5F5"
   id="stop10" />
&#10;					<stop
   offset="0.8799"
   style="stop-color:#E7E7E7"
   id="stop11" />
&#10;					<stop
   offset="0.9316"
   style="stop-color:#D3D3D3"
   id="stop12" />
&#10;					<stop
   offset="0.9778"
   style="stop-color:#BABABA"
   id="stop13" />
&#10;					<stop
   offset="1"
   style="stop-color:#ABABAB"
   id="stop14-1" />
&#10;				</radialGradient>
&#10;				<path
   style="fill:url(#SVGID_00000004535377271617379100000013083376663782612900_)"
   d="m 553.398,556.401 c 21.029,0.016 42.059,0.032 63.087,0.044 60.603,0.035 121.206,0.039 181.81,0.047 1.662,0 3.324,-10e-4 4.987,-10e-4 V 394.926 c 0,-12.803 -9.671,-13.065 -9.671,-13.065 H 563.069 c 0,0 -9.672,0.263 -9.672,13.065 l 0.002,87.263 v 74.212 z"
   id="path683" />
&#10;			</g>
&#10;			<g
   id="g687">&#10;				<defs
   id="defs683" />
&#10;				&#10;					<mask
   maskUnits="userSpaceOnUse"
   x="558"
   y="381.859"
   width="245.285"
   height="349.84"
   id="mask685">&#10;					<g
   style="filter:url(#Adobe_OpacityMaskFilter_00000050664070623132471510000002218821888604835485_)"
   id="g685">&#10;						<defs
   id="defs684" />
&#10;						&#10;							<mask
   maskUnits="userSpaceOnUse"
   x="558"
   y="381.859"
   width="245.285"
   height="349.84"
   id="SVGID_00000182490161175190134120000004051338054222515381_">&#10;							<g
   style="filter:url(#Adobe_OpacityMaskFilter_00000137108636246661684530000017124546146493099393_)"
   id="g684">&#10;							</g>
&#10;						</mask>
&#10;						&#10;							<radialGradient
   id="SVGID_00000054227722649798792860000007535395022761670299_"
   cx="542.70837"
   cy="381.702"
   r="402.49509"
   gradientUnits="userSpaceOnUse">&#10;							<stop
   offset="0.0988"
   style="stop-color:#000000"
   id="stop684" />
&#10;							<stop
   offset="1"
   style="stop-color:#FFFFFF"
   id="stop685" />
&#10;						</radialGradient>
&#10;						&#10;							<path
   style="fill:url(#SVGID_00000054227722649798792860000007535395022761670299_)"
   d="m 802.778,394.904 v 87.139 148.967 l 10e-4,87.137 c 0,12.784 -9.683,13.047 -9.683,13.047 H 682.42 673 562.32 c 0,0 -2.086,-0.059 -4.32,-1.398 2.493,1.829 5.069,1.903 5.069,1.903 h 110.568 9.41 110.565 c 0,0 9.673,-0.263 9.673,-13.066 V 631.371 482.188 394.924 c 0,-12.801 -9.673,-13.064 -9.673,-13.064 h -0.516 c 10e-4,-0.001 9.682,0.262 9.682,13.044 z"
   mask="url(#SVGID_00000182490161175190134120000004051338054222515381_)"
   id="path685" />
&#10;					</g>
&#10;				</mask>
&#10;				&#10;					<radialGradient
   id="radialGradient16"
   cx="542.70837"
   cy="381.702"
   r="402.49509"
   gradientUnits="userSpaceOnUse">&#10;					<stop
   offset="0.0988"
   style="stop-color:#FFFFFF"
   id="stop15-7" />
&#10;					<stop
   offset="1"
   style="stop-color:#ABABAB"
   id="stop16-7" />
&#10;				</radialGradient>
&#10;				<path
   style="fill:url(#SVGID_00000128464983348472363290000006099578444638661770_)"
   d="m 802.778,394.904 v 87.139 148.967 l 10e-4,87.137 c 0,12.784 -9.683,13.047 -9.683,13.047 H 682.42 673 562.32 c 0,0 -2.086,-0.059 -4.32,-1.398 2.493,1.829 5.069,1.903 5.069,1.903 h 110.568 9.41 110.565 c 0,0 9.673,-0.263 9.673,-13.066 V 631.371 482.188 394.924 c 0,-12.801 -9.673,-13.064 -9.673,-13.064 h -0.516 c 10e-4,-0.001 9.682,0.262 9.682,13.044 z"
   id="path687" />
&#10;			</g>
&#10;			<defs
   id="defs687" />
&#10;			&#10;				<mask
   maskUnits="userSpaceOnUse"
   x="553.397"
   y="381.86"
   width="245.286"
   height="349.84"
   id="mask699">&#10;				<g
   style="filter:url(#Adobe_OpacityMaskFilter_00000103260802825892515850000011472261653957964437_)"
   id="g699">&#10;					<defs
   id="defs688" />
&#10;					&#10;						<mask
   maskUnits="userSpaceOnUse"
   x="553.397"
   y="381.86"
   width="245.286"
   height="349.84"
   id="SVGID_00000101809180332113936270000005347402594530274478_">&#10;						<g
   style="filter:url(#Adobe_OpacityMaskFilter_00000044147173148960216260000000349002137273405113_)"
   id="g688">&#10;						</g>
&#10;					</mask>
&#10;					&#10;						<radialGradient
   id="SVGID_00000021112777706721456970000002738940131200593336_"
   cx="621.6535"
   cy="483.67389"
   r="342.81839"
   gradientUnits="userSpaceOnUse">&#10;						<stop
   offset="0"
   style="stop-color:#000000"
   id="stop688" />
&#10;						<stop
   offset="0.0074"
   style="stop-color:#090909"
   id="stop689" />
&#10;						<stop
   offset="0.0477"
   style="stop-color:#373737"
   id="stop690" />
&#10;						<stop
   offset="0.0931"
   style="stop-color:#626262"
   id="stop691" />
&#10;						<stop
   offset="0.1419"
   style="stop-color:#888888"
   id="stop692" />
&#10;						<stop
   offset="0.195"
   style="stop-color:#A8A8A8"
   id="stop693" />
&#10;						<stop
   offset="0.2537"
   style="stop-color:#C4C4C4"
   id="stop694" />
&#10;						<stop
   offset="0.32"
   style="stop-color:#DADADA"
   id="stop695" />
&#10;						<stop
   offset="0.3974"
   style="stop-color:#EBEBEB"
   id="stop696" />
&#10;						<stop
   offset="0.4931"
   style="stop-color:#F6F6F6"
   id="stop697" />
&#10;						<stop
   offset="0.6274"
   style="stop-color:#FDFDFD"
   id="stop698" />
&#10;						<stop
   offset="1"
   style="stop-color:#FFFFFF"
   id="stop699" />
&#10;					</radialGradient>
&#10;					&#10;						<path
   style="fill:url(#SVGID_00000021112777706721456970000002738940131200593336_)"
   d="M 553.904,718.654 V 631.517 482.55 395.413 c 0,-12.784 9.681,-13.047 9.681,-13.047 h 110.678 9.419 110.681 c 0,0 2.085,0.059 4.32,1.397 -2.494,-1.829 -5.071,-1.903 -5.071,-1.903 h -110.566 -9.41 -110.567 c 0,0 -9.672,0.263 -9.672,13.065 l 0.002,87.263 v 149.183 87.266 c 0,12.801 9.671,13.063 9.671,13.063 h 0.516 c -10e-4,0 -9.682,-0.262 -9.682,-13.046 z"
   mask="url(#SVGID_00000101809180332113936270000005347402594530274478_)"
   id="path699" />
&#10;				</g>
&#10;			</mask>
&#10;			&#10;				<radialGradient
   id="radialGradient19"
   cx="621.6535"
   cy="483.67389"
   r="342.81839"
   gradientUnits="userSpaceOnUse">&#10;				<stop
   offset="0"
   style="stop-color:#FFFFFF"
   id="stop17-1" />
&#10;				<stop
   offset="0.1413"
   style="stop-color:#FFFFFF"
   id="stop18-1" />
&#10;				<stop
   offset="1"
   style="stop-color:#FFFFFF"
   id="stop19-5" />
&#10;			</radialGradient>
&#10;			<path
   style="fill:url(#SVGID_00000093882997466298081600000012504013567979230141_)"
   d="M 553.904,718.654 V 631.517 482.55 395.413 c 0,-12.784 9.681,-13.047 9.681,-13.047 h 110.678 9.419 110.681 c 0,0 2.085,0.059 4.32,1.397 -2.494,-1.829 -5.071,-1.903 -5.071,-1.903 h -110.566 -9.41 -110.567 c 0,0 -9.672,0.263 -9.672,13.065 l 0.002,87.263 v 149.183 87.266 c 0,12.801 9.671,13.063 9.671,13.063 h 0.516 c -10e-4,0 -9.682,-0.262 -9.682,-13.046 z"
   id="path702" />
&#10;			<g
   id="g706">&#10;				<defs
   id="defs702" />
&#10;				&#10;					<mask
   maskUnits="userSpaceOnUse"
   x="553.39"
   y="407.139"
   width="0.507"
   height="301.654"
   id="mask704">&#10;					<g
   style="filter:url(#Adobe_OpacityMaskFilter_00000157287274541283355010000017989240101080009396_)"
   id="g704">&#10;						<defs
   id="defs703" />
&#10;						&#10;							<mask
   maskUnits="userSpaceOnUse"
   x="553.39"
   y="407.139"
   width="0.507"
   height="301.654"
   id="SVGID_00000100371007176221356010000016151454027080411061_">&#10;							<g
   style="filter:url(#Adobe_OpacityMaskFilter_00000080178347572349651490000014193314029480736410_)"
   id="g703">&#10;							</g>
&#10;						</mask>
&#10;						&#10;							<radialGradient
   id="SVGID_00000181074716509094694760000007000515085418541469_"
   cx="1401.5806"
   cy="381.7005"
   r="402.4205"
   gradientTransform="matrix(-1,0,0,1,2215.418,0)"
   gradientUnits="userSpaceOnUse">&#10;							<stop
   offset="0.0988"
   style="stop-color:#000000"
   id="stop703" />
&#10;							<stop
   offset="1"
   style="stop-color:#FFFFFF"
   id="stop704" />
&#10;						</radialGradient>
&#10;						&#10;							<path
   style="fill:url(#SVGID_00000181074716509094694760000007000515085418541469_)"
   d="m 553.39,407.139 v 301.654 c 0.169,-0.61 0.335,-1.223 0.505,-1.832 l 10e-4,-75.951 V 412.607 c -0.171,-1.823 -0.34,-3.646 -0.506,-5.468 z"
   mask="url(#SVGID_00000100371007176221356010000016151454027080411061_)"
   id="path704" />
&#10;					</g>
&#10;				</mask>
&#10;				&#10;					<radialGradient
   id="radialGradient21"
   cx="1401.5806"
   cy="381.7005"
   r="402.4205"
   gradientTransform="matrix(-1,0,0,1,2215.418,0)"
   gradientUnits="userSpaceOnUse">&#10;					<stop
   offset="0.0988"
   style="stop-color:#FFFFFF"
   id="stop20-9" />
&#10;					<stop
   offset="1"
   style="stop-color:#ABABAB"
   id="stop21" />
&#10;				</radialGradient>
&#10;				<path
   style="fill:url(#SVGID_00000127764355520830967660000011110945634274682266_)"
   d="m 553.39,407.139 v 301.654 c 0.169,-0.61 0.335,-1.223 0.505,-1.832 l 10e-4,-75.951 V 412.607 c -0.171,-1.823 -0.34,-3.646 -0.506,-5.468 z"
   id="path706" />
&#10;			</g>
&#10;		</g>
&#10;		<g
   id="g738">&#10;			<g
   id="g711">&#10;				<g
   id="g708">&#10;					<path
   d="m 578.342,449.036 c -0.544,6.501 -4.21,11.056 -4.21,11.056 h 4.21 4.209 c 0,0 -3.665,-4.555 -4.209,-11.056 z"
   id="path707" />
&#10;					<path
   d="m 586.202,439.398 c -5.214,-3.604 -7.791,-7.372 -7.859,-7.47 v -0.005 l -0.002,0.002 -10e-4,-0.002 v 0.005 c -0.067,0.098 -2.644,3.866 -7.858,7.47 -5.284,3.65 -6.487,8.205 -4.598,11.643 1.891,3.437 9.449,5.111 12.457,-1.715 3.008,6.826 10.568,5.151 12.458,1.715 1.889,-3.438 0.686,-7.992 -4.597,-11.643 z"
   id="path708" />
&#10;				</g>
&#10;				<g
   id="g710">&#10;					<path
   d="m 571.946,421.609 c 0,0.853 0.048,1.499 0.144,1.932 0.095,0.437 0.265,0.789 0.508,1.062 0.243,0.273 0.593,0.486 1.049,0.641 0.457,0.154 1.031,0.272 1.723,0.353 0.692,0.082 1.605,0.137 2.74,0.166 v 1.613 h -16.326 v -1.613 c 1.635,-0.074 2.803,-0.172 3.502,-0.298 0.7,-0.124 1.234,-0.313 1.601,-0.564 0.37,-0.25 0.638,-0.603 0.808,-1.06 0.17,-0.457 0.254,-1.201 0.254,-2.231 v -17.916 c 0,-0.588 -0.104,-1.02 -0.31,-1.293 -0.207,-0.272 -0.508,-0.409 -0.906,-0.409 -0.472,0 -1.142,0.243 -2.01,0.729 -0.869,0.486 -1.944,1.156 -3.225,2.011 l -0.973,-1.7 10.339,-6.164 h 1.214 c -0.089,1.413 -0.133,3.372 -0.133,5.876 v 18.865 z"
   id="path709" />
&#10;					<path
   d="m 586.239,427.728 c -3.182,0 -5.549,-1.252 -7.103,-3.756 -1.554,-2.503 -2.331,-6.303 -2.331,-11.399 0,-2.709 0.24,-5.05 0.718,-7.023 0.479,-1.975 1.149,-3.605 2.011,-4.893 0.862,-1.289 1.896,-2.244 3.104,-2.862 1.207,-0.618 2.526,-0.927 3.954,-0.927 3.226,0 5.627,1.244 7.203,3.732 1.576,2.49 2.363,6.254 2.363,11.29 0,5.213 -0.844,9.156 -2.529,11.829 -1.688,2.674 -4.15,4.009 -7.39,4.009 z m -5.125,-15.816 c 0,4.801 0.444,8.324 1.337,10.57 0.89,2.246 2.272,3.369 4.141,3.369 1.782,0 3.104,-1.058 3.966,-3.172 0.862,-2.112 1.292,-5.385 1.292,-9.817 0,-3.388 -0.22,-6.132 -0.661,-8.23 -0.442,-2.099 -1.059,-3.604 -1.846,-4.518 -0.788,-0.913 -1.741,-1.369 -2.86,-1.369 -1.017,0 -1.866,0.302 -2.551,0.905 -0.685,0.604 -1.238,1.473 -1.658,2.606 -0.419,1.135 -0.718,2.517 -0.894,4.143 -0.178,1.628 -0.266,3.465 -0.266,5.513 z"
   id="path710" />
&#10;				</g>
&#10;			</g>
&#10;			<g
   id="g715">&#10;				<g
   id="g712">&#10;					<path
   d="m 779.017,663.913 c 0.544,-6.501 4.209,-11.056 4.209,-11.056 h -4.209 -4.21 c 0,0 3.665,4.555 4.21,11.056 z"
   id="path711" />
&#10;					<path
   d="m 771.156,673.551 c 5.214,3.604 7.791,7.373 7.858,7.471 v 0.004 l 0.002,-0.002 v 0.002 -0.004 c 0.067,-0.098 2.645,-3.867 7.858,-7.471 5.284,-3.65 6.487,-8.205 4.598,-11.643 -1.89,-3.435 -9.448,-5.111 -12.457,1.715 -3.008,-6.826 -10.568,-5.15 -12.458,-1.715 -1.888,3.438 -0.685,7.992 4.599,11.643 z"
   id="path712" />
&#10;				</g>
&#10;				<g
   id="g714">&#10;					<path
   d="m 785.412,691.34 c 0,-0.853 -0.048,-1.499 -0.144,-1.932 -0.096,-0.435 -0.265,-0.789 -0.508,-1.062 -0.243,-0.272 -0.593,-0.486 -1.05,-0.641 -0.457,-0.154 -1.03,-0.273 -1.723,-0.353 -0.692,-0.082 -1.605,-0.137 -2.74,-0.166 v -1.613 h 16.327 v 1.613 c -1.636,0.074 -2.803,0.172 -3.502,0.298 -0.7,0.124 -1.233,0.313 -1.602,0.563 -0.369,0.25 -0.637,0.603 -0.807,1.06 -0.169,0.457 -0.254,1.201 -0.254,2.231 v 17.916 c 0,0.588 0.104,1.019 0.31,1.293 0.206,0.272 0.508,0.409 0.906,0.409 0.472,0 1.142,-0.243 2.011,-0.729 0.869,-0.486 1.943,-1.156 3.225,-2.011 l 0.973,1.7 -10.34,6.164 h -1.214 c 0.089,-1.413 0.133,-3.372 0.133,-5.876 V 691.34 Z"
   id="path713" />
&#10;					<path
   d="m 771.118,685.221 c 3.182,0 5.55,1.252 7.102,3.756 1.555,2.503 2.332,6.303 2.332,11.4 0,2.708 -0.24,5.049 -0.717,7.022 -0.48,1.976 -1.15,3.607 -2.012,4.894 -0.862,1.289 -1.896,2.244 -3.104,2.862 -1.207,0.618 -2.526,0.927 -3.954,0.927 -3.226,0 -5.626,-1.244 -7.203,-3.732 -1.576,-2.49 -2.363,-6.254 -2.363,-11.289 0,-5.213 0.844,-9.157 2.53,-11.83 1.688,-2.674 4.15,-4.01 7.389,-4.01 z m 5.126,15.816 c 0,-4.8 -0.445,-8.324 -1.338,-10.57 -0.889,-2.246 -2.271,-3.369 -4.141,-3.369 -1.782,0 -3.104,1.058 -3.966,3.172 -0.861,2.113 -1.292,5.385 -1.292,9.818 0,3.387 0.219,6.131 0.661,8.229 0.442,2.099 1.059,3.604 1.846,4.518 0.787,0.913 1.74,1.37 2.859,1.37 1.018,0 1.867,-0.303 2.552,-0.906 0.685,-0.604 1.238,-1.473 1.658,-2.606 0.419,-1.134 0.717,-2.517 0.894,-4.143 0.179,-1.628 0.267,-3.465 0.267,-5.513 z"
   id="path714" />
&#10;				</g>
&#10;			</g>
&#10;			<g
   id="g737">&#10;				<g
   id="g723">&#10;					<g
   id="g716">&#10;						<path
   d="m 724.032,583.005 c 1.08,-12.904 8.356,-21.942 8.356,-21.942 h -8.356 -8.355 c 0,0 7.275,9.038 8.355,21.942 z"
   id="path715" />
&#10;						<path
   d="m 708.433,602.131 c 10.35,7.151 15.463,14.631 15.597,14.825 v 0.011 l 0.003,-0.004 0.003,0.004 v -0.011 c 0.134,-0.194 5.249,-7.674 15.597,-14.825 10.488,-7.248 12.875,-16.284 9.122,-23.108 -3.751,-6.818 -18.752,-10.143 -24.723,3.404 -5.97,-13.548 -20.973,-10.223 -24.724,-3.404 -3.75,6.824 -1.364,15.86 9.125,23.108 z"
   id="path716" />
&#10;					</g>
&#10;					<g
   id="g718">&#10;						<path
   d="m 724.032,647.325 c -1.08,-12.903 -8.356,-21.942 -8.356,-21.942 h 8.356 8.356 c 0,0 -7.276,9.039 -8.356,21.942 z"
   id="path717" />
&#10;						<path
   d="m 739.632,666.451 c -10.35,7.152 -15.464,14.631 -15.597,14.826 v 0.011 l -0.003,-0.005 -0.003,0.005 v -0.011 c -0.133,-0.195 -5.247,-7.674 -15.596,-14.826 -10.488,-7.246 -12.876,-16.283 -9.123,-23.105 3.751,-6.82 18.752,-10.145 24.722,3.403 5.97,-13.548 20.973,-10.224 24.724,-3.403 3.751,6.822 1.364,15.859 -9.124,23.105 z"
   id="path718" />
&#10;					</g>
&#10;					<g
   id="g720">&#10;						<path
   d="m 724.032,466.383 c -1.079,12.904 -8.355,21.942 -8.355,21.942 h 8.355 8.356 c 10e-4,0 -7.275,-9.038 -8.356,-21.942 z"
   id="path719" />
&#10;						<path
   d="m 739.632,447.258 c -10.35,-7.152 -15.463,-14.632 -15.597,-14.827 v -0.01 l -0.003,0.005 -0.003,-0.005 v 0.01 c -0.133,0.195 -5.248,7.675 -15.597,14.827 -10.488,7.246 -12.875,16.283 -9.123,23.105 3.751,6.819 18.752,10.143 24.722,-3.404 5.971,13.548 20.973,10.224 24.724,3.404 3.752,-6.822 1.365,-15.859 -9.123,-23.105 z"
   id="path720" />
&#10;					</g>
&#10;					<g
   id="g722">&#10;						<path
   d="m 724.032,530.704 c -1.079,12.904 -8.355,21.942 -8.355,21.942 h 8.355 8.356 c 10e-4,0 -7.275,-9.038 -8.356,-21.942 z"
   id="path721" />
&#10;						<path
   d="m 739.632,511.579 c -10.35,-7.152 -15.463,-14.632 -15.597,-14.827 v -0.01 l -0.003,0.005 -0.003,-0.005 v 0.01 c -0.133,0.195 -5.248,7.675 -15.597,14.827 -10.488,7.246 -12.875,16.283 -9.123,23.105 3.751,6.819 18.752,10.144 24.722,-3.404 5.971,13.548 20.973,10.224 24.724,3.404 3.752,-6.822 1.365,-15.859 -9.123,-23.105 z"
   id="path722" />
&#10;					</g>
&#10;				</g>
&#10;				<g
   id="g731">&#10;					<g
   id="g724">&#10;						<path
   d="m 632.648,583.005 c 1.08,-12.904 8.356,-21.942 8.356,-21.942 h -8.356 -8.356 c 0,0 7.276,9.038 8.356,21.942 z"
   id="path723" />
&#10;						<path
   d="m 617.049,602.131 c 10.349,7.151 15.463,14.631 15.597,14.825 v 0.011 l 0.003,-0.004 0.003,0.004 v -0.011 c 0.133,-0.194 5.248,-7.674 15.597,-14.825 10.488,-7.248 12.875,-16.284 9.123,-23.108 -3.751,-6.818 -18.752,-10.143 -24.723,3.404 -5.97,-13.548 -20.973,-10.223 -24.724,-3.404 -3.752,6.824 -1.364,15.86 9.124,23.108 z"
   id="path724" />
&#10;					</g>
&#10;					<g
   id="g726">&#10;						<path
   d="m 632.648,647.325 c -1.08,-12.903 -8.356,-21.942 -8.356,-21.942 h 8.356 8.356 c 0,0 -7.275,9.039 -8.356,21.942 z"
   id="path725" />
&#10;						<path
   d="m 648.248,666.451 c -10.351,7.152 -15.464,14.631 -15.597,14.826 v 0.011 l -0.003,-0.005 -0.003,0.005 v -0.011 c -0.133,-0.195 -5.249,-7.674 -15.597,-14.826 -10.488,-7.246 -12.875,-16.283 -9.123,-23.105 3.751,-6.82 18.752,-10.145 24.723,3.403 5.97,-13.548 20.973,-10.224 24.724,-3.403 3.751,6.822 1.364,15.859 -9.124,23.105 z"
   id="path726" />
&#10;					</g>
&#10;					<g
   id="g728">&#10;						<path
   d="m 632.648,466.383 c -1.08,12.904 -8.356,21.942 -8.356,21.942 h 8.356 8.356 c 0,0 -7.275,-9.038 -8.356,-21.942 z"
   id="path727" />
&#10;						<path
   d="m 648.248,447.258 c -10.35,-7.152 -15.464,-14.632 -15.597,-14.827 v -0.01 l -0.003,0.005 -0.003,-0.005 v 0.01 c -0.133,0.195 -5.248,7.675 -15.596,14.827 -10.488,7.246 -12.876,16.283 -9.124,23.105 3.751,6.819 18.752,10.143 24.723,-3.404 5.97,13.548 20.973,10.224 24.724,3.404 3.752,-6.822 1.364,-15.859 -9.124,-23.105 z"
   id="path728" />
&#10;					</g>
&#10;					<g
   id="g730">&#10;						<path
   d="m 632.648,530.704 c -1.08,12.904 -8.356,21.942 -8.356,21.942 h 8.356 8.356 c 0,0 -7.275,-9.038 -8.356,-21.942 z"
   id="path729" />
&#10;						<path
   d="m 648.248,511.579 c -10.35,-7.152 -15.464,-14.632 -15.597,-14.827 v -0.01 l -0.003,0.005 -0.003,-0.005 v 0.01 c -0.133,0.195 -5.248,7.675 -15.596,14.827 -10.488,7.246 -12.876,16.283 -9.124,23.105 3.751,6.819 18.752,10.144 24.723,-3.404 5.97,13.548 20.973,10.224 24.724,3.404 3.752,-6.822 1.364,-15.859 -9.124,-23.105 z"
   id="path730" />
&#10;					</g>
&#10;				</g>
&#10;				<g
   id="g736">&#10;					<g
   id="g733">&#10;						<g
   id="g732">&#10;							<path
   d="m 678.34,496.738 c -1.079,12.904 -8.356,21.942 -8.356,21.942 h 8.356 8.356 c 0,0.001 -7.275,-9.037 -8.356,-21.942 z"
   id="path731" />
&#10;							<path
   d="m 693.94,477.613 c -10.351,-7.152 -15.464,-14.632 -15.597,-14.827 v -0.01 l -0.003,0.005 -0.003,-0.005 v 0.01 c -0.133,0.195 -5.248,7.675 -15.597,14.827 -10.488,7.246 -12.875,16.283 -9.123,23.105 3.751,6.819 18.752,10.145 24.722,-3.404 5.971,13.549 20.973,10.224 24.724,3.404 3.752,-6.821 1.365,-15.859 -9.123,-23.105 z"
   id="path732" />
&#10;						</g>
&#10;					</g>
&#10;					<g
   id="g735">&#10;						<g
   id="g734">&#10;							<path
   d="m 678.34,612.299 c -1.079,-12.903 -8.356,-21.941 -8.356,-21.941 h 8.356 8.356 c 0,-10e-4 -7.275,9.038 -8.356,21.941 z"
   id="path733" />
&#10;							<path
   d="m 693.94,631.425 c -10.351,7.152 -15.464,14.632 -15.597,14.827 v 0.01 l -0.003,-0.005 -0.003,0.005 v -0.01 c -0.133,-0.195 -5.248,-7.675 -15.597,-14.827 -10.488,-7.246 -12.875,-16.283 -9.123,-23.106 3.751,-6.819 18.752,-10.143 24.722,3.404 5.971,-13.548 20.973,-10.224 24.724,-3.404 3.752,6.823 1.365,15.86 -9.123,23.106 z"
   id="path734" />
&#10;						</g>
&#10;					</g>
&#10;				</g>
&#10;			</g>
&#10;		</g>
&#10;	</g>
  </g>
</svg>
