<?xml version="1.0" encoding="UTF-8" standalone="no"?>
<!-- Created with Inkscape (http://www.inkscape.org/) -->

<svg
   width="66.118317mm"
   height="92.562622mm"
   viewBox="0 0 66.118317 92.562622"
   version="1.1"
   id="svg1"
   xmlns:inkscape="http://www.inkscape.org/namespaces/inkscape"
   xmlns:sodipodi="http://sodipodi.sourceforge.net/DTD/sodipodi-0.dtd"
   xmlns="http://www.w3.org/2000/svg"
   xmlns:svg="http://www.w3.org/2000/svg">
  <sodipodi:namedview
     id="namedview1"
     pagecolor="#ffffff"
     bordercolor="#000000"
     borderopacity="0.25"
     inkscape:showpageshadow="2"
     inkscape:pageopacity="0.0"
     inkscape:pagecheckerboard="0"
     inkscape:deskcolor="#d1d1d1"
     inkscape:document-units="mm" />
  <defs
     id="defs1">
    <radialGradient
       id="SVGID_00000098181292245431146830000012878211179341024402_"
       cx="137.5513"
       cy="-104.5552"
       r="505.879"
       gradientUnits="userSpaceOnUse">&#10;						<stop
   offset="0.6156"
   style="stop-color:#FFFFFF"
   id="stop752" />
&#10;						<stop
   offset="0.7878"
   style="stop-color:#FDFDFD"
   id="stop753" />
&#10;						<stop
   offset="0.8537"
   style="stop-color:#F6F6F6"
   id="stop754" />
&#10;						<stop
   offset="0.9014"
   style="stop-color:#EAEAEA"
   id="stop755" />
&#10;						<stop
   offset="0.9403"
   style="stop-color:#D9D9D9"
   id="stop756" />
&#10;						<stop
   offset="0.9735"
   style="stop-color:#C3C3C3"
   id="stop757" />
&#10;						<stop
   offset="1"
   style="stop-color:#ABABAB"
   id="stop758" />
&#10;					</radialGradient>
    <radialGradient
       id="SVGID_00000182512949435588995750000009233971556929526938_"
       cx="142.5562"
       cy="337.5459"
       r="362.49438"
       gradientUnits="userSpaceOnUse">&#10;						<stop
   offset="0.6156"
   style="stop-color:#FFFFFF"
   id="stop770" />
&#10;						<stop
   offset="0.747"
   style="stop-color:#FDFDFD"
   id="stop771" />
&#10;						<stop
   offset="0.8206"
   style="stop-color:#F5F5F5"
   id="stop772" />
&#10;						<stop
   offset="0.8799"
   style="stop-color:#E7E7E7"
   id="stop773" />
&#10;						<stop
   offset="0.9316"
   style="stop-color:#D3D3D3"
   id="stop774" />
&#10;						<stop
   offset="0.9778"
   style="stop-color:#BABABA"
   id="stop775" />
&#10;						<stop
   offset="1"
   style="stop-color:#ABABAB"
   id="stop776" />
&#10;					</radialGradient>
    <radialGradient
       id="SVGID_00000091709764226807834100000010993526022859912581_"
       cx="5.7856002"
       cy="14.5526"
       r="402.49509"
       gradientUnits="userSpaceOnUse">&#10;						<stop
   offset="0.0988"
   style="stop-color:#FFFFFF"
   id="stop779" />
&#10;						<stop
   offset="1"
   style="stop-color:#ABABAB"
   id="stop780" />
&#10;					</radialGradient>
    <radialGradient
       id="SVGID_00000057849259730242421030000001578377197464991125_"
       cx="84.730904"
       cy="116.5245"
       r="342.81799"
       gradientUnits="userSpaceOnUse">&#10;					<stop
   offset="0"
   style="stop-color:#FFFFFF"
   id="stop793" />
&#10;					<stop
   offset="0.1413"
   style="stop-color:#FFFFFF"
   id="stop794" />
&#10;					<stop
   offset="1"
   style="stop-color:#FFFFFF"
   id="stop795" />
&#10;				</radialGradient>
    <radialGradient
       id="SVGID_00000101812090614300754960000007290907725751115663_"
       cx="1938.4515"
       cy="14.5515"
       r="402.45099"
       gradientTransform="matrix(-1,0,0,1,2215.418,0)"
       gradientUnits="userSpaceOnUse">&#10;						<stop
   offset="0.0988"
   style="stop-color:#FFFFFF"
   id="stop798" />
&#10;						<stop
   offset="1"
   style="stop-color:#ABABAB"
   id="stop799" />
&#10;					</radialGradient>
    <filter
       id="Adobe_OpacityMaskFilter_00000107555487936900820810000001668491043969223574_"
       filterUnits="userSpaceOnUse"
       x="16.476"
       y="203.50999"
       width="249.88499"
       height="161.041">&#10;							<feFlood
   result="back"
   id="feFlood739" />
&#10;							<feBlend
   in="SourceGraphic"
   in2="back"
   mode="normal"
   id="feBlend739" />
&#10;						</filter>
    <filter
       id="Adobe_OpacityMaskFilter_00000146479629226569826240000006054391922642073735_"
       filterUnits="userSpaceOnUse"
       x="16.476"
       y="203.50999"
       width="249.88499"
       height="161.041">&#10;									<feFlood
   result="back"
   id="feFlood740" />
&#10;									<feBlend
   in="SourceGraphic"
   in2="back"
   mode="normal"
   id="feBlend740" />
&#10;								</filter>
    <filter
       id="Adobe_OpacityMaskFilter_00000080199929865234265980000015809319037043517087_"
       filterUnits="userSpaceOnUse"
       x="16.475"
       y="14.711"
       width="249.886"
       height="174.632">&#10;							<feFlood
   result="back"
   id="feFlood758" />
&#10;							<feBlend
   in="SourceGraphic"
   in2="back"
   mode="normal"
   id="feBlend758" />
&#10;						</filter>
    <filter
       id="Adobe_OpacityMaskFilter_00000066496300964160314110000008725665577574261150_"
       filterUnits="userSpaceOnUse"
       x="16.475"
       y="14.711"
       width="249.886"
       height="174.632">&#10;									<feFlood
   result="back"
   id="feFlood759" />
&#10;									<feBlend
   in="SourceGraphic"
   in2="back"
   mode="normal"
   id="feBlend759" />
&#10;								</filter>
    <filter
       id="Adobe_OpacityMaskFilter_00000018953585206217020650000005201886465559146635_"
       filterUnits="userSpaceOnUse"
       x="21.077"
       y="14.71"
       width="245.285"
       height="349.84">&#10;							<feFlood
   result="back"
   id="feFlood776" />
&#10;							<feBlend
   in="SourceGraphic"
   in2="back"
   mode="normal"
   id="feBlend776" />
&#10;						</filter>
    <filter
       id="Adobe_OpacityMaskFilter_00000102526542202793235760000003120757988907713666_"
       filterUnits="userSpaceOnUse"
       x="21.077"
       y="14.71"
       width="245.285"
       height="349.84">&#10;									<feFlood
   result="back"
   id="feFlood777" />
&#10;									<feBlend
   in="SourceGraphic"
   in2="back"
   mode="normal"
   id="feBlend777" />
&#10;								</filter>
    <filter
       id="Adobe_OpacityMaskFilter_00000155130064932592238250000000423781489918155668_"
       filterUnits="userSpaceOnUse"
       x="16.475"
       y="14.711"
       width="245.285"
       height="349.84">&#10;						<feFlood
   result="back"
   id="feFlood780" />
&#10;						<feBlend
   in="SourceGraphic"
   in2="back"
   mode="normal"
   id="feBlend780" />
&#10;					</filter>
    <filter
       id="Adobe_OpacityMaskFilter_00000058551883341225195980000011857957477291338150_"
       filterUnits="userSpaceOnUse"
       x="16.475"
       y="14.711"
       width="245.285"
       height="349.84">&#10;								<feFlood
   result="back"
   id="feFlood781" />
&#10;								<feBlend
   in="SourceGraphic"
   in2="back"
   mode="normal"
   id="feBlend781" />
&#10;							</filter>
    <filter
       id="Adobe_OpacityMaskFilter_00000019641123357230073110000007140659998710515357_"
       filterUnits="userSpaceOnUse"
       x="16.466999"
       y="39.990002"
       width="0.50700003"
       height="301.65399">&#10;							<feFlood
   result="back"
   id="feFlood795" />
&#10;							<feBlend
   in="SourceGraphic"
   in2="back"
   mode="normal"
   id="feBlend795" />
&#10;						</filter>
    <filter
       id="Adobe_OpacityMaskFilter_00000044881464556292251070000017154516829653743490_"
       filterUnits="userSpaceOnUse"
       x="16.466999"
       y="39.990002"
       width="0.50700003"
       height="301.65399">&#10;									<feFlood
   result="back"
   id="feFlood796" />
&#10;									<feBlend
   in="SourceGraphic"
   in2="back"
   mode="normal"
   id="feBlend796" />
&#10;								</filter>
  </defs>
  <g
     inkscape:label="Layer 1"
     inkscape:groupmode="layer"
     id="layer1"
     transform="translate(-39.90006,-58.092463)">
    <g
       id="g828"
       transform="matrix(0.26458333,0,0,0.26458333,35.543165,54.200439)">&#10;		<g
   id="g807">&#10;			<g
   id="g800">&#10;				<g
   id="g776">&#10;					<path
   style="fill:#ffffff"
   d="M 256.69,14.711 H 146.123 136.713 26.147 c 0,0 -9.672,0.263 -9.672,13.066 l 10e-4,87.262 v 149.184 87.264 c 0,12.801 9.671,13.065 9.671,13.065 h 110.566 9.41 110.567 c 0,0 9.671,-0.264 9.671,-13.065 V 264.223 115.039 27.777 C 266.36,14.974 256.69,14.711 256.69,14.711 Z"
   id="path739" />
&#10;					<defs
   id="defs739" />
&#10;					&#10;						<mask
   maskUnits="userSpaceOnUse"
   x="16.476"
   y="203.51"
   width="249.885"
   height="161.041"
   id="mask751">&#10;						<g
   style="filter:url(#Adobe_OpacityMaskFilter_00000107555487936900820810000001668491043969223574_)"
   id="g751">&#10;							<defs
   id="defs740" />
&#10;							&#10;								<mask
   maskUnits="userSpaceOnUse"
   x="16.476"
   y="203.51"
   width="249.885"
   height="161.041"
   id="SVGID_00000062164497673226898480000016587324933278922936_">&#10;								<g
   style="filter:url(#Adobe_OpacityMaskFilter_00000146479629226569826240000006054391922642073735_)"
   id="g740">&#10;								</g>
&#10;							</mask>
&#10;							&#10;								<radialGradient
   id="SVGID_00000084504344450145341220000009955137526131311491_"
   cx="137.5513"
   cy="-104.5552"
   r="505.879"
   gradientUnits="userSpaceOnUse">&#10;								<stop
   offset="0.6156"
   style="stop-color:#000000"
   id="stop740" />
&#10;								<stop
   offset="0.7516"
   style="stop-color:#020202"
   id="stop741" />
&#10;								<stop
   offset="0.8037"
   style="stop-color:#090909"
   id="stop742" />
&#10;								<stop
   offset="0.8413"
   style="stop-color:#151515"
   id="stop743" />
&#10;								<stop
   offset="0.8721"
   style="stop-color:#262626"
   id="stop744" />
&#10;								<stop
   offset="0.8986"
   style="stop-color:#3C3C3C"
   id="stop745" />
&#10;								<stop
   offset="0.9222"
   style="stop-color:#585858"
   id="stop746" />
&#10;								<stop
   offset="0.9436"
   style="stop-color:#797979"
   id="stop747" />
&#10;								<stop
   offset="0.9634"
   style="stop-color:#9F9F9F"
   id="stop748" />
&#10;								<stop
   offset="0.9817"
   style="stop-color:#CBCBCB"
   id="stop749" />
&#10;								<stop
   offset="0.9982"
   style="stop-color:#F9F9F9"
   id="stop750" />
&#10;								<stop
   offset="1"
   style="stop-color:#FFFFFF"
   id="stop751" />
&#10;							</radialGradient>
&#10;							&#10;								<path
   style="fill:url(#SVGID_00000084504344450145341220000009955137526131311491_)"
   d="m 163.813,203.523 c -49.112,0.01 -98.225,0.031 -147.337,0.051 v 147.912 c 0,12.801 9.671,13.065 9.671,13.065 H 256.69 c 0,0 9.671,-0.264 9.671,-13.065 V 203.51 c -34.183,0.004 -68.365,0.006 -102.548,0.013 z"
   mask="url(#SVGID_00000062164497673226898480000016587324933278922936_)"
   id="path751" />
&#10;						</g>
&#10;					</mask>
&#10;					&#10;						<radialGradient
   id="radialGradient7"
   cx="137.5513"
   cy="-104.5552"
   r="505.879"
   gradientUnits="userSpaceOnUse">&#10;						<stop
   offset="0.6156"
   style="stop-color:#FFFFFF"
   id="stop1" />
&#10;						<stop
   offset="0.7878"
   style="stop-color:#FDFDFD"
   id="stop2" />
&#10;						<stop
   offset="0.8537"
   style="stop-color:#F6F6F6"
   id="stop3" />
&#10;						<stop
   offset="0.9014"
   style="stop-color:#EAEAEA"
   id="stop4" />
&#10;						<stop
   offset="0.9403"
   style="stop-color:#D9D9D9"
   id="stop5" />
&#10;						<stop
   offset="0.9735"
   style="stop-color:#C3C3C3"
   id="stop6" />
&#10;						<stop
   offset="1"
   style="stop-color:#ABABAB"
   id="stop7" />
&#10;					</radialGradient>
&#10;					<path
   style="fill:url(#SVGID_00000098181292245431146830000012878211179341024402_)"
   d="m 163.813,203.523 c -49.112,0.01 -98.225,0.031 -147.337,0.051 v 147.912 c 0,12.801 9.671,13.065 9.671,13.065 H 256.69 c 0,0 9.671,-0.264 9.671,-13.065 V 203.51 c -34.183,0.004 -68.365,0.006 -102.548,0.013 z"
   id="path758" />
&#10;					<defs
   id="defs758" />
&#10;					&#10;						<mask
   maskUnits="userSpaceOnUse"
   x="16.475"
   y="14.711"
   width="249.886"
   height="174.632"
   id="mask769">&#10;						<g
   style="filter:url(#Adobe_OpacityMaskFilter_00000080199929865234265980000015809319037043517087_)"
   id="g769">&#10;							<defs
   id="defs759" />
&#10;							&#10;								<mask
   maskUnits="userSpaceOnUse"
   x="16.475"
   y="14.711"
   width="249.886"
   height="174.632"
   id="SVGID_00000001632376023473389530000016001697692373509270_">&#10;								<g
   style="filter:url(#Adobe_OpacityMaskFilter_00000066496300964160314110000008725665577574261150_)"
   id="g759">&#10;								</g>
&#10;							</mask>
&#10;							&#10;								<radialGradient
   id="SVGID_00000163059998651941244310000011704833288228402599_"
   cx="142.5562"
   cy="337.5459"
   r="362.49438"
   gradientUnits="userSpaceOnUse">&#10;								<stop
   offset="0.6156"
   style="stop-color:#000000"
   id="stop759" />
&#10;								<stop
   offset="0.7096"
   style="stop-color:#020202"
   id="stop760" />
&#10;								<stop
   offset="0.7623"
   style="stop-color:#0A0A0A"
   id="stop761" />
&#10;								<stop
   offset="0.8047"
   style="stop-color:#181818"
   id="stop762" />
&#10;								<stop
   offset="0.8418"
   style="stop-color:#2C2C2C"
   id="stop763" />
&#10;								<stop
   offset="0.8752"
   style="stop-color:#464646"
   id="stop764" />
&#10;								<stop
   offset="0.9062"
   style="stop-color:#656565"
   id="stop765" />
&#10;								<stop
   offset="0.9352"
   style="stop-color:#8A8A8A"
   id="stop766" />
&#10;								<stop
   offset="0.9626"
   style="stop-color:#B6B6B6"
   id="stop767" />
&#10;								<stop
   offset="0.9879"
   style="stop-color:#E5E5E5"
   id="stop768" />
&#10;								<stop
   offset="1"
   style="stop-color:#FFFFFF"
   id="stop769" />
&#10;							</radialGradient>
&#10;							&#10;								<path
   style="fill:url(#SVGID_00000163059998651941244310000011704833288228402599_)"
   d="m 16.476,189.252 c 21.028,0.016 42.058,0.032 63.087,0.044 60.604,0.035 121.207,0.039 181.81,0.047 1.663,0 3.325,-10e-4 4.987,-10e-4 V 27.777 c 0,-12.803 -9.671,-13.066 -9.671,-13.066 H 26.147 c 0,0 -9.672,0.263 -9.672,13.066 l 10e-4,87.262 z"
   mask="url(#SVGID_00000001632376023473389530000016001697692373509270_)"
   id="path769" />
&#10;						</g>
&#10;					</mask>
&#10;					&#10;						<radialGradient
   id="radialGradient14"
   cx="142.5562"
   cy="337.5459"
   r="362.49438"
   gradientUnits="userSpaceOnUse">&#10;						<stop
   offset="0.6156"
   style="stop-color:#FFFFFF"
   id="stop8" />
&#10;						<stop
   offset="0.747"
   style="stop-color:#FDFDFD"
   id="stop9" />
&#10;						<stop
   offset="0.8206"
   style="stop-color:#F5F5F5"
   id="stop10" />
&#10;						<stop
   offset="0.8799"
   style="stop-color:#E7E7E7"
   id="stop11" />
&#10;						<stop
   offset="0.9316"
   style="stop-color:#D3D3D3"
   id="stop12" />
&#10;						<stop
   offset="0.9778"
   style="stop-color:#BABABA"
   id="stop13" />
&#10;						<stop
   offset="1"
   style="stop-color:#ABABAB"
   id="stop14" />
&#10;					</radialGradient>
&#10;					<path
   style="fill:url(#SVGID_00000182512949435588995750000009233971556929526938_)"
   d="m 16.476,189.252 c 21.028,0.016 42.058,0.032 63.087,0.044 60.604,0.035 121.207,0.039 181.81,0.047 1.663,0 3.325,-10e-4 4.987,-10e-4 V 27.777 c 0,-12.803 -9.671,-13.066 -9.671,-13.066 H 26.147 c 0,0 -9.672,0.263 -9.672,13.066 l 10e-4,87.262 z"
   id="path776" />
&#10;				</g>
&#10;				<g
   id="g780">&#10;					<defs
   id="defs776" />
&#10;					&#10;						<mask
   maskUnits="userSpaceOnUse"
   x="21.077"
   y="14.71"
   width="245.285"
   height="349.84"
   id="mask778">&#10;						<g
   style="filter:url(#Adobe_OpacityMaskFilter_00000018953585206217020650000005201886465559146635_)"
   id="g778">&#10;							<defs
   id="defs777" />
&#10;							&#10;								<mask
   maskUnits="userSpaceOnUse"
   x="21.077"
   y="14.71"
   width="245.285"
   height="349.84"
   id="SVGID_00000057847308078553528900000005757514178651761540_">&#10;								<g
   style="filter:url(#Adobe_OpacityMaskFilter_00000102526542202793235760000003120757988907713666_)"
   id="g777">&#10;								</g>
&#10;							</mask>
&#10;							&#10;								<radialGradient
   id="SVGID_00000146469835214252847630000006009813311130519954_"
   cx="5.7856002"
   cy="14.5526"
   r="402.49509"
   gradientUnits="userSpaceOnUse">&#10;								<stop
   offset="0.0988"
   style="stop-color:#000000"
   id="stop777" />
&#10;								<stop
   offset="1"
   style="stop-color:#FFFFFF"
   id="stop778" />
&#10;							</radialGradient>
&#10;							&#10;								<path
   style="fill:url(#SVGID_00000146469835214252847630000006009813311130519954_)"
   d="m 265.855,27.755 v 87.138 148.967 l 10e-4,87.137 c 0,12.784 -9.683,13.047 -9.683,13.047 h -110.676 -9.42 -110.68 c 0,0 -2.086,-0.059 -4.32,-1.397 2.492,1.828 5.069,1.903 5.069,1.903 h 110.568 9.41 110.566 c 0,0 9.673,-0.263 9.673,-13.066 V 264.222 115.038 27.774 c 0,-12.801 -9.673,-13.064 -9.673,-13.064 h -0.516 c 0,0 9.681,0.262 9.681,13.045 z"
   mask="url(#SVGID_00000057847308078553528900000005757514178651761540_)"
   id="path778" />
&#10;						</g>
&#10;					</mask>
&#10;					&#10;						<radialGradient
   id="radialGradient16"
   cx="5.7856002"
   cy="14.5526"
   r="402.49509"
   gradientUnits="userSpaceOnUse">&#10;						<stop
   offset="0.0988"
   style="stop-color:#FFFFFF"
   id="stop15" />
&#10;						<stop
   offset="1"
   style="stop-color:#ABABAB"
   id="stop16" />
&#10;					</radialGradient>
&#10;					<path
   style="fill:url(#SVGID_00000091709764226807834100000010993526022859912581_)"
   d="m 265.855,27.755 v 87.138 148.967 l 10e-4,87.137 c 0,12.784 -9.683,13.047 -9.683,13.047 h -110.676 -9.42 -110.68 c 0,0 -2.086,-0.059 -4.32,-1.397 2.492,1.828 5.069,1.903 5.069,1.903 h 110.568 9.41 110.566 c 0,0 9.673,-0.263 9.673,-13.066 V 264.222 115.038 27.774 c 0,-12.801 -9.673,-13.064 -9.673,-13.064 h -0.516 c 0,0 9.681,0.262 9.681,13.045 z"
   id="path780" />
&#10;				</g>
&#10;				<defs
   id="defs780" />
&#10;				&#10;					<mask
   maskUnits="userSpaceOnUse"
   x="16.475"
   y="14.711"
   width="245.285"
   height="349.84"
   id="mask792">&#10;					<g
   style="filter:url(#Adobe_OpacityMaskFilter_00000155130064932592238250000000423781489918155668_)"
   id="g792">&#10;						<defs
   id="defs781" />
&#10;						&#10;							<mask
   maskUnits="userSpaceOnUse"
   x="16.475"
   y="14.711"
   width="245.285"
   height="349.84"
   id="SVGID_00000013878884327004357970000006492981758883047043_">&#10;							<g
   style="filter:url(#Adobe_OpacityMaskFilter_00000058551883341225195980000011857957477291338150_)"
   id="g781">&#10;							</g>
&#10;						</mask>
&#10;						&#10;							<radialGradient
   id="SVGID_00000171712051004740340100000005681896836318919081_"
   cx="84.730904"
   cy="116.5245"
   r="342.81799"
   gradientUnits="userSpaceOnUse">&#10;							<stop
   offset="0"
   style="stop-color:#000000"
   id="stop781" />
&#10;							<stop
   offset="0.0074"
   style="stop-color:#090909"
   id="stop782" />
&#10;							<stop
   offset="0.0477"
   style="stop-color:#373737"
   id="stop783" />
&#10;							<stop
   offset="0.0931"
   style="stop-color:#626262"
   id="stop784" />
&#10;							<stop
   offset="0.1419"
   style="stop-color:#888888"
   id="stop785" />
&#10;							<stop
   offset="0.195"
   style="stop-color:#A8A8A8"
   id="stop786" />
&#10;							<stop
   offset="0.2537"
   style="stop-color:#C4C4C4"
   id="stop787" />
&#10;							<stop
   offset="0.32"
   style="stop-color:#DADADA"
   id="stop788" />
&#10;							<stop
   offset="0.3974"
   style="stop-color:#EBEBEB"
   id="stop789" />
&#10;							<stop
   offset="0.4931"
   style="stop-color:#F6F6F6"
   id="stop790" />
&#10;							<stop
   offset="0.6274"
   style="stop-color:#FDFDFD"
   id="stop791" />
&#10;							<stop
   offset="1"
   style="stop-color:#FFFFFF"
   id="stop792" />
&#10;						</radialGradient>
&#10;						&#10;							<path
   style="fill:url(#SVGID_00000171712051004740340100000005681896836318919081_)"
   d="M 16.981,351.505 V 264.367 115.4 28.264 c 0,-12.784 9.681,-13.047 9.681,-13.047 h 110.678 9.419 110.681 c 0,0 2.085,0.059 4.32,1.398 -2.494,-1.829 -5.07,-1.903 -5.07,-1.903 H 146.123 136.713 26.147 c 0,0 -9.672,0.263 -9.672,13.066 l 10e-4,87.262 v 149.184 87.264 c 0,12.801 9.671,13.065 9.671,13.065 h 0.515 c 0,-0.002 -9.681,-0.265 -9.681,-13.048 z"
   mask="url(#SVGID_00000013878884327004357970000006492981758883047043_)"
   id="path792" />
&#10;					</g>
&#10;				</mask>
&#10;				&#10;					<radialGradient
   id="radialGradient19"
   cx="84.730904"
   cy="116.5245"
   r="342.81799"
   gradientUnits="userSpaceOnUse">&#10;					<stop
   offset="0"
   style="stop-color:#FFFFFF"
   id="stop17" />
&#10;					<stop
   offset="0.1413"
   style="stop-color:#FFFFFF"
   id="stop18" />
&#10;					<stop
   offset="1"
   style="stop-color:#FFFFFF"
   id="stop19" />
&#10;				</radialGradient>
&#10;				<path
   style="fill:url(#SVGID_00000057849259730242421030000001578377197464991125_)"
   d="M 16.981,351.505 V 264.367 115.4 28.264 c 0,-12.784 9.681,-13.047 9.681,-13.047 h 110.678 9.419 110.681 c 0,0 2.085,0.059 4.32,1.398 -2.494,-1.829 -5.07,-1.903 -5.07,-1.903 H 146.123 136.713 26.147 c 0,0 -9.672,0.263 -9.672,13.066 l 10e-4,87.262 v 149.184 87.264 c 0,12.801 9.671,13.065 9.671,13.065 h 0.515 c 0,-0.002 -9.681,-0.265 -9.681,-13.048 z"
   id="path795" />
&#10;				<g
   id="g799">&#10;					<defs
   id="defs795" />
&#10;					&#10;						<mask
   maskUnits="userSpaceOnUse"
   x="16.467"
   y="39.99"
   width="0.507"
   height="301.654"
   id="mask797">&#10;						<g
   style="filter:url(#Adobe_OpacityMaskFilter_00000019641123357230073110000007140659998710515357_)"
   id="g797">&#10;							<defs
   id="defs796" />
&#10;							&#10;								<mask
   maskUnits="userSpaceOnUse"
   x="16.467"
   y="39.99"
   width="0.507"
   height="301.654"
   id="SVGID_00000026131820165954333110000016877310328100568970_">&#10;								<g
   style="filter:url(#Adobe_OpacityMaskFilter_00000044881464556292251070000017154516829653743490_)"
   id="g796">&#10;								</g>
&#10;							</mask>
&#10;							&#10;								<radialGradient
   id="SVGID_00000029041826730459194810000003195401391355658164_"
   cx="1938.4515"
   cy="14.5515"
   r="402.45099"
   gradientTransform="matrix(-1,0,0,1,2215.418,0)"
   gradientUnits="userSpaceOnUse">&#10;								<stop
   offset="0.0988"
   style="stop-color:#000000"
   id="stop796" />
&#10;								<stop
   offset="1"
   style="stop-color:#FFFFFF"
   id="stop797" />
&#10;							</radialGradient>
&#10;							&#10;								<path
   style="fill:url(#SVGID_00000029041826730459194810000003195401391355658164_)"
   d="m 16.467,39.99 v 301.654 c 0.168,-0.61 0.334,-1.222 0.505,-1.832 l 10e-4,-75.951 V 45.458 c -0.172,-1.823 -0.34,-3.646 -0.506,-5.468 z"
   mask="url(#SVGID_00000026131820165954333110000016877310328100568970_)"
   id="path797" />
&#10;						</g>
&#10;					</mask>
&#10;					&#10;						<radialGradient
   id="radialGradient21"
   cx="1938.4515"
   cy="14.5515"
   r="402.45099"
   gradientTransform="matrix(-1,0,0,1,2215.418,0)"
   gradientUnits="userSpaceOnUse">&#10;						<stop
   offset="0.0988"
   style="stop-color:#FFFFFF"
   id="stop20" />
&#10;						<stop
   offset="1"
   style="stop-color:#ABABAB"
   id="stop21" />
&#10;					</radialGradient>
&#10;					<path
   style="fill:url(#SVGID_00000101812090614300754960000007290907725751115663_)"
   d="m 16.467,39.99 v 301.654 c 0.168,-0.61 0.334,-1.222 0.505,-1.832 l 10e-4,-75.951 V 45.458 c -0.172,-1.823 -0.34,-3.646 -0.506,-5.468 z"
   id="path799" />
&#10;				</g>
&#10;			</g>
&#10;			<g
   id="g806">&#10;				<g
   id="g802">&#10;					<g
   id="g801">&#10;						<path
   d="m 36.32,81.887 c -0.544,6.501 -4.21,11.056 -4.21,11.056 h 4.21 4.209 c 0,-0.001 -3.665,-4.555 -4.209,-11.056 z"
   id="path800" />
&#10;						<path
   d="m 44.179,72.249 c -5.214,-3.604 -7.792,-7.372 -7.858,-7.47 v -0.004 l -10e-4,0.002 -10e-4,-0.002 v 0.004 c -0.068,0.098 -2.645,3.867 -7.859,7.47 -5.284,3.651 -6.486,8.206 -4.596,11.642 1.889,3.437 9.449,5.112 12.457,-1.714 3.008,6.826 10.567,5.151 12.457,1.714 1.889,-3.436 0.685,-7.991 -4.599,-11.642 z"
   id="path801" />
&#10;					</g>
&#10;					<path
   d="m 39.954,60.226 v -1.082 c 0.736,-0.149 1.284,-0.31 1.646,-0.486 0.36,-0.177 0.63,-0.423 0.807,-0.74 0.176,-0.316 0.265,-0.74 0.265,-1.271 0,-0.499 -0.059,-1.041 -0.177,-1.623 -0.117,-0.583 -0.286,-1.233 -0.509,-1.955 l -0.817,-2.85 H 30.875 l -0.752,2.165 c -0.382,1.09 -0.633,1.916 -0.75,2.475 -0.119,0.561 -0.178,1.067 -0.178,1.524 0,0.884 0.226,1.533 0.675,1.944 0.449,0.414 1.137,0.687 2.065,0.818 v 1.082 h -9.433 v -1.082 c 0.824,-0.132 1.542,-0.612 2.153,-1.437 0.611,-0.824 1.206,-2.003 1.779,-3.535 l 9.211,-24.454 h 3.491 l 7.511,24.63 c 0.353,1.15 0.666,2.025 0.938,2.629 0.273,0.604 0.599,1.076 0.983,1.414 0.382,0.34 0.906,0.59 1.568,0.752 v 1.082 z M 31.47,48.297 h 9.234 l -4.197,-14.25 z"
   id="path802" />
&#10;				</g>
&#10;				<g
   id="g805">&#10;					<g
   id="g804">&#10;						<path
   d="m 245.834,296.764 c 0.544,-6.501 4.21,-11.056 4.21,-11.056 h -4.21 -4.209 c 0,0 3.665,4.555 4.209,11.056 z"
   id="path803" />
&#10;						<path
   d="m 237.975,306.401 c 5.214,3.604 7.791,7.372 7.858,7.471 v 0.004 l 0.001,-10e-4 0.001,10e-4 v -0.004 c 0.068,-0.099 2.645,-3.867 7.859,-7.471 5.283,-3.65 6.486,-8.205 4.596,-11.642 -1.889,-3.438 -9.449,-5.112 -12.457,1.714 -3.008,-6.826 -10.566,-5.151 -12.457,-1.714 -1.889,3.437 -0.685,7.992 4.599,11.642 z"
   id="path804" />
&#10;					</g>
&#10;					<path
   d="m 242.2,318.425 v 1.082 c -0.735,0.148 -1.284,0.31 -1.646,0.486 -0.36,0.177 -0.63,0.423 -0.806,0.74 -0.177,0.315 -0.266,0.739 -0.266,1.271 0,0.499 0.06,1.041 0.178,1.623 0.117,0.583 0.286,1.233 0.509,1.956 l 0.817,2.85 h 10.293 l 0.752,-2.165 c 0.382,-1.09 0.633,-1.915 0.75,-2.475 0.119,-0.561 0.178,-1.067 0.178,-1.523 0,-0.884 -0.225,-1.533 -0.674,-1.944 -0.449,-0.413 -1.137,-0.686 -2.065,-0.818 v -1.082 h 9.432 v 1.082 c -0.825,0.132 -1.542,0.612 -2.153,1.437 -0.611,0.824 -1.205,2.003 -1.779,3.535 l -9.212,24.454 h -3.491 l -7.511,-24.631 c -0.353,-1.149 -0.666,-2.025 -0.939,-2.629 -0.272,-0.605 -0.599,-1.076 -0.983,-1.414 -0.382,-0.34 -0.906,-0.59 -1.568,-0.752 v -1.082 H 242.2 Z m 8.484,11.928 h -9.234 l 4.197,14.25 z"
   id="path805" />
&#10;				</g>
&#10;			</g>
&#10;		</g>
&#10;		<g
   id="g827">&#10;			<g
   id="g826">&#10;				<g
   id="g825">&#10;					<path
   d="m 200.715,186.222 c -0.52,-0.154 -1.043,-0.229 -1.562,-0.242 1.562,-0.685 2.822,-2.027 3.347,-3.79 0.947,-3.184 -0.865,-6.535 -4.051,-7.483 -1.488,-0.442 -3.011,-0.274 -4.309,0.346 1.266,-0.744 2.267,-1.946 2.719,-3.464 0.947,-3.186 -0.866,-6.536 -4.05,-7.483 -1.701,-0.505 -3.442,-0.219 -4.846,0.637 1.23,-1.102 2.012,-2.7 2.012,-4.481 0,-3.323 -2.694,-6.017 -6.017,-6.017 -1.114,0 -2.154,0.309 -3.05,0.836 0.939,-1.061 1.513,-2.45 1.513,-3.979 0,-3.322 -2.693,-6.016 -6.017,-6.016 -0.944,0 -1.833,0.223 -2.627,0.609 0.655,-0.964 1.042,-2.128 1.042,-3.382 0,-3.323 -2.694,-6.016 -6.017,-6.016 -1.019,0 -1.977,0.254 -2.817,0.702 0.798,-1.021 1.278,-2.304 1.278,-3.701 0,-3.323 -2.694,-6.017 -6.016,-6.017 -0.617,0 -1.212,0.094 -1.771,0.267 0.664,-0.967 1.055,-2.138 1.055,-3.399 0,-3.324 -2.692,-6.018 -6.016,-6.018 -1.115,0 -2.154,0.309 -3.05,0.837 0.937,-1.061 1.511,-2.451 1.511,-3.979 0,-2.935 -2.101,-5.374 -4.88,-5.907 -1.048,-2.784 -3.277,-5.551 -6.432,-5.177 -3.08,0.365 -5.086,2.36 -5.487,5.143 -2.89,0.441 -5.107,2.928 -5.107,5.941 0,1.528 0.575,2.918 1.511,3.979 -0.893,-0.528 -1.933,-0.837 -3.047,-0.837 -3.323,0 -6.016,2.693 -6.016,6.018 0,1.262 0.39,2.433 1.053,3.399 -0.56,-0.172 -1.155,-0.267 -1.771,-0.267 -3.323,0 -6.017,2.693 -6.017,6.017 0,1.398 0.481,2.68 1.281,3.701 -0.843,-0.448 -1.801,-0.702 -2.817,-0.702 -3.323,0 -6.018,2.693 -6.018,6.016 0,1.254 0.385,2.418 1.042,3.382 -0.794,-0.386 -1.685,-0.609 -2.627,-0.609 -3.323,0 -6.017,2.693 -6.017,6.016 0,1.529 0.574,2.918 1.511,3.979 -0.895,-0.527 -1.935,-0.836 -3.049,-0.836 -3.323,0 -6.018,2.694 -6.018,6.017 0,1.782 0.781,3.38 2.014,4.481 -1.402,-0.855 -3.146,-1.142 -4.845,-0.637 -3.186,0.947 -4.998,4.297 -4.052,7.483 0.453,1.518 1.454,2.72 2.721,3.464 -1.298,-0.621 -2.822,-0.789 -4.31,-0.346 -3.187,0.948 -4.999,4.298 -4.051,7.483 0.524,1.763 1.786,3.105 3.348,3.79 -0.518,0.013 -1.043,0.088 -1.563,0.242 -3.185,0.948 -4.999,4.298 -4.051,7.482 0.844,2.835 3.588,4.573 6.427,4.256 0.014,0.08 0.026,0.161 0.04,0.243 -1.828,0.241 -3.526,1.308 -4.486,3.046 -1.603,2.911 -0.542,6.57 2.367,8.174 1.803,0.994 3.89,0.963 5.6,0.107 -0.972,1.186 -1.491,2.743 -1.333,4.39 0.32,3.308 3.26,5.73 6.567,5.409 2.143,-0.206 3.907,-1.516 4.803,-3.309 -0.557,1.513 -0.515,3.241 0.27,4.793 1.5,2.966 5.12,4.153 8.085,2.654 1.431,-0.724 2.442,-1.943 2.943,-3.342 0.298,1.26 0.995,2.435 2.082,3.308 2.59,2.082 6.377,1.669 8.457,-0.92 0.997,-1.239 1.416,-2.75 1.306,-4.217 0.618,0.688 1.398,1.244 2.318,1.596 3.105,1.187 6.584,-0.369 7.767,-3.471 0.564,-1.479 0.504,-3.039 -0.045,-4.397 2.16,0.79 4.661,0.056 6.018,-1.931 0.938,-1.376 1.112,-3.04 0.631,-4.506 1.146,-0.095 2.218,-0.663 2.925,-1.585 0.707,0.922 1.778,1.49 2.924,1.585 -0.481,1.466 -0.304,3.131 0.633,4.506 1.354,1.987 3.855,2.721 6.016,1.931 -0.547,1.358 -0.609,2.919 -0.045,4.397 1.187,3.102 4.663,4.658 7.768,3.471 0.921,-0.352 1.701,-0.909 2.319,-1.596 -0.109,1.467 0.31,2.978 1.304,4.217 2.082,2.589 5.867,3.002 8.458,0.92 1.087,-0.873 1.787,-2.047 2.082,-3.308 0.501,1.399 1.513,2.618 2.945,3.342 2.965,1.499 6.585,0.312 8.083,-2.654 0.778,-1.537 0.825,-3.248 0.285,-4.752 0.001,-0.001 0.004,-0.002 0.008,-0.003 0.9,1.773 2.654,3.067 4.781,3.272 3.307,0.322 6.248,-2.101 6.568,-5.409 0.158,-1.647 -0.363,-3.204 -1.335,-4.39 1.71,0.856 3.798,0.887 5.6,-0.107 2.911,-1.604 3.97,-5.263 2.367,-8.174 -0.938,-1.704 -2.587,-2.757 -4.373,-3.027 0.014,-0.082 0.027,-0.166 0.041,-0.247 2.797,0.258 5.481,-1.473 6.313,-4.271 0.949,-3.185 -0.865,-6.535 -4.051,-7.483 z m -4.255,-9.39 c 2.494,0.742 3.916,3.368 3.173,5.863 -0.33,1.112 -1.044,1.993 -1.946,2.571 -0.143,-0.511 -0.296,-1.025 -0.462,-1.538 0.11,-0.208 0.213,-0.423 0.282,-0.659 0.578,-1.939 -0.493,-3.969 -2.396,-4.61 -0.271,-0.57 -0.557,-1.143 -0.857,-1.718 0.71,-0.145 1.46,-0.13 2.206,0.091 z m -51.584,22.316 c 0,-0.481 0.393,-0.872 0.874,-0.872 0.479,0 0.87,0.39 0.87,0.872 0,0.481 -0.391,0.873 -0.87,0.873 -0.482,0 -0.874,-0.391 -0.874,-0.873 z M 90.362,175.293 c 0.086,0.043 0.181,0.069 0.27,0.106 -0.011,0.019 -0.021,0.037 -0.032,0.056 -0.078,-0.056 -0.156,-0.113 -0.238,-0.162 z m 6.603,-9.898 c 0.067,0.043 0.142,0.074 0.214,0.112 -0.017,0.02 -0.032,0.039 -0.046,0.059 -0.058,-0.057 -0.11,-0.118 -0.168,-0.171 z m 7.629,-9.111 c 0.042,0.024 0.086,0.04 0.127,0.064 -0.013,0.015 -0.026,0.03 -0.04,0.046 -0.03,-0.037 -0.055,-0.076 -0.087,-0.11 z m 15.389,-17.669 c 0.182,0.097 0.374,0.18 0.566,0.26 -0.073,0.083 -0.146,0.167 -0.222,0.253 -0.104,-0.178 -0.217,-0.352 -0.344,-0.513 z m 7.78,-8.716 c 0.102,0.031 0.212,0.049 0.317,0.075 -0.053,0.065 -0.104,0.128 -0.158,0.194 -0.052,-0.091 -0.1,-0.183 -0.159,-0.269 z m 7.082,-8.522 c -0.226,-0.431 -0.485,-0.845 -0.807,-1.207 0.404,0.239 0.847,0.406 1.305,0.543 -0.166,0.221 -0.328,0.436 -0.498,0.664 z m 13.959,-0.692 c 0.422,-0.132 0.831,-0.293 1.207,-0.514 -0.299,0.336 -0.544,0.716 -0.761,1.112 -0.151,-0.204 -0.298,-0.399 -0.446,-0.598 z m 7.262,9.266 c 0.075,-0.018 0.149,-0.03 0.222,-0.052 -0.041,0.06 -0.074,0.124 -0.112,0.188 -0.036,-0.048 -0.072,-0.091 -0.11,-0.136 z m 7.517,8.883 c 0.164,-0.068 0.325,-0.138 0.483,-0.219 -0.108,0.137 -0.202,0.288 -0.295,0.437 -0.063,-0.072 -0.126,-0.144 -0.188,-0.218 z m 10.066,19.255 c 0,-0.962 0.781,-1.744 1.744,-1.744 0.962,0 1.743,0.782 1.743,1.744 0,0.963 -0.781,1.745 -1.743,1.745 -0.963,0 -1.744,-0.782 -1.744,-1.745 z m 8.194,9.94 c 0,-0.962 0.78,-1.743 1.744,-1.743 0.962,0 1.743,0.781 1.743,1.743 0,0.964 -0.781,1.745 -1.743,1.745 -0.964,0 -1.744,-0.781 -1.744,-1.745 z m -18.49,40.777 c 0,0.962 -0.78,1.743 -1.742,1.743 -0.963,0 -1.744,-0.781 -1.744,-1.743 0,-0.963 0.781,-1.744 1.744,-1.744 0.961,-0.001 1.742,0.781 1.742,1.744 z m -9.833,-4.278 c 0,0.698 -0.565,1.262 -1.261,1.262 -0.698,0 -1.26,-0.563 -1.26,-1.262 0,-0.696 0.562,-1.26 1.26,-1.26 0.696,0 1.261,0.564 1.261,1.26 z m -20.348,0 c 0,0.698 -0.565,1.262 -1.262,1.262 -0.695,0 -1.26,-0.563 -1.26,-1.262 0,-0.696 0.565,-1.26 1.26,-1.26 0.697,0 1.262,0.564 1.262,1.26 z m -8.868,4.278 c 0,0.962 -0.781,1.743 -1.744,1.743 -0.962,0 -1.743,-0.781 -1.743,-1.743 0,-0.963 0.781,-1.744 1.743,-1.744 0.963,-0.001 1.744,0.781 1.744,1.744 z M 98.84,168.029 c 0,-0.962 0.781,-1.743 1.743,-1.743 0.963,0 1.745,0.781 1.745,1.743 0,0.964 -0.782,1.745 -1.745,1.745 -0.962,0 -1.743,-0.781 -1.743,-1.745 z m 8.196,-9.94 c 0,-0.962 0.781,-1.744 1.743,-1.744 0.963,0 1.744,0.782 1.744,1.744 0,0.963 -0.781,1.745 -1.744,1.745 -0.963,0 -1.743,-0.782 -1.743,-1.745 z m 16.715,-18.683 c 0,-0.962 0.781,-1.743 1.743,-1.743 0.963,0 1.744,0.781 1.744,1.743 0,0.963 -0.781,1.744 -1.744,1.744 -0.963,0 -1.743,-0.781 -1.743,-1.744 z m 7.865,-9.231 c 0,-0.961 0.78,-1.742 1.742,-1.742 0.963,0 1.744,0.781 1.744,1.742 0,0.964 -0.781,1.744 -1.744,1.744 -0.962,0 -1.742,-0.78 -1.742,-1.744 z m 10.483,-16.808 -0.008,0.013 v -0.024 z m -0.019,-0.012 v 0.024 l -0.008,-0.013 z m 0.005,4.329 c 0.047,-0.003 0.093,-0.015 0.14,-0.015 0.963,0 1.743,0.782 1.743,1.743 0,0.964 -0.78,1.745 -1.743,1.745 -0.047,0 -0.093,-0.011 -0.14,-0.014 -0.047,0.003 -0.09,0.014 -0.139,0.014 -0.963,0 -1.744,-0.781 -1.744,-1.745 0,-0.961 0.781,-1.743 1.744,-1.743 0.049,0 0.092,0.011 0.139,0.015 z m 6.983,12.491 c 0,-0.961 0.78,-1.742 1.744,-1.742 0.962,0 1.742,0.781 1.742,1.742 0,0.964 -0.781,1.744 -1.742,1.744 -0.963,0 -1.744,-0.78 -1.744,-1.744 z m 7.865,9.231 c 0,-0.962 0.781,-1.743 1.744,-1.743 0.961,0 1.744,0.781 1.744,1.743 0,0.963 -0.782,1.744 -1.744,1.744 -0.963,0 -1.744,-0.781 -1.744,-1.744 z m 14.163,58.9 c -0.249,-0.283 -0.557,-0.493 -0.889,-0.644 -0.04,-0.029 -0.067,-0.069 -0.109,-0.098 -0.865,-0.596 -2.217,-0.818 -3.189,-0.393 -1.08,0.472 -1.442,1.857 -0.946,2.865 0.236,0.481 0.769,1.06 1.314,1.169 0.15,0.031 0.38,0.034 0.532,-0.023 0.048,-0.018 0.532,-0.253 0.209,-0.121 0.142,-0.057 0.22,-0.189 0.225,-0.339 0.025,-0.031 0.051,-0.063 0.076,-0.095 0.043,-0.066 -0.016,-0.154 -0.085,-0.169 -0.009,-0.002 -0.012,-0.011 -0.021,-0.014 -0.02,-0.503 -0.374,-0.927 0.188,-1.37 0.245,-0.19 0.478,-0.292 0.703,-0.347 1.272,0.896 2.306,2.705 0.387,3.872 -0.92,0.561 -1.716,0.759 -2.748,0.995 -1.936,0.441 -3.839,0.538 -5.476,-0.778 -2.242,-1.802 -1.879,-5.689 0.268,-7.388 1.006,-0.795 2.111,-1.049 3.286,-1.319 1.574,-0.068 3.203,-0.849 4.503,-1.536 6.613,-3.493 5.304,-12.821 0.808,-17.435 -0.211,-0.217 -0.439,-0.425 -0.666,-0.629 0.2,0.036 0.387,0.066 0.543,0.078 2.067,0.175 4.723,-0.316 5.918,-2.265 2.303,-3.757 -0.566,-8.931 -5.058,-8.926 -2.309,0.001 -5.76,2.16 -5.511,4.457 -0.273,1.611 1.352,3.376 3.014,3.498 2.302,0.167 4.441,-2.053 2.653,-4.136 -0.702,-0.82 -2.156,-1.27 -2.779,-0.123 -0.386,0.706 -0.061,1.498 0.542,1.903 -0.116,0.05 -0.236,0.085 -0.378,0.095 -0.631,0.037 -1.454,-0.124 -1.86,-0.663 -0.336,-0.443 -0.223,-0.796 -0.179,-1.344 0.004,-0.055 -0.016,-0.103 -0.038,-0.149 0.178,-0.368 0.492,-0.709 0.97,-1.021 0.788,-0.296 1.638,-0.522 2.49,-0.479 1.787,0.091 4.262,0.755 4.703,2.765 0.504,2.299 -0.577,4.296 -2.86,5.107 -1.058,0.376 -2.206,0.542 -3.299,0.284 -4.273,-3.135 -10.538,-4.302 -15.128,-1.362 -0.53,0.061 -1.045,0.177 -1.554,0.319 1.217,-0.937 2.497,-1.839 3.859,-2.754 2.597,-1.744 6.303,-3.867 7.509,-6.933 1.661,-4.23 1.176,-10.193 -3.913,-11.563 -2.117,-0.568 -4.323,1.228 -5.051,3.314 -0.83,-2 -2.404,-3.798 -4.561,-4.525 1.432,-0.575 2.735,-1.359 3.505,-2.827 2.225,-4.239 -1.169,-6.605 -2.696,-10.255 -0.015,-0.031 -0.068,-0.026 -0.058,0.012 0.795,3.185 3.695,7.434 -0.468,9.976 -0.938,0.572 -1.938,0.944 -2.921,1.343 0.391,-0.29 0.785,-0.598 1.043,-0.939 1.26,-1.681 1.6,-3.513 1.565,-5.58 -0.067,-4.35 -4.541,-6.932 -6.263,-10.674 -0.548,-0.858 -1.014,-1.777 -1.331,-2.71 -0.265,1.467 -0.876,2.709 -1.661,3.847 -1.986,3.163 -5.572,5.643 -5.632,9.538 -0.034,2.067 0.305,3.899 1.565,5.58 0.257,0.341 0.651,0.649 1.042,0.939 -0.983,-0.399 -1.984,-0.771 -2.921,-1.343 -4.164,-2.542 -1.263,-6.791 -0.468,-9.976 0.01,-0.039 -0.043,-0.043 -0.058,-0.012 -1.527,3.649 -4.921,6.016 -2.696,10.255 0.771,1.468 2.073,2.253 3.505,2.827 -2.157,0.727 -3.732,2.525 -4.561,4.525 -0.729,-2.086 -2.935,-3.883 -5.051,-3.314 -5.088,1.37 -5.574,7.332 -3.913,11.563 1.205,3.066 4.912,5.189 7.508,6.933 1.363,0.916 2.643,1.817 3.859,2.754 -0.508,-0.142 -1.024,-0.257 -1.554,-0.319 -4.59,-2.94 -10.854,-1.773 -15.128,1.362 -1.092,0.258 -2.24,0.092 -3.298,-0.284 -2.284,-0.811 -3.364,-2.808 -2.86,-5.107 0.441,-2.01 2.916,-2.674 4.704,-2.765 0.851,-0.043 1.702,0.183 2.489,0.479 0.478,0.312 0.792,0.653 0.97,1.021 -0.021,0.046 -0.042,0.094 -0.037,0.149 0.043,0.548 0.158,0.9 -0.179,1.344 -0.406,0.539 -1.23,0.7 -1.861,0.663 -0.141,-0.009 -0.259,-0.045 -0.377,-0.095 0.602,-0.405 0.928,-1.197 0.542,-1.903 -0.623,-1.147 -2.077,-0.697 -2.779,0.123 -1.788,2.083 0.351,4.303 2.652,4.136 1.663,-0.122 3.287,-1.887 3.015,-3.498 0.249,-2.296 -3.203,-4.455 -5.512,-4.457 -4.492,-0.005 -7.361,5.168 -5.058,8.926 1.195,1.949 3.852,2.44 5.918,2.265 0.156,-0.012 0.344,-0.041 0.543,-0.078 -0.228,0.205 -0.455,0.412 -0.666,0.629 -4.497,4.614 -5.805,13.942 0.807,17.435 1.3,0.688 2.929,1.468 4.503,1.536 1.174,0.27 2.28,0.523 3.286,1.319 2.147,1.698 2.51,5.586 0.268,7.388 -1.637,1.316 -3.54,1.219 -5.476,0.778 -1.031,-0.236 -1.827,-0.435 -2.747,-0.995 -1.919,-1.167 -0.885,-2.976 0.387,-3.872 0.226,0.055 0.459,0.156 0.703,0.347 0.563,0.443 0.208,0.867 0.189,1.37 -0.01,0.003 -0.013,0.012 -0.021,0.014 -0.069,0.016 -0.128,0.104 -0.086,0.169 0.024,0.032 0.051,0.063 0.076,0.095 0.004,0.15 0.083,0.282 0.225,0.339 -0.322,-0.133 0.161,0.103 0.209,0.121 0.152,0.057 0.382,0.054 0.532,0.023 0.546,-0.109 1.079,-0.688 1.314,-1.169 0.496,-1.008 0.134,-2.394 -0.946,-2.865 -0.972,-0.425 -2.324,-0.203 -3.188,0.393 -0.042,0.028 -0.069,0.068 -0.109,0.098 -0.333,0.15 -0.641,0.36 -0.89,0.644 -0.85,0.973 -1.091,3.293 -0.49,4.44 0.367,0.701 0.855,1.233 1.425,1.649 -5.701,-0.749 -10.575,-3.63 -12.933,-9.022 -5.669,-12.962 1.486,-24.655 16.855,-40.792 17.802,-18.692 23.974,-28.941 24.202,-29.303 v -0.018 h 0.01 0.009 0.013 v 0.018 c 0.223,0.362 6.396,10.611 24.198,29.303 15.37,16.137 22.521,27.829 16.856,40.792 -2.36,5.396 -7.237,8.275 -12.94,9.023 0.57,-0.416 1.06,-0.949 1.427,-1.65 0.603,-1.148 0.362,-3.469 -0.488,-4.441 z m -12.802,2.113 c 0.22,1.047 0.601,1.936 1.107,2.671 -2.345,-1.192 -4.551,-2.901 -6.493,-4.383 -3.838,-2.928 -7.197,-7.291 -8.189,-12.127 -1.06,-5.193 2.92,-12.22 8.82,-12.117 4.07,0.069 10.226,1.952 8.266,7.87 -1.013,2.174 -2.636,3.314 -4.868,3.415 -1.894,0.396 -2.509,-0.703 -1.844,-3.294 0.044,0.086 0.214,0.082 0.173,-0.038 -0.534,-1.603 -3.224,-3.54 -4.435,-1.053 -1.503,3.079 0.741,5.847 3.773,6.699 2.216,0.624 4.319,0.209 5.991,-0.858 -1.036,2.233 -0.469,4.504 1.557,6.094 0.196,0.154 0.397,0.272 0.602,0.381 -2.904,0.781 -5.147,3.51 -4.46,6.74 z m -3.468,-42.038 c 1.834,1.813 4.059,0 2.74,-2.562 -0.012,-0.023 -0.041,-0.013 -0.033,0.012 -2.288,-6.288 5.273,-4.336 4.845,0.751 -0.223,2.641 -0.894,4.03 -2.017,6.401 -1.429,3.015 -3.862,4.991 -6.618,6.767 -2.18,1.404 -3.966,2.79 -5.494,4.425 -1.719,1.207 -3.145,2.882 -4.131,4.788 0.615,-2.125 1.642,-4.161 3.111,-6.01 2.559,-3.221 6.462,-6.778 7.303,-11.014 0.243,-1.231 0.335,-2.425 0.294,-3.558 z m 10.797,31.042 c 0.168,0.053 0.336,0.106 0.505,0.163 0.406,0.129 0.877,-0.097 1.102,-0.433 2.001,-2.964 -1.73,-5.032 -4.501,-3.985 0.664,-0.926 1.139,-1.998 1.362,-3.161 0.756,-3.955 -2.185,-7.399 -5.524,-8.907 -1.51,-0.681 -3.011,-0.964 -4.456,-0.934 5.979,-2.148 14.316,1.078 17.004,6.648 1.601,3.319 2.155,9.567 -1.399,12.082 -1.61,1.138 -5.353,2.387 -6.946,0.108 -1.94,-3.684 -1.082,-5.029 2.579,-4.033 -1.602,-0.056 -0.712,2.135 0.274,2.452 z m -18.912,-48.859 c -0.001,3.178 -1.3,5.965 -3.493,8.909 -0.593,0.795 -0.972,1.63 -1.193,2.489 -0.221,-0.859 -0.6,-1.694 -1.193,-2.489 -2.194,-2.944 -3.492,-5.731 -3.493,-8.909 0.102,-0.389 0.229,-0.782 0.407,-1.181 1.306,-2.951 3.84,-4.918 4.28,-7.766 0.438,2.848 2.974,4.815 4.279,7.766 0.176,0.398 0.304,0.791 0.406,1.181 z m -25.417,53.114 c 0.205,-0.108 0.406,-0.227 0.602,-0.381 2.026,-1.59 2.593,-3.861 1.557,-6.094 1.672,1.067 3.774,1.482 5.991,0.858 3.033,-0.853 5.276,-3.621 3.773,-6.699 -1.211,-2.487 -3.9,-0.55 -4.435,1.053 -0.04,0.119 0.129,0.124 0.173,0.038 0.666,2.592 0.051,3.691 -1.844,3.294 -2.231,-0.101 -3.854,-1.241 -4.867,-3.415 -1.96,-5.918 4.195,-7.8 8.266,-7.87 5.9,-0.102 9.88,6.924 8.82,12.117 -0.99,4.836 -4.351,9.199 -8.188,12.127 -1.942,1.482 -4.148,3.191 -6.492,4.383 0.505,-0.735 0.886,-1.624 1.107,-2.671 0.685,-3.229 -1.559,-5.958 -4.463,-6.74 z m -1.337,-11.671 c 0.224,1.163 0.698,2.234 1.362,3.161 -2.771,-1.047 -6.502,1.021 -4.502,3.985 0.226,0.336 0.696,0.562 1.103,0.433 0.169,-0.057 0.338,-0.11 0.507,-0.163 0.985,-0.316 1.875,-2.508 0.273,-2.45 3.66,-0.996 4.519,0.349 2.58,4.033 -1.595,2.279 -5.337,1.03 -6.946,-0.108 -3.556,-2.515 -3.002,-8.763 -1.4,-12.082 2.688,-5.571 11.024,-8.797 17.004,-6.648 -1.446,-0.031 -2.947,0.252 -4.456,0.934 -3.339,1.506 -6.282,4.95 -5.525,8.905 z m 15.843,-7.832 c -1.527,-1.635 -3.314,-3.021 -5.494,-4.425 -2.755,-1.776 -5.189,-3.752 -6.617,-6.767 -1.123,-2.372 -1.794,-3.76 -2.018,-6.401 -0.428,-5.087 7.133,-7.038 4.845,-0.751 0.008,-0.025 -0.021,-0.035 -0.033,-0.012 -1.319,2.563 0.906,4.375 2.74,2.562 -0.042,1.133 0.051,2.328 0.294,3.558 0.841,4.236 4.744,7.792 7.303,11.014 1.469,1.849 2.495,3.885 3.11,6.01 -0.986,-1.906 -2.411,-3.581 -4.13,-4.788 z m 6.236,-50.783 -0.004,0.011 v -0.019 z m -0.013,-0.009 v 0.019 l -0.006,-0.011 z m -25.285,27.487 c -0.961,0 -1.742,-0.781 -1.742,-1.745 0,-0.961 0.781,-1.743 1.742,-1.743 0.963,0 1.745,0.781 1.745,1.743 0,0.964 -0.782,1.745 -1.745,1.745 z m -15.737,54.956 c 1.194,0 2.161,0.968 2.161,2.159 0,1.194 -0.967,2.162 -2.161,2.162 -1.194,0 -2.161,-0.968 -2.161,-2.162 0,-1.191 0.967,-2.159 2.161,-2.159 z m 28.101,-3.891 c 0.635,-0.408 1.249,-0.821 1.837,-1.212 4.745,-3.17 8.278,-7.218 9.968,-12.704 0.348,-1.13 0.49,-2.287 0.473,-3.435 0.402,-2.976 0.05,-6.044 -1.396,-8.62 -1.871,-3.332 -4.523,-6.071 -6.357,-9.408 -0.97,-1.764 -1.575,-3.636 -2.079,-5.57 -0.26,-0.985 -0.406,-1.984 -0.435,-2.999 0.037,-0.797 0.074,-1.594 0.11,-2.392 1.172,-4.03 7.442,-5.112 7.22,-0.586 -1.926,0 -4.601,2.67 -1.639,4.661 2.346,1.576 4.309,0.239 5.22,-1.89 0.911,2.129 2.872,3.466 5.219,1.89 2.962,-1.99 0.287,-4.661 -1.639,-4.661 -0.222,-4.526 6.048,-3.443 7.22,0.586 0.036,0.798 0.074,1.595 0.11,2.392 -0.029,1.014 -0.174,2.013 -0.434,2.999 -0.504,1.934 -1.109,3.807 -2.08,5.57 -1.834,3.337 -4.485,6.076 -6.356,9.408 -1.447,2.576 -1.798,5.644 -1.396,8.62 -0.018,1.148 0.125,2.305 0.473,3.435 1.691,5.486 5.223,9.534 9.968,12.704 0.583,0.389 1.194,0.798 1.827,1.205 -5.112,-2.261 -9.781,-5.886 -12.908,-10.652 -3.13,4.772 -7.808,8.4 -12.926,10.659 z m 54.069,3.891 c 1.191,0 2.159,0.968 2.159,2.159 0,1.194 -0.967,2.162 -2.159,2.162 -1.195,0 -2.162,-0.968 -2.162,-2.162 0,-1.191 0.967,-2.159 2.162,-2.159 z M 167.433,150.87 c -0.964,0 -1.744,-0.781 -1.744,-1.745 0,-0.961 0.78,-1.743 1.744,-1.743 0.961,0 1.742,0.781 1.742,1.743 -0.001,0.964 -0.781,1.745 -1.742,1.745 z m -25.16,-39.602 c -0.092,-0.151 -0.149,-0.249 -0.17,-0.28 v -0.028 h -0.014 l 0.009,0.012 -0.009,0.014 v -0.026 h -0.01 v 0.026 l -0.007,-0.014 0.007,-0.012 h -0.015 v 0.028 c -0.022,0.036 -0.096,0.16 -0.213,0.349 -0.594,-0.774 -1.371,-1.397 -2.265,-1.807 0.8,-0.588 1.922,-0.798 2.846,-0.544 0.53,0.144 0.944,0.519 1.351,0.911 -0.581,0.364 -1.082,0.836 -1.51,1.371 z m -45.639,88.66 c 0,1.302 -1.055,2.356 -2.356,2.356 -1.298,0 -2.354,-1.054 -2.354,-2.356 0,-1.3 1.056,-2.356 2.354,-2.356 1.301,0 2.356,1.055 2.356,2.356 z m -1.855,-20.421 c -0.963,0 -1.744,-0.78 -1.744,-1.744 0,-0.962 0.781,-1.743 1.744,-1.743 0.964,0 1.745,0.781 1.745,1.743 -0.001,0.964 -0.781,1.744 -1.745,1.744 z m -2.523,6.748 c 1.21,0 2.188,0.98 2.188,2.189 0,1.21 -0.979,2.189 -2.188,2.189 -1.207,0 -2.187,-0.979 -2.187,-2.189 0,-1.209 0.98,-2.189 2.187,-2.189 z m 17.017,24.743 c 0,-0.963 0.78,-1.743 1.742,-1.743 0.965,0 1.745,0.78 1.745,1.743 0,0.964 -0.78,1.744 -1.745,1.744 -0.962,0 -1.742,-0.78 -1.742,-1.744 z m 28.278,-11.85 c 0,-0.481 0.391,-0.872 0.872,-0.872 0.481,0 0.872,0.39 0.872,0.872 0,0.481 -0.391,0.873 -0.872,0.873 -0.481,0 -0.872,-0.391 -0.872,-0.873 z m 33.859,11.85 c 0,-0.963 0.781,-1.743 1.744,-1.743 0.963,0 1.745,0.78 1.745,1.743 0,0.964 -0.782,1.744 -1.745,1.744 -0.963,0 -1.744,-0.78 -1.744,-1.744 z m 18.482,-13.426 c 1.299,0 2.354,1.056 2.354,2.356 0,1.302 -1.055,2.356 -2.354,2.356 -1.3,0 -2.356,-1.054 -2.356,-2.356 0,-1.301 1.055,-2.356 2.356,-2.356 z m -2.244,-19.809 c 0,-0.962 0.781,-1.743 1.745,-1.743 0.963,0 1.744,0.781 1.744,1.743 0,0.964 -0.781,1.744 -1.744,1.744 -0.964,0 -1.745,-0.78 -1.745,-1.744 z m 4.267,12.87 c -1.21,0 -2.19,-0.979 -2.19,-2.189 0,-1.208 0.98,-2.189 2.19,-2.189 1.207,0 2.189,0.98 2.189,2.189 -0.001,1.209 -0.982,2.189 -2.189,2.189 z m -12.507,-34.326 c 0.015,-0.009 0.032,-0.016 0.047,-0.023 -0.011,0.013 -0.021,0.027 -0.032,0.039 -0.005,-0.005 -0.01,-0.01 -0.015,-0.016 z m 7.548,9.156 c 0.042,-0.023 0.086,-0.043 0.127,-0.068 -0.036,0.033 -0.066,0.071 -0.1,0.103 -0.01,-0.011 -0.018,-0.022 -0.027,-0.035 z m 6.556,9.898 c 0.058,-0.025 0.119,-0.041 0.175,-0.068 -0.052,0.031 -0.101,0.071 -0.154,0.105 -0.007,-0.012 -0.014,-0.024 -0.021,-0.037 z m -2.692,-9.129 c 2.494,0.741 3.915,3.367 3.174,5.862 -0.236,0.785 -0.669,1.442 -1.22,1.969 -0.298,-0.51 -0.607,-1.024 -0.928,-1.541 0.006,-0.019 0.016,-0.034 0.022,-0.054 0.591,-1.984 -0.538,-4.073 -2.523,-4.663 -0.253,-0.075 -0.506,-0.115 -0.757,-0.133 -0.299,-0.415 -0.607,-0.831 -0.917,-1.249 0.963,-0.412 2.061,-0.514 3.149,-0.191 z m -8.162,-9.383 c 2.604,0 4.714,2.11 4.714,4.713 0,1.149 -0.423,2.189 -1.11,2.998 -0.307,-0.394 -0.616,-0.79 -0.931,-1.191 0.067,-0.27 0.112,-0.549 0.112,-0.841 0,-2.071 -1.678,-3.75 -3.749,-3.75 -0.047,0 -0.093,0.005 -0.137,0.007 -0.378,-0.441 -0.762,-0.886 -1.15,-1.332 0.668,-0.376 1.428,-0.604 2.251,-0.604 z m -7.554,-9.16 c 2.604,0 4.715,2.111 4.715,4.716 0,1.177 -0.445,2.238 -1.164,3.056 -0.309,-0.348 -0.614,-0.692 -0.931,-1.043 0.103,-0.332 0.165,-0.682 0.165,-1.048 0,-2.071 -1.679,-3.749 -3.749,-3.749 -0.26,0 -0.507,0.033 -0.751,0.085 -0.342,-0.369 -0.684,-0.738 -1.021,-1.102 0.769,-0.565 1.703,-0.915 2.736,-0.915 z m -7.602,-8.787 c 2.602,0 4.713,2.11 4.713,4.713 0,1.301 -0.532,2.47 -1.385,3.318 -0.283,-0.309 -0.569,-0.62 -0.846,-0.923 0.189,-0.44 0.302,-0.92 0.302,-1.429 0,-2.072 -1.679,-3.75 -3.751,-3.75 -0.369,0 -0.725,0.059 -1.06,0.16 -0.306,-0.345 -0.609,-0.688 -0.907,-1.028 0.803,-0.657 1.814,-1.061 2.934,-1.061 z m -7.554,-9.015 c 2.604,0 4.714,2.111 4.714,4.713 0,1.436 -0.657,2.698 -1.674,3.554 -0.24,-0.277 -0.484,-0.558 -0.721,-0.831 0.289,-0.522 0.464,-1.115 0.464,-1.757 0,-2.071 -1.677,-3.75 -3.748,-3.75 -0.425,0 -0.827,0.082 -1.203,0.215 -0.29,-0.349 -0.567,-0.687 -0.849,-1.026 0.814,-0.694 1.861,-1.118 3.017,-1.118 z m -6.735,-9.15 c 2.603,0 4.714,2.11 4.714,4.713 0,1.705 -0.919,3.169 -2.279,3.986 -0.175,-0.214 -0.353,-0.432 -0.524,-0.643 0.542,-0.643 0.875,-1.468 0.875,-2.379 0,-2.069 -1.681,-3.749 -3.751,-3.749 -0.595,0 -1.15,0.148 -1.647,0.396 -0.24,-0.313 -0.473,-0.619 -0.703,-0.92 0.846,-0.863 2.011,-1.404 3.315,-1.404 z m -2.839,-4.446 c 0,1.588 -0.789,2.981 -1.992,3.827 -0.203,-0.271 -0.396,-0.532 -0.585,-0.792 0.403,-0.591 0.647,-1.296 0.647,-2.069 0,-2.07 -1.678,-3.749 -3.748,-3.749 -0.314,0 -0.612,0.051 -0.9,0.123 -0.306,-0.458 -0.564,-0.854 -0.785,-1.194 0.754,-0.527 1.655,-0.859 2.649,-0.859 2.603,-0.001 4.714,2.11 4.714,4.713 z m -8.269,-10.611 c 2.371,-0.059 3.985,1.447 5.097,3.308 -0.081,-0.005 -0.16,-0.014 -0.242,-0.014 -0.503,0 -0.99,0.063 -1.458,0.18 -0.735,-1.13 -2.579,-1.864 -3.681,-1.791 -1.109,0.073 -2.366,0.849 -2.946,1.895 -0.565,-0.178 -1.163,-0.283 -1.787,-0.283 -0.093,0 -0.186,0.009 -0.276,0.015 0.952,-2.03 2.855,-3.252 5.293,-3.31 z m -3.714,5.897 c 1.028,0 1.958,0.353 2.729,0.915 -0.216,0.335 -0.47,0.722 -0.765,1.166 -0.32,-0.091 -0.651,-0.15 -1.001,-0.15 -2.071,0 -3.75,1.678 -3.75,3.749 0,0.807 0.271,1.539 0.71,2.146 -0.187,0.252 -0.372,0.504 -0.566,0.766 -1.248,-0.84 -2.073,-2.256 -2.073,-3.877 10e-4,-2.604 2.113,-4.715 4.716,-4.715 z m -7.556,9.16 c 1.34,0 2.532,0.568 3.382,1.469 -0.222,0.292 -0.448,0.589 -0.682,0.893 -0.519,-0.274 -1.107,-0.434 -1.735,-0.434 -2.071,0 -3.749,1.68 -3.749,3.749 0,0.945 0.356,1.798 0.934,2.45 -0.165,0.205 -0.337,0.415 -0.505,0.624 -1.406,-0.808 -2.358,-2.3 -2.358,-4.037 -0.001,-2.604 2.11,-4.714 4.713,-4.714 z m -6.733,9.15 c 1.188,0 2.261,0.449 3.081,1.178 -0.272,0.331 -0.544,0.66 -0.825,1 -0.401,-0.155 -0.833,-0.25 -1.291,-0.25 -2.07,0 -3.75,1.679 -3.75,3.75 0,0.676 0.19,1.301 0.507,1.843 -0.228,0.264 -0.466,0.537 -0.699,0.803 -1.055,-0.856 -1.737,-2.143 -1.737,-3.611 10e-4,-2.601 2.111,-4.713 4.714,-4.713 z m -7.555,9.015 c 1.151,0 2.189,0.427 2.998,1.116 -0.29,0.333 -0.584,0.665 -0.884,1.003 -0.36,-0.119 -0.747,-0.19 -1.149,-0.19 -2.071,0 -3.75,1.679 -3.75,3.75 0,0.544 0.124,1.056 0.336,1.518 -0.269,0.296 -0.545,0.597 -0.818,0.895 -0.891,-0.852 -1.447,-2.046 -1.447,-3.379 0.001,-2.603 2.111,-4.713 4.714,-4.713 z m -7.602,8.787 c 1.062,0 2.023,0.371 2.806,0.965 -0.33,0.355 -0.664,0.717 -0.999,1.076 -0.271,-0.066 -0.549,-0.11 -0.843,-0.11 -2.07,0 -3.748,1.678 -3.748,3.749 0,0.402 0.071,0.786 0.192,1.148 -0.306,0.338 -0.601,0.673 -0.899,1.01 -0.754,-0.828 -1.223,-1.913 -1.223,-3.122 0,-2.604 2.111,-4.716 4.714,-4.716 z m -7.553,9.16 c 0.855,0 1.64,0.249 2.326,0.651 -0.375,0.435 -0.748,0.865 -1.115,1.294 -0.082,-0.008 -0.163,-0.016 -0.247,-0.016 -2.07,0 -3.751,1.678 -3.751,3.75 0,0.332 0.062,0.644 0.145,0.948 -0.304,0.388 -0.604,0.771 -0.898,1.155 -0.726,-0.819 -1.173,-1.886 -1.173,-3.069 -0.001,-2.603 2.11,-4.713 4.713,-4.713 z m -8.161,9.383 c 1.12,-0.333 2.252,-0.214 3.235,0.23 -0.3,0.405 -0.599,0.809 -0.887,1.21 -0.291,0.012 -0.583,0.046 -0.874,0.133 -1.985,0.589 -3.115,2.678 -2.524,4.663 0.017,0.059 0.047,0.108 0.068,0.164 -0.312,0.502 -0.607,1 -0.899,1.499 -0.584,-0.54 -1.05,-1.217 -1.293,-2.038 -0.744,-2.494 0.679,-5.12 3.174,-5.861 z m -8.816,16.463 c -0.742,-2.495 0.68,-5.121 3.173,-5.863 0.783,-0.232 1.568,-0.23 2.308,-0.063 -0.285,0.547 -0.557,1.091 -0.815,1.633 -0.006,0.003 -0.011,0.003 -0.016,0.004 -1.985,0.591 -3.116,2.678 -2.524,4.663 0.084,0.287 0.208,0.552 0.352,0.797 -0.154,0.489 -0.299,0.976 -0.433,1.464 -0.949,-0.578 -1.703,-1.482 -2.045,-2.635 z m 1.043,7.984 c -1.098,0.93 -1.622,2.436 -1.184,3.905 0.221,0.741 0.664,1.334 1.219,1.786 0.04,0.352 0.077,0.703 0.127,1.055 -1.601,-0.359 -2.968,-1.527 -3.471,-3.215 -0.742,-2.495 0.68,-5.12 3.173,-5.863 0.16,-0.046 0.319,-0.075 0.478,-0.1 -0.145,0.811 -0.263,1.623 -0.342,2.432 z m 0.569,17.09 c -2.282,-1.255 -3.111,-4.123 -1.855,-6.403 0.443,-0.805 1.095,-1.412 1.843,-1.821 0.127,0.575 0.273,1.149 0.437,1.726 -0.039,0.062 -0.087,0.115 -0.125,0.181 -0.998,1.815 -0.338,4.094 1.475,5.092 0.271,0.15 0.555,0.251 0.841,0.325 0.245,0.458 0.511,0.893 0.784,1.321 -1.109,0.287 -2.315,0.177 -3.4,-0.421 z m 9.484,8.841 c -2.592,0.252 -4.898,-1.646 -5.147,-4.236 -0.081,-0.833 0.068,-1.627 0.388,-2.334 0.48,0.586 0.993,1.136 1.532,1.653 0.405,1.788 2.053,3.044 3.921,2.904 0.598,0.338 1.212,0.657 1.846,0.938 -0.696,0.587 -1.563,0.98 -2.54,1.075 z m 12.099,3.942 c -2.326,1.176 -5.162,0.246 -6.337,-2.077 -0.316,-0.627 -0.473,-1.291 -0.496,-1.947 0.646,0.195 1.303,0.367 1.972,0.512 1.019,1.618 3.107,2.236 4.849,1.357 0.363,-0.186 0.662,-0.434 0.935,-0.708 0.475,0.009 0.952,0.006 1.43,-0.007 -0.344,1.199 -1.149,2.261 -2.353,2.87 z m 12.283,-0.691 c -1.633,2.032 -4.599,2.355 -6.628,0.725 -0.964,-0.775 -1.525,-1.85 -1.683,-2.982 0.429,-0.03 0.86,-0.073 1.294,-0.121 0.219,0.367 0.492,0.708 0.845,0.995 1.615,1.298 3.973,1.038 5.271,-0.575 0.439,-0.545 0.672,-1.176 0.757,-1.82 0.334,-0.099 0.666,-0.208 1,-0.317 0.361,1.38 0.105,2.896 -0.856,4.095 z m 10.638,-5.591 c -0.932,2.433 -3.658,3.65 -6.088,2.722 -0.932,-0.355 -1.661,-0.987 -2.173,-1.754 0.523,-0.192 1.044,-0.389 1.561,-0.604 0.134,0.072 0.254,0.157 0.397,0.212 1.938,0.74 4.101,-0.23 4.842,-2.165 0.096,-0.249 0.156,-0.502 0.195,-0.756 0.442,-0.26 0.872,-0.54 1.304,-0.818 0.343,0.995 0.364,2.101 -0.038,3.163 z m 6.724,-6.358 c -0.991,1.452 -2.754,2.027 -4.36,1.596 1.66,-1.236 3.223,-2.606 4.675,-4.096 0.121,0.032 0.239,0.073 0.362,0.098 0.03,0.825 -0.175,1.665 -0.677,2.402 z m 3.939,-6.269 c -0.345,0.793 -0.972,1.374 -1.719,1.677 0.615,-0.738 1.192,-1.51 1.751,-2.297 -0.025,0.204 -0.037,0.411 -0.032,0.62 z m 1.661,0 c 0.009,-0.282 -0.01,-0.561 -0.06,-0.833 0.614,0.883 1.254,1.744 1.941,2.566 -0.819,-0.282 -1.512,-0.886 -1.881,-1.733 z m 3.939,6.269 c -0.501,-0.737 -0.707,-1.577 -0.675,-2.402 0.152,-0.032 0.303,-0.076 0.454,-0.123 1.45,1.491 3.013,2.864 4.672,4.103 -1.629,0.476 -3.441,-0.099 -4.451,-1.578 z m 12.811,9.08 c -2.431,0.928 -5.155,-0.289 -6.086,-2.722 -0.414,-1.085 -0.385,-2.217 -0.022,-3.227 0.421,0.273 0.842,0.548 1.273,0.804 0.035,0.28 0.103,0.559 0.208,0.833 0.74,1.934 2.905,2.904 4.84,2.165 0.163,-0.063 0.303,-0.156 0.45,-0.24 0.509,0.212 1.022,0.409 1.537,0.599 -0.513,0.784 -1.254,1.427 -2.2,1.788 z m 11.179,3.594 c -2.027,1.629 -4.996,1.307 -6.628,-0.725 -0.97,-1.208 -1.219,-2.74 -0.843,-4.129 0.326,0.107 0.655,0.215 0.984,0.312 0.08,0.658 0.314,1.302 0.762,1.859 1.297,1.612 3.655,1.873 5.27,0.575 0.359,-0.288 0.631,-0.634 0.852,-1.005 0.431,0.049 0.859,0.089 1.289,0.121 -0.157,1.136 -0.717,2.215 -1.686,2.992 z m 11.991,-2.11 c -1.174,2.322 -4.01,3.253 -6.335,2.077 -1.208,-0.61 -2.012,-1.674 -2.356,-2.876 0.482,0.015 0.958,0.021 1.436,0.015 0.27,0.273 0.57,0.521 0.932,0.706 1.73,0.873 3.801,0.271 4.828,-1.325 0.675,-0.142 1.337,-0.313 1.99,-0.505 -0.026,0.642 -0.183,1.292 -0.495,1.908 z m 10.912,-6.102 c -0.25,2.59 -2.555,4.489 -5.147,4.236 -0.96,-0.093 -1.813,-0.473 -2.503,-1.039 0.663,-0.29 1.301,-0.622 1.926,-0.976 1.774,0.079 3.334,-1.09 3.777,-2.775 0.561,-0.528 1.1,-1.081 1.601,-1.683 0.288,0.683 0.423,1.442 0.346,2.237 z m 6.19,-11.008 c 1.256,2.28 0.426,5.148 -1.855,6.403 -1.05,0.579 -2.217,0.697 -3.297,0.443 0.288,-0.446 0.563,-0.902 0.818,-1.381 0.238,-0.072 0.476,-0.161 0.705,-0.288 1.813,-0.999 2.473,-3.277 1.474,-5.092 -0.013,-0.021 -0.03,-0.039 -0.042,-0.062 0.172,-0.593 0.323,-1.187 0.456,-1.778 0.705,0.407 1.318,0.988 1.741,1.755 z m 2.023,-7.156 c -0.49,1.645 -1.802,2.795 -3.35,3.186 0.054,-0.377 0.094,-0.753 0.132,-1.129 0.494,-0.44 0.889,-0.999 1.092,-1.682 0.42,-1.413 -0.044,-2.861 -1.056,-3.798 -0.076,-0.837 -0.2,-1.676 -0.349,-2.516 0.118,0.024 0.238,0.041 0.356,0.076 2.496,0.743 3.917,3.368 3.175,5.863 z"
   id="path807" />
&#10;					<polygon
   points="142.023,125.278 142.023,125.26 142.017,125.269 "
   id="polygon807" />
&#10;					<polygon
   points="142.038,125.269 142.032,125.26 142.032,125.278 "
   id="polygon808" />
&#10;					<path
   d="m 103.827,178.669 c 0.002,-0.037 -0.047,-0.033 -0.056,-0.004 -0.954,2.499 -1.662,3.987 -0.777,6.699 0.804,2.459 2.711,5.358 5.558,5.266 0.512,-0.017 0.865,-0.525 0.644,-0.999 -0.893,-1.92 -2.542,-3.22 -3.628,-5.02 -0.894,-1.484 -1.788,-4.221 -1.741,-5.942 z"
   id="path808" />
&#10;					<path
   d="m 106.641,191.403 c -1.763,0.339 -3.368,1.539 -4.153,3.136 -0.789,1.609 1.545,2.342 2.177,0.818 0.569,-1.373 2.501,-1.763 3.761,-2.277 0.962,-0.39 2.231,-0.505 3.097,-1.018 0.031,-0.017 0.04,-0.079 -0.01,-0.072 -0.736,0.096 -1.726,-0.339 -2.438,-0.524 -0.829,-0.215 -1.596,-0.225 -2.434,-0.063 z"
   id="path809" />
&#10;					<path
   d="m 129.175,192.609 c -0.851,-0.437 -1.822,-0.148 -2.689,0.092 -0.439,0.121 -0.781,0.384 -1.147,0.644 -0.406,0.288 -0.575,0.766 -0.963,1.057 -0.051,0.037 -0.074,0.141 0.002,0.167 0.456,0.154 0.942,0.002 1.404,0.133 0.706,0.199 1.435,0.26 2.143,0.458 1.452,0.409 2.74,-1.78 1.25,-2.551 z"
   id="path810" />
&#10;					<path
   d="m 125.051,192.352 c 0.093,-0.023 0.164,-0.063 0.248,-0.106 0.165,-0.087 -0.213,0.119 0.183,-0.065 0.341,-0.16 0.645,-0.533 0.804,-0.857 0.188,-0.385 0.119,-0.926 -0.328,-1.093 -0.438,-0.165 -0.947,0.142 -1.129,0.545 -0.107,0.235 -0.152,0.441 -0.172,0.698 -0.01,0.111 0.004,0.113 0.024,0.083 0,0.001 0,0.001 0,0.002 -0.027,0.067 -0.14,0.639 -0.23,0.645 -0.113,0.007 -0.196,0.132 -0.111,0.226 0.188,0.212 0.506,-0.027 0.711,-0.078 z"
   id="path811" />
&#10;					<path
   d="m 131.98,192.748 c 0.468,-0.089 0.854,-0.501 0.961,-0.959 0.088,-0.383 -0.048,-0.943 -0.489,-1.055 -0.451,-0.116 -0.789,-0.032 -1.208,0.126 -0.2,0.073 -0.431,0.209 -0.559,0.388 -0.085,0.121 -0.147,0.261 -0.263,0.355 -0.078,0.064 -0.117,0.195 -0.032,0.269 0.52,0.446 0.767,1.031 1.59,0.876 z"
   id="path812" />
&#10;					<path
   d="m 103.113,190.914 c 0.372,-0.139 0.595,-0.675 0.377,-1.02 -0.538,-0.859 -1.46,-1.326 -2.032,-2.162 -0.653,-0.955 -1.003,-2.107 -1.241,-3.222 -0.013,-0.06 -0.086,-0.028 -0.106,0.006 -0.745,1.367 -1.038,2.833 -0.455,4.327 0.57,1.451 1.845,2.676 3.457,2.071 z"
   id="path813" />
&#10;					<path
   d="m 107.936,185.19 c 0.439,0.291 0.919,-0.208 0.835,-0.66 -0.131,-0.68 -0.368,-1.287 -0.681,-1.902 -0.217,-0.424 -0.412,-0.796 -0.459,-1.279 -0.039,-0.385 0.106,-0.874 0.137,-1.274 0.004,-0.046 -0.058,-0.031 -0.071,-0.003 -0.488,0.899 -0.929,1.573 -1.024,2.61 -0.095,1.008 0.445,1.966 1.263,2.508 z"
   id="path814" />
&#10;					<path
   d="m 175.496,190.63 c 2.848,0.092 4.755,-2.807 5.559,-5.266 0.884,-2.712 0.176,-4.2 -0.777,-6.699 -0.009,-0.029 -0.059,-0.033 -0.057,0.004 0.047,1.721 -0.846,4.458 -1.741,5.942 -1.086,1.8 -2.734,3.1 -3.628,5.02 -0.221,0.474 0.132,0.982 0.644,0.999 z"
   id="path815" />
&#10;					<path
   d="m 175.622,193.08 c 1.26,0.514 3.193,0.904 3.762,2.277 0.632,1.523 2.966,0.791 2.176,-0.818 -0.784,-1.597 -2.39,-2.797 -4.153,-3.136 -0.837,-0.162 -1.604,-0.151 -2.435,0.064 -0.711,0.185 -1.701,0.62 -2.437,0.524 -0.05,-0.007 -0.042,0.055 -0.01,0.072 0.865,0.512 2.135,0.627 3.097,1.017 z"
   id="path816" />
&#10;					<path
   d="m 158.71,193.346 c -0.366,-0.26 -0.707,-0.523 -1.147,-0.644 -0.866,-0.24 -1.838,-0.529 -2.688,-0.092 -1.489,0.77 -0.202,2.96 1.251,2.551 0.706,-0.198 1.437,-0.259 2.143,-0.458 0.462,-0.13 0.947,0.021 1.405,-0.133 0.075,-0.025 0.053,-0.129 0.001,-0.167 -0.389,-0.292 -0.559,-0.769 -0.965,-1.057 z"
   id="path817" />
&#10;					<path
   d="m 159.598,192.203 c -0.09,-0.006 -0.203,-0.578 -0.23,-0.645 0,-0.001 0,-0.001 0,-0.002 0.02,0.03 0.035,0.028 0.024,-0.083 -0.021,-0.257 -0.065,-0.463 -0.173,-0.698 -0.182,-0.403 -0.691,-0.71 -1.129,-0.545 -0.447,0.168 -0.516,0.708 -0.328,1.093 0.159,0.324 0.462,0.697 0.804,0.857 0.396,0.184 0.018,-0.022 0.183,0.065 0.084,0.043 0.154,0.083 0.248,0.106 0.205,0.052 0.522,0.291 0.711,0.077 0.086,-0.093 0.004,-0.218 -0.11,-0.225 z"
   id="path818" />
&#10;					<path
   d="m 153.363,191.249 c -0.127,-0.179 -0.359,-0.315 -0.559,-0.388 -0.419,-0.159 -0.757,-0.243 -1.208,-0.126 -0.439,0.112 -0.576,0.672 -0.488,1.055 0.107,0.458 0.492,0.87 0.961,0.959 0.824,0.156 1.071,-0.429 1.589,-0.875 0.085,-0.074 0.046,-0.205 -0.032,-0.269 -0.115,-0.095 -0.178,-0.235 -0.263,-0.356 z"
   id="path819" />
&#10;					<path
   d="m 180.559,189.894 c -0.218,0.345 0.005,0.881 0.377,1.02 1.612,0.605 2.888,-0.619 3.457,-2.071 0.582,-1.493 0.289,-2.96 -0.455,-4.327 -0.02,-0.034 -0.093,-0.065 -0.106,-0.006 -0.238,1.115 -0.588,2.267 -1.241,3.222 -0.573,0.836 -1.495,1.302 -2.032,2.162 z"
   id="path820" />
&#10;					<path
   d="m 176.113,185.19 c 0.817,-0.543 1.357,-1.5 1.263,-2.508 -0.095,-1.037 -0.536,-1.711 -1.024,-2.61 -0.013,-0.028 -0.075,-0.042 -0.07,0.003 0.03,0.4 0.176,0.89 0.137,1.274 -0.047,0.482 -0.241,0.855 -0.459,1.279 -0.313,0.615 -0.549,1.222 -0.681,1.902 -0.085,0.452 0.395,0.951 0.834,0.66 z"
   id="path821" />
&#10;					<path
   d="m 139.219,142.45 c 0.371,3.042 2.727,5.934 2.727,5.934 0,0 2.354,-2.893 2.726,-5.934 0.371,-3.041 -2.726,-6.9 -2.726,-6.9 0,0 -3.098,3.859 -2.727,6.9 z"
   id="path822" />
&#10;					<path
   d="m 141.946,159.834 c 0,0 -4.328,5.39 -3.809,9.637 0.516,4.248 3.809,8.291 3.809,8.291 0,0 3.29,-4.043 3.808,-8.291 0.519,-4.247 -3.808,-9.637 -3.808,-9.637 z"
   id="path823" />
&#10;					<path
   d="m 150.514,165.106 c 0.758,-2.178 -0.905,-5.513 -0.905,-5.513 0,0 -2.896,2.346 -3.109,4.643 -0.212,2.295 1.059,4.801 1.059,4.801 0,0 2.196,-1.752 2.955,-3.931 z"
   id="path824" />
&#10;					<path
   d="m 134.376,159.593 c 0,0 -1.663,3.335 -0.904,5.513 0.758,2.179 2.954,3.932 2.954,3.932 0,0 1.271,-2.506 1.061,-4.801 -0.215,-2.298 -3.111,-4.644 -3.111,-4.644 z"
   id="path825" />
&#10;				</g>
&#10;				<path
   d="m 172.141,226.132 h -0.005 c -12.663,0 -23.526,-5.719 -29.807,-15.689 -0.129,-0.201 -0.48,-0.202 -0.607,-0.001 -6.283,9.972 -17.147,15.69 -29.807,15.69 -14.751,0 -28.018,-7.99 -33.012,-19.883 -8.876,-21.118 2.804,-39.911 25.977,-65.234 22.354,-24.432 32.898,-39.947 36.393,-45.484 l 0.752,-1.192 0.753,1.193 c 3.491,5.532 14.024,21.037 36.391,45.483 23.173,25.323 34.852,44.115 25.98,65.234 -4.999,11.893 -18.263,19.883 -33.008,19.883 z m -30.116,-17.635 c 0.738,0 1.413,0.372 1.808,0.994 5.95,9.446 16.265,14.86 28.302,14.861 l 0.003,0.891 0.003,-0.891 c 14.036,0 26.642,-7.553 31.365,-18.793 8.502,-20.24 -2.966,-38.553 -25.651,-63.343 -21.044,-22.999 -31.679,-38.152 -35.83,-44.557 -4.156,6.409 -14.798,21.571 -35.832,44.557 -22.685,24.791 -34.153,43.104 -25.648,63.343 4.721,11.24 17.329,18.793 31.371,18.793 12.035,0 22.35,-5.416 28.3,-14.859 0.391,-0.622 1.067,-0.996 1.809,-0.996 z"
   id="path826" />
&#10;			</g>
&#10;			<path
   d="m 183.084,138.139 c -27.11,-29.844 -37.892,-47.247 -39.816,-50.502 -0.005,-0.011 -0.014,-0.021 -0.02,-0.032 -0.123,-0.263 -0.322,-0.494 -0.603,-0.633 -0.144,-0.072 -0.295,-0.11 -0.446,-0.128 -0.012,-10e-4 -0.024,-0.004 -0.036,-0.005 -0.04,-0.003 -0.08,-0.002 -0.121,-0.002 -0.014,0 -0.026,-0.006 -0.042,-0.006 -0.011,0 -0.021,0.004 -0.031,0.004 -0.116,0.003 -0.227,0.02 -0.341,0.052 -0.007,0.001 -0.012,0.003 -0.018,0.006 -0.068,0.021 -0.138,0.044 -0.207,0.078 -0.034,0.018 -0.059,0.044 -0.09,0.063 -0.02,0.013 -0.039,0.027 -0.058,0.04 -0.2,0.137 -0.353,0.315 -0.45,0.522 -0.001,0.002 -0.001,0.003 -0.003,0.004 l -0.006,0.01 c -1.883,3.188 -12.649,20.602 -39.835,50.528 -25.282,27.831 -37.991,48.567 -28.138,72.188 5.615,13.463 20.462,22.507 36.947,22.507 10.274,0 19.482,-3.416 26.465,-9.583 0.045,0.033 0.09,0.068 0.152,0.09 0.015,0.005 0.027,0.006 0.042,0.012 -5.865,43.6 -25.416,73.411 -25.416,73.411 h 62.035 c 0,0 -19.579,-29.855 -25.426,-73.507 0.041,-0.02 0.083,-0.039 0.122,-0.062 6.989,6.203 16.223,9.639 26.53,9.639 h 0.004 c 16.48,0 31.327,-9.044 36.943,-22.507 9.856,-23.62 -2.854,-44.356 -28.137,-72.187 z m -44.132,137.064 c 1.135,1.942 1.942,3.986 1.987,6.255 0,0.041 -0.075,0.079 -0.083,0.027 -0.716,-5.003 -6.755,-6.078 -7.664,-10.816 -0.578,-3.012 0.193,-5.501 2.14,-7.821 0.132,-0.159 0.315,0.002 0.208,0.169 -3.512,5.419 1.097,8.227 3.412,12.186 z m 1.538,-18.998 c -1.99,5.722 -2.497,10.253 -0.268,15.97 0.078,0.195 -0.215,0.383 -0.352,0.218 -2.703,-3.241 -4.676,-7.359 -3.361,-11.68 1.866,-6.127 4.889,-11.174 5.327,-17.718 0,-0.001 10e-4,-0.001 10e-4,-0.001 0,-0.004 0,-0.01 0,-0.015 0.003,-0.025 0.02,-0.026 0.035,-0.026 0.004,-0.002 0.004,-0.005 0.008,-0.007 0.001,0.001 0.001,0.004 0.004,0.007 0.016,-0.001 0.034,0.001 0.036,0.026 0,0.004 0,0.01 0.001,0.015 0,0 0.001,0 0.001,0.001 0.438,6.544 3.461,11.59 5.327,17.718 1.314,4.32 -0.659,8.439 -3.361,11.68 -0.139,0.165 -0.43,-0.023 -0.354,-0.218 2.231,-5.717 1.725,-10.248 -0.266,-15.97 -0.749,-2.155 -1.176,-4.193 -1.389,-6.249 -0.213,2.056 -0.64,4.094 -1.389,6.249 z m 7.425,6.813 c -0.108,-0.167 0.073,-0.328 0.206,-0.169 1.948,2.32 2.718,4.81 2.141,7.821 -0.91,4.737 -6.95,5.813 -7.666,10.816 -0.008,0.052 -0.082,0.014 -0.082,-0.027 0.044,-2.268 0.851,-4.313 1.986,-6.255 2.314,-3.96 6.923,-6.768 3.415,-12.186 z m 4.493,1.437 c 3.071,5.353 6.689,9.7 6.619,16.145 -0.053,4.767 -2.44,8.662 -6.592,10.815 -7.588,3.935 -14.912,-9.146 -6.422,-12.552 0.521,-0.209 1.117,-0.168 1.706,0.04 1.233,0.044 2.453,0.649 3.735,0.626 1.776,-0.03 3.133,-1.191 3.364,-2.942 0.17,-1.3 -0.494,-2.37 -1.77,-2.707 -0.583,-0.117 -1.088,0.011 -1.523,0.385 -0.249,0.42 -0.29,0.822 -0.12,1.211 0.136,-0.188 0.375,-0.071 0.469,0.093 0.013,0.023 0.025,0.046 0.038,0.067 0.074,0.13 0.038,0.271 -0.056,0.373 -1.013,1.126 -2.812,-1.156 -1.924,-2.27 1.294,-1.624 3.705,-1.088 4.827,0.45 1.174,1.608 0.027,4.083 -1.31,5.179 -0.544,0.445 -1.219,0.695 -1.913,0.819 0.874,0.575 1.609,1.427 2.125,2.35 1.337,2.388 -0.229,4.989 -2.658,5.64 -0.093,0.026 -0.177,-0.113 -0.08,-0.163 1.834,-0.941 1.333,-3.737 0.29,-5.044 -0.23,-0.29 -0.522,-0.543 -0.834,-0.784 -0.007,2.496 -3.073,4.813 -3.989,2.524 -0.247,-0.614 0.416,-0.953 0.835,-0.479 1.919,-0.944 -0.81,-6.945 -3.613,-2.975 -2.921,4.137 1.593,7.592 4.731,8.56 6.289,1.94 9.379,-4.418 9.528,-9.448 0.194,-6.662 -5.654,-13.545 -8.367,-19.364 -3.722,-7.983 -6.502,-16.874 -7.778,-25.803 -1.28,8.929 -4.059,17.819 -7.781,25.803 -2.714,5.819 -8.562,12.702 -8.365,19.364 0.146,5.03 3.236,11.389 9.526,9.448 3.138,-0.968 7.651,-4.423 4.731,-8.56 -2.802,-3.971 -5.534,2.03 -3.614,2.975 0.419,-0.474 1.081,-0.135 0.835,0.479 -0.917,2.288 -3.981,-0.028 -3.99,-2.524 -0.311,0.241 -0.604,0.494 -0.833,0.784 -1.044,1.307 -1.545,4.103 0.291,5.044 0.096,0.05 0.012,0.189 -0.08,0.163 -2.43,-0.65 -3.996,-3.252 -2.66,-5.64 0.518,-0.923 1.252,-1.774 2.126,-2.35 -0.695,-0.124 -1.368,-0.374 -1.912,-0.819 -1.337,-1.096 -2.483,-3.57 -1.309,-5.179 1.12,-1.538 3.532,-2.074 4.824,-0.45 0.889,1.113 -0.912,3.396 -1.923,2.27 -0.093,-0.102 -0.13,-0.243 -0.056,-0.373 0.013,-0.021 0.025,-0.044 0.038,-0.067 0.093,-0.164 0.332,-0.281 0.471,-0.093 0.168,-0.389 0.127,-0.791 -0.123,-1.211 -0.433,-0.374 -0.94,-0.502 -1.522,-0.385 -1.275,0.337 -1.939,1.407 -1.769,2.707 0.231,1.751 1.587,2.912 3.363,2.942 1.282,0.023 2.503,-0.582 3.735,-0.626 0.588,-0.208 1.184,-0.249 1.706,-0.04 8.489,3.406 1.167,16.486 -6.421,12.552 -4.154,-2.153 -6.538,-6.049 -6.592,-10.815 -0.072,-6.444 3.546,-10.791 6.619,-16.145 5.364,-9.35 8.54,-19.849 10.304,-30.508 0.042,-0.156 0.087,-0.31 0.132,-0.465 0,-0.001 -0.002,-0.004 -0.002,-0.004 0.074,-0.266 0.146,-0.531 0.225,-0.795 0.173,0.76 0.36,1.511 0.563,2.244 1.8,10.323 4.944,20.464 10.145,29.528 z m 54.966,-57.259 c -5.098,12.008 -18.663,20.075 -33.762,20.074 h -0.006 c -12.951,0 -24.058,-5.78 -30.472,-15.856 -0.24,-0.374 -0.66,-0.604 -1.109,-0.604 -0.45,0 -0.87,0.229 -1.108,0.604 -6.415,10.078 -17.523,15.856 -30.474,15.856 -15.1,0 -28.669,-8.067 -33.766,-20.074 -9.115,-21.467 3.025,-40.726 27.074,-66.738 23.609,-25.533 34.696,-41.732 38.275,-47.346 3.578,5.614 14.665,21.813 38.274,47.346 24.047,26.013 36.187,45.272 27.074,66.738 z"
   id="path827" />
&#10;		</g>
&#10;	</g>
  </g>
</svg>
