<?xml version="1.0" encoding="UTF-8" standalone="no"?>
<!-- Created with Inkscape (http://www.inkscape.org/) -->

<svg
   width="66.118057mm"
   height="92.561829mm"
   viewBox="0 0 66.118057 92.561829"
   version="1.1"
   id="svg1"
   xmlns:inkscape="http://www.inkscape.org/namespaces/inkscape"
   xmlns:sodipodi="http://sodipodi.sourceforge.net/DTD/sodipodi-0.dtd"
   xmlns="http://www.w3.org/2000/svg"
   xmlns:svg="http://www.w3.org/2000/svg">
  <sodipodi:namedview
     id="namedview1"
     pagecolor="#ffffff"
     bordercolor="#000000"
     borderopacity="0.25"
     inkscape:showpageshadow="2"
     inkscape:pageopacity="0.0"
     inkscape:pagecheckerboard="0"
     inkscape:deskcolor="#d1d1d1"
     inkscape:document-units="mm" />
  <defs
     id="defs1">
    <radialGradient
       id="SVGID_00000155129748069098990810000006755971314935088810_"
       cx="406.0098"
       cy="262.59421"
       r="505.87921"
       gradientUnits="userSpaceOnUse">&#10;					<stop
   offset="0.6156"
   style="stop-color:#FFFFFF"
   id="stop571" />
&#10;					<stop
   offset="0.7878"
   style="stop-color:#FDFDFD"
   id="stop572" />
&#10;					<stop
   offset="0.8537"
   style="stop-color:#F6F6F6"
   id="stop573" />
&#10;					<stop
   offset="0.9014"
   style="stop-color:#EAEAEA"
   id="stop574" />
&#10;					<stop
   offset="0.9403"
   style="stop-color:#D9D9D9"
   id="stop575" />
&#10;					<stop
   offset="0.9735"
   style="stop-color:#C3C3C3"
   id="stop576" />
&#10;					<stop
   offset="1"
   style="stop-color:#ABABAB"
   id="stop577" />
&#10;				</radialGradient>
    <radialGradient
       id="SVGID_00000064344281932918617280000004975553791696268961_"
       cx="411.0148"
       cy="704.69531"
       r="362.49481"
       gradientUnits="userSpaceOnUse">&#10;					<stop
   offset="0.6156"
   style="stop-color:#FFFFFF"
   id="stop589" />
&#10;					<stop
   offset="0.747"
   style="stop-color:#FDFDFD"
   id="stop590" />
&#10;					<stop
   offset="0.8206"
   style="stop-color:#F5F5F5"
   id="stop591" />
&#10;					<stop
   offset="0.8799"
   style="stop-color:#E7E7E7"
   id="stop592" />
&#10;					<stop
   offset="0.9316"
   style="stop-color:#D3D3D3"
   id="stop593" />
&#10;					<stop
   offset="0.9778"
   style="stop-color:#BABABA"
   id="stop594" />
&#10;					<stop
   offset="1"
   style="stop-color:#ABABAB"
   id="stop595" />
&#10;				</radialGradient>
    <radialGradient
       id="SVGID_00000086681036081069941360000006965012780605624976_"
       cx="274.2442"
       cy="381.702"
       r="402.49481"
       gradientUnits="userSpaceOnUse">&#10;					<stop
   offset="0.0988"
   style="stop-color:#FFFFFF"
   id="stop598" />
&#10;					<stop
   offset="1"
   style="stop-color:#ABABAB"
   id="stop599" />
&#10;				</radialGradient>
    <radialGradient
       id="SVGID_00000169557720053870201530000005813542176135017101_"
       cx="353.18921"
       cy="483.67389"
       r="342.81839"
       gradientUnits="userSpaceOnUse">&#10;				<stop
   offset="0"
   style="stop-color:#FFFFFF"
   id="stop612" />
&#10;				<stop
   offset="0.1413"
   style="stop-color:#FFFFFF"
   id="stop613" />
&#10;				<stop
   offset="1"
   style="stop-color:#FFFFFF"
   id="stop614" />
&#10;			</radialGradient>
    <radialGradient
       id="SVGID_00000102537267897307075470000012809228272511953799_"
       cx="1669.7371"
       cy="381.7005"
       r="402.6055"
       gradientTransform="matrix(-1,0,0,1,2215.418,0)"
       gradientUnits="userSpaceOnUse">&#10;					<stop
   offset="0.0988"
   style="stop-color:#FFFFFF"
   id="stop617" />
&#10;					<stop
   offset="1"
   style="stop-color:#ABABAB"
   id="stop618" />
&#10;				</radialGradient>
    <filter
       id="Adobe_OpacityMaskFilter_00000168807060089024323250000007878040119320093341_"
       filterUnits="userSpaceOnUse"
       x="284.93399"
       y="570.659"
       width="249.886"
       height="161.041">&#10;						<feFlood
   result="back"
   id="feFlood558" />
&#10;						<feBlend
   in="SourceGraphic"
   in2="back"
   mode="normal"
   id="feBlend558" />
&#10;					</filter>
    <filter
       id="Adobe_OpacityMaskFilter_00000041290357878564735020000013053793584322854789_"
       filterUnits="userSpaceOnUse"
       x="284.93399"
       y="570.659"
       width="249.886"
       height="161.041">&#10;								<feFlood
   result="back"
   id="feFlood559" />
&#10;								<feBlend
   in="SourceGraphic"
   in2="back"
   mode="normal"
   id="feBlend559" />
&#10;							</filter>
    <filter
       id="Adobe_OpacityMaskFilter_00000067925633318086986050000018126172488338015662_"
       filterUnits="userSpaceOnUse"
       x="284.93301"
       y="381.85999"
       width="249.88699"
       height="174.632">&#10;						<feFlood
   result="back"
   id="feFlood577" />
&#10;						<feBlend
   in="SourceGraphic"
   in2="back"
   mode="normal"
   id="feBlend577" />
&#10;					</filter>
    <filter
       id="Adobe_OpacityMaskFilter_00000056419594191304429390000011000614511436580787_"
       filterUnits="userSpaceOnUse"
       x="284.93301"
       y="381.85999"
       width="249.88699"
       height="174.632">&#10;								<feFlood
   result="back"
   id="feFlood578" />
&#10;								<feBlend
   in="SourceGraphic"
   in2="back"
   mode="normal"
   id="feBlend578" />
&#10;							</filter>
    <filter
       id="Adobe_OpacityMaskFilter_00000085237792451418647380000014572021201476287391_"
       filterUnits="userSpaceOnUse"
       x="289.53601"
       y="381.85901"
       width="245.285"
       height="349.84">&#10;						<feFlood
   result="back"
   id="feFlood595" />
&#10;						<feBlend
   in="SourceGraphic"
   in2="back"
   mode="normal"
   id="feBlend595" />
&#10;					</filter>
    <filter
       id="Adobe_OpacityMaskFilter_00000125593268130326343740000013594527420546631331_"
       filterUnits="userSpaceOnUse"
       x="289.53601"
       y="381.85901"
       width="245.285"
       height="349.84">&#10;								<feFlood
   result="back"
   id="feFlood596" />
&#10;								<feBlend
   in="SourceGraphic"
   in2="back"
   mode="normal"
   id="feBlend596" />
&#10;							</filter>
    <filter
       id="Adobe_OpacityMaskFilter_00000067945660782040825090000011919045928225744053_"
       filterUnits="userSpaceOnUse"
       x="284.93301"
       y="381.85999"
       width="245.286"
       height="349.84">&#10;					<feFlood
   result="back"
   id="feFlood599" />
&#10;					<feBlend
   in="SourceGraphic"
   in2="back"
   mode="normal"
   id="feBlend599" />
&#10;				</filter>
    <filter
       id="Adobe_OpacityMaskFilter_00000080197714819897741780000001387889280406283944_"
       filterUnits="userSpaceOnUse"
       x="284.93301"
       y="381.85999"
       width="245.286"
       height="349.84">&#10;							<feFlood
   result="back"
   id="feFlood600" />
&#10;							<feBlend
   in="SourceGraphic"
   in2="back"
   mode="normal"
   id="feBlend600" />
&#10;						</filter>
    <filter
       id="Adobe_OpacityMaskFilter_00000007386707478522987750000014187998523529040813_"
       filterUnits="userSpaceOnUse"
       x="284.92499"
       y="407.13901"
       width="0.50700003"
       height="301.65399">&#10;						<feFlood
   result="back"
   id="feFlood614" />
&#10;						<feBlend
   in="SourceGraphic"
   in2="back"
   mode="normal"
   id="feBlend614" />
&#10;					</filter>
    <filter
       id="Adobe_OpacityMaskFilter_00000044142141205733341640000001127987324171525534_"
       filterUnits="userSpaceOnUse"
       x="284.92499"
       y="407.13901"
       width="0.50700003"
       height="301.65399">&#10;								<feFlood
   result="back"
   id="feFlood615" />
&#10;								<feBlend
   in="SourceGraphic"
   in2="back"
   mode="normal"
   id="feBlend615" />
&#10;							</filter>
  </defs>
  <g
     inkscape:label="Layer 1"
     inkscape:groupmode="layer"
     id="layer1"
     transform="translate(-86.783335,-156.63334)">
    <g
       id="g646"
       transform="matrix(0.26458333,0,0,0.26458333,11.396927,55.599543)">&#10;		<g
   id="g619">&#10;			<g
   id="g595">&#10;				<path
   style="fill:#ffffff"
   d="m 525.148,381.86 h -110.566 -9.41 -110.567 c 0,0 -9.672,0.263 -9.672,13.065 l 0.001,87.263 v 149.183 87.266 c 0,12.801 9.671,13.063 9.671,13.063 h 110.566 9.41 110.566 c 0,0 9.671,-0.263 9.671,-13.063 V 631.371 482.189 394.926 c 10e-4,-12.803 -9.67,-13.066 -9.67,-13.066 z"
   id="path558" />
&#10;				<defs
   id="defs558" />
&#10;				&#10;					<mask
   maskUnits="userSpaceOnUse"
   x="284.934"
   y="570.659"
   width="249.886"
   height="161.041"
   id="mask570">&#10;					<g
   style="filter:url(#Adobe_OpacityMaskFilter_00000168807060089024323250000007878040119320093341_)"
   id="g570">&#10;						<defs
   id="defs559" />
&#10;						&#10;							<mask
   maskUnits="userSpaceOnUse"
   x="284.934"
   y="570.659"
   width="249.886"
   height="161.041"
   id="SVGID_00000177452256087931668090000013446793346639235498_">&#10;							<g
   style="filter:url(#Adobe_OpacityMaskFilter_00000041290357878564735020000013053793584322854789_)"
   id="g559">&#10;							</g>
&#10;						</mask>
&#10;						&#10;							<radialGradient
   id="SVGID_00000142163046155546660430000007166563607556472968_"
   cx="406.0098"
   cy="262.59421"
   r="505.87921"
   gradientUnits="userSpaceOnUse">&#10;							<stop
   offset="0.6156"
   style="stop-color:#000000"
   id="stop559" />
&#10;							<stop
   offset="0.7516"
   style="stop-color:#020202"
   id="stop560" />
&#10;							<stop
   offset="0.8037"
   style="stop-color:#090909"
   id="stop561" />
&#10;							<stop
   offset="0.8413"
   style="stop-color:#151515"
   id="stop562" />
&#10;							<stop
   offset="0.8721"
   style="stop-color:#262626"
   id="stop563" />
&#10;							<stop
   offset="0.8986"
   style="stop-color:#3C3C3C"
   id="stop564" />
&#10;							<stop
   offset="0.9222"
   style="stop-color:#585858"
   id="stop565" />
&#10;							<stop
   offset="0.9436"
   style="stop-color:#797979"
   id="stop566" />
&#10;							<stop
   offset="0.9634"
   style="stop-color:#9F9F9F"
   id="stop567" />
&#10;							<stop
   offset="0.9817"
   style="stop-color:#CBCBCB"
   id="stop568" />
&#10;							<stop
   offset="0.9982"
   style="stop-color:#F9F9F9"
   id="stop569" />
&#10;							<stop
   offset="1"
   style="stop-color:#FFFFFF"
   id="stop570" />
&#10;						</radialGradient>
&#10;						&#10;							<path
   style="fill:url(#SVGID_00000142163046155546660430000007166563607556472968_)"
   d="m 432.271,570.673 c -49.113,0.01 -98.224,0.03 -147.337,0.051 v 147.913 c 0,12.801 9.671,13.063 9.671,13.063 h 230.543 c 0,0 9.671,-0.263 9.671,-13.063 V 570.659 c -34.183,0.004 -68.366,0.006 -102.548,0.014 z"
   mask="url(#SVGID_00000177452256087931668090000013446793346639235498_)"
   id="path570" />
&#10;					</g>
&#10;				</mask>
&#10;				&#10;					<radialGradient
   id="radialGradient7"
   cx="406.0098"
   cy="262.59421"
   r="505.87921"
   gradientUnits="userSpaceOnUse">&#10;					<stop
   offset="0.6156"
   style="stop-color:#FFFFFF"
   id="stop1" />
&#10;					<stop
   offset="0.7878"
   style="stop-color:#FDFDFD"
   id="stop2" />
&#10;					<stop
   offset="0.8537"
   style="stop-color:#F6F6F6"
   id="stop3" />
&#10;					<stop
   offset="0.9014"
   style="stop-color:#EAEAEA"
   id="stop4" />
&#10;					<stop
   offset="0.9403"
   style="stop-color:#D9D9D9"
   id="stop5" />
&#10;					<stop
   offset="0.9735"
   style="stop-color:#C3C3C3"
   id="stop6" />
&#10;					<stop
   offset="1"
   style="stop-color:#ABABAB"
   id="stop7" />
&#10;				</radialGradient>
&#10;				<path
   style="fill:url(#SVGID_00000155129748069098990810000006755971314935088810_)"
   d="m 432.271,570.673 c -49.113,0.01 -98.224,0.03 -147.337,0.051 v 147.913 c 0,12.801 9.671,13.063 9.671,13.063 h 230.543 c 0,0 9.671,-0.263 9.671,-13.063 V 570.659 c -34.183,0.004 -68.366,0.006 -102.548,0.014 z"
   id="path577" />
&#10;				<defs
   id="defs577" />
&#10;				&#10;					<mask
   maskUnits="userSpaceOnUse"
   x="284.933"
   y="381.86"
   width="249.887"
   height="174.632"
   id="mask588">&#10;					<g
   style="filter:url(#Adobe_OpacityMaskFilter_00000067925633318086986050000018126172488338015662_)"
   id="g588">&#10;						<defs
   id="defs578" />
&#10;						&#10;							<mask
   maskUnits="userSpaceOnUse"
   x="284.933"
   y="381.86"
   width="249.887"
   height="174.632"
   id="SVGID_00000172438618960571422160000001901192075610819223_">&#10;							<g
   style="filter:url(#Adobe_OpacityMaskFilter_00000056419594191304429390000011000614511436580787_)"
   id="g578">&#10;							</g>
&#10;						</mask>
&#10;						&#10;							<radialGradient
   id="SVGID_00000105423777120950677410000002620670646647941515_"
   cx="411.0148"
   cy="704.69531"
   r="362.49481"
   gradientUnits="userSpaceOnUse">&#10;							<stop
   offset="0.6156"
   style="stop-color:#000000"
   id="stop578" />
&#10;							<stop
   offset="0.7096"
   style="stop-color:#020202"
   id="stop579" />
&#10;							<stop
   offset="0.7623"
   style="stop-color:#0A0A0A"
   id="stop580" />
&#10;							<stop
   offset="0.8047"
   style="stop-color:#181818"
   id="stop581" />
&#10;							<stop
   offset="0.8418"
   style="stop-color:#2C2C2C"
   id="stop582" />
&#10;							<stop
   offset="0.8752"
   style="stop-color:#464646"
   id="stop583" />
&#10;							<stop
   offset="0.9062"
   style="stop-color:#656565"
   id="stop584" />
&#10;							<stop
   offset="0.9352"
   style="stop-color:#8A8A8A"
   id="stop585" />
&#10;							<stop
   offset="0.9626"
   style="stop-color:#B6B6B6"
   id="stop586" />
&#10;							<stop
   offset="0.9879"
   style="stop-color:#E5E5E5"
   id="stop587" />
&#10;							<stop
   offset="1"
   style="stop-color:#FFFFFF"
   id="stop588" />
&#10;						</radialGradient>
&#10;						&#10;							<path
   style="fill:url(#SVGID_00000105423777120950677410000002620670646647941515_)"
   d="m 284.934,556.401 c 21.029,0.016 42.059,0.032 63.088,0.044 60.603,0.035 121.206,0.039 181.81,0.047 1.662,0 3.324,-10e-4 4.988,-10e-4 V 394.926 c 0,-12.803 -9.671,-13.065 -9.671,-13.065 H 294.605 c 0,0 -9.672,0.263 -9.672,13.065 l 0.001,87.263 z"
   mask="url(#SVGID_00000172438618960571422160000001901192075610819223_)"
   id="path588" />
&#10;					</g>
&#10;				</mask>
&#10;				&#10;					<radialGradient
   id="radialGradient14"
   cx="411.0148"
   cy="704.69531"
   r="362.49481"
   gradientUnits="userSpaceOnUse">&#10;					<stop
   offset="0.6156"
   style="stop-color:#FFFFFF"
   id="stop8" />
&#10;					<stop
   offset="0.747"
   style="stop-color:#FDFDFD"
   id="stop9" />
&#10;					<stop
   offset="0.8206"
   style="stop-color:#F5F5F5"
   id="stop10" />
&#10;					<stop
   offset="0.8799"
   style="stop-color:#E7E7E7"
   id="stop11" />
&#10;					<stop
   offset="0.9316"
   style="stop-color:#D3D3D3"
   id="stop12" />
&#10;					<stop
   offset="0.9778"
   style="stop-color:#BABABA"
   id="stop13" />
&#10;					<stop
   offset="1"
   style="stop-color:#ABABAB"
   id="stop14-1" />
&#10;				</radialGradient>
&#10;				<path
   style="fill:url(#SVGID_00000064344281932918617280000004975553791696268961_)"
   d="m 284.934,556.401 c 21.029,0.016 42.059,0.032 63.088,0.044 60.603,0.035 121.206,0.039 181.81,0.047 1.662,0 3.324,-10e-4 4.988,-10e-4 V 394.926 c 0,-12.803 -9.671,-13.065 -9.671,-13.065 H 294.605 c 0,0 -9.672,0.263 -9.672,13.065 l 0.001,87.263 z"
   id="path595" />
&#10;			</g>
&#10;			<g
   id="g599">&#10;				<defs
   id="defs595" />
&#10;				&#10;					<mask
   maskUnits="userSpaceOnUse"
   x="289.536"
   y="381.859"
   width="245.285"
   height="349.84"
   id="mask597">&#10;					<g
   style="filter:url(#Adobe_OpacityMaskFilter_00000085237792451418647380000014572021201476287391_)"
   id="g597">&#10;						<defs
   id="defs596" />
&#10;						&#10;							<mask
   maskUnits="userSpaceOnUse"
   x="289.536"
   y="381.859"
   width="245.285"
   height="349.84"
   id="SVGID_00000094597429095924578740000000545663215284426659_">&#10;							<g
   style="filter:url(#Adobe_OpacityMaskFilter_00000125593268130326343740000013594527420546631331_)"
   id="g596">&#10;							</g>
&#10;						</mask>
&#10;						&#10;							<radialGradient
   id="SVGID_00000115493743104773583090000006057153282122640034_"
   cx="274.2442"
   cy="381.702"
   r="402.49481"
   gradientUnits="userSpaceOnUse">&#10;							<stop
   offset="0.0988"
   style="stop-color:#000000"
   id="stop596" />
&#10;							<stop
   offset="1"
   style="stop-color:#FFFFFF"
   id="stop597" />
&#10;						</radialGradient>
&#10;						&#10;							<path
   style="fill:url(#SVGID_00000115493743104773583090000006057153282122640034_)"
   d="m 534.313,394.904 v 87.139 148.967 l 0.002,87.137 c 0,12.784 -9.683,13.047 -9.683,13.047 H 413.956 404.535 293.856 c 0,0 -2.086,-0.059 -4.32,-1.398 2.493,1.829 5.069,1.903 5.069,1.903 h 110.568 9.41 110.565 c 0,0 9.672,-0.263 9.672,-13.066 V 631.371 482.188 394.924 c 0,-12.801 -9.672,-13.064 -9.672,-13.064 h -0.516 c 0,-0.001 9.681,0.262 9.681,13.044 z"
   mask="url(#SVGID_00000094597429095924578740000000545663215284426659_)"
   id="path597" />
&#10;					</g>
&#10;				</mask>
&#10;				&#10;					<radialGradient
   id="radialGradient16"
   cx="274.2442"
   cy="381.702"
   r="402.49481"
   gradientUnits="userSpaceOnUse">&#10;					<stop
   offset="0.0988"
   style="stop-color:#FFFFFF"
   id="stop15-0" />
&#10;					<stop
   offset="1"
   style="stop-color:#ABABAB"
   id="stop16-6" />
&#10;				</radialGradient>
&#10;				<path
   style="fill:url(#SVGID_00000086681036081069941360000006965012780605624976_)"
   d="m 534.313,394.904 v 87.139 148.967 l 0.002,87.137 c 0,12.784 -9.683,13.047 -9.683,13.047 H 413.956 404.535 293.856 c 0,0 -2.086,-0.059 -4.32,-1.398 2.493,1.829 5.069,1.903 5.069,1.903 h 110.568 9.41 110.565 c 0,0 9.672,-0.263 9.672,-13.066 V 631.371 482.188 394.924 c 0,-12.801 -9.672,-13.064 -9.672,-13.064 h -0.516 c 0,-0.001 9.681,0.262 9.681,13.044 z"
   id="path599" />
&#10;			</g>
&#10;			<defs
   id="defs599" />
&#10;			&#10;				<mask
   maskUnits="userSpaceOnUse"
   x="284.933"
   y="381.86"
   width="245.286"
   height="349.84"
   id="mask611">&#10;				<g
   style="filter:url(#Adobe_OpacityMaskFilter_00000067945660782040825090000011919045928225744053_)"
   id="g611">&#10;					<defs
   id="defs600" />
&#10;					&#10;						<mask
   maskUnits="userSpaceOnUse"
   x="284.933"
   y="381.86"
   width="245.286"
   height="349.84"
   id="SVGID_00000047018840960913028830000003924717416637664149_">&#10;						<g
   style="filter:url(#Adobe_OpacityMaskFilter_00000080197714819897741780000001387889280406283944_)"
   id="g600">&#10;						</g>
&#10;					</mask>
&#10;					&#10;						<radialGradient
   id="SVGID_00000163046207199336128030000013390364053633846426_"
   cx="353.18921"
   cy="483.67389"
   r="342.81839"
   gradientUnits="userSpaceOnUse">&#10;						<stop
   offset="0"
   style="stop-color:#000000"
   id="stop600" />
&#10;						<stop
   offset="0.0074"
   style="stop-color:#090909"
   id="stop601" />
&#10;						<stop
   offset="0.0477"
   style="stop-color:#373737"
   id="stop602" />
&#10;						<stop
   offset="0.0931"
   style="stop-color:#626262"
   id="stop603" />
&#10;						<stop
   offset="0.1419"
   style="stop-color:#888888"
   id="stop604" />
&#10;						<stop
   offset="0.195"
   style="stop-color:#A8A8A8"
   id="stop605" />
&#10;						<stop
   offset="0.2537"
   style="stop-color:#C4C4C4"
   id="stop606" />
&#10;						<stop
   offset="0.32"
   style="stop-color:#DADADA"
   id="stop607" />
&#10;						<stop
   offset="0.3974"
   style="stop-color:#EBEBEB"
   id="stop608" />
&#10;						<stop
   offset="0.4931"
   style="stop-color:#F6F6F6"
   id="stop609" />
&#10;						<stop
   offset="0.6274"
   style="stop-color:#FDFDFD"
   id="stop610" />
&#10;						<stop
   offset="1"
   style="stop-color:#FFFFFF"
   id="stop611" />
&#10;					</radialGradient>
&#10;					&#10;						<path
   style="fill:url(#SVGID_00000163046207199336128030000013390364053633846426_)"
   d="M 285.44,718.654 V 631.517 482.55 395.413 c 0,-12.784 9.682,-13.047 9.682,-13.047 H 405.8 415.219 525.9 c 0,0 2.084,0.059 4.32,1.397 -2.494,-1.829 -5.071,-1.903 -5.071,-1.903 h -110.567 -9.41 -110.567 c 0,0 -9.672,0.263 -9.672,13.065 l 0.001,87.263 v 149.183 87.266 c 0,12.801 9.671,13.063 9.671,13.063 h 0.516 c 0,0 -9.681,-0.262 -9.681,-13.046 z"
   mask="url(#SVGID_00000047018840960913028830000003924717416637664149_)"
   id="path611" />
&#10;				</g>
&#10;			</mask>
&#10;			&#10;				<radialGradient
   id="radialGradient19"
   cx="353.18921"
   cy="483.67389"
   r="342.81839"
   gradientUnits="userSpaceOnUse">&#10;				<stop
   offset="0"
   style="stop-color:#FFFFFF"
   id="stop17-1" />
&#10;				<stop
   offset="0.1413"
   style="stop-color:#FFFFFF"
   id="stop18-5" />
&#10;				<stop
   offset="1"
   style="stop-color:#FFFFFF"
   id="stop19-9" />
&#10;			</radialGradient>
&#10;			<path
   style="fill:url(#SVGID_00000169557720053870201530000005813542176135017101_)"
   d="M 285.44,718.654 V 631.517 482.55 395.413 c 0,-12.784 9.682,-13.047 9.682,-13.047 H 405.8 415.219 525.9 c 0,0 2.084,0.059 4.32,1.397 -2.494,-1.829 -5.071,-1.903 -5.071,-1.903 h -110.567 -9.41 -110.567 c 0,0 -9.672,0.263 -9.672,13.065 l 0.001,87.263 v 149.183 87.266 c 0,12.801 9.671,13.063 9.671,13.063 h 0.516 c 0,0 -9.681,-0.262 -9.681,-13.046 z"
   id="path614" />
&#10;			<g
   id="g618">&#10;				<defs
   id="defs614" />
&#10;				&#10;					<mask
   maskUnits="userSpaceOnUse"
   x="284.925"
   y="407.139"
   width="0.507"
   height="301.654"
   id="mask616">&#10;					<g
   style="filter:url(#Adobe_OpacityMaskFilter_00000007386707478522987750000014187998523529040813_)"
   id="g616">&#10;						<defs
   id="defs615" />
&#10;						&#10;							<mask
   maskUnits="userSpaceOnUse"
   x="284.925"
   y="407.139"
   width="0.507"
   height="301.654"
   id="SVGID_00000065773469730932464390000004683558334995063992_">&#10;							<g
   style="filter:url(#Adobe_OpacityMaskFilter_00000044142141205733341640000001127987324171525534_)"
   id="g615">&#10;							</g>
&#10;						</mask>
&#10;						&#10;							<radialGradient
   id="SVGID_00000060027572384900756190000011273145253100659888_"
   cx="1669.7371"
   cy="381.7005"
   r="402.6055"
   gradientTransform="matrix(-1,0,0,1,2215.418,0)"
   gradientUnits="userSpaceOnUse">&#10;							<stop
   offset="0.0988"
   style="stop-color:#000000"
   id="stop615" />
&#10;							<stop
   offset="1"
   style="stop-color:#FFFFFF"
   id="stop616" />
&#10;						</radialGradient>
&#10;						&#10;							<path
   style="fill:url(#SVGID_00000060027572384900756190000011273145253100659888_)"
   d="m 284.925,407.139 v 301.654 c 0.169,-0.61 0.335,-1.223 0.506,-1.832 l 0.001,-75.951 V 412.607 c -0.172,-1.823 -0.341,-3.646 -0.507,-5.468 z"
   mask="url(#SVGID_00000065773469730932464390000004683558334995063992_)"
   id="path616" />
&#10;					</g>
&#10;				</mask>
&#10;				&#10;					<radialGradient
   id="radialGradient21"
   cx="1669.7371"
   cy="381.7005"
   r="402.6055"
   gradientTransform="matrix(-1,0,0,1,2215.418,0)"
   gradientUnits="userSpaceOnUse">&#10;					<stop
   offset="0.0988"
   style="stop-color:#FFFFFF"
   id="stop20-4" />
&#10;					<stop
   offset="1"
   style="stop-color:#ABABAB"
   id="stop21" />
&#10;				</radialGradient>
&#10;				<path
   style="fill:url(#SVGID_00000102537267897307075470000012809228272511953799_)"
   d="m 284.925,407.139 v 301.654 c 0.169,-0.61 0.335,-1.223 0.506,-1.832 l 0.001,-75.951 V 412.607 c -0.172,-1.823 -0.341,-3.646 -0.507,-5.468 z"
   id="path618" />
&#10;			</g>
&#10;		</g>
&#10;		<g
   id="g645">&#10;			<g
   id="g621">&#10;				<g
   id="g620">&#10;					<path
   d="m 305.726,449.036 c -0.544,6.501 -4.21,11.056 -4.21,11.056 h 4.21 4.21 c -10e-4,0 -3.666,-4.555 -4.21,-11.056 z"
   id="path619" />
&#10;					<path
   d="m 313.585,439.398 c -5.214,-3.604 -7.791,-7.372 -7.857,-7.47 v -0.005 l -0.003,0.002 v -0.002 0.005 c -0.068,0.098 -2.646,3.866 -7.859,7.47 -5.284,3.65 -6.486,8.205 -4.598,11.643 1.89,3.437 9.449,5.111 12.457,-1.715 3.008,6.826 10.568,5.151 12.458,1.715 1.89,-3.438 0.686,-7.992 -4.598,-11.643 z"
   id="path620" />
&#10;				</g>
&#10;				<path
   d="m 300.457,426.514 v -1.082 c 2.063,0 3.848,-0.457 5.358,-1.37 1.509,-0.913 2.725,-2.266 3.646,-4.054 0.919,-1.789 1.535,-4.135 1.844,-7.036 l -0.221,-0.089 c -1.238,0.884 -2.457,1.533 -3.656,1.943 -1.201,0.414 -2.501,0.62 -3.9,0.62 -1.664,0 -3.081,-0.364 -4.253,-1.095 -1.171,-0.728 -2.05,-1.752 -2.639,-3.07 -0.59,-1.317 -0.885,-2.861 -0.885,-4.628 0,-1.326 0.222,-2.58 0.664,-3.767 0.442,-1.184 1.097,-2.224 1.966,-3.114 0.869,-0.892 1.954,-1.599 3.259,-2.122 1.303,-0.521 2.824,-0.783 4.562,-0.783 3.093,0 5.449,1.068 7.069,3.203 1.619,2.137 2.43,5.207 2.43,9.211 0,3.668 -0.597,6.846 -1.79,9.533 -1.193,2.688 -2.864,4.78 -5.014,6.274 -2.151,1.495 -4.663,2.375 -7.535,2.64 z m 4.596,-13.388 c 0.559,0 1.093,-0.048 1.601,-0.144 0.509,-0.096 1.005,-0.234 1.492,-0.42 0.485,-0.184 0.961,-0.42 1.425,-0.707 0.464,-0.288 0.881,-0.592 1.248,-0.916 0.132,-0.117 0.249,-0.274 0.353,-0.465 0.104,-0.19 0.184,-0.441 0.243,-0.751 0.059,-0.309 0.089,-0.795 0.089,-1.458 0,-2.017 -0.203,-3.743 -0.608,-5.18 -0.404,-1.436 -1.024,-2.52 -1.856,-3.247 -0.832,-0.729 -1.859,-1.094 -3.081,-1.094 -1.104,0 -2.04,0.191 -2.806,0.573 -0.766,0.384 -1.388,0.91 -1.867,1.58 -0.477,0.671 -0.829,1.458 -1.048,2.363 -0.223,0.906 -0.332,1.89 -0.332,2.949 0,2.196 0.449,3.896 1.348,5.104 0.897,1.209 2.164,1.813 3.799,1.813 z"
   id="path621" />
&#10;			</g>
&#10;			<g
   id="g624">&#10;				<g
   id="g623">&#10;					<path
   d="m 515.132,663.913 c 0.544,-6.501 4.21,-11.056 4.21,-11.056 h -4.21 -4.21 c 0,0 3.665,4.555 4.21,11.056 z"
   id="path622" />
&#10;					<path
   d="m 507.272,673.551 c 5.214,3.604 7.791,7.373 7.857,7.471 v 0.004 l 0.003,-0.002 v 0.002 -0.004 c 0.068,-0.098 2.646,-3.867 7.859,-7.471 5.284,-3.65 6.486,-8.205 4.598,-11.643 -1.89,-3.435 -9.449,-5.111 -12.457,1.715 -3.008,-6.826 -10.568,-5.15 -12.458,-1.715 -1.89,3.438 -0.686,7.992 4.598,11.643 z"
   id="path623" />
&#10;				</g>
&#10;				<path
   d="m 520.401,686.436 v 1.082 c -2.063,0 -3.848,0.457 -5.358,1.37 -1.509,0.913 -2.725,2.266 -3.645,4.054 -0.919,1.789 -1.535,4.135 -1.844,7.036 l 0.221,0.089 c 1.238,-0.883 2.456,-1.533 3.656,-1.943 1.201,-0.414 2.501,-0.62 3.9,-0.62 1.664,0 3.081,0.365 4.253,1.095 1.171,0.728 2.05,1.752 2.639,3.07 0.59,1.318 0.885,2.861 0.885,4.629 0,1.325 -0.222,2.579 -0.664,3.766 -0.442,1.185 -1.097,2.224 -1.966,3.115 -0.869,0.891 -1.954,1.598 -3.259,2.121 -1.303,0.521 -2.824,0.783 -4.562,0.783 -3.093,0 -5.449,-1.068 -7.069,-3.203 -1.619,-2.137 -2.43,-5.207 -2.43,-9.211 0,-3.668 0.597,-6.846 1.789,-9.533 1.193,-2.688 2.864,-4.78 5.014,-6.274 2.151,-1.495 4.663,-2.375 7.535,-2.64 z m -4.596,13.387 c -0.559,0 -1.093,0.048 -1.601,0.144 -0.509,0.096 -1.005,0.234 -1.492,0.42 -0.485,0.184 -0.961,0.42 -1.425,0.707 -0.464,0.288 -0.881,0.592 -1.248,0.916 -0.132,0.117 -0.249,0.273 -0.353,0.465 -0.104,0.192 -0.184,0.441 -0.243,0.752 -0.059,0.308 -0.089,0.794 -0.089,1.457 0,2.018 0.203,3.743 0.608,5.18 0.404,1.438 1.024,2.52 1.856,3.247 0.832,0.729 1.859,1.095 3.081,1.095 1.104,0 2.04,-0.191 2.806,-0.574 0.766,-0.384 1.388,-0.91 1.867,-1.58 0.477,-0.67 0.829,-1.458 1.048,-2.363 0.223,-0.906 0.332,-1.889 0.332,-2.949 0,-2.195 -0.449,-3.896 -1.348,-5.103 -0.898,-1.21 -2.164,-1.814 -3.799,-1.814 z"
   id="path624" />
&#10;			</g>
&#10;			<g
   id="g644">&#10;				<g
   id="g633">&#10;					<g
   id="g626">&#10;						<path
   d="m 455.525,582.93 c 1.08,-12.904 8.356,-21.942 8.356,-21.942 h -8.356 -8.356 c 0,-0.001 7.275,9.037 8.356,21.942 z"
   id="path625" />
&#10;						<path
   d="m 439.925,602.056 c 10.349,7.151 15.464,14.632 15.597,14.825 v 0.011 l 0.003,-0.004 0.003,0.004 v -0.011 c 0.132,-0.193 5.247,-7.674 15.596,-14.825 10.488,-7.247 12.876,-16.284 9.124,-23.107 -3.751,-6.818 -18.752,-10.145 -24.723,3.404 -5.97,-13.549 -20.973,-10.223 -24.724,-3.404 -3.752,6.822 -1.364,15.86 9.124,23.107 z"
   id="path626" />
&#10;					</g>
&#10;					<g
   id="g628">&#10;						<path
   d="m 455.523,647.25 c -1.079,-12.903 -8.356,-21.941 -8.356,-21.941 h 8.356 8.356 c 0,0 -7.275,9.038 -8.356,21.941 z"
   id="path627" />
&#10;						<path
   d="m 471.124,666.376 c -10.35,7.151 -15.463,14.632 -15.597,14.827 v 0.01 l -0.003,-0.005 -0.003,0.005 v -0.01 c -0.133,-0.195 -5.248,-7.676 -15.597,-14.827 -10.488,-7.246 -12.875,-16.283 -9.123,-23.105 3.751,-6.819 18.752,-10.143 24.722,3.403 5.971,-13.547 20.973,-10.223 24.724,-3.403 3.752,6.822 1.364,15.859 -9.123,23.105 z"
   id="path628" />
&#10;					</g>
&#10;					<g
   id="g630">&#10;						<path
   d="m 455.523,466.309 c -1.079,12.903 -8.356,21.941 -8.356,21.941 h 8.356 8.356 c 0,0 -7.275,-9.038 -8.356,-21.941 z"
   id="path629" />
&#10;						<path
   d="m 471.124,447.183 c -10.349,-7.151 -15.463,-14.632 -15.597,-14.826 v -0.011 l -0.003,0.005 -0.003,-0.005 v 0.011 c -0.132,0.194 -5.247,7.675 -15.596,14.826 -10.488,7.246 -12.876,16.283 -9.124,23.105 3.751,6.819 18.752,10.145 24.722,-3.403 5.971,13.548 20.973,10.223 24.724,3.403 3.753,-6.822 1.364,-15.859 -9.123,-23.105 z"
   id="path630" />
&#10;					</g>
&#10;					<g
   id="g632">&#10;						<path
   d="m 455.523,530.63 c -1.079,12.903 -8.356,21.941 -8.356,21.941 h 8.356 8.356 c 0,0 -7.275,-9.038 -8.356,-21.941 z"
   id="path631" />
&#10;						<path
   d="m 471.124,511.504 c -10.349,-7.152 -15.463,-14.632 -15.597,-14.826 v -0.011 l -0.003,0.005 -0.003,-0.005 v 0.011 c -0.132,0.194 -5.247,7.674 -15.596,14.826 -10.488,7.246 -12.876,16.283 -9.124,23.105 3.751,6.819 18.752,10.145 24.722,-3.404 5.971,13.549 20.973,10.224 24.724,3.404 3.753,-6.822 1.364,-15.859 -9.123,-23.105 z"
   id="path632" />
&#10;					</g>
&#10;				</g>
&#10;				<g
   id="g641">&#10;					<g
   id="g634">&#10;						<path
   d="m 364.141,582.93 c 1.079,-12.904 8.355,-21.942 8.355,-21.942 h -8.355 -8.356 c -0.001,-0.001 7.275,9.037 8.356,21.942 z"
   id="path633" />
&#10;						<path
   d="m 348.541,602.056 c 10.349,7.151 15.463,14.632 15.597,14.825 v 0.011 l 0.003,-0.004 0.003,0.004 v -0.011 c 0.132,-0.193 5.247,-7.674 15.595,-14.825 10.488,-7.247 12.876,-16.284 9.124,-23.107 -3.751,-6.818 -18.752,-10.145 -24.722,3.404 -5.971,-13.549 -20.973,-10.223 -24.724,-3.404 -3.753,6.822 -1.364,15.86 9.124,23.107 z"
   id="path634" />
&#10;					</g>
&#10;					<g
   id="g636">&#10;						<path
   d="m 364.139,647.25 c -1.079,-12.903 -8.355,-21.941 -8.355,-21.941 h 8.355 8.357 c -10e-4,0 -7.276,9.038 -8.357,21.941 z"
   id="path635" />
&#10;						<path
   d="m 379.739,666.376 c -10.349,7.151 -15.463,14.632 -15.597,14.827 v 0.01 l -0.003,-0.005 -0.003,0.005 v -0.01 c -0.132,-0.195 -5.247,-7.676 -15.595,-14.827 -10.488,-7.246 -12.876,-16.283 -9.124,-23.105 3.751,-6.819 18.752,-10.143 24.722,3.403 5.971,-13.547 20.973,-10.223 24.724,-3.403 3.752,6.822 1.364,15.859 -9.124,23.105 z"
   id="path636" />
&#10;					</g>
&#10;					<g
   id="g638">&#10;						<path
   d="m 364.139,466.309 c -1.079,12.903 -8.355,21.941 -8.355,21.941 h 8.355 8.357 c -10e-4,0 -7.276,-9.038 -8.357,-21.941 z"
   id="path637" />
&#10;						<path
   d="m 379.739,447.183 c -10.349,-7.151 -15.463,-14.632 -15.597,-14.826 v -0.011 l -0.003,0.005 -0.003,-0.005 v 0.011 c -0.132,0.194 -5.247,7.675 -15.595,14.826 -10.488,7.246 -12.876,16.283 -9.124,23.105 3.751,6.819 18.752,10.145 24.722,-3.403 5.971,13.548 20.973,10.223 24.724,3.403 3.752,-6.822 1.364,-15.859 -9.124,-23.105 z"
   id="path638" />
&#10;					</g>
&#10;					<g
   id="g640">&#10;						<path
   d="m 364.139,530.63 c -1.079,12.903 -8.355,21.941 -8.355,21.941 h 8.355 8.357 c -10e-4,0 -7.276,-9.038 -8.357,-21.941 z"
   id="path639" />
&#10;						<path
   d="m 379.739,511.504 c -10.349,-7.152 -15.463,-14.632 -15.597,-14.826 v -0.011 l -0.003,0.005 -0.003,-0.005 v 0.011 c -0.132,0.194 -5.247,7.674 -15.595,14.826 -10.488,7.246 -12.876,16.283 -9.124,23.105 3.751,6.819 18.752,10.145 24.722,-3.404 5.971,13.549 20.973,10.224 24.724,3.404 3.752,-6.822 1.364,-15.859 -9.124,-23.105 z"
   id="path640" />
&#10;					</g>
&#10;				</g>
&#10;				<g
   id="g643">&#10;					<g
   id="g642">&#10;						<path
   d="m 409.831,562.79 c -1.079,12.903 -8.356,21.941 -8.356,21.941 h 8.356 8.356 c 0,0 -7.275,-9.038 -8.356,-21.941 z"
   id="path641" />
&#10;						<path
   d="m 425.431,543.665 c -10.349,-7.152 -15.463,-14.632 -15.597,-14.828 v -0.01 l -0.003,0.006 -0.003,-0.006 v 0.01 c -0.132,0.196 -5.247,7.676 -15.595,14.828 -10.488,7.245 -12.876,16.283 -9.124,23.104 3.751,6.82 18.752,10.145 24.722,-3.404 5.971,13.549 20.973,10.225 24.724,3.404 3.753,-6.821 1.364,-15.859 -9.124,-23.104 z"
   id="path642" />
&#10;					</g>
&#10;				</g>
&#10;			</g>
&#10;		</g>
&#10;	</g>
  </g>
</svg>
